<svg width="2000" height="2000" viewBox="0 0 2000 2000" fill="none" xmlns="http://www.w3.org/2000/svg">
<g clip-path="url(#clip0_392_29)">
<path d="M1038.38 1430.77C842.724 1332.41 925.368 1581.06 712.147 1653.11C581.672 1697.19 407.81 1669.56 316.579 1556.09C155.257 1355.45 -166 1002 239.209 553.826C401.613 374.202 440.995 152.251 742.692 62.3086C1106 -46 1514.79 178.791 1657.1 490.517C1824.19 856.524 1834.17 1060.24 1761.03 1229.09C1657.51 1468.09 1238.12 1531.19 1038.38 1430.77Z" fill="url(#paint0_linear_392_29)"/>
<circle cx="128.761" cy="128.761" r="128.761" transform="matrix(0.505608 0.862763 0.862763 -0.505608 1460 1578.21)" fill="url(#paint1_linear_392_29)"/>
<circle cx="1000" cy="1000" r="700" fill="#FBDD11"/>
<circle cx="1000" cy="1000" r="624" fill="#4E4E4E"/>
<g style="mix-blend-mode:multiply" opacity="0.3">
<path d="M1565 1415C1410 1625 1182 1700 1005 1700C504.5 1707.5 108.001 1160 397 646C415.999 672 500.002 1204 821.001 1386C1192 1582 1565 1415 1565 1415Z" fill="#3C4F9A"/>
</g>
<path d="M1248.27 1293.65C894.927 1338.21 732.221 1026.48 761.065 996.079C780.108 975.984 809.765 974.817 835.41 974.107C953.53 970.91 1120.81 1109.09 1154.68 1108.43C1220.39 1107.06 1319.16 1002.47 1383.91 916.257C1411.03 880.177 1580.34 825.828 1561.55 920.621C1500.71 1227.94 1293.32 1287.97 1248.27 1293.65ZM751.823 705.359C1105.17 660.754 1267.87 972.483 1238.98 1002.93C1219.93 1023.03 1190.33 1024.19 1164.63 1024.9C1046.51 1028.1 879.286 889.869 845.364 890.58C779.702 891.95 680.88 996.536 616.081 1082.75C589.014 1118.83 419.706 1173.18 438.444 1078.44C499.332 771.074 706.779 711.042 751.823 705.359Z" fill="#FBDD11"/>
<path d="M973.273 1945.54C785.651 1919.72 594.882 1810.37 597.48 1769.27C599.784 1732.81 946.146 1803.1 1063.75 1787.69C1181.35 1772.29 1427.83 1627.9 1452.81 1761.74C1473.63 1873.27 1200.78 1976.86 973.273 1945.54Z" fill="url(#paint2_linear_392_29)"/>
</g>
<defs>
<linearGradient id="paint0_linear_392_29" x1="1082.34" y1="270.917" x2="506.171" y2="556.28" gradientUnits="userSpaceOnUse">
<stop stop-color="#E7AB59"/>
<stop offset="1" stop-color="#F36B43"/>
</linearGradient>
<linearGradient id="paint1_linear_392_29" x1="128.761" y1="0" x2="128.761" y2="257.522" gradientUnits="userSpaceOnUse">
<stop stop-color="#F36F45"/>
<stop offset="1" stop-color="#E8AC5A"/>
</linearGradient>
<linearGradient id="paint2_linear_392_29" x1="1268.36" y1="1811.31" x2="1015.72" y2="1821.29" gradientUnits="userSpaceOnUse">
<stop stop-color="#F36F45"/>
<stop offset="1" stop-color="#E8AC5A"/>
</linearGradient>
<clipPath id="clip0_392_29">
<rect width="2000" height="2000" fill="white"/>
</clipPath>
</defs>
</svg>
