<svg width="2000" height="2000" viewBox="0 0 2000 2000" fill="none" xmlns="http://www.w3.org/2000/svg">
<g clip-path="url(#clip0_1228_22768)">
<path d="M1548 1054C1399.64 1215.07 1740.75 1253.1 1839.9 1440.91C1904.19 1562.71 1865.48 1694.31 1731.3 1750.82C1494.04 1850.77 561.223 2062 561.223 1564.01C561.223 1240.75 -86.388 1054 228 526C347.086 326 477.16 217.123 815.999 166C1213.84 105.974 1632.72 415.266 1595.1 595.379C1540.24 858.038 1699.47 889.559 1548 1054Z" fill="url(#paint0_linear_1228_22768)"/>
<circle cx="161.064" cy="161.064" r="161.064" transform="matrix(-0.999981 -0.00616025 -0.00616025 0.999981 510.105 1414.98)" fill="url(#paint1_linear_1228_22768)"/>
<circle cx="81.9448" cy="81.9448" r="81.9448" transform="matrix(-0.999981 -0.00616025 -0.00616025 0.999981 352.895 1223.01)" fill="url(#paint2_linear_1228_22768)"/>
<circle cx="79.7399" cy="79.7399" r="79.7399" transform="matrix(-0.999981 -0.00616025 -0.00616025 0.999981 1714.46 275.982)" fill="url(#paint3_linear_1228_22768)"/>
<circle cx="1052" cy="1035.05" r="700" fill="#0198DA"/>
<circle cx="1052" cy="1035.05" r="624" fill="#00ABE7"/>
<circle cx="1052" cy="1035.05" r="619" stroke="white" stroke-opacity="0.5" stroke-width="10"/>
<path fill-rule="evenodd" clip-rule="evenodd" d="M868.061 900.074C920.662 869.626 973.732 839.177 1026.33 808.728C1034.06 804.116 1042.89 801.681 1051.89 801.681C1060.89 801.681 1069.72 804.116 1077.45 808.728L1155.72 853.423C1156.72 854.049 1157.55 854.92 1158.12 855.954C1158.7 856.988 1159 858.15 1159 859.333C1159 860.515 1158.7 861.678 1158.12 862.712C1157.55 863.746 1156.72 864.616 1155.72 865.242L964.417 975.296C962.005 976.688 960.008 978.699 958.632 981.121C957.256 983.542 956.551 986.287 956.59 989.072V1081.44C956.557 1084.15 957.27 1086.81 958.65 1089.15C960.031 1091.48 962.026 1093.39 964.417 1094.66L1044.49 1140.85C1046.77 1142.3 1049.42 1143.08 1052.12 1143.08C1054.83 1143.08 1057.48 1142.3 1059.76 1140.85L1389.92 950.718C1445.96 918.312 1445.96 824.931 1389.92 792.526L1093.1 621.496C1080.73 614.009 1066.54 610.051 1052.08 610.051C1037.62 610.051 1023.44 614.009 1011.07 621.496L714.252 792.526C701.651 799.643 691.182 810 683.929 822.524C676.676 835.048 672.903 849.283 673.002 863.755C673.002 977.957 673.472 1092.24 673.002 1206.21C672.906 1220.69 676.679 1234.93 683.93 1247.47C691.182 1260 701.65 1270.38 714.252 1277.51L1011.07 1449.01C1023.53 1456.24 1037.68 1460.05 1052.08 1460.05C1066.49 1460.05 1080.64 1456.24 1093.1 1449.01L1389.92 1277.51C1402.51 1270.41 1412.96 1260.03 1420.14 1247.48C1427.32 1234.93 1430.96 1220.66 1430.7 1206.21V1057.48L1077.45 1261.78C1069.7 1266.35 1060.88 1268.76 1051.89 1268.76C1042.9 1268.76 1034.07 1266.35 1026.33 1261.78L868.688 1170.36C860.829 1165.98 854.3 1159.56 849.794 1151.77C845.288 1143.99 842.972 1135.13 843.092 1126.13V943.83C843.058 934.98 845.356 926.277 849.752 918.596C854.149 910.915 860.491 904.527 868.14 900.074H868.061Z" fill="url(#paint4_linear_1228_22768)"/>
<path fill-rule="evenodd" clip-rule="evenodd" d="M868.061 900.074C920.662 869.626 973.732 839.177 1026.33 808.728C1034.06 804.116 1042.89 801.681 1051.89 801.681C1060.89 801.681 1069.72 804.116 1077.45 808.728L1155.72 853.423C1156.72 854.049 1157.55 854.92 1158.12 855.954C1158.7 856.988 1159 858.15 1159 859.333C1159 860.515 1158.7 861.678 1158.12 862.712C1157.55 863.746 1156.72 864.616 1155.72 865.242L964.417 975.296C962.005 976.688 960.008 978.699 958.632 981.121C957.256 983.542 956.551 986.287 956.59 989.072V1081.44C956.557 1084.15 957.27 1086.81 958.65 1089.15C960.031 1091.48 962.026 1093.39 964.417 1094.66L1044.49 1140.85C1046.77 1142.3 1049.42 1143.08 1052.12 1143.08C1054.83 1143.08 1057.48 1142.3 1059.76 1140.85L1389.92 950.718C1445.96 918.312 1445.96 824.931 1389.92 792.526L1093.1 621.496C1080.73 614.009 1066.54 610.051 1052.08 610.051C1037.62 610.051 1023.44 614.009 1011.07 621.496L714.252 792.526C701.651 799.643 691.182 810 683.929 822.524C676.676 835.048 672.903 849.283 673.002 863.755C673.002 977.957 673.472 1092.24 673.002 1206.21C672.906 1220.69 676.679 1234.93 683.93 1247.47C691.182 1260 701.65 1270.38 714.252 1277.51L1011.07 1449.01C1023.53 1456.24 1037.68 1460.05 1052.08 1460.05C1066.49 1460.05 1080.64 1456.24 1093.1 1449.01L1389.92 1277.51C1402.51 1270.41 1412.96 1260.03 1420.14 1247.48C1427.32 1234.93 1430.96 1220.66 1430.7 1206.21V1057.48L1077.45 1261.78C1069.7 1266.35 1060.88 1268.76 1051.89 1268.76C1042.9 1268.76 1034.07 1266.35 1026.33 1261.78L868.688 1170.36C860.829 1165.98 854.3 1159.56 849.794 1151.77C845.288 1143.99 842.972 1135.13 843.092 1126.13V943.83C843.058 934.98 845.356 926.277 849.752 918.596C854.149 910.915 860.491 904.527 868.14 900.074H868.061Z" fill="white"/>
<path d="M1956 825.999C1956 1086 1811.02 1375.39 1784 1310C1774.03 1285.87 1824 958 1784 789.999C1744 621.999 1615.51 517.414 1708 440.885C1784 378 1956 582.69 1956 825.999Z" fill="url(#paint5_linear_1228_22768)"/>
</g>
<defs>
<linearGradient id="paint0_linear_1228_22768" x1="513.631" y1="679.708" x2="629.589" y2="1312.13" gradientUnits="userSpaceOnUse">
<stop stop-color="#E7AB59"/>
<stop offset="1" stop-color="#F36B43"/>
</linearGradient>
<linearGradient id="paint1_linear_1228_22768" x1="161.064" y1="0" x2="161.064" y2="322.128" gradientUnits="userSpaceOnUse">
<stop stop-color="#F36F45"/>
<stop offset="1" stop-color="#E8AC5A"/>
</linearGradient>
<linearGradient id="paint2_linear_1228_22768" x1="81.9448" y1="0" x2="81.9448" y2="163.89" gradientUnits="userSpaceOnUse">
<stop stop-color="#F36F45"/>
<stop offset="1" stop-color="#E8AC5A"/>
</linearGradient>
<linearGradient id="paint3_linear_1228_22768" x1="79.7399" y1="0" x2="79.7399" y2="159.48" gradientUnits="userSpaceOnUse">
<stop stop-color="#F36F45"/>
<stop offset="1" stop-color="#E8AC5A"/>
</linearGradient>
<linearGradient id="paint4_linear_1228_22768" x1="869.157" y1="493.988" x2="1203.62" y2="1485.33" gradientUnits="userSpaceOnUse">
<stop stop-color="#273498"/>
<stop offset="0.53" stop-color="#0074C2"/>
<stop offset="1" stop-color="#00ABE7"/>
</linearGradient>
<linearGradient id="paint5_linear_1228_22768" x1="1872" y1="658" x2="1892" y2="1258" gradientUnits="userSpaceOnUse">
<stop stop-color="#E8AC5A"/>
<stop offset="1" stop-color="#F36F45"/>
</linearGradient>
<clipPath id="clip0_1228_22768">
<rect width="2000" height="2000" fill="white"/>
</clipPath>
</defs>
</svg>
