<svg width="2000" height="2000" viewBox="0 0 2000 2000" fill="none" xmlns="http://www.w3.org/2000/svg">
<g clip-path="url(#clip0_392_731)">
<circle cx="1730" cy="532" r="114" fill="#FFF297"/>
<circle cx="1571" cy="354" r="61" fill="#FFF297"/>
<path d="M1615.25 671.94L1614.82 670.937C1428.07 480.197 1537.72 130 958.003 130C770 130 598 226 466 438C357.544 612.186 146.002 642 109.357 904.184C54.0693 1299.74 268.986 1539.64 427.647 1611.88C783.146 1773.76 851.278 1588.25 1221.97 1649.79C1466.65 1690.4 1553.15 1510.77 1588.63 1472.75C1842.55 1200.74 1700.41 870.063 1615.25 671.94Z" fill="#FFF297"/>
<path d="M1577.42 1270.35C1905.16 1181.95 1882.81 355.117 1559.47 391.787C1236.12 428.457 1449.06 559.501 1075.77 732.405C702.471 905.311 978.755 1351.53 1220.57 1212.06C1462.39 1072.6 1367.01 1333.88 1577.42 1270.35Z" stroke="#83770E" stroke-width="10" stroke-dasharray="50 50"/>
<path d="M613.659 1714.9C943.64 1794.49 1320.53 1058.21 1019.21 935.33C717.886 812.451 841.901 1029.56 431.415 1002.27C20.925 974.991 49.3877 1499.05 328.469 1492.63C607.549 1486.21 398.551 1669.74 613.659 1714.9Z" stroke="#83770E" stroke-width="10" stroke-dasharray="50 50"/>
<ellipse cx="1022" cy="1680.5" rx="687" ry="52.5" fill="#83770E"/>
<circle cx="1000" cy="1000" r="700" fill="#FBDD11"/>
<circle cx="1000" cy="1000" r="624" fill="#4E4E4E"/>
<g style="mix-blend-mode:multiply" opacity="0.3">
<path d="M1565 1415C1410 1625 1182 1700 1005 1700C504.5 1707.5 108.001 1160 397 646C415.999 672 500.002 1204 821.001 1386C1192 1582 1565 1415 1565 1415Z" fill="#3C4F9A"/>
</g>
<path d="M1248.27 1293.65C894.927 1338.21 732.221 1026.48 761.065 996.079C780.108 975.984 809.765 974.817 835.41 974.107C953.53 970.91 1120.81 1109.09 1154.68 1108.43C1220.39 1107.06 1319.16 1002.47 1383.91 916.257C1411.03 880.177 1580.34 825.828 1561.55 920.621C1500.71 1227.94 1293.32 1287.97 1248.27 1293.65ZM751.823 705.359C1105.17 660.754 1267.87 972.483 1238.98 1002.93C1219.93 1023.03 1190.33 1024.19 1164.63 1024.9C1046.51 1028.1 879.286 889.869 845.364 890.58C779.702 891.95 680.88 996.536 616.081 1082.75C589.014 1118.83 419.706 1173.18 438.444 1078.44C499.332 771.074 706.779 711.042 751.823 705.359Z" fill="#FBDD11"/>
<path d="M1449 1704.64L1451.5 1512.64L1526.5 1538.64L1500 1655.64L1562.5 1699.64C1565.67 1704.47 1569 1715.64 1557 1721.64C1545 1727.64 1480 1712.8 1449 1704.64Z" fill="#D9D9D9" stroke="white" stroke-width="15"/>
<path d="M1450 1623.14L1464 1627.64L1478.5 1684.64L1449 1654.14L1450 1623.14Z" fill="#323232" stroke="white" stroke-width="15"/>
<path d="M1691 1713.14L1638 1551.64L1709.5 1521.14L1736.5 1707.14L1691 1713.14Z" fill="#D9D9D9" stroke="white" stroke-width="15"/>
<path d="M1531.5 1023.64C1505.1 1008.44 1535.83 939.636 1554.5 907.136L1738.5 913.136L1755.5 993.136C1761.33 1006.64 1768.4 1036.74 1750 1049.14C1731.6 1061.54 1697 1051.64 1682 1045.14C1677.67 1047.47 1663.8 1052.74 1643 1055.14C1622.2 1057.54 1604 1046.14 1597.5 1040.14C1586.5 1040.97 1557.9 1038.84 1531.5 1023.64Z" fill="#B49E0E" stroke="white" stroke-width="15"/>
<path d="M1819 844.136C1820.2 826.136 1797.33 817.136 1787 819.136L1739.5 823.636C1734.83 856.469 1723.9 926.936 1717.5 946.136C1709.5 970.136 1736 996.136 1763.5 1002.64C1785.5 1007.84 1769.67 985.803 1759 974.136C1775.17 981.803 1810.3 992.536 1821.5 974.136C1832.7 955.736 1803.17 940.47 1787 935.136C1796.67 937.136 1817.1 935.736 1821.5 914.136C1825.9 892.536 1808.67 877.47 1799.5 872.636C1805.5 870.636 1817.8 862.136 1819 844.136Z" fill="#FBDD11" stroke="white" stroke-width="15"/>
<path d="M1416 888.636C1429 863.136 1456.5 866.636 1466.5 868.636C1466.5 865.136 1471.3 857.836 1490.5 856.636C1509.7 855.436 1524.83 873.803 1530 883.136C1544.33 891.636 1573.4 917.036 1575 950.636C1576.6 984.236 1559.33 983.303 1550.5 978.636C1558.17 996.136 1564.8 1032.54 1530 1038.14C1495.2 1043.74 1478.17 1020.8 1474 1008.64C1471.5 1010.14 1463.1 1010.84 1449.5 1001.64C1435.9 992.436 1443.83 974.136 1449.5 966.136C1434 948.803 1405.6 909.036 1416 888.636Z" fill="#DDC520" stroke="white" stroke-width="15"/>
<path d="M1746 1061.64C1730.5 1001.64 1709 1002.14 1704.5 1002.64L1693 1085.14C1702.33 1138.47 1726 1244.84 1746 1243.64C1771 1242.14 1761.5 1121.64 1746 1061.64Z" fill="#B1B1B1" stroke="white" stroke-width="15"/>
<path d="M1550 1182.64L1520 1239.64C1536.17 1245.8 1574.8 1259.84 1600 1266.64C1625.2 1273.44 1669.83 1263.8 1689 1258.14L1680 1190.64L1700 1145.14C1710.17 1140.97 1731.2 1128.44 1734 1111.64C1736.8 1094.84 1716.17 1063.3 1705.5 1049.64L1708 1002.64C1691 997.636 1651.3 987.336 1628.5 986.136C1605.7 984.936 1560.67 998.303 1541 1005.14L1550 1182.64Z" fill="#D9D9D9" stroke="white" stroke-width="15"/>
<path d="M1550 1182.64L1520 1239.64C1536.17 1245.8 1574.8 1259.84 1600 1266.64C1625.2 1273.44 1669.83 1263.8 1689 1258.14L1680 1190.64L1700 1145.14C1710.17 1140.97 1731.2 1128.44 1734 1111.64C1736.8 1094.84 1716.17 1063.3 1705.5 1049.64L1708 1002.64L1672.48 993.035C1671.78 992.847 1671.12 993.435 1671.23 994.148L1682.5 1069.64L1599.5 1073.14L1589.3 992.507C1589.14 991.271 1587.91 990.478 1586.72 990.849L1541 1005.14L1550 1182.64Z" fill="#2B2B2B" stroke="white" stroke-width="15"/>
<path d="M1694.5 952.136C1541.32 962.303 1519.17 896.969 1524.5 861.636C1524.5 839.136 1529.5 795.636 1606.5 767.636C1661.5 747.636 1690.33 762.969 1718.5 767.636C1775.83 821.969 1807.5 944.636 1694.5 952.136Z" fill="#D9D9D9" stroke="white" stroke-width="15"/>
<path d="M1607.5 858.636C1588.3 863.836 1554.5 854.803 1540 849.636L1582.5 768.636L1748 772.636L1771.5 873.636C1770.83 878.136 1751.5 873.636 1745.5 868.136C1730.38 854.274 1728.12 840.769 1728.78 828.301C1727.83 831.107 1724.85 834.869 1717.5 838.136C1706.7 842.936 1679.67 831.47 1667.5 825.136C1655.5 834.136 1626.7 853.436 1607.5 858.636Z" fill="#B8B8B8"/>
<path d="M1728.78 828.301C1727.83 831.107 1724.85 834.869 1717.5 838.136C1706.7 842.936 1679.67 831.47 1667.5 825.136C1655.5 834.136 1626.7 853.436 1607.5 858.636C1588.3 863.836 1554.5 854.803 1540 849.636L1582.5 768.636L1748 772.636L1771.5 873.636C1770.83 878.136 1751.5 873.636 1745.5 868.136C1730.38 854.274 1728.12 840.769 1728.78 828.301ZM1728.78 828.301C1729.22 826.986 1729.21 825.881 1729 825.136C1728.91 826.183 1728.83 827.239 1728.78 828.301Z" stroke="white" stroke-width="15"/>
<path d="M1675.5 925.636C1668.7 924.036 1654.67 924.97 1648.5 925.636C1651.67 929.136 1653.5 938.136 1668 940.136C1684 942.343 1687 935.136 1691.5 930.636C1689 929.636 1682.3 927.236 1675.5 925.636Z" fill="white" stroke="white" stroke-width="15" stroke-linecap="round"/>
<path fill-rule="evenodd" clip-rule="evenodd" d="M1638.54 914.746C1639.04 914.494 1639.64 914.688 1639.89 915.18C1643.05 921.344 1654 931.13 1671.61 933.143C1680.22 934.126 1686.08 932.889 1689.85 931.222C1691.73 930.387 1693.1 929.443 1694.04 928.609C1694.99 927.757 1695.45 927.062 1695.58 926.752C1695.79 926.242 1696.38 926.001 1696.88 926.213C1697.39 926.426 1697.64 927.011 1697.42 927.521C1697.14 928.21 1696.45 929.14 1695.37 930.101C1694.27 931.08 1692.72 932.135 1690.65 933.051C1686.51 934.884 1680.28 936.147 1671.39 935.13C1653.2 933.051 1641.62 922.928 1638.11 916.093C1637.86 915.601 1638.05 914.998 1638.54 914.746Z" fill="black" stroke="white" stroke-width="15" stroke-linecap="round"/>
<path fill-rule="evenodd" clip-rule="evenodd" d="M1692.06 875.737C1692.56 875.495 1693.16 875.703 1693.4 876.2C1696.18 881.919 1699.97 891.612 1702.86 900.166C1704.31 904.444 1705.54 908.461 1706.31 911.571C1706.69 913.122 1706.97 914.474 1707.1 915.531C1707.16 916.057 1707.19 916.541 1707.17 916.953C1707.15 917.326 1707.09 917.805 1706.83 918.191C1706.61 918.527 1706.29 918.761 1705.98 918.929C1705.67 919.102 1705.3 919.244 1704.91 919.362C1704.12 919.6 1703.13 919.778 1702 919.908C1699.74 920.168 1696.8 920.249 1693.62 920.161C1687.28 919.985 1679.83 919.13 1674.71 917.594C1674.18 917.435 1673.88 916.878 1674.04 916.349C1674.2 915.82 1674.76 915.52 1675.29 915.678C1680.17 917.143 1687.42 917.988 1693.68 918.162C1696.8 918.248 1699.64 918.167 1701.77 917.921C1702.85 917.798 1703.71 917.637 1704.33 917.448C1704.64 917.354 1704.86 917.261 1705.02 917.178C1705.08 917.141 1705.12 917.112 1705.15 917.093C1705.16 917.054 1705.17 916.98 1705.17 916.856C1705.19 916.6 1705.17 916.241 1705.11 915.77C1705 914.832 1704.75 913.571 1704.37 912.052C1703.62 909.019 1702.41 905.061 1700.97 900.807C1698.08 892.293 1694.33 882.687 1691.6 877.073C1691.36 876.576 1691.57 875.978 1692.06 875.737Z" fill="black" stroke="white" stroke-width="15" stroke-linecap="round"/>
<path d="M1652.5 960.636C1645 962.136 1604 954.636 1601.5 954.136V996.136C1602.67 1002.8 1610.8 1018.44 1634 1027.64C1657.2 1036.84 1664.67 1005.8 1664.5 990.136L1652.5 960.636Z" fill="#D9D9D9" stroke="white" stroke-width="15"/>
<path d="M1652.5 960.636C1645 962.136 1604 954.636 1601.5 954.136V975.636C1609.5 970.636 1611 963.78 1635 970.636C1652.5 975.636 1664.5 990.136 1664.5 990.136L1652.5 960.636Z" fill="#B8B8B8" stroke="white" stroke-width="15"/>
<path d="M1630.07 865.388C1604.56 863.131 1594.86 876.674 1592 880.907C1594.38 888.901 1607.23 900.658 1628.17 902.069C1639.08 902.804 1655.92 897.366 1661 894.074C1661 886.393 1655.58 867.645 1630.07 865.388Z" fill="white" stroke="white" stroke-width="15"/>
<path fill-rule="evenodd" clip-rule="evenodd" d="M1593.1 881.066C1594.35 884.699 1597.91 889.251 1603.68 893.126C1609.66 897.142 1617.94 900.377 1628.23 901.071C1633.53 901.428 1640.35 900.284 1646.51 898.616C1652.32 897.046 1657.4 895.052 1659.99 893.523C1659.87 889.804 1658.48 883.759 1654.31 878.306C1649.94 872.611 1642.47 867.489 1629.98 866.384C1617.43 865.273 1608.84 868.052 1603.06 871.568C1597.62 874.877 1594.6 878.877 1593.1 881.066ZM1602.02 869.859C1608.18 866.11 1617.2 863.246 1630.16 864.392C1643.17 865.544 1651.17 870.925 1655.89 877.089C1660.59 883.216 1662 890.044 1662 894.074V894.617L1661.54 894.913C1658.87 896.645 1653.27 898.86 1647.03 900.547C1640.78 902.237 1633.72 903.445 1628.1 903.066C1617.46 902.349 1608.84 899 1602.57 894.787C1596.32 890.592 1592.32 885.485 1591.04 881.192L1590.91 880.739L1591.17 880.347C1592.63 878.185 1595.87 873.602 1602.02 869.859Z" fill="black" stroke="white" stroke-width="15"/>
<path d="M1729 871.713C1714.83 876.713 1710 888.213 1707 895.483C1714 900.713 1725 903.713 1740.5 900.713C1751.24 898.633 1754.5 889.713 1756 882.213C1756 874.532 1743.17 866.713 1729 871.713Z" fill="white" stroke="white" stroke-width="15"/>
<path fill-rule="evenodd" clip-rule="evenodd" d="M1747.4 873.116C1742.65 870.934 1736.17 870.243 1729.33 872.656C1716.07 877.338 1711.24 887.878 1708.23 895.137C1714.98 899.885 1725.49 902.6 1740.31 899.731C1750.36 897.787 1753.51 889.53 1755 882.117C1754.95 878.862 1752.16 875.306 1747.4 873.116ZM1748.23 871.299C1753.38 873.667 1757 877.813 1757 882.213V882.312L1756.98 882.409C1755.47 889.97 1752.09 899.489 1740.69 901.695C1724.98 904.736 1713.68 901.718 1706.4 896.284L1705.78 895.82L1706.08 895.102C1709.08 887.824 1714.05 875.928 1728.67 870.77C1736 868.183 1743.02 868.901 1748.23 871.299Z" fill="black" stroke="white" stroke-width="15"/>
<path d="M1740.29 891.358C1740.29 891.358 1740.29 891.376 1740.28 891.41C1740.28 891.375 1740.29 891.358 1740.29 891.358ZM1739 890.897C1739.6 891.211 1739.94 891.479 1740.13 891.665C1739.97 891.88 1739.68 892.201 1739.14 892.612C1737.72 893.7 1735.25 894.753 1732.05 895.023C1728.86 895.293 1726.25 894.67 1724.66 893.837C1724.06 893.523 1723.72 893.255 1723.53 893.069C1723.68 892.854 1723.97 892.533 1724.51 892.122C1725.94 891.035 1728.41 889.981 1731.6 889.711C1734.8 889.441 1737.41 890.065 1739 890.897ZM1723.32 892.794C1723.32 892.793 1723.33 892.809 1723.34 892.842C1723.32 892.811 1723.32 892.794 1723.32 892.794ZM1723.37 893.376C1723.36 893.376 1723.37 893.358 1723.38 893.324C1723.37 893.36 1723.37 893.377 1723.37 893.376ZM1740.32 891.892C1740.34 891.923 1740.34 891.94 1740.34 891.941C1740.34 891.941 1740.33 891.926 1740.32 891.892Z" fill="black" stroke="white" stroke-width="15"/>
<path d="M1642.53 891.421C1642.53 891.422 1642.53 891.436 1642.51 891.463C1642.52 891.434 1642.53 891.421 1642.53 891.421ZM1641.14 890.539C1641.91 891.028 1642.26 891.413 1642.42 891.636C1642.26 891.859 1641.91 892.244 1641.14 892.733C1639.53 893.757 1636.85 894.636 1633.5 894.636C1630.15 894.636 1627.47 893.757 1625.86 892.733C1625.09 892.244 1624.74 891.859 1624.58 891.636C1624.74 891.413 1625.09 891.028 1625.86 890.539C1627.47 889.515 1630.15 888.636 1633.5 888.636C1636.85 888.636 1639.53 889.515 1641.14 890.539ZM1624.47 891.421C1624.47 891.421 1624.48 891.434 1624.49 891.463C1624.47 891.436 1624.47 891.422 1624.47 891.421ZM1624.47 891.851C1624.47 891.851 1624.47 891.837 1624.49 891.809C1624.48 891.838 1624.47 891.852 1624.47 891.851ZM1642.51 891.809C1642.53 891.837 1642.53 891.851 1642.53 891.851C1642.53 891.852 1642.52 891.838 1642.51 891.809Z" fill="black" stroke="white" stroke-width="15"/>
<path d="M1561 877.637C1543.8 893.237 1527.5 917.637 1493.5 913.637C1447.5 908.225 1422.53 830.637 1447.5 801.636C1462.13 784.653 1494.11 790.963 1499.78 799.99C1494.06 786.264 1489.47 756.282 1512.5 733.637C1536.5 710.037 1576.5 719.303 1593.5 730.136C1593.33 722.803 1598.82 697.502 1631.5 693.636C1678 688.136 1709.67 719.636 1729.5 736.636C1730.5 732.636 1737.1 725.736 1755.5 730.136C1773.9 734.536 1774.17 754.637 1769.5 761.637C1794.5 761.637 1796.9 772.136 1806.5 792.136C1816.1 812.136 1799.17 822.803 1789.5 825.636C1791.83 826.303 1796.6 829.636 1797 837.636C1797.5 847.636 1788 864.636 1761.5 859.636C1740.3 855.636 1733.33 819.303 1732.5 801.636C1727.67 809.97 1713.2 825.836 1694 822.636C1674.8 819.436 1668 802.636 1667 794.636C1667.33 801.636 1659.9 819.236 1627.5 833.636C1595.1 848.036 1569.67 839.636 1561 833.636C1566.67 840.803 1578.2 862.037 1561 877.637Z" fill="#FBDD11"/>
<path d="M1499.78 799.99C1494.06 786.264 1489.47 756.282 1512.5 733.637C1536.5 710.037 1576.5 719.303 1593.5 730.136C1593.33 722.803 1598.82 697.502 1631.5 693.636C1678 688.136 1709.67 719.636 1729.5 736.636C1730.5 732.636 1737.1 725.736 1755.5 730.136C1773.9 734.536 1774.17 754.637 1769.5 761.637C1794.5 761.637 1796.9 772.136 1806.5 792.136C1816.1 812.136 1799.17 822.803 1789.5 825.636C1791.83 826.303 1796.6 829.636 1797 837.636C1797.5 847.636 1788 864.636 1761.5 859.636C1740.3 855.636 1733.33 819.303 1732.5 801.636C1727.67 809.97 1713.2 825.836 1694 822.636C1674.8 819.436 1668 802.636 1667 794.636C1667.33 801.636 1659.9 819.236 1627.5 833.636C1595.1 848.036 1569.67 839.636 1561 833.636C1566.67 840.803 1578.2 862.037 1561 877.637C1543.8 893.237 1527.5 917.637 1493.5 913.637C1447.5 908.225 1422.53 830.637 1447.5 801.636C1462.13 784.653 1494.11 790.963 1499.78 799.99ZM1499.78 799.99C1500.02 800.568 1500.26 801.118 1500.5 801.636C1500.36 801.081 1500.11 800.53 1499.78 799.99Z" stroke="white" stroke-width="15"/>
<path d="M1614 1208.14C1579 1206.14 1564.67 1192.64 1550 1183.64L1379 1496.14C1403.33 1525.47 1470 1590.94 1542 1618.14C1614 1645.34 1716 1600.8 1758 1575.14L1681 1195.14C1666 1198.47 1646.45 1209.99 1614 1208.14Z" fill="#FBDD11" stroke="white" stroke-width="15"/>
<path fill-rule="evenodd" clip-rule="evenodd" d="M1549.63 1182.23L1550.52 1182.78C1552.86 1184.22 1555.18 1185.76 1557.56 1187.34C1570.25 1195.77 1584.86 1205.47 1614.06 1207.14C1630.14 1208.06 1643.03 1205.66 1653.77 1202.62C1658.69 1201.23 1663.15 1199.7 1667.29 1198.28C1667.68 1198.15 1668.06 1198.02 1668.44 1197.89C1672.89 1196.37 1676.97 1195.01 1680.78 1194.16L1681.78 1193.94L1759.12 1575.62L1758.52 1575.99C1737.45 1588.87 1701.37 1606.46 1661.52 1617.43C1621.69 1628.39 1577.94 1632.78 1541.65 1619.07C1469.41 1591.78 1402.61 1526.16 1378.23 1496.77L1377.8 1496.25L1549.63 1182.23ZM1550.37 1185.04L1380.2 1496.02C1404.84 1525.54 1471.01 1590.25 1542.35 1617.2C1578.06 1630.69 1621.31 1626.42 1660.98 1615.5C1700.26 1604.69 1735.87 1587.4 1756.88 1574.65L1680.22 1196.34C1676.82 1197.17 1673.15 1198.39 1669.09 1199.78C1668.71 1199.91 1668.32 1200.04 1667.93 1200.18C1663.8 1201.59 1659.29 1203.14 1654.32 1204.54C1643.42 1207.63 1630.3 1210.07 1613.94 1209.13C1584.18 1207.43 1569.15 1197.44 1556.42 1188.99C1554.36 1187.62 1552.36 1186.29 1550.37 1185.04Z" fill="black" stroke="white" stroke-width="15"/>
<mask id="mask0_392_731" style="mask-type:alpha" maskUnits="userSpaceOnUse" x="1369" y="1173" width="398" height="462">
<path d="M1614 1208.14C1579 1206.14 1564.67 1192.64 1550 1183.64L1379 1496.14C1403.33 1525.47 1470 1590.94 1542 1618.14C1614 1645.34 1716 1600.8 1758 1575.14L1681 1195.14C1666 1198.47 1646.45 1209.99 1614 1208.14Z" fill="#FBDD11" stroke="white" stroke-width="15"/>
</mask>
<g mask="url(#mask0_392_731)">
</g>
<mask id="mask1_392_731" style="mask-type:alpha" maskUnits="userSpaceOnUse" x="1368" y="1171" width="400" height="465">
<path fill-rule="evenodd" clip-rule="evenodd" d="M1549.63 1182.23L1550.52 1182.78C1552.86 1184.22 1555.18 1185.76 1557.56 1187.34C1570.25 1195.77 1584.86 1205.47 1614.06 1207.14C1630.14 1208.06 1643.03 1205.66 1653.77 1202.62C1658.69 1201.23 1663.15 1199.7 1667.29 1198.28C1667.68 1198.15 1668.06 1198.02 1668.44 1197.89C1672.89 1196.37 1676.97 1195.01 1680.78 1194.16L1681.78 1193.94L1759.12 1575.62L1758.52 1575.99C1737.45 1588.87 1701.37 1606.46 1661.52 1617.43C1621.69 1628.39 1577.94 1632.78 1541.65 1619.07C1469.41 1591.78 1402.61 1526.16 1378.23 1496.77L1377.8 1496.25L1549.63 1182.23ZM1550.37 1185.04L1380.2 1496.02C1404.84 1525.54 1471.01 1590.25 1542.35 1617.2C1578.06 1630.69 1621.31 1626.42 1660.98 1615.5C1700.26 1604.69 1735.87 1587.4 1756.88 1574.65L1680.22 1196.34C1676.82 1197.17 1673.15 1198.39 1669.09 1199.78C1668.71 1199.91 1668.32 1200.04 1667.93 1200.18C1663.8 1201.59 1659.29 1203.14 1654.32 1204.54C1643.42 1207.63 1630.3 1210.07 1613.94 1209.13C1584.18 1207.43 1569.15 1197.44 1556.42 1188.99C1554.36 1187.62 1552.36 1186.29 1550.37 1185.04Z" fill="black" stroke="white" stroke-width="15"/>
</mask>
<g mask="url(#mask1_392_731)">
<path d="M1624.5 1445.64C1624.5 1463.86 1609.73 1478.64 1591.5 1478.64C1573.27 1478.64 1558.5 1463.86 1558.5 1445.64C1558.5 1427.41 1573.27 1412.64 1591.5 1412.64C1609.73 1412.64 1624.5 1427.41 1624.5 1445.64Z" fill="#525252" stroke="white" stroke-width="15"/>
<path d="M1520.5 1523.64C1520.5 1541.86 1505.73 1556.64 1487.5 1556.64C1469.27 1556.64 1454.5 1541.86 1454.5 1523.64C1454.5 1505.41 1469.27 1490.64 1487.5 1490.64C1505.73 1490.64 1520.5 1505.41 1520.5 1523.64Z" fill="#525252" stroke="white" stroke-width="15"/>
<path d="M1688.5 1367.14C1688.5 1380.67 1677.53 1391.64 1664 1391.64C1650.47 1391.64 1639.5 1380.67 1639.5 1367.14C1639.5 1353.61 1650.47 1342.64 1664 1342.64C1677.53 1342.64 1688.5 1353.61 1688.5 1367.14Z" fill="#525252" stroke="white" stroke-width="15"/>
<path d="M1527.5 1373.14C1527.5 1386.67 1516.53 1397.64 1503 1397.64C1489.47 1397.64 1478.5 1386.67 1478.5 1373.14C1478.5 1359.61 1489.47 1348.64 1503 1348.64C1516.53 1348.64 1527.5 1359.61 1527.5 1373.14Z" fill="#525252" stroke="white" stroke-width="15"/>
<path d="M1576.5 1330.64C1576.5 1338.37 1570.23 1344.64 1562.5 1344.64C1554.77 1344.64 1548.5 1338.37 1548.5 1330.64C1548.5 1322.9 1554.77 1316.64 1562.5 1316.64C1570.23 1316.64 1576.5 1322.9 1576.5 1330.64Z" fill="#525252" stroke="white" stroke-width="15"/>
<path d="M1675.5 1247.64C1675.5 1255.37 1669.23 1261.64 1661.5 1261.64C1653.77 1261.64 1647.5 1255.37 1647.5 1247.64C1647.5 1239.9 1653.77 1233.64 1661.5 1233.64C1669.23 1233.64 1675.5 1239.9 1675.5 1247.64Z" fill="#525252" stroke="white" stroke-width="15"/>
<path d="M1480.5 1447.64C1480.5 1452.4 1476.46 1456.64 1471 1456.64C1465.54 1456.64 1461.5 1452.4 1461.5 1447.64C1461.5 1442.88 1465.54 1438.64 1471 1438.64C1476.46 1438.64 1480.5 1442.88 1480.5 1447.64Z" fill="#525252" stroke="white" stroke-width="15"/>
<path d="M1653.5 1579.64C1653.5 1584.4 1649.46 1588.64 1644 1588.64C1638.54 1588.64 1634.5 1584.4 1634.5 1579.64C1634.5 1574.88 1638.54 1570.64 1644 1570.64C1649.46 1570.64 1653.5 1574.88 1653.5 1579.64Z" fill="#525252" stroke="white" stroke-width="15"/>
<path d="M1701.5 1468.64C1701.5 1473.4 1697.46 1477.64 1692 1477.64C1686.54 1477.64 1682.5 1473.4 1682.5 1468.64C1682.5 1463.88 1686.54 1459.64 1692 1459.64C1697.46 1459.64 1701.5 1463.88 1701.5 1468.64Z" fill="#525252" stroke="white" stroke-width="15"/>
</g>
<path d="M1620.37 838.87C1595.65 839.522 1582.1 852.631 1578.42 859.105C1579.89 858.823 1584.49 854.382 1595.44 852.288C1617.05 848.158 1643.1 852.172 1660.63 855.1L1656.51 844.18C1649.11 840.099 1638.1 838.403 1620.37 838.87Z" fill="#B49E0E" stroke="white" stroke-width="15"/>
<path fill-rule="evenodd" clip-rule="evenodd" d="M1581.84 856.071C1582.17 855.883 1582.53 855.688 1582.91 855.489C1585.69 854.043 1589.67 852.373 1595.26 851.305C1616.37 847.27 1641.61 850.938 1659.08 853.829L1655.7 844.881C1648.55 841.06 1637.83 839.41 1620.39 839.87C1600.06 840.406 1587.48 849.493 1581.84 856.071ZM1577.55 858.61C1581.41 851.834 1595.27 838.531 1620.34 837.87C1638.1 837.402 1649.35 839.086 1656.99 843.304L1657.31 843.482L1662.18 856.373L1660.47 856.086C1642.91 853.154 1617.04 849.179 1595.63 853.27C1590.26 854.297 1586.47 855.894 1583.84 857.263C1582.62 857.9 1581.64 858.488 1580.86 858.962C1580.8 858.999 1580.74 859.036 1580.68 859.071C1580.28 859.313 1579.91 859.533 1579.59 859.7C1579.29 859.859 1578.95 860.022 1578.61 860.087L1576.48 860.494L1577.55 858.61Z" fill="#7C6D0C" stroke="white" stroke-width="15"/>
<path d="M1736.28 843.382C1755.69 843.725 1766.44 853.846 1769.39 858.864C1768.23 858.654 1764.59 855.226 1755.97 853.667C1738.97 850.594 1718.55 853.895 1704.82 856.293L1707.96 847.759C1713.73 844.531 1722.36 843.136 1736.28 843.382Z" fill="#B49E0E" stroke="white" stroke-width="15"/>
<path fill-rule="evenodd" clip-rule="evenodd" d="M1765.67 855.747C1763.47 854.663 1760.39 853.45 1756.15 852.683C1739.65 849.7 1720.03 852.653 1706.36 855.011L1708.77 848.456C1714.3 845.488 1722.64 844.141 1736.27 844.382C1751.22 844.646 1760.87 850.821 1765.67 855.747ZM1770.26 858.357C1767.13 853.039 1756.06 842.731 1736.3 842.382C1722.35 842.136 1713.49 843.521 1707.47 846.887L1707.15 847.067L1703.29 857.577L1704.99 857.278C1718.75 854.876 1738.99 851.615 1755.79 854.651C1760 855.411 1762.97 856.623 1765.03 857.664C1765.99 858.149 1766.75 858.597 1767.37 858.961C1767.42 858.99 1767.47 859.018 1767.51 859.045C1767.83 859.23 1768.13 859.402 1768.38 859.534C1768.62 859.656 1768.92 859.793 1769.22 859.848L1771.36 860.235L1770.26 858.357Z" fill="#7C6D0C" stroke="white" stroke-width="15"/>
<path d="M1711.42 1119.65L1662.8 1201.89C1661.3 1204.44 1662.32 1207.72 1664.99 1208.97L1710.06 1230.03C1712.09 1230.98 1714.51 1230.46 1715.97 1228.76L1785.21 1148.21C1787.51 1145.54 1786.39 1141.38 1783.05 1140.23L1717.36 1117.47C1715.11 1116.7 1712.63 1117.61 1711.42 1119.65Z" fill="#585858" stroke="white" stroke-width="15"/>
<path fill-rule="evenodd" clip-rule="evenodd" d="M1717.2 1117.95C1715.17 1117.25 1712.94 1118.07 1711.85 1119.91L1663.23 1202.15C1661.88 1204.44 1662.79 1207.39 1665.2 1208.52L1710.27 1229.58C1712.1 1230.43 1714.28 1229.96 1715.59 1228.43L1784.83 1147.89C1786.9 1145.48 1785.89 1141.74 1782.89 1140.7L1717.2 1117.95ZM1710.99 1119.4C1712.32 1117.15 1715.05 1116.15 1717.52 1117L1783.21 1139.76C1786.88 1141.03 1788.12 1145.6 1785.59 1148.54L1716.35 1229.09C1714.74 1230.96 1712.09 1231.53 1709.85 1230.48L1664.78 1209.42C1661.84 1208.05 1660.72 1204.44 1662.37 1201.64L1710.99 1119.4Z" fill="black" stroke="white" stroke-width="15"/>
<path d="M1494 1148.14C1472.4 1042.14 1516.83 1008.14 1543 1004.64L1560 1190.14H1642.5C1643 1188.8 1672.85 1159.01 1696.5 1161.64C1719 1164.14 1707.5 1175.14 1703 1187.64C1699.35 1197.77 1669.67 1207.3 1648 1212.14C1615.83 1222.64 1588 1242.94 1566 1246.14C1538.5 1250.14 1521 1280.64 1494 1148.14Z" fill="#D9D9D9" stroke="white" stroke-width="15"/>
<path d="M1760.73 1152.93C1760.73 1152.93 1760.73 1152.93 1760.73 1152.93L1760.73 1152.93ZM1761.56 1152.13C1761.82 1151.63 1762.16 1151.41 1762.32 1151.34C1762.37 1151.33 1762.39 1151.32 1762.39 1151.32C1762.39 1151.32 1762.37 1151.33 1762.34 1151.33C1762.25 1151.32 1762.13 1151.3 1762.02 1151.24C1761.9 1151.18 1761.81 1151.1 1761.76 1151.03C1761.74 1151 1761.74 1150.99 1761.74 1150.99C1761.74 1150.99 1761.74 1151.01 1761.76 1151.05C1761.8 1151.22 1761.82 1151.63 1761.56 1152.13Z" fill="#1F1F1F" stroke="white" stroke-width="15"/>
<path d="M1747.5 1227.64C1753 1216.64 1757.5 1177.64 1734 1177.64C1719.93 1177.64 1709.52 1189.64 1713 1205.64C1715.5 1217.14 1742 1238.64 1747.5 1227.64Z" fill="#D9D9D9" stroke="white" stroke-width="15"/>
<path d="M1807 1629.14C1783 1626.14 1743.17 1636.8 1722.5 1644.64L1694 1652.64L1716.5 1682.14L1833.5 1647.64C1832.17 1644.14 1825.96 1631.51 1807 1629.14Z" fill="#D9D9D9" stroke="white" stroke-width="15"/>
<path d="M1833.5 1647.64C1832.17 1644.14 1825.96 1631.51 1807 1629.14C1803 1628.64 1800.7 1629.14 1796.5 1632.14C1788.1 1638.14 1782.67 1654.3 1781 1661.64L1833.5 1647.64Z" fill="#373737" stroke="white" stroke-width="15"/>
<path d="M1674.5 1669.14L1668.5 1649.64L1735.5 1663.14L1682.5 1699.14L1674.5 1669.14Z" fill="#323232" stroke="white" stroke-width="15"/>
<path d="M1681 1691.64C1679 1715.64 1701 1724.14 1721 1720.64C1773.74 1711.41 1855.1 1673.16 1832.5 1645.14C1820 1629.64 1683.5 1661.64 1681 1691.64Z" fill="#5A5A5A" stroke="white" stroke-width="15"/>
<path d="M1674.5 1669.14L1668.5 1649.64L1725 1626.64L1728 1644.14L1674.5 1669.14Z" fill="#373737" stroke="white" stroke-width="15"/>
<path d="M1525.5 1708.14C1506.3 1705.34 1466 1670.3 1449 1653.64V1704.64L1555 1732.64C1570.5 1732.64 1580.4 1726.64 1580 1716.64C1579.6 1706.64 1563.17 1698.14 1555 1695.14C1553.17 1700.64 1544.7 1710.94 1525.5 1708.14Z" fill="#373737" stroke="white" stroke-width="15"/>
<path d="M1507.5 1622.14L1450 1607.14V1624.14L1503.5 1639.64L1507.5 1622.14Z" fill="#373737" stroke="white" stroke-width="15"/>
<path d="M1844.5 1094.14C1844.5 1109.32 1832.19 1121.64 1817 1121.64C1801.81 1121.64 1789.5 1109.32 1789.5 1094.14C1789.5 1078.95 1801.81 1066.64 1817 1066.64C1832.19 1066.64 1844.5 1078.95 1844.5 1094.14Z" fill="#FBDD11" stroke="white" stroke-width="15"/>
<path d="M1858.5 1029.14C1858.5 1036.59 1852.46 1042.64 1845 1042.64C1837.54 1042.64 1831.5 1036.59 1831.5 1029.14C1831.5 1021.68 1837.54 1015.64 1845 1015.64C1852.46 1015.64 1858.5 1021.68 1858.5 1029.14Z" fill="#FBDD11" stroke="white" stroke-width="15"/>
<path d="M1880.5 1061.14C1880.5 1063.07 1878.93 1064.64 1877 1064.64C1875.07 1064.64 1873.5 1063.07 1873.5 1061.14C1873.5 1059.2 1875.07 1057.64 1877 1057.64C1878.93 1057.64 1880.5 1059.2 1880.5 1061.14Z" fill="#FBDD11" stroke="white" stroke-width="15"/>
<path d="M1449 1704.64L1451.5 1512.64L1526.5 1538.64L1500 1655.64L1562.5 1699.64C1565.67 1704.47 1569 1715.64 1557 1721.64C1545 1727.64 1480 1712.8 1449 1704.64Z" fill="#D9D9D9"/>
<path d="M1450 1623.14L1464 1627.64L1478.5 1684.64L1449 1654.14L1450 1623.14Z" fill="#323232"/>
<path d="M1691 1713.14L1638 1551.64L1709.5 1521.14L1736.5 1707.14L1691 1713.14Z" fill="#D9D9D9"/>
<path d="M1531.5 1023.64C1505.1 1008.44 1535.83 939.636 1554.5 907.136L1738.5 913.136L1755.5 993.136C1761.33 1006.64 1768.4 1036.74 1750 1049.14C1731.6 1061.54 1697 1051.64 1682 1045.14C1677.67 1047.47 1663.8 1052.74 1643 1055.14C1622.2 1057.54 1604 1046.14 1597.5 1040.14C1586.5 1040.97 1557.9 1038.84 1531.5 1023.64Z" fill="#B49E0E"/>
<path d="M1819 844.136C1820.2 826.136 1797.33 817.136 1787 819.136L1739.5 823.636C1734.83 856.47 1723.9 926.936 1717.5 946.136C1709.5 970.136 1736 996.136 1763.5 1002.64C1785.5 1007.84 1769.67 985.803 1759 974.136C1775.17 981.803 1810.3 992.536 1821.5 974.136C1832.7 955.736 1803.17 940.47 1787 935.136C1796.67 937.136 1817.1 935.736 1821.5 914.136C1825.9 892.536 1808.67 877.47 1799.5 872.636C1805.5 870.636 1817.8 862.136 1819 844.136Z" fill="#FBDD11"/>
<path d="M1416 888.636C1429 863.136 1456.5 866.636 1466.5 868.636C1466.5 865.136 1471.3 857.836 1490.5 856.636C1509.7 855.436 1524.83 873.803 1530 883.136C1544.33 891.636 1573.4 917.036 1575 950.636C1576.6 984.236 1559.33 983.303 1550.5 978.636C1558.17 996.136 1564.8 1032.54 1530 1038.14C1495.2 1043.74 1478.17 1020.8 1474 1008.64C1471.5 1010.14 1463.1 1010.84 1449.5 1001.64C1435.9 992.436 1443.83 974.136 1449.5 966.136C1434 948.803 1405.6 909.036 1416 888.636Z" fill="#DDC520"/>
<path d="M1746 1061.64C1730.5 1001.64 1709 1002.14 1704.5 1002.64L1693 1085.14C1702.33 1138.47 1726 1244.84 1746 1243.64C1771 1242.14 1761.5 1121.64 1746 1061.64Z" fill="#B1B1B1"/>
<path d="M1550 1182.64L1520 1239.64C1536.17 1245.8 1574.8 1259.84 1600 1266.64C1625.2 1273.44 1669.83 1263.8 1689 1258.14L1680 1190.64L1700 1145.14C1710.17 1140.97 1731.2 1128.44 1734 1111.64C1736.8 1094.84 1716.17 1063.3 1705.5 1049.64L1708 1002.64C1691 997.636 1651.3 987.336 1628.5 986.136C1605.7 984.936 1560.67 998.303 1541 1005.14L1550 1182.64Z" fill="#D9D9D9"/>
<path d="M1550 1182.64L1520 1239.64C1536.17 1245.8 1574.8 1259.84 1600 1266.64C1625.2 1273.44 1669.83 1263.8 1689 1258.14L1680 1190.64L1700 1145.14C1710.17 1140.97 1731.2 1128.44 1734 1111.64C1736.8 1094.84 1716.17 1063.3 1705.5 1049.64L1708 1002.64L1672.48 993.035C1671.78 992.847 1671.12 993.435 1671.23 994.148L1682.5 1069.64L1599.5 1073.14L1589.3 992.507C1589.14 991.271 1587.91 990.477 1586.72 990.849L1541 1005.14L1550 1182.64Z" fill="#2B2B2B"/>
<path d="M1694.5 952.136C1541.32 962.303 1519.17 896.969 1524.5 861.636C1524.5 839.136 1529.5 795.636 1606.5 767.636C1661.5 747.636 1690.33 762.969 1718.5 767.636C1775.83 821.969 1807.5 944.636 1694.5 952.136Z" fill="#D9D9D9"/>
<path d="M1607.5 858.636C1588.3 863.836 1554.5 854.803 1540 849.636L1582.5 768.636L1748 772.636L1771.5 873.636C1770.83 878.136 1751.5 873.636 1745.5 868.136C1730.38 854.274 1728.12 840.769 1728.78 828.301C1727.83 831.107 1724.85 834.869 1717.5 838.136C1706.7 842.936 1679.67 831.47 1667.5 825.136C1655.5 834.136 1626.7 853.436 1607.5 858.636Z" fill="#B8B8B8"/>
<path d="M1675.5 925.636C1668.7 924.036 1654.67 924.97 1648.5 925.636C1651.67 929.136 1653.5 938.136 1668 940.136C1684 942.343 1687 935.136 1691.5 930.636C1689 929.636 1682.3 927.236 1675.5 925.636Z" fill="white"/>
<path d="M1639 915.636C1642.33 922.136 1653.6 932.09 1671.5 934.136C1689 936.136 1695.67 929.136 1696.5 927.136" stroke="black" stroke-width="2" stroke-linecap="round"/>
<path d="M1692.5 876.636C1698 887.97 1707.6 915.236 1706 917.636C1704.4 920.036 1685 919.636 1675 916.636" stroke="black" stroke-width="2" stroke-linecap="round"/>
<path d="M1652.5 960.636C1645 962.136 1604 954.636 1601.5 954.136V996.136C1602.67 1002.8 1610.8 1018.44 1634 1027.64C1657.2 1036.84 1664.67 1005.8 1664.5 990.136L1652.5 960.636Z" fill="#D9D9D9"/>
<path d="M1652.5 960.636C1645 962.136 1604 954.636 1601.5 954.136V975.636C1609.5 970.636 1611 963.78 1635 970.636C1652.5 975.636 1664.5 990.136 1664.5 990.136L1652.5 960.636Z" fill="#B8B8B8"/>
<path d="M1630.07 865.388C1604.56 863.131 1594.86 876.674 1592 880.907C1594.38 888.901 1607.23 900.658 1628.17 902.069C1639.08 902.804 1655.92 897.366 1661 894.074C1661 886.393 1655.58 867.645 1630.07 865.388Z" fill="white" stroke="black" stroke-width="2"/>
<path d="M1729 871.713C1714.83 876.713 1710 888.213 1707 895.483C1714 900.713 1725 903.713 1740.5 900.713C1751.24 898.633 1754.5 889.713 1756 882.213C1756 874.532 1743.17 866.713 1729 871.713Z" fill="white" stroke="black" stroke-width="2"/>
<ellipse cx="1731.83" cy="892.367" rx="15.9741" ry="10.1653" transform="rotate(-4.83441 1731.83 892.367)" fill="black"/>
<ellipse cx="1633.5" cy="891.636" rx="16.5" ry="10.5" fill="black"/>
<path d="M1561 877.637C1543.8 893.237 1527.5 917.637 1493.5 913.637C1447.5 908.225 1422.53 830.637 1447.5 801.636C1462.13 784.653 1494.11 790.963 1499.78 799.99C1494.06 786.263 1489.47 756.282 1512.5 733.637C1536.5 710.037 1576.5 719.303 1593.5 730.136C1593.33 722.803 1598.82 697.502 1631.5 693.636C1678 688.136 1709.67 719.636 1729.5 736.636C1730.5 732.636 1737.1 725.736 1755.5 730.136C1773.9 734.536 1774.17 754.637 1769.5 761.637C1794.5 761.637 1796.9 772.136 1806.5 792.136C1816.1 812.136 1799.17 822.803 1789.5 825.636C1791.83 826.303 1796.6 829.636 1797 837.636C1797.5 847.636 1788 864.636 1761.5 859.636C1740.3 855.636 1733.33 819.303 1732.5 801.636C1727.67 809.97 1713.2 825.836 1694 822.636C1674.8 819.436 1668 802.636 1667 794.636C1667.33 801.636 1659.9 819.236 1627.5 833.636C1595.1 848.036 1569.67 839.636 1561 833.636C1566.67 840.803 1578.2 862.037 1561 877.637Z" fill="#FBDD11"/>
<path d="M1614 1208.14C1579 1206.14 1564.67 1192.64 1550 1183.64L1379 1496.14C1403.33 1525.47 1470 1590.94 1542 1618.14C1614 1645.34 1716 1600.8 1758 1575.14L1681 1195.14C1666 1198.47 1646.45 1209.99 1614 1208.14Z" fill="#FBDD11"/>
<mask id="mask2_392_731" style="mask-type:alpha" maskUnits="userSpaceOnUse" x="1379" y="1183" width="379" height="444">
<path d="M1614 1208.14C1579 1206.14 1564.67 1192.64 1550 1183.64L1379 1496.14C1403.33 1525.47 1470 1590.94 1542 1618.14C1614 1645.34 1716 1600.8 1758 1575.14L1681 1195.14C1666 1198.47 1646.45 1209.99 1614 1208.14Z" fill="#FBDD11"/>
</mask>
<g mask="url(#mask2_392_731)">
<circle cx="1591.5" cy="1445.64" r="40.5" fill="#525252"/>
<circle cx="1402.5" cy="1445.64" r="40.5" fill="#525252"/>
<circle cx="1487.5" cy="1523.64" r="40.5" fill="#525252"/>
<circle cx="1726.5" cy="1549.64" r="52.5" fill="#525252"/>
<circle cx="1664" cy="1367.14" r="32" fill="#525252"/>
<circle cx="1503" cy="1373.14" r="32" fill="#525252"/>
<circle cx="1562.5" cy="1330.64" r="21.5" fill="#525252"/>
<circle cx="1661.5" cy="1247.64" r="21.5" fill="#525252"/>
<ellipse cx="1471" cy="1447.64" rx="17" ry="16.5" fill="#525252"/>
<ellipse cx="1644" cy="1579.64" rx="17" ry="16.5" fill="#525252"/>
<ellipse cx="1692" cy="1468.64" rx="17" ry="16.5" fill="#525252"/>
<circle cx="1528.5" cy="1258.64" r="40.5" fill="#525252"/>
</g>
<path d="M1614 1208.14C1579 1206.14 1564.67 1192.64 1550 1183.64L1379 1496.14C1403.33 1525.47 1470 1590.94 1542 1618.14C1614 1645.34 1716 1600.8 1758 1575.14L1681 1195.14C1666 1198.47 1646.45 1209.99 1614 1208.14Z" stroke="black" stroke-width="2"/>
<path d="M1620.37 838.87C1595.65 839.522 1582.1 852.631 1578.42 859.105C1579.89 858.823 1584.49 854.382 1595.44 852.288C1617.05 848.158 1643.1 852.172 1660.63 855.1L1656.51 844.18C1649.11 840.099 1638.1 838.403 1620.37 838.87Z" fill="#B49E0E" stroke="#7C6D0C" stroke-width="2"/>
<path d="M1736.28 843.382C1755.69 843.725 1766.44 853.846 1769.39 858.864C1768.23 858.654 1764.59 855.226 1755.97 853.667C1738.97 850.594 1718.55 853.895 1704.82 856.293L1707.96 847.759C1713.73 844.531 1722.36 843.136 1736.28 843.382Z" fill="#B49E0E" stroke="#7C6D0C" stroke-width="2"/>
<path d="M1711.42 1119.65L1662.8 1201.89C1661.3 1204.44 1662.32 1207.72 1664.99 1208.97L1710.06 1230.03C1712.1 1230.98 1714.51 1230.46 1715.97 1228.76L1785.21 1148.21C1787.51 1145.54 1786.39 1141.38 1783.05 1140.23L1717.36 1117.47C1715.11 1116.7 1712.63 1117.61 1711.42 1119.65Z" fill="#585858" stroke="black"/>
<path d="M1494 1148.14C1472.4 1042.14 1516.83 1008.14 1543 1004.64L1560 1190.14H1642.5C1643 1188.8 1672.85 1159.01 1696.5 1161.64C1719 1164.14 1707.5 1175.14 1703 1187.64C1699.35 1197.77 1669.67 1207.3 1648 1212.14C1615.83 1222.64 1588 1242.94 1566 1246.14C1538.5 1250.14 1521 1280.64 1494 1148.14Z" fill="#D9D9D9"/>
<ellipse cx="1761.56" cy="1152.13" rx="7.5" ry="8.5" transform="rotate(27.2768 1761.56 1152.13)" fill="#1F1F1F"/>
<path d="M1747.5 1227.64C1753 1216.64 1757.5 1177.64 1734 1177.64C1719.93 1177.64 1709.52 1189.64 1713 1205.64C1715.5 1217.14 1742 1238.64 1747.5 1227.64Z" fill="#D9D9D9"/>
<path d="M1807 1629.14C1783 1626.14 1743.17 1636.8 1722.5 1644.64L1694 1652.64L1716.5 1682.14L1833.5 1647.64C1832.17 1644.14 1825.96 1631.51 1807 1629.14Z" fill="#D9D9D9"/>
<path d="M1833.5 1647.64C1832.17 1644.14 1825.96 1631.51 1807 1629.14C1803 1628.64 1800.7 1629.14 1796.5 1632.14C1788.1 1638.14 1782.67 1654.3 1781 1661.64L1833.5 1647.64Z" fill="#373737"/>
<path d="M1674.5 1669.14L1668.5 1649.64L1735.5 1663.14L1682.5 1699.14L1674.5 1669.14Z" fill="#323232"/>
<path d="M1681 1691.64C1679 1715.64 1701 1724.14 1721 1720.64C1773.74 1711.41 1855.1 1673.16 1832.5 1645.14C1820 1629.64 1683.5 1661.64 1681 1691.64Z" fill="#5A5A5A"/>
<path d="M1674.5 1669.14L1668.5 1649.64L1725 1626.64L1728 1644.14L1674.5 1669.14Z" fill="#373737"/>
<path d="M1525.5 1708.14C1506.3 1705.34 1466 1670.3 1449 1653.64V1704.64L1555 1732.64C1570.5 1732.64 1580.4 1726.64 1580 1716.64C1579.6 1706.64 1563.17 1698.14 1555 1695.14C1553.17 1700.64 1544.7 1710.94 1525.5 1708.14Z" fill="#373737"/>
<path d="M1507.5 1622.14L1450 1607.14V1624.14L1503.5 1639.64L1507.5 1622.14Z" fill="#373737"/>
<circle cx="1817" cy="1094.14" r="35" fill="#FBDD11" stroke="white" stroke-width="10"/>
<circle cx="1850.5" cy="1023.64" r="26.5" fill="#FBDD11" stroke="white" stroke-width="10"/>
<circle cx="1905.5" cy="1050.64" r="17.5" fill="#FBDD11" stroke="white" stroke-width="10"/>
<circle cx="250" cy="1250" r="63" fill="white"/>
<circle cx="335" cy="1369" r="40" fill="white"/>
<path d="M209.989 674.15C200.245 664.875 100.334 716.941 114.503 830.254C116.308 844.699 135.468 911.236 233.906 930.864C264.249 936.904 246.896 882.598 235.348 873.907C207.752 853.1 174.283 821.378 173.866 800.323C173.65 789.446 217.986 735.872 217.002 697.996C216.783 689.757 216.42 680.263 209.989 674.15Z" fill="#FBDD11"/>
<path d="M1416.39 362.289C1429.83 362.991 1471.81 258.44 1387.31 181.624C1376.54 171.831 1318.69 133.779 1231.17 182.936C1204.21 198.095 1252.72 228.037 1267.15 227.121C1301.64 224.96 1347.69 227.266 1361.71 242.981C1368.96 251.1 1370.16 320.63 1395.55 348.747C1401.08 354.861 1407.53 361.833 1416.39 362.289Z" fill="#FBDD11"/>
<path d="M1212.95 256.754C1213.81 264.679 1153.35 293.005 1105.08 245.573C1098.93 239.527 1074.48 206.571 1100.65 153.151C1108.72 136.688 1128.05 164.394 1127.99 172.959C1127.86 193.44 1130.76 220.612 1140.53 228.382C1145.58 232.396 1186.75 230.786 1204.24 244.873C1208.04 247.94 1212.38 251.526 1212.95 256.754Z" fill="#FBDD11"/>
<path d="M232.144 509.008C236.864 500.251 319.045 513.918 335.094 596.821C337.141 607.39 338.945 658.558 274.255 694.949C254.312 706.16 254.045 664.003 260.168 655.243C274.79 634.284 291.035 604.303 286.496 589.407C284.151 581.712 240.689 554.229 232.687 527.38C230.95 521.537 229.026 514.781 232.144 509.008Z" fill="#FBDD11"/>
<path d="M409.527 369.653C406.315 363.696 350.402 372.994 339.483 429.399C338.09 436.589 336.863 471.403 380.876 496.162C394.444 503.789 394.626 475.107 390.46 469.147C380.511 454.887 369.459 434.489 372.547 424.355C374.143 419.119 403.713 400.421 409.157 382.153C410.339 378.178 411.647 373.581 409.527 369.653Z" fill="#FBDD11"/>
</g>
<defs>
<clipPath id="clip0_392_731">
<rect width="2000" height="2000" fill="white"/>
</clipPath>
</defs>
</svg>
