<svg width="2000" height="2000" viewBox="0 0 2000 2000" fill="none" xmlns="http://www.w3.org/2000/svg">
<g clip-path="url(#clip0_344_29)">
<path d="M643.001 1669.56L643.999 1670C910.666 1682 1462.4 1678.8 1600 1650C1772 1614 1728 1390 1628 1142C1528 894.001 1822.29 758.967 1628 414C1432.49 66.8663 1220.5 87.7185 874.591 121.745L871.999 122C500 158.59 512 454 336 646C168.398 828.838 115.999 1014 116 1066C116.006 1438.11 445.553 1582.85 643.001 1669.56Z" fill="#BDCEF5"/>
<path d="M1119.42 214.722C799.237 327.446 883.522 1150.28 1203.21 1089.47C1522.89 1028.65 1300.72 913.946 1660 713.537C2019.28 513.125 1710.31 88.8805 1479.63 246.086C1248.95 403.291 1324.48 135.598 1119.42 214.722Z" stroke="#7991C7" stroke-width="10" stroke-dasharray="50 50"/>
<path d="M364.418 747.722C44.2373 860.446 128.522 1683.28 448.206 1622.47C767.889 1561.65 545.724 1446.95 905.001 1246.54C1264.28 1046.13 955.314 621.88 724.633 779.086C493.951 936.291 569.479 668.598 364.418 747.722Z" stroke="#7991C7" stroke-width="10" stroke-dasharray="50 50"/>
<ellipse cx="1022" cy="1680.5" rx="687" ry="52.5" fill="#323F6D"/>
<circle cx="997" cy="995" r="700" fill="#5568A3"/>
<circle cx="998" cy="989" r="624" fill="#7991C7"/>
<circle cx="998" cy="989" r="619" stroke="white" stroke-opacity="0.5" stroke-width="10"/>
<path d="M1304.82 1395H1241L998.96 1026.95L753.302 1395H690L965.447 978.012L714.514 595H779.575L999.992 931.905L1225.17 595H1286.2L1032.58 976.901L1304.82 1395Z" fill="white"/>
<path d="M750.506 953.648H1246.37V999.149H750.506V953.648ZM750.506 1090.15H1246.47V1135.65H750.506V1090.15Z" fill="white"/>
<path d="M791 1676C802.2 1648 774 1569.5 740 1538.5L737.5 1560C766.833 1582.33 782.9 1646.4 756.5 1676C730.1 1705.6 716.333 1703 697 1698L690 1715C738 1743 777 1711 791 1676Z" fill="#2E3545"/>
<path d="M825 1682C836.2 1654 771 1585 737 1554V1578C766.333 1600.33 818.4 1652.4 792 1682C765.6 1711.6 733.333 1679 714 1674L707 1702C755 1730 811 1717 825 1682Z" fill="#3C4762"/>
<path d="M665 1732C609.8 1739.2 577 1723 553.001 1708C487.235 1666.89 552.401 1534.4 570.001 1504C592.001 1466 686.001 1500 726.001 1518C766.001 1536 766.001 1625 766.001 1665C766.001 1705 734 1723 665 1732Z" fill="#4A597B"/>
<path d="M531 1587C518.2 1569.4 557 1516.33 582 1491C607 1465.67 748.333 1512 740.999 1533C733.666 1554 706.399 1594.4 679.999 1620C646.999 1652 547 1609 531 1587Z" fill="#3D4964"/>
<path d="M343.5 1261C338.7 1253 355.833 1156.67 365 1109.5L391 1117.5L402.5 1219C390 1233 363.6 1263 358 1271C351 1281 349.5 1271 343.5 1261Z" fill="#959595"/>
<path d="M424 1715L467 1386L366 1366.5L367 1682C358.333 1687 336.2 1700.6 317 1715C297.8 1729.4 299.667 1745 303 1751L424 1715Z" fill="#AEAEAE"/>
<path d="M368 1682V1542.5H445.362L423.092 1714.23L303.512 1749.8C300.672 1743.78 299.524 1729.36 317.6 1715.8C336.759 1701.43 358.856 1687.85 367.5 1682.87L368 1682.58V1682Z" fill="white" stroke="#434343" stroke-width="2"/>
<path d="M303 1751L424 1715L428 1682H367C358.333 1687 336.2 1700.6 317 1715C297.8 1729.4 299.667 1745 303 1751Z" fill="#33405C"/>
<path d="M321 812C298.2 850.8 353.167 900.167 383.5 920L321 997.5C350.667 1009.33 423.6 1035.6 478 1046C532.4 1056.4 631 1014.67 673.5 992.5L584 896C587.5 883 592.9 885.7 596.5 830.5C601 761.5 539 696 453 704C367 712 349.5 763.5 321 812Z" fill="#434343"/>
<path d="M644 1767L504 1389L614 1372L678 1711C701 1718.33 751.8 1735.8 771 1747C790.2 1758.2 791 1774.33 789 1781L644 1767Z" fill="#AEAEAE"/>
<path d="M677.017 1711.18L677.125 1711.77L677.696 1711.95C689.184 1715.62 707.619 1721.81 725.576 1728.49C743.559 1735.17 760.981 1742.31 770.496 1747.86C788.526 1758.38 789.838 1773.22 788.253 1779.92L644.718 1766.06L567.353 1558.77L646.198 1544.17L677.017 1711.18Z" fill="white" stroke="#434343" stroke-width="2"/>
<path d="M617.5 1391L612 1360L499.5 1376L525.5 1447.5L617.5 1391Z" fill="#959595"/>
<path d="M366.5 1404V1374L467 1386L457 1465L366.5 1404Z" fill="#959595"/>
<path d="M789 1781L644 1767L626 1717L678 1711C701 1718.33 751.8 1735.8 771 1747C790.2 1758.2 791 1774.33 789 1781Z" fill="#33405C"/>
<path d="M342 1378C352.5 1347.83 371.3 1278.5 374.5 1270.5L490.5 1318.5L477 1410L342 1378Z" fill="#262C3A"/>
<path d="M473 1348.5L433.5 1313.5L589.5 1286.5L629.5 1378.5L494 1404L473 1348.5Z" fill="#33405C"/>
<path d="M571.5 1290.5C576.333 1300.5 587.4 1325.4 593 1345C598.6 1364.6 603 1378.5 604.5 1383" stroke="#7F97CB" stroke-width="2"/>
<path d="M586.5 1324C577.333 1329.33 556.2 1336.9 547 1326.5C537.8 1316.1 538 1296.67 536 1293.5" stroke="#7F97CB" stroke-width="2"/>
<path d="M584.001 1318.5C573.501 1323 556.786 1328.12 551 1315.5C545.499 1303.5 548 1297 547 1293" stroke="#7F97CB" stroke-width="2"/>
<path d="M575 856.827C564.2 852.427 551.5 866.66 546.5 874.327L540 909.827C543.5 909.327 552.081 906.846 559.5 902.827C571.5 896.327 588.5 862.327 575 856.827Z" fill="#AEAEAE"/>
<path d="M387.501 941.501C353.101 928.701 351.001 858.167 355.001 824.5C364.5 806 369.084 752 444 752C521.5 752 553.5 809.5 553.5 840.501C549.333 871.501 543 932.586 523.5 941.501C496.5 953.843 430.501 957.501 387.501 941.501Z" fill="#AEAEAE"/>
<path d="M416 830L354.5 872.5C344.5 806.5 369.084 752.001 444 752C521.5 752 553.5 809.5 553.5 840.501C549.333 871.501 547.5 883 547.5 883L416 830Z" fill="#959595"/>
<path d="M362.5 856C364.667 849.667 373.4 836.9 391 836.5C408.6 836.1 416.333 844 418 848" stroke="black" stroke-width="3" stroke-linecap="round"/>
<path d="M464.5 849C476 842.5 479.9 838.4 497.5 838C515.1 837.6 530.333 854.5 532 858.5" stroke="black" stroke-width="3" stroke-linecap="round"/>
<path d="M373.5 841.5C391.501 822.5 408.499 789.667 413.499 771.5C422 805.5 436.878 821.399 457.5 835C481 850.5 525.5 864.5 550.5 864C554.5 861.5 560.7 853.4 547.5 805C531 744.5 463.999 733.5 399.999 747C348.799 757.8 339.666 828.167 341.499 862C345.166 860.667 358.084 857.771 373.5 841.5Z" fill="#434343"/>
<path d="M332 1105L375 1130.5L399 1190.5L370.5 1284.5C372.333 1287.33 395.726 1309.45 422 1316.5C488 1334.21 543.5 1319 596.5 1293L553 1208.5L568 1010C507 968.5 408 1001.5 382 1013C361.2 1022.2 340.667 1074.33 332 1105Z" fill="#516288"/>
<path d="M332 1105L375 1130.5C375 1130.5 354.1 1105 386.5 1057C400 1037 421.5 1000 421.5 1000C421.5 1000 402.8 1003.8 382 1013C361.2 1022.2 340.667 1074.33 332 1105Z" fill="black" fill-opacity="0.2"/>
<path d="M332.001 1147C319.722 1150.84 356.611 1252.06 379.645 1312.09C381.316 1316.44 385.766 1319.02 390.395 1318.44C433.747 1313.01 508.993 1309.26 512.001 1307C516.001 1304 477.06 1152.69 472.001 1147C464 1138 348.001 1142 332.001 1147Z" fill="#535353" stroke="black"/>
<path d="M488 959C475.6 962.2 455.5 960.333 447 959L444 992L422 999.5C425.833 1012.17 440.7 1038.3 471.5 1047.5C502.3 1056.7 527 1025 535.5 1008L518.5 992L522.5 948C516.167 950.333 500.4 955.8 488 959Z" fill="#AEAEAE"/>
<path d="M488 959C475.6 962.2 455.5 960.333 447 959L444 992C452 990.5 461.5 989 478 984.5C494.499 980 517 971.5 521 969L522.5 948C516.167 950.333 500.4 955.8 488 959Z" fill="#959595"/>
<path d="M556 1129L579 1182.5C599.167 1190.5 635.1 1207.9 637.5 1209.5C640.5 1211.5 649 1207.5 652 1200C654.4 1194 632.667 1133.17 621.5 1103.5L556 1129Z" fill="#959595"/>
<path d="M582 1163.5C591.6 1156.7 619.255 1159.89 634 1174.5C644 1184.41 649 1191.31 649 1204.5C649 1213.5 512 1248.5 512 1248.5C509.667 1250.33 503.3 1255.6 496.5 1262C488 1270 471.5 1273.5 464 1272.5C456.5 1271.5 463 1254.5 464 1246C465 1237.5 494.5 1221 505 1221C515.5 1221 570 1172 582 1163.5Z" fill="#AEAEAE"/>
<path d="M556.999 1005C512.999 1016.2 532.667 1110.67 551 1154L643 1116C623 1072 600.999 993.8 556.999 1005Z" fill="#5D6D92"/>
<path d="M387.999 1228.5C377.199 1223.7 349.499 1235.5 342.499 1259.5C339.368 1270.24 348.899 1280.3 354.499 1285.5C361.499 1292 371.5 1283.5 380 1279.5C388.5 1275.5 401.499 1234.5 387.999 1228.5Z" fill="#AEAEAE"/>
<path d="M369 1571C377 1571 425 1569.5 442 1572.5" stroke="#33405C" stroke-width="10"/>
<path d="M368 1592C381.5 1592 428 1592 439 1594.5" stroke="#33405C" stroke-width="10"/>
<path d="M578 1587C586.5 1585.5 636 1577.5 652 1575" stroke="#33405C" stroke-width="10"/>
<path d="M588 1613C596 1611 640 1603 656 1600.5" stroke="#33405C" stroke-width="10"/>
<path d="M395 857.5C376.5 856 370.5 863.5 364 872.5C367.5 877 371 883.5 389.5 885C398.352 885.718 414 880.5 421.5 875.5C420.333 869.5 413.844 859.028 395 857.5Z" fill="white" stroke="black" stroke-width="2"/>
<path d="M495 855.192C476.5 853.692 470.5 861.192 464 870.192C467.5 874.692 471 881.192 489.5 882.692C498.352 883.41 514 878.192 521.5 873.192C520.333 867.192 513.844 856.72 495 855.192Z" fill="white" stroke="black" stroke-width="2"/>
<ellipse cx="390.5" cy="875.5" rx="12.5" ry="9.5" fill="black"/>
<ellipse cx="490.5" cy="873.192" rx="12.5" ry="9.5" fill="black"/>
<path d="M422.23 887C417.063 892.333 415.548 906.06 426.501 910.5C437.454 914.94 448.5 910.5 454.183 900" stroke="black" stroke-width="2" stroke-linecap="round"/>
<path d="M433.5 917.5C419.498 914 411.998 919.5 421.499 925C421.499 929 416.5 935.985 443.499 938C462 939.381 479.5 930 488 919.5C469 921.5 441.5 919.5 433.5 917.5Z" fill="white"/>
<path d="M413 918.5C415 924 427 931 446.5 931C466 931 478 929.5 490 916.5" stroke="black" stroke-width="2" stroke-linecap="round"/>
<circle cx="451.5" cy="1167.5" r="7.5" fill="black"/>
<path d="M791 1676C802.2 1648 774 1569.5 740 1538.5L737.5 1560C766.833 1582.33 782.9 1646.4 756.5 1676C730.1 1705.6 716.333 1703 697 1698L690 1715C738 1743 777 1711 791 1676Z" fill="#2E3545"/>
<path d="M825 1682C836.2 1654 771 1585 737 1554V1578C766.333 1600.33 818.4 1652.4 792 1682C765.6 1711.6 733.333 1679 714 1674L707 1702C755 1730 811 1717 825 1682Z" fill="#3C4762"/>
<path d="M665 1732C609.8 1739.2 577 1723 553.001 1708C487.235 1666.89 552.401 1534.4 570.001 1504C592.001 1466 686.001 1500 726.001 1518C766.001 1536 766.001 1625 766.001 1665C766.001 1705 734 1723 665 1732Z" fill="#4A597B"/>
<path d="M531 1587C518.2 1569.4 557 1516.33 582 1491C607 1465.67 748.333 1512 740.999 1533C733.666 1554 706.399 1594.4 679.999 1620C646.999 1652 547 1609 531 1587Z" fill="#3D4964"/>
<path d="M343.5 1261C338.7 1253 355.833 1156.67 365 1109.5L391 1117.5L402.5 1219C390 1233 363.6 1263 358 1271C351 1281 349.5 1271 343.5 1261Z" fill="#959595"/>
<path d="M424 1715L467 1386L366 1366.5L367 1682C358.333 1687 336.2 1700.6 317 1715C297.8 1729.4 299.667 1745 303 1751L424 1715Z" fill="#AEAEAE"/>
<path d="M424 1715L446.5 1541.5H367V1682C358.333 1687 336.2 1700.6 317 1715C297.8 1729.4 299.667 1745 303 1751L424 1715Z" fill="white"/>
<path d="M303 1751L424 1715L428 1682H367C358.333 1687 336.2 1700.6 317 1715C297.8 1729.4 299.667 1745 303 1751Z" fill="#33405C"/>
<path d="M321 812C298.2 850.8 353.167 900.167 383.5 920L321 997.5C350.667 1009.33 423.6 1035.6 478 1046C532.4 1056.4 631 1014.67 673.5 992.5L584 896C587.5 883 592.9 885.7 596.5 830.5C601 761.5 539 696 453 704C367 712 349.5 763.5 321 812Z" fill="#434343"/>
<path d="M644 1767L504 1389L614 1372L678 1711C701 1718.33 751.8 1735.8 771 1747C790.2 1758.2 791 1774.33 789 1781L644 1767Z" fill="#AEAEAE"/>
<path d="M644 1767L566 1558L647 1543L678 1711C701 1718.33 751.8 1735.8 771 1747C790.2 1758.2 791 1774.33 789 1781L644 1767Z" fill="white"/>
<path d="M617.5 1391L612 1360L499.5 1376L525.5 1447.5L617.5 1391Z" fill="#959595"/>
<path d="M366.5 1404V1374L467 1386L457 1465L366.5 1404Z" fill="#959595"/>
<path d="M789 1781L644 1767L626 1717L678 1711C701 1718.33 751.8 1735.8 771 1747C790.2 1758.2 791 1774.33 789 1781Z" fill="#33405C"/>
<path d="M342 1378C352.5 1347.83 371.3 1278.5 374.5 1270.5L490.5 1318.5L477 1410L342 1378Z" fill="#262C3A"/>
<path d="M473 1348.5L433.5 1313.5L589.5 1286.5L629.5 1378.5L494 1404L473 1348.5Z" fill="#33405C"/>
<path d="M575 856.827C564.2 852.427 551.5 866.66 546.5 874.327L540 909.827C543.5 909.327 552.081 906.846 559.5 902.827C571.5 896.327 588.5 862.327 575 856.827Z" fill="#AEAEAE"/>
<path d="M387.501 941.501C353.101 928.701 351.001 858.167 355.001 824.5C364.5 806 369.084 752 444 752C521.5 752 553.5 809.5 553.5 840.501C549.333 871.501 543 932.586 523.5 941.501C496.5 953.843 430.501 957.501 387.501 941.501Z" fill="#AEAEAE"/>
<path d="M416 830L354.5 872.5C344.5 806.5 369.084 752 444 752C521.5 752 553.5 809.5 553.5 840.501C549.333 871.501 547.5 883 547.5 883L416 830Z" fill="#959595"/>
<path d="M373.5 841.5C391.501 822.5 408.499 789.667 413.499 771.5C422 805.5 436.878 821.399 457.5 835C481 850.5 525.5 864.5 550.5 864C554.5 861.5 560.7 853.4 547.5 805C531 744.5 463.999 733.5 399.999 747C348.799 757.8 339.666 828.167 341.499 862C345.166 860.667 358.084 857.771 373.5 841.5Z" fill="#434343"/>
<path d="M332 1105L375 1130.5L399 1190.5L370.5 1284.5C372.333 1287.33 395.726 1309.45 422 1316.5C488 1334.21 543.5 1319 596.5 1293L553 1208.5L568 1010C507 968.5 408 1001.5 382 1013C361.2 1022.2 340.667 1074.33 332 1105Z" fill="#516288"/>
<path d="M332 1105L375 1130.5C375 1130.5 354.1 1105 386.5 1057C400 1037 421.5 1000 421.5 1000C421.5 1000 402.8 1003.8 382 1013C361.2 1022.2 340.667 1074.33 332 1105Z" fill="black" fill-opacity="0.2"/>
<path d="M332.001 1147C319.722 1150.84 356.611 1252.06 379.645 1312.09C381.316 1316.44 385.766 1319.02 390.395 1318.44C433.747 1313.01 508.993 1309.26 512.001 1307C516.001 1304 477.06 1152.69 472.001 1147C464 1138 348.001 1142 332.001 1147Z" fill="#535353"/>
<path d="M488 959C475.6 962.2 455.5 960.333 447 959L444 992L422 999.5C425.833 1012.17 440.7 1038.3 471.5 1047.5C502.3 1056.7 527 1025 535.5 1008L518.5 992L522.5 948C516.167 950.333 500.4 955.8 488 959Z" fill="#AEAEAE"/>
<path d="M488 959C475.6 962.2 455.5 960.333 447 959L444 992C452 990.5 461.5 989 478 984.5C494.499 980 517 971.5 521 969L522.5 948C516.167 950.333 500.4 955.8 488 959Z" fill="#959595"/>
<path d="M556 1129L579 1182.5C599.167 1190.5 635.1 1207.9 637.5 1209.5C640.5 1211.5 649 1207.5 652 1200C654.4 1194 632.667 1133.17 621.5 1103.5L556 1129Z" fill="#959595"/>
<path d="M582 1163.5C591.6 1156.7 619.255 1159.89 634 1174.5C644 1184.41 649 1191.31 649 1204.5C649 1213.5 512 1248.5 512 1248.5C509.667 1250.33 503.3 1255.6 496.5 1262C488 1270 471.5 1273.5 464 1272.5C456.5 1271.5 463 1254.5 464 1246C465 1237.5 494.5 1221 505 1221C515.5 1221 570 1172 582 1163.5Z" fill="#AEAEAE"/>
<path d="M556.999 1005C512.999 1016.2 532.667 1110.67 551 1154L643 1116C623 1072 600.999 993.8 556.999 1005Z" fill="#5D6D92"/>
<path d="M387.999 1228.5C377.199 1223.7 349.499 1235.5 342.499 1259.5C339.368 1270.24 348.899 1280.3 354.499 1285.5C361.499 1292 371.5 1283.5 380 1279.5C388.5 1275.5 401.499 1234.5 387.999 1228.5Z" fill="#AEAEAE"/>
<path d="M395 857.5C376.5 856 370.5 863.5 364 872.5C367.5 877 371 883.5 389.5 885C398.352 885.718 414 880.5 421.5 875.5C420.333 869.5 413.844 859.028 395 857.5Z" fill="white"/>
<path d="M495 855.192C476.5 853.692 470.5 861.192 464 870.192C467.5 874.692 471 881.192 489.5 882.692C498.352 883.41 514 878.192 521.5 873.192C520.333 867.192 513.844 856.72 495 855.192Z" fill="white"/>
<path d="M403 875.5C403 880.747 397.404 885 390.5 885C383.596 885 378 880.747 378 875.5C378 870.253 383.596 866 390.5 866C397.404 866 403 870.253 403 875.5Z" fill="black"/>
<path d="M503 873.192C503 878.439 497.404 882.692 490.5 882.692C483.596 882.692 478 878.439 478 873.192C478 867.945 483.596 863.692 490.5 863.692C497.404 863.692 503 867.945 503 873.192Z" fill="black"/>
<path d="M433.5 917.5C419.498 914 411.998 919.5 421.499 925C421.499 929 416.5 935.985 443.499 938C462 939.381 479.5 930 488 919.5C469 921.5 441.5 919.5 433.5 917.5Z" fill="white"/>
<path d="M459 1167.5C459 1171.64 455.642 1175 451.5 1175C447.358 1175 444 1171.64 444 1167.5C444 1163.36 447.358 1160 451.5 1160C455.642 1160 459 1163.36 459 1167.5Z" fill="black"/>
<path d="M740 1538.5L745.053 1532.96L734.24 1523.1L732.55 1537.63L740 1538.5ZM791 1676L797.964 1678.79L797.964 1678.79L791 1676ZM690 1715L683.065 1712.14L680.577 1718.19L686.221 1721.48L690 1715ZM697 1698L698.878 1690.74L692.553 1689.1L690.065 1695.14L697 1698ZM756.5 1676L750.903 1671.01L750.903 1671.01L756.5 1676ZM737.5 1560L730.05 1559.13L729.557 1563.38L732.957 1565.97L737.5 1560ZM737 1554L742.053 1548.46L729.5 1537.01V1554H737ZM825 1682L831.964 1684.79L831.964 1684.79L825 1682ZM707 1702L699.724 1700.18L698.359 1705.64L703.221 1708.48L707 1702ZM714 1674L715.878 1666.74L708.558 1664.85L706.724 1672.18L714 1674ZM792 1682L786.403 1677.01L786.403 1677.01L792 1682ZM737 1578H729.5V1581.72L732.457 1583.97L737 1578ZM553.001 1708L549.026 1714.36L549.026 1714.36L553.001 1708ZM665 1732L665.97 1739.44L665.97 1739.44L665 1732ZM726.001 1518L722.923 1524.84L722.923 1524.84L726.001 1518ZM570.001 1504L576.492 1507.76L576.492 1507.76L570.001 1504ZM531 1587L537.066 1582.59L537.066 1582.59L531 1587ZM679.999 1620L685.221 1625.38L685.221 1625.38L679.999 1620ZM365 1109.5L367.206 1102.33L359.23 1099.88L357.638 1108.07L365 1109.5ZM343.5 1261L349.931 1257.14L343.5 1261ZM358 1271L351.856 1266.7L351.856 1266.7L358 1271ZM402.5 1219L408.095 1224L410.33 1221.49L409.952 1218.16L402.5 1219ZM391 1117.5L398.452 1116.66L397.899 1111.78L393.206 1110.33L391 1117.5ZM467 1386L474.441 1386.94L475.324 1379.97L468.422 1378.64L467 1386ZM424 1715L426.139 1722.19L430.806 1720.8L431.437 1715.97L424 1715ZM303 1751L296.444 1754.64L299.368 1759.91L305.139 1758.19L303 1751ZM366 1366.5L367.422 1359.14L358.471 1357.41L358.5 1366.52L366 1366.5ZM446.5 1541.5L453.938 1542.46L455.035 1534H446.5V1541.5ZM367 1541.5V1534H359.5V1541.5H367ZM428 1682L435.446 1682.9L436.464 1674.5H428V1682ZM383.5 920L389.338 924.708L394.54 918.258L387.604 913.723L383.5 920ZM321 812L314.534 808.2L314.534 808.2L321 812ZM453 704L453.695 711.468L453 704ZM596.5 830.5L603.984 830.988L603.984 830.988L596.5 830.5ZM584 896L576.758 894.05L575.679 898.057L578.501 901.1L584 896ZM673.5 992.5L676.968 999.15L685.682 994.605L678.999 987.4L673.5 992.5ZM478 1046L479.408 1038.63L479.408 1038.63L478 1046ZM321 997.5L315.162 992.792L308.783 1000.7L318.221 1004.47L321 997.5ZM504 1389L502.855 1381.59L493.777 1382.99L496.967 1391.6L504 1389ZM644 1767L636.973 1769.62L638.613 1774.01L643.279 1774.47L644 1767ZM789 1781L788.279 1788.47L794.413 1789.06L796.184 1783.16L789 1781ZM771 1747L767.221 1753.48L767.221 1753.48L771 1747ZM614 1372L621.37 1370.61L620.024 1363.48L612.855 1364.59L614 1372ZM566 1558L564.634 1550.63L555.85 1552.25L558.973 1560.62L566 1558ZM647 1543L654.375 1541.64L653.014 1534.26L645.634 1535.63L647 1543ZM612 1360L619.385 1358.69L618.119 1351.55L610.944 1352.57L612 1360ZM617.5 1391L621.425 1397.39L625.777 1394.72L624.885 1389.69L617.5 1391ZM525.5 1447.5L518.452 1450.06L521.593 1458.7L529.425 1453.89L525.5 1447.5ZM499.5 1376L498.444 1368.57L489.293 1369.88L492.452 1378.56L499.5 1376ZM366.5 1374L367.389 1366.55L359 1365.55V1374H366.5ZM366.5 1404H359V1407.99L362.308 1410.22L366.5 1404ZM457 1465L452.808 1471.22L462.911 1478.03L464.441 1465.94L457 1465ZM626 1717L625.14 1709.55L615.737 1710.63L618.943 1719.54L626 1717ZM374.5 1270.5L377.368 1263.57L370.355 1260.67L367.536 1267.71L374.5 1270.5ZM342 1378L334.917 1375.53L332.186 1383.38L340.27 1385.3L342 1378ZM477 1410L475.27 1417.3L483.226 1419.18L484.42 1411.09L477 1410ZM490.5 1318.5L497.92 1319.59L498.774 1313.81L493.368 1311.57L490.5 1318.5ZM433.5 1313.5L432.221 1306.11L416.853 1308.77L428.526 1319.11L433.5 1313.5ZM473 1348.5L480.015 1345.85L479.359 1344.11L477.974 1342.89L473 1348.5ZM494 1404L486.985 1406.65L489.21 1412.53L495.387 1411.37L494 1404ZM629.5 1378.5L630.887 1385.87L640.127 1384.13L636.378 1375.51L629.5 1378.5ZM589.5 1286.5L596.378 1283.51L594.028 1278.1L588.221 1279.11L589.5 1286.5ZM547 1326.5L552.617 1321.53L552.617 1321.53L547 1326.5ZM551 1315.5L557.818 1312.37L557.818 1312.37L551 1315.5ZM546.5 874.327L540.218 870.23L539.394 871.493L539.123 872.976L546.5 874.327ZM575 856.827L572.17 863.772L572.17 863.772L575 856.827ZM559.5 902.827L555.928 896.232L555.928 896.232L559.5 902.827ZM540 909.827L532.623 908.476L530.746 918.725L541.061 917.251L540 909.827ZM355.001 824.5L348.329 821.075L347.712 822.275L347.553 823.616L355.001 824.5ZM387.501 941.501L384.886 948.53L384.886 948.53L387.501 941.501ZM523.5 941.501L526.618 948.322L526.618 948.322L523.5 941.501ZM553.5 840.501L560.933 841.5L561 841.002V840.501H553.5ZM444 752L444 744.5L444 744.5L444 752ZM354.5 872.5L347.085 873.624L348.884 885.498L358.764 878.67L354.5 872.5ZM416 830L418.804 823.044L415.058 821.534L411.736 823.83L416 830ZM547.5 883L544.696 889.956L553.425 893.474L554.906 884.181L547.5 883ZM355.404 853.572C354.063 857.491 356.153 861.755 360.072 863.096C363.991 864.437 368.255 862.347 369.596 858.428L355.404 853.572ZM391 836.5L391.17 843.998L391 836.5ZM460.81 842.471C457.204 844.509 455.933 849.084 457.971 852.69C460.009 856.296 464.584 857.567 468.19 855.529L460.81 842.471ZM497.5 838L497.67 845.498L497.5 838ZM413.499 771.5L420.776 769.681L413.848 741.971L406.268 769.51L413.499 771.5ZM373.5 841.5L378.945 846.658L378.945 846.658L373.5 841.5ZM341.499 862L334.01 862.406L334.558 872.505L344.063 869.048L341.499 862ZM399.999 747L398.452 739.661L399.999 747ZM547.5 805L554.736 803.027L554.736 803.027L547.5 805ZM550.5 864L550.65 871.499L552.72 871.457L554.475 870.36L550.5 864ZM457.5 835L461.629 828.739L461.629 828.739L457.5 835ZM375 1130.5L381.964 1127.71L381.534 1126.64L380.801 1125.75L375 1130.5ZM332 1105L324.783 1102.96L323.214 1108.51L328.174 1111.45L332 1105ZM382 1013L385.034 1019.86L385.034 1019.86L382 1013ZM568 1010L575.479 1010.57L575.806 1006.24L572.219 1003.8L568 1010ZM553 1208.5L545.521 1207.93L545.362 1210.05L546.332 1211.93L553 1208.5ZM596.5 1293L599.803 1299.73L606.668 1296.37L603.168 1289.57L596.5 1293ZM422 1316.5L420.057 1323.74L420.057 1323.74L422 1316.5ZM370.5 1284.5L363.323 1282.32L362.313 1285.65L364.203 1288.57L370.5 1284.5ZM399 1190.5L406.177 1192.68L406.941 1190.16L405.964 1187.71L399 1190.5ZM421.5 1000L427.985 1003.77L436.378 989.323L420.006 992.65L421.5 1000ZM386.5 1057L380.284 1052.8L380.284 1052.8L386.5 1057ZM379.645 1312.09L386.647 1309.4L386.647 1309.4L379.645 1312.09ZM332.001 1147L334.238 1154.16L332.001 1147ZM472.001 1147L477.606 1142.02L477.606 1142.02L472.001 1147ZM390.395 1318.44L389.463 1311L389.463 1311L390.395 1318.44ZM447 959L448.162 951.591L440.255 950.35L439.531 958.321L447 959ZM522.5 948L529.981 948.534L530.809 936.946L519.907 940.962L522.5 948ZM518.5 992L511.031 991.321L510.7 994.958L513.36 997.461L518.5 992ZM535.5 1008L542.208 1011.35L544.704 1006.36L540.64 1002.54L535.5 1008ZM471.5 1047.5L469.353 1054.69L469.353 1054.69L471.5 1047.5ZM422 999.5L419.58 992.401L412.723 994.739L414.822 1001.67L422 999.5ZM521 969L524.975 975.36L528.209 973.339L528.481 969.534L521 969ZM478 984.5L479.973 991.736L479.973 991.736L478 984.5ZM579 1182.5L572.11 1185.46L573.34 1188.32L576.234 1189.47L579 1182.5ZM556 1129L553.279 1122.01L546.043 1124.83L549.11 1131.96L556 1129ZM621.5 1103.5L628.519 1100.86L625.847 1093.76L618.779 1096.51L621.5 1103.5ZM652 1200L645.036 1197.21L645.036 1197.21L652 1200ZM637.5 1209.5L641.66 1203.26L641.66 1203.26L637.5 1209.5ZM634 1174.5L628.722 1179.83L628.722 1179.83L634 1174.5ZM582 1163.5L586.336 1169.62L586.336 1169.62L582 1163.5ZM464 1246L456.552 1245.12L456.552 1245.12L464 1246ZM496.5 1262L501.64 1267.46L501.64 1267.46L496.5 1262ZM512 1248.5L510.144 1241.23L508.61 1241.62L507.366 1242.6L512 1248.5ZM551 1154L544.093 1156.92L546.99 1163.77L553.863 1160.93L551 1154ZM643 1116L645.863 1122.93L653.042 1119.97L649.828 1112.9L643 1116ZM342.499 1259.5L349.699 1261.6L342.499 1259.5ZM387.999 1228.5L384.953 1235.35L384.953 1235.35L387.999 1228.5ZM354.499 1285.5L359.603 1280L359.603 1280L354.499 1285.5ZM364 872.5L357.92 868.109L354.628 872.667L358.08 877.105L364 872.5ZM395 857.5L395.606 850.025L395.606 850.025L395 857.5ZM421.5 875.5L425.66 881.741L429.815 878.971L428.862 874.069L421.5 875.5ZM389.5 885L388.894 892.476L388.894 892.476L389.5 885ZM464 870.192L457.92 865.801L454.628 870.359L458.08 874.797L464 870.192ZM495 855.192L495.606 847.717L495.606 847.717L495 855.192ZM521.5 873.192L525.66 879.432L529.815 876.662L528.862 871.76L521.5 873.192ZM489.5 882.692L488.894 890.167L488.894 890.167L489.5 882.692ZM427.616 892.218C430.498 889.243 430.423 884.495 427.448 881.613C424.473 878.731 419.725 878.806 416.843 881.782L427.616 892.218ZM426.501 910.5L423.683 917.451L423.683 917.451L426.501 910.5ZM421.499 925H428.999V920.675L425.257 918.509L421.499 925ZM433.5 917.5L431.681 924.776L431.681 924.776L433.5 917.5ZM488 919.5L493.829 924.219L505.222 910.146L487.215 912.041L488 919.5ZM443.499 938L442.941 945.479L442.941 945.479L443.499 938ZM420.048 915.937C418.633 912.044 414.33 910.036 410.437 911.452C406.544 912.867 404.536 917.17 405.952 921.063L420.048 915.937ZM495.511 921.587C498.321 918.543 498.131 913.799 495.087 910.989C492.043 908.179 487.299 908.369 484.489 911.413L495.511 921.587ZM734.947 1544.04C750.692 1558.4 765.712 1584.51 775.408 1610.96C780.218 1624.07 783.595 1636.95 785.106 1648.07C786.65 1659.44 786.109 1668.03 784.036 1673.21L797.964 1678.79C801.491 1669.97 801.625 1658.24 799.969 1646.05C798.28 1633.62 794.582 1619.68 789.492 1605.79C779.388 1578.24 763.308 1549.6 745.053 1532.96L734.947 1544.04ZM784.036 1673.21C777.566 1689.39 765.411 1704.55 749.858 1712.44C734.703 1720.12 715.652 1721.28 693.779 1708.52L686.221 1721.48C712.348 1736.72 736.797 1735.88 756.642 1725.81C776.089 1715.95 790.434 1697.61 797.964 1678.79L784.036 1673.21ZM696.935 1717.86L703.935 1700.86L690.065 1695.14L683.065 1712.14L696.935 1717.86ZM695.122 1705.26C704.677 1707.73 714.74 1710.21 726.02 1707.23C737.268 1704.25 748.513 1696.22 762.097 1680.99L750.903 1671.01C738.087 1685.38 729.249 1690.85 722.18 1692.72C715.143 1694.59 708.657 1693.27 698.878 1690.74L695.122 1705.26ZM762.097 1680.99C777.543 1663.67 779.85 1637.4 775.262 1613.84C770.656 1590.19 758.634 1566.66 742.043 1554.03L732.957 1565.97C745.699 1575.67 756.377 1595.34 760.538 1616.71C764.717 1638.16 761.857 1658.73 750.903 1671.01L762.097 1680.99ZM744.95 1560.87L747.45 1539.37L732.55 1537.63L730.05 1559.13L744.95 1560.87ZM731.947 1559.54C748.746 1574.86 773.222 1599.54 792.03 1623.73C801.454 1635.85 809.23 1647.56 813.957 1657.71C818.891 1668.31 819.598 1675.31 818.036 1679.21L831.964 1684.79C836.002 1674.69 832.759 1662.56 827.556 1651.38C822.145 1639.76 813.596 1627.03 803.87 1614.52C784.378 1589.46 759.254 1564.14 742.053 1548.46L731.947 1559.54ZM818.036 1679.21C812.256 1693.66 797.391 1704.46 777.352 1708.26C757.437 1712.03 733.269 1708.64 710.779 1695.52L703.221 1708.48C728.731 1723.36 756.563 1727.47 780.148 1722.99C803.609 1718.54 823.744 1705.34 831.964 1684.79L818.036 1679.21ZM714.276 1703.82L721.276 1675.82L706.724 1672.18L699.724 1700.18L714.276 1703.82ZM712.122 1681.26C715.903 1682.24 720.686 1684.7 727.091 1688.13C733.13 1691.37 740.283 1695.26 747.759 1698.01C755.271 1700.78 763.725 1702.64 772.478 1701.36C781.436 1700.05 789.948 1695.57 797.597 1686.99L786.403 1677.01C780.852 1683.23 775.431 1685.77 770.31 1686.52C764.984 1687.3 759.213 1686.25 752.941 1683.94C746.634 1681.61 740.445 1678.27 734.172 1674.91C728.264 1671.75 721.764 1668.26 715.878 1666.74L712.122 1681.26ZM797.597 1686.99C806.003 1677.57 807.998 1666.32 806.059 1655.12C804.171 1644.22 798.567 1633.21 791.585 1623.03C777.588 1602.63 756.57 1583.47 741.543 1572.03L732.457 1583.97C746.763 1594.86 766.445 1612.9 779.215 1631.52C785.616 1640.85 789.913 1649.8 791.279 1657.68C792.594 1665.28 791.197 1671.63 786.403 1677.01L797.597 1686.99ZM744.5 1578V1554H729.5V1578H744.5ZM549.026 1714.36C573.952 1729.94 608.5 1746.93 665.97 1739.44L664.03 1724.56C611.1 1731.47 580.049 1716.06 556.976 1701.64L549.026 1714.36ZM665.97 1739.44C700.678 1734.91 727.325 1728.01 745.414 1716.44C754.594 1710.58 761.717 1703.42 766.502 1694.68C771.287 1685.93 773.501 1676.03 773.501 1665H758.501C758.501 1673.97 756.715 1681.32 753.343 1687.48C749.972 1693.64 744.782 1699.05 737.337 1703.81C722.176 1713.49 698.322 1720.09 664.03 1724.56L665.97 1739.44ZM773.501 1665C773.501 1645.08 773.517 1612.21 768.396 1582C765.835 1566.89 761.929 1552.04 755.863 1539.64C749.808 1527.26 741.259 1516.64 729.079 1511.16L722.923 1524.84C730.743 1528.36 737.195 1535.61 742.389 1546.23C747.573 1556.83 751.168 1570.11 753.607 1584.5C758.485 1613.29 758.501 1644.92 758.501 1665H773.501ZM729.079 1511.16C708.829 1502.05 674.728 1488.79 642.665 1482.63C626.672 1479.56 610.658 1478.15 596.923 1480.21C583.151 1482.27 570.585 1488.02 563.51 1500.24L576.492 1507.76C580.417 1500.98 587.851 1496.73 599.142 1495.04C610.469 1493.35 624.58 1494.44 639.837 1497.37C670.274 1503.21 703.174 1515.95 722.923 1524.84L729.079 1511.16ZM563.51 1500.24C554.513 1515.78 533.455 1557.2 522.953 1600.21C517.706 1621.69 514.949 1644.15 518.024 1664.2C521.13 1684.45 530.286 1702.65 549.026 1714.36L556.976 1701.64C542.833 1692.8 535.473 1679.02 532.851 1661.92C530.197 1644.62 532.501 1624.34 537.525 1603.76C547.564 1562.65 567.889 1522.62 576.492 1507.76L563.51 1500.24ZM576.661 1485.73C563.8 1498.76 547.469 1518.83 535.901 1538.03C530.134 1547.6 525.327 1557.33 522.839 1566.09C520.466 1574.44 519.6 1584.08 524.935 1591.41L537.066 1582.59C536.001 1581.12 535.185 1577.52 537.268 1570.19C539.236 1563.26 543.291 1554.83 548.749 1545.77C559.631 1527.71 575.199 1508.57 587.338 1496.27L576.661 1485.73ZM524.935 1591.41C529.99 1598.36 540.548 1605.84 552.798 1612.52C565.389 1619.39 580.891 1626.03 596.935 1630.92C612.934 1635.81 629.826 1639.07 645.112 1638.94C660.258 1638.8 674.985 1635.31 685.221 1625.38L674.778 1614.62C668.514 1620.69 658.366 1623.82 644.981 1623.94C631.736 1624.05 616.44 1621.19 601.314 1616.58C586.234 1611.97 571.674 1605.73 559.983 1599.35C547.952 1592.79 540.011 1586.64 537.066 1582.59L524.935 1591.41ZM685.221 1625.38C698.853 1612.17 712.577 1595.27 723.814 1579.05C734.971 1562.94 744.078 1546.93 748.08 1535.47L733.919 1530.53C730.588 1540.07 722.394 1554.76 711.485 1570.5C700.655 1586.13 687.546 1602.24 674.778 1614.62L685.221 1625.38ZM748.08 1535.47C750.546 1528.41 746.125 1522.36 742.614 1518.84C738.659 1514.86 732.916 1511.02 726.366 1507.44C713.139 1500.2 694.838 1493.05 675.741 1487.43C656.634 1481.81 636.287 1477.6 618.92 1476.44C610.248 1475.86 602.045 1476.03 594.99 1477.29C588.075 1478.52 581.357 1480.97 576.661 1485.73L587.338 1496.27C588.892 1494.69 592.059 1493.05 597.631 1492.05C603.061 1491.08 609.944 1490.87 617.923 1491.41C633.858 1492.47 653.074 1496.4 671.508 1501.82C689.953 1507.25 707.172 1514.03 719.164 1520.59C725.224 1523.91 729.515 1526.94 731.982 1529.42C734.894 1532.34 733.287 1532.34 733.919 1530.53L748.08 1535.47ZM357.638 1108.07C353.044 1131.71 346.451 1167.68 341.602 1198.78C339.181 1214.32 337.177 1228.75 336.082 1239.85C335.536 1245.38 335.2 1250.25 335.17 1254.07C335.155 1255.97 335.214 1257.78 335.401 1259.37C335.555 1260.68 335.894 1262.9 337.069 1264.86L349.931 1257.14C350.507 1258.1 350.417 1258.63 350.299 1257.62C350.214 1256.9 350.157 1255.78 350.17 1254.19C350.194 1251.03 350.481 1246.68 351.009 1241.32C352.063 1230.64 354.016 1216.54 356.423 1201.09C361.233 1170.24 367.79 1134.46 372.362 1110.93L357.638 1108.07ZM337.069 1264.86C338.387 1267.06 339.463 1269.26 340.604 1271.54C341.602 1273.54 342.924 1276.19 344.518 1278.19C346.121 1280.19 349.891 1283.76 355.488 1282.33C357.724 1281.75 359.449 1280.51 360.688 1279.37C361.954 1278.21 363.095 1276.8 364.144 1275.3L351.856 1266.7C351.155 1267.7 350.717 1268.16 350.539 1268.33C350.332 1268.52 350.745 1268.06 351.762 1267.8C353.018 1267.48 354.326 1267.68 355.33 1268.19C356.116 1268.59 356.392 1269.02 356.232 1268.81C355.826 1268.31 355.211 1267.21 354.021 1264.83C352.975 1262.74 351.613 1259.94 349.931 1257.14L337.069 1264.86ZM364.144 1275.3C366.671 1271.69 374.364 1262.53 383.336 1252.16C392.166 1241.94 401.863 1230.97 408.095 1224L396.905 1214C390.637 1221.03 380.884 1232.06 371.989 1242.34C363.236 1252.47 354.929 1262.31 351.856 1266.7L364.144 1275.3ZM409.952 1218.16L398.452 1116.66L383.548 1118.34L395.048 1219.84L409.952 1218.16ZM393.206 1110.33L367.206 1102.33L362.795 1116.67L388.794 1124.67L393.206 1110.33ZM459.564 1385.03L416.564 1714.03L431.437 1715.97L474.437 1386.97L459.564 1385.03ZM421.862 1707.81L300.862 1743.81L305.139 1758.19L426.139 1722.19L421.862 1707.81ZM309.557 1747.36C308.176 1744.87 305.075 1733.32 321.5 1721L312.5 1709C290.526 1725.48 291.158 1745.13 296.444 1754.64L309.557 1747.36ZM321.5 1721C340.388 1706.83 362.25 1693.4 370.748 1688.5L363.252 1675.5C354.417 1680.6 332.013 1694.37 312.5 1709L321.5 1721ZM374.5 1681.98L373.5 1366.48L358.5 1366.52L359.5 1682.02L374.5 1681.98ZM364.578 1373.86L465.579 1393.36L468.422 1378.64L367.422 1359.14L364.578 1373.86ZM439.062 1540.54L416.563 1714.04L431.438 1715.96L453.938 1542.46L439.062 1540.54ZM374.5 1682V1541.5H359.5V1682H374.5ZM367 1549H446.5V1534H367V1549ZM431.446 1715.9L435.446 1682.9L420.554 1681.1L416.555 1714.1L431.446 1715.9ZM428 1674.5H367V1689.5H428V1674.5ZM387.604 913.723C372.9 904.108 352.328 887.372 338.335 868.626C324.052 849.492 318.509 831.042 327.466 815.8L314.534 808.2C300.691 831.758 311.231 857.392 326.315 877.599C341.689 898.195 363.767 916.059 379.396 926.277L387.604 913.723ZM327.466 815.8C342.234 790.669 352.983 767.067 370.91 747.942C388.249 729.442 412.376 715.311 453.695 711.468L452.305 696.532C407.624 700.689 380.001 716.308 359.965 737.684C340.517 758.433 328.266 784.831 314.534 808.2L327.466 815.8ZM453.695 711.468C535.413 703.866 593.196 765.921 589.016 830.012L603.984 830.988C608.804 757.079 542.587 688.134 452.305 696.532L453.695 711.468ZM589.016 830.012C587.225 857.475 585.013 869.956 583 877.019C582.018 880.463 581.06 882.709 580.04 885.065C578.986 887.502 577.79 890.218 576.758 894.05L591.242 897.95C591.96 895.282 592.751 893.461 593.807 891.022C594.896 888.504 596.169 885.537 597.425 881.131C599.887 872.494 602.175 858.725 603.984 830.988L589.016 830.012ZM578.501 901.1L668.001 997.6L678.999 987.4L589.499 890.9L578.501 901.1ZM670.032 985.85C649.09 996.773 614.203 1012.57 577.902 1024.33C541.225 1036.2 504.58 1043.45 479.408 1038.63L476.592 1053.37C505.82 1058.95 545.675 1050.53 582.523 1038.6C619.747 1026.54 655.41 1010.39 676.968 999.15L670.032 985.85ZM479.408 1038.63C425.727 1028.37 353.328 1002.32 323.779 990.534L318.221 1004.47C348.005 1016.35 421.473 1042.83 476.592 1053.37L479.408 1038.63ZM326.838 1002.21L389.338 924.708L377.662 915.292L315.162 992.792L326.838 1002.21ZM496.967 1391.6L636.967 1769.6L651.033 1764.4L511.033 1386.4L496.967 1391.6ZM643.279 1774.47L788.279 1788.47L789.721 1773.53L644.721 1759.53L643.279 1774.47ZM796.184 1783.16C799.117 1773.38 797.155 1753.57 774.779 1740.52L767.221 1753.48C783.245 1762.83 782.883 1775.29 781.816 1778.84L796.184 1783.16ZM774.779 1740.52C764.542 1734.55 746.456 1727.18 728.539 1720.52C710.434 1713.79 691.87 1707.55 680.278 1703.85L675.722 1718.15C687.13 1721.78 705.466 1727.94 723.311 1734.58C741.344 1741.28 758.258 1748.25 767.221 1753.48L774.779 1740.52ZM685.37 1709.61L621.37 1370.61L606.63 1373.39L670.63 1712.39L685.37 1709.61ZM612.855 1364.59L502.855 1381.59L505.145 1396.41L615.145 1379.41L612.855 1364.59ZM558.973 1560.62L636.973 1769.62L651.027 1764.38L573.027 1555.38L558.973 1560.62ZM685.375 1709.64L654.375 1541.64L639.625 1544.36L670.625 1712.36L685.375 1709.64ZM645.634 1535.63L564.634 1550.63L567.366 1565.37L648.366 1550.37L645.634 1535.63ZM604.615 1361.31L610.115 1392.31L624.885 1389.69L619.385 1358.69L604.615 1361.31ZM613.575 1384.61L521.575 1441.11L529.425 1453.89L621.425 1397.39L613.575 1384.61ZM532.548 1444.94L506.548 1373.44L492.452 1378.56L518.452 1450.06L532.548 1444.94ZM500.556 1383.43L613.056 1367.43L610.944 1352.57L498.444 1368.57L500.556 1383.43ZM359 1374V1404H374V1374H359ZM362.308 1410.22L452.808 1471.22L461.192 1458.78L370.692 1397.78L362.308 1410.22ZM464.441 1465.94L474.441 1386.94L459.56 1385.06L449.559 1464.06L464.441 1465.94ZM467.89 1378.55L367.389 1366.55L365.611 1381.45L466.111 1393.45L467.89 1378.55ZM651.057 1764.46L633.057 1714.46L618.943 1719.54L636.943 1769.54L651.057 1764.46ZM626.86 1724.45L678.86 1718.45L677.14 1703.55L625.14 1709.55L626.86 1724.45ZM367.536 1267.71C366.568 1270.14 364.669 1276.42 362.352 1284.32C359.971 1292.43 356.983 1302.82 353.784 1313.85C347.356 1336.01 340.089 1360.68 334.917 1375.53L349.083 1380.47C354.411 1365.16 361.794 1340.08 368.191 1318.03C371.405 1306.95 374.372 1296.62 376.745 1288.54C379.181 1280.24 380.832 1274.86 381.464 1273.29L367.536 1267.71ZM340.27 1385.3L475.27 1417.3L478.73 1402.7L343.73 1370.7L340.27 1385.3ZM484.42 1411.09L497.92 1319.59L483.08 1317.41L469.58 1408.91L484.42 1411.09ZM493.368 1311.57L377.368 1263.57L371.632 1277.43L487.632 1325.43L493.368 1311.57ZM428.526 1319.11L468.026 1354.11L477.974 1342.89L438.474 1307.89L428.526 1319.11ZM465.985 1351.15L486.985 1406.65L501.015 1401.35L480.015 1345.85L465.985 1351.15ZM495.387 1411.37L630.887 1385.87L628.113 1371.13L492.613 1396.63L495.387 1411.37ZM636.378 1375.51L596.378 1283.51L582.622 1289.49L622.622 1381.49L636.378 1375.51ZM588.221 1279.11L432.221 1306.11L434.779 1320.89L590.779 1293.89L588.221 1279.11ZM564.747 1293.76C569.518 1303.63 580.366 1328.08 585.789 1347.06L600.211 1342.94C594.434 1322.72 583.148 1297.37 578.253 1287.24L564.747 1293.76ZM585.789 1347.06C591.41 1366.74 595.842 1380.74 597.385 1385.37L611.615 1380.63C610.158 1376.26 605.79 1362.46 600.211 1342.94L585.789 1347.06ZM582.728 1317.52C578.771 1319.82 572.052 1322.67 565.534 1323.75C558.625 1324.9 554.542 1323.71 552.617 1321.53L541.383 1331.47C548.658 1339.69 559.742 1339.92 567.991 1338.55C576.632 1337.11 585.062 1333.51 590.272 1330.48L582.728 1317.52ZM552.617 1321.53C549.399 1317.89 547.452 1312.11 546.146 1305.77C545.509 1302.68 545.101 1299.9 544.666 1297.29C544.461 1296.06 544.233 1294.79 543.965 1293.66C543.751 1292.77 543.313 1291.03 542.341 1289.5L529.659 1297.5C529.187 1296.76 529.18 1296.33 529.374 1297.14C529.514 1297.73 529.671 1298.57 529.871 1299.77C530.249 1302.02 530.741 1305.34 531.454 1308.8C532.848 1315.57 535.401 1324.71 541.383 1331.47L552.617 1321.53ZM581.047 1311.61C575.973 1313.78 570.208 1315.72 565.413 1315.93C563.089 1316.03 561.46 1315.69 560.373 1315.17C559.442 1314.72 558.553 1313.98 557.818 1312.37L544.182 1318.63C546.34 1323.33 549.711 1326.68 553.869 1328.68C557.871 1330.61 562.163 1331.08 566.053 1330.91C573.687 1330.59 581.53 1327.72 586.956 1325.39L581.047 1311.61ZM557.818 1312.37C555.503 1307.33 554.946 1303.64 554.802 1300.86C554.723 1299.33 554.764 1298.12 554.773 1296.56C554.781 1295.24 554.783 1293.21 554.276 1291.18L539.724 1294.82C539.717 1294.79 539.782 1295.07 539.773 1296.47C539.767 1297.63 539.714 1299.54 539.822 1301.64C540.053 1306.11 540.996 1311.67 544.182 1318.63L557.818 1312.37ZM552.782 878.424C554.967 875.073 558.853 870.305 563.152 866.993C567.805 863.409 570.679 863.165 572.17 863.772L577.83 849.881C568.521 846.088 559.645 850.761 553.998 855.11C547.997 859.732 543.033 865.913 540.218 870.23L552.782 878.424ZM572.17 863.772C572.247 863.804 572.224 863.806 572.165 863.753C572.108 863.702 572.098 863.671 572.123 863.716C572.193 863.845 572.428 864.392 572.464 865.637C572.539 868.223 571.71 872.085 569.864 876.629C568.067 881.053 565.541 885.544 562.834 889.236C560.005 893.095 557.482 895.39 555.928 896.232L563.072 909.421C567.518 907.013 571.62 902.621 574.931 898.105C578.365 893.422 581.496 887.85 583.761 882.274C585.977 876.819 587.618 870.742 587.458 865.204C587.294 859.533 585.027 852.813 577.83 849.881L572.17 863.772ZM555.928 896.232C549.231 899.859 541.496 902.037 538.939 902.402L541.061 917.251C545.504 916.616 554.93 913.832 563.072 909.421L555.928 896.232ZM547.377 911.177L553.877 875.677L539.123 872.976L532.623 908.476L547.377 911.177ZM347.553 823.616C345.486 841.014 344.984 867.843 349.476 892.186C351.722 904.36 355.284 916.294 360.794 926.199C366.316 936.127 374.086 944.511 384.886 948.53L390.117 934.471C383.716 932.09 378.324 926.858 373.902 918.908C369.468 910.936 366.306 900.732 364.227 889.465C360.068 866.925 360.516 841.653 362.448 825.385L347.553 823.616ZM384.886 948.53C407.564 956.968 435.83 960.095 461.636 959.628C487.3 959.163 511.748 955.119 526.618 948.322L520.382 934.679C508.252 940.225 486.201 944.181 461.365 944.63C436.672 945.077 410.439 942.033 390.117 934.471L384.886 948.53ZM526.618 948.322C534.075 944.913 539.088 937.253 542.653 929.428C546.366 921.278 549.251 911.262 551.568 900.923C556.202 880.251 558.882 856.765 560.933 841.5L546.067 839.501C543.952 855.236 541.381 877.793 536.932 897.642C534.708 907.564 532.092 916.429 529.003 923.208C525.766 930.313 522.675 933.631 520.382 934.679L526.618 948.322ZM561 840.501C561 805.581 525.862 744.5 444 744.5L444 759.5C517.138 759.5 546 813.419 546 840.501H561ZM444 744.5C404.371 744.5 382.171 758.967 368.94 776.852C362.505 785.55 358.414 794.755 355.376 802.684C353.88 806.588 352.554 810.423 351.431 813.51C350.252 816.752 349.28 819.223 348.329 821.075L361.673 827.926C363.097 825.153 364.345 821.889 365.528 818.637C366.767 815.23 367.943 811.811 369.383 808.051C372.217 800.652 375.735 792.888 380.999 785.773C391.164 772.033 408.713 759.5 444 759.5L444 744.5ZM358.764 878.67L420.264 836.17L411.736 823.83L350.236 866.33L358.764 878.67ZM413.196 836.956L544.696 889.956L550.304 876.044L418.804 823.044L413.196 836.956ZM547.5 883C554.906 884.181 554.906 884.181 554.907 884.18C554.907 884.18 554.907 884.18 554.907 884.179C554.907 884.179 554.907 884.178 554.907 884.177C554.907 884.175 554.908 884.172 554.908 884.169C554.909 884.162 554.911 884.152 554.913 884.139C554.917 884.114 554.923 884.078 554.93 884.029C554.946 883.933 554.968 883.789 554.998 883.597C555.058 883.213 555.147 882.633 555.267 881.844C555.506 880.264 555.868 877.842 556.36 874.452C557.343 867.673 558.847 857.022 560.933 841.5L546.067 839.501C543.987 854.979 542.49 865.578 541.515 872.298C541.028 875.659 540.671 878.049 540.436 879.594C540.319 880.367 540.233 880.928 540.176 881.294C540.147 881.476 540.126 881.61 540.113 881.697C540.106 881.741 540.101 881.772 540.098 881.793C540.096 881.803 540.095 881.81 540.094 881.814C540.094 881.817 540.094 881.818 540.094 881.819C540.094 881.819 540.093 881.819 540.093 881.82C540.093 881.82 540.093 881.819 540.093 881.819C540.094 881.819 540.094 881.819 547.5 883ZM444 744.5C404.548 744.5 377.04 758.989 361.124 783.404C345.483 807.397 341.933 839.623 347.085 873.624L361.916 871.376C357.067 839.377 360.809 811.353 373.689 791.596C386.294 772.261 408.536 759.5 444 759.5L444 744.5ZM369.596 858.428C371.088 854.067 377.655 844.305 391.17 843.998L390.83 829.002C369.145 829.495 358.245 845.266 355.404 853.572L369.596 858.428ZM391.17 843.998C398.801 843.825 403.783 845.453 406.818 847.148C408.353 848.006 409.423 848.897 410.121 849.63C410.854 850.401 411.08 850.891 411.077 850.885L424.923 845.115C421.77 837.549 410.665 828.551 390.83 829.002L391.17 843.998ZM468.19 855.529C474.662 851.872 477.518 849.805 481.553 848.154C485.074 846.713 489.481 845.684 497.67 845.498L497.33 830.502C487.919 830.716 481.576 831.937 475.872 834.271C470.682 836.395 465.838 839.628 460.81 842.471L468.19 855.529ZM497.67 845.498C504.091 845.352 510.659 848.414 516.217 852.594C518.922 854.628 521.183 856.777 522.821 858.586C524.672 860.632 525.184 861.642 525.077 861.385L538.923 855.615C537.982 853.358 535.965 850.756 533.942 848.52C531.704 846.048 528.744 843.247 525.233 840.606C518.358 835.436 508.509 830.248 497.33 830.502L497.67 845.498ZM406.268 769.51C403.981 777.82 398.773 789.998 391.815 802.552C384.869 815.083 376.472 827.458 368.055 836.342L378.945 846.658C388.529 836.542 397.631 823 404.935 809.823C412.226 796.669 418.018 783.347 420.731 773.49L406.268 769.51ZM368.055 836.342C360.935 843.857 354.526 848.15 349.629 850.7C344.598 853.32 341.408 854.053 338.936 854.951L344.063 869.048C345.258 868.614 350.36 867.232 356.558 864.004C362.892 860.705 370.649 855.414 378.945 846.658L368.055 836.342ZM348.988 861.594C348.111 845.395 349.889 820.409 357.908 798.433C365.938 776.423 379.568 758.975 401.547 754.338L398.452 739.661C369.231 745.825 352.694 768.96 343.816 793.292C334.926 817.657 333.055 844.772 334.01 862.406L348.988 861.594ZM401.547 754.338C432.784 747.75 464.114 747.299 489.266 755.39C514.078 763.371 532.788 779.561 540.264 806.973L554.736 803.027C545.712 769.939 522.672 750.379 493.859 741.11C465.385 731.951 431.215 732.75 398.452 739.661L401.547 754.338ZM540.264 806.973C546.807 830.965 548.301 844.171 547.959 851.355C547.79 854.884 547.194 856.527 546.872 857.167C546.643 857.625 546.542 857.63 546.525 857.64L554.475 870.36C556.458 869.12 558.632 867.175 560.278 863.898C561.831 860.804 562.71 856.928 562.941 852.07C563.399 842.479 561.393 827.435 554.736 803.027L540.264 806.973ZM550.35 856.501C539.02 856.728 522.534 853.614 505.676 848.342C488.882 843.09 472.594 835.971 461.629 828.739L453.371 841.261C465.906 849.529 483.618 857.16 501.199 862.658C518.716 868.136 536.98 871.772 550.65 871.499L550.35 856.501ZM461.629 828.739C451.76 822.23 443.643 815.42 436.979 806.432C430.318 797.45 424.837 785.925 420.776 769.681L406.223 773.319C410.663 791.074 416.871 804.499 424.93 815.367C432.985 826.229 442.618 834.169 453.371 841.261L461.629 828.739ZM378.826 1124.05L335.826 1098.55L328.174 1111.45L371.174 1136.95L378.826 1124.05ZM339.217 1107.04C343.457 1092.04 350.608 1071.78 359.187 1054.25C363.478 1045.48 368.031 1037.59 372.636 1031.44C377.356 1025.13 381.596 1021.38 385.034 1019.86L378.966 1006.14C372.004 1009.22 365.877 1015.44 360.627 1022.45C355.261 1029.62 350.239 1038.41 345.713 1047.65C336.658 1066.16 329.21 1087.29 324.783 1102.96L339.217 1107.04ZM385.034 1019.86C397.498 1014.35 428.041 1003.46 462.815 999.066C497.779 994.649 535.535 996.984 563.781 1016.2L572.219 1003.8C539.465 981.516 497.221 979.601 460.935 984.184C424.459 988.792 392.502 1000.15 378.966 1006.14L385.034 1019.86ZM560.521 1009.43L545.521 1207.93L560.479 1209.07L575.479 1010.57L560.521 1009.43ZM546.332 1211.93L589.832 1296.43L603.168 1289.57L559.668 1205.07L546.332 1211.93ZM593.197 1286.27C541.096 1311.83 487.538 1326.32 423.943 1309.26L420.057 1323.74C488.462 1342.1 545.904 1326.17 599.803 1299.73L593.197 1286.27ZM423.943 1309.26C412.036 1306.06 400.465 1299.33 391.478 1292.84C387.027 1289.62 383.32 1286.55 380.65 1284.14C379.313 1282.93 378.267 1281.92 377.535 1281.17C376.638 1280.25 376.571 1280.08 376.797 1280.43L364.203 1288.57C364.888 1289.63 365.952 1290.77 366.788 1291.63C367.789 1292.66 369.076 1293.9 370.601 1295.27C373.654 1298.03 377.781 1301.45 382.692 1305C392.428 1312.03 405.69 1319.89 420.057 1323.74L423.943 1309.26ZM377.677 1286.68L406.177 1192.68L391.823 1188.32L363.323 1282.32L377.677 1286.68ZM405.964 1187.71L381.964 1127.71L368.036 1133.29L392.036 1193.29L405.964 1187.71ZM385.034 1019.86C395.042 1015.43 404.581 1012.29 411.63 1010.26C415.147 1009.24 418.025 1008.51 420.008 1008.03C420.998 1007.79 421.764 1007.62 422.273 1007.5C422.527 1007.45 422.717 1007.41 422.839 1007.38C422.899 1007.37 422.943 1007.36 422.969 1007.35C422.982 1007.35 422.991 1007.35 422.995 1007.35C422.997 1007.35 422.998 1007.35 422.998 1007.35C422.997 1007.35 422.997 1007.35 422.996 1007.35C422.996 1007.35 422.995 1007.35 422.995 1007.35C422.994 1007.35 422.994 1007.35 421.5 1000C420.006 992.65 420.005 992.65 420.004 992.651C420.004 992.651 420.003 992.651 420.002 992.651C420 992.652 419.998 992.652 419.996 992.652C419.991 992.653 419.985 992.655 419.978 992.656C419.964 992.659 419.945 992.663 419.922 992.668C419.876 992.677 419.812 992.69 419.731 992.708C419.568 992.742 419.336 992.792 419.039 992.858C418.443 992.989 417.586 993.184 416.499 993.446C414.325 993.969 411.228 994.76 407.47 995.844C399.969 998.01 389.758 1001.37 378.966 1006.14L385.034 1019.86ZM421.5 1000C415.015 996.232 415.015 996.232 415.015 996.232C415.015 996.232 415.015 996.233 415.015 996.233C415.014 996.234 415.013 996.236 415.012 996.238C415.01 996.242 415.006 996.248 415.001 996.257C414.991 996.274 414.976 996.3 414.956 996.335C414.915 996.404 414.855 996.508 414.775 996.644C414.616 996.917 414.38 997.322 414.075 997.844C413.464 998.889 412.576 1000.41 411.467 1002.29C409.249 1006.06 406.151 1011.29 402.634 1017.14C395.577 1028.88 386.914 1042.98 380.284 1052.8L392.716 1061.2C399.586 1051.02 408.423 1036.62 415.491 1024.86C419.036 1018.96 422.157 1013.69 424.392 1009.9C425.51 1008 426.407 1006.47 427.025 1005.41C427.334 1004.89 427.573 1004.48 427.735 1004.2C427.816 1004.06 427.878 1003.95 427.92 1003.88C427.941 1003.84 427.957 1003.82 427.968 1003.8C427.973 1003.79 427.977 1003.78 427.98 1003.78C427.982 1003.77 427.983 1003.77 427.983 1003.77C427.984 1003.77 427.984 1003.77 427.984 1003.77C427.985 1003.77 427.985 1003.77 421.5 1000ZM380.284 1052.8C363.279 1078 359.768 1098.08 361.134 1112.46C361.81 1119.58 363.665 1125.09 365.434 1128.92C366.317 1130.82 367.177 1132.31 367.855 1133.36C368.195 1133.89 368.489 1134.31 368.719 1134.63C368.835 1134.79 368.934 1134.92 369.015 1135.02C369.055 1135.07 369.091 1135.12 369.122 1135.16C369.137 1135.18 369.151 1135.2 369.164 1135.21C369.171 1135.22 369.177 1135.23 369.183 1135.23C369.186 1135.24 369.19 1135.24 369.191 1135.24C369.195 1135.25 369.199 1135.25 375 1130.5C380.801 1125.75 380.804 1125.75 380.808 1125.76C380.809 1125.76 380.813 1125.76 380.815 1125.76C380.82 1125.77 380.824 1125.77 380.828 1125.78C380.836 1125.79 380.843 1125.8 380.848 1125.8C380.859 1125.82 380.866 1125.83 380.868 1125.83C380.871 1125.83 380.857 1125.82 380.827 1125.77C380.767 1125.69 380.644 1125.52 380.475 1125.26C380.137 1124.73 379.617 1123.85 379.047 1122.62C377.91 1120.16 376.565 1116.29 376.066 1111.04C375.082 1100.67 377.321 1084 392.716 1061.2L380.284 1052.8ZM386.647 1309.4C375.141 1279.41 360.226 1239.27 349.729 1206.2C344.466 1189.62 340.398 1175.08 338.393 1164.57C337.377 1159.24 336.983 1155.4 337.073 1153.01C337.118 1151.79 337.278 1151.48 337.193 1151.69C337.066 1151.99 336.292 1153.52 334.238 1154.16L329.764 1139.84C326.174 1140.96 324.25 1143.73 323.326 1145.97C322.443 1148.11 322.159 1150.43 322.083 1152.45C321.929 1156.57 322.583 1161.74 323.659 1167.38C325.837 1178.8 330.128 1194.03 335.432 1210.74C346.069 1244.25 361.115 1284.73 372.643 1314.77L386.647 1309.4ZM334.238 1154.16C335.508 1153.76 338.446 1153.21 343.182 1152.64C347.735 1152.09 353.477 1151.57 360.03 1151.11C373.127 1150.18 389.238 1149.5 405.118 1149.25C421.02 1149 436.543 1149.19 448.504 1149.98C454.509 1150.38 459.422 1150.92 462.965 1151.58C464.749 1151.92 465.983 1152.25 466.753 1152.52C467.775 1152.89 467.196 1152.88 466.395 1151.98L477.606 1142.02C475.805 1139.99 473.382 1138.96 471.818 1138.4C470.003 1137.75 467.909 1137.25 465.723 1136.84C461.329 1136.02 455.741 1135.43 449.497 1135.02C436.958 1134.18 420.98 1134 404.883 1134.25C388.763 1134.5 372.374 1135.2 358.971 1136.14C352.274 1136.62 346.266 1137.16 341.382 1137.75C336.68 1138.32 332.493 1138.99 329.764 1139.84L334.238 1154.16ZM466.395 1151.98C465.825 1151.34 465.646 1150.86 465.836 1151.25C465.937 1151.46 466.109 1151.84 466.353 1152.46C466.836 1153.68 467.459 1155.44 468.211 1157.73C469.708 1162.28 471.597 1168.56 473.737 1176.04C478.01 1190.98 483.207 1210.45 488.128 1229.85C493.051 1249.27 497.677 1268.54 500.818 1283.11C502.393 1290.42 503.569 1296.43 504.227 1300.65C504.561 1302.79 504.73 1304.28 504.776 1305.16C504.801 1305.64 504.774 1305.67 504.802 1305.43C504.815 1305.32 504.87 1304.86 505.087 1304.25C505.257 1303.77 505.849 1302.24 507.501 1301L516.501 1313C518.277 1311.67 518.973 1309.97 519.227 1309.25C519.527 1308.41 519.646 1307.64 519.702 1307.16C519.817 1306.17 519.798 1305.18 519.756 1304.38C519.669 1302.72 519.406 1300.64 519.048 1298.34C518.323 1293.69 517.074 1287.34 515.481 1279.95C512.287 1265.14 507.613 1245.67 502.668 1226.17C497.721 1206.66 492.485 1187.04 488.158 1171.92C485.998 1164.36 484.047 1157.87 482.461 1153.04C481.671 1150.64 480.943 1148.56 480.302 1146.94C479.984 1146.14 479.65 1145.35 479.308 1144.65C479.054 1144.14 478.492 1143.01 477.606 1142.02L466.395 1151.98ZM507.501 1301C508.089 1300.56 508.596 1300.33 508.789 1300.24C509.025 1300.14 509.194 1300.08 509.246 1300.07C509.345 1300.03 509.313 1300.05 509.073 1300.1C508.607 1300.2 507.83 1300.33 506.683 1300.48C504.416 1300.79 501.189 1301.13 497.136 1301.51C489.052 1302.26 478.077 1303.1 465.75 1304.05C441.203 1305.95 411.354 1308.26 389.463 1311L391.326 1325.88C412.787 1323.2 442.238 1320.91 466.904 1319.01C479.183 1318.06 490.293 1317.2 498.518 1316.44C502.62 1316.06 506.104 1315.7 508.697 1315.35C509.979 1315.17 511.17 1314.99 512.158 1314.78C512.645 1314.68 513.211 1314.54 513.774 1314.37C514.115 1314.26 515.325 1313.88 516.501 1313L507.501 1301ZM372.643 1314.77C375.589 1322.45 383.384 1326.87 391.326 1325.88L389.463 1311C388.147 1311.16 387.043 1310.43 386.647 1309.4L372.643 1314.77ZM445.838 966.409C450.375 967.121 457.838 967.953 465.808 968.197C473.648 968.436 482.627 968.132 489.874 966.262L486.126 951.738C480.973 953.068 473.702 953.431 466.267 953.203C458.962 952.98 452.125 952.212 448.162 951.591L445.838 966.409ZM489.874 966.262C502.633 962.97 518.671 957.403 525.093 955.038L519.907 940.962C513.662 943.263 498.167 948.63 486.126 951.738L489.874 966.262ZM515.031 947.321L511.031 991.321L525.969 992.679L529.969 948.679L515.031 947.321ZM513.36 997.461L530.36 1013.46L540.64 1002.54L523.64 986.539L513.36 997.461ZM528.792 1004.65C524.899 1012.43 517.217 1023.66 507.168 1031.73C497.182 1039.74 485.83 1043.95 473.647 1040.31L469.353 1054.69C487.97 1060.25 504.368 1053.21 516.557 1043.42C528.683 1033.69 537.601 1020.57 542.208 1011.35L528.792 1004.65ZM473.647 1040.31C445.991 1032.05 432.536 1008.42 429.178 997.328L414.822 1001.67C419.131 1015.91 435.409 1044.55 469.353 1054.69L473.647 1040.31ZM424.42 1006.6L446.42 999.099L441.58 984.901L419.58 992.401L424.42 1006.6ZM451.469 992.679L454.469 959.679L439.531 958.321L436.531 991.321L451.469 992.679ZM515.019 947.466L513.519 968.466L528.481 969.534L529.981 948.534L515.019 947.466ZM445.382 999.372C453.309 997.885 463.125 996.331 479.973 991.736L476.027 977.264C459.875 981.669 450.691 983.115 442.618 984.628L445.382 999.372ZM479.973 991.736C488.492 989.412 498.455 986.088 506.768 983.042C510.933 981.516 514.741 980.039 517.795 978.768C520.643 977.584 523.368 976.364 524.975 975.36L517.025 962.64C517.028 962.638 516.995 962.659 516.916 962.703C516.839 962.746 516.734 962.803 516.597 962.873C516.322 963.015 515.962 963.192 515.511 963.402C514.607 963.824 513.438 964.335 512.033 964.919C509.228 966.086 505.629 967.484 501.607 968.958C493.545 971.912 484.007 975.088 476.027 977.264L479.973 991.736ZM585.89 1179.54L562.89 1126.04L549.11 1131.96L572.11 1185.46L585.89 1179.54ZM558.721 1135.99L624.221 1110.49L618.779 1096.51L553.279 1122.01L558.721 1135.99ZM614.481 1106.14C620.043 1120.92 628.232 1143.45 634.72 1162.99C637.969 1172.78 640.755 1181.7 642.572 1188.5C643.485 1191.92 644.112 1194.64 644.441 1196.59C644.607 1197.58 644.668 1198.21 644.681 1198.54C644.704 1199.14 644.568 1198.38 645.036 1197.21L658.964 1202.79C659.732 1200.87 659.707 1198.93 659.67 1197.97C659.623 1196.74 659.453 1195.41 659.232 1194.1C658.789 1191.47 658.024 1188.22 657.063 1184.63C655.131 1177.4 652.235 1168.14 648.955 1158.26C642.385 1138.47 634.123 1115.75 628.519 1100.86L614.481 1106.14ZM645.036 1197.21C644.25 1199.18 642.633 1200.86 640.953 1201.84C640.125 1202.33 639.551 1202.49 639.376 1202.52C639.007 1202.58 640.155 1202.26 641.66 1203.26L633.34 1215.74C636.345 1217.74 639.68 1217.67 641.842 1217.31C644.199 1216.92 646.5 1215.98 648.547 1214.78C652.617 1212.39 656.75 1208.32 658.964 1202.79L645.036 1197.21ZM641.66 1203.26C640.928 1202.77 639.664 1202.11 638.558 1201.54C637.252 1200.87 635.529 1200 633.497 1199C629.429 1197 624.04 1194.4 618.104 1191.61C606.272 1186.05 592.074 1179.62 581.766 1175.53L576.234 1189.47C586.093 1193.38 599.945 1199.65 611.721 1205.19C617.589 1207.95 622.894 1210.5 626.868 1212.46C628.858 1213.44 630.494 1214.26 631.691 1214.88C633.088 1215.6 633.472 1215.83 633.34 1215.74L641.66 1203.26ZM639.279 1169.17C630.534 1160.51 618.381 1155.55 607.386 1153.59C601.83 1152.6 596.305 1152.32 591.335 1152.83C586.503 1153.33 581.535 1154.64 577.665 1157.38L586.336 1169.62C587.266 1168.96 589.355 1168.12 592.869 1167.76C596.245 1167.41 600.355 1167.57 604.756 1168.36C613.675 1169.94 622.722 1173.88 628.722 1179.83L639.279 1169.17ZM577.665 1157.38C574.367 1159.72 568.435 1164.61 561.588 1170.3C554.599 1176.12 546.387 1182.99 538.218 1189.61C530.03 1196.24 522.028 1202.49 515.482 1207.06C512.197 1209.35 509.428 1211.12 507.275 1212.27C506.198 1212.85 505.405 1213.21 504.869 1213.41C504.231 1213.65 504.367 1213.5 505 1213.5V1228.5C506.946 1228.5 508.739 1227.97 510.059 1227.48C511.48 1226.96 512.946 1226.26 514.388 1225.48C517.272 1223.93 520.577 1221.8 524.066 1219.36C531.067 1214.48 539.408 1207.95 547.658 1201.27C555.926 1194.57 564.246 1187.6 571.179 1181.84C578.254 1175.95 583.634 1171.53 586.336 1169.62L577.665 1157.38ZM505 1213.5C500.888 1213.5 495.972 1214.99 491.553 1216.73C486.886 1218.58 481.831 1221.08 477.133 1223.85C472.461 1226.6 467.91 1229.74 464.356 1232.91C462.584 1234.5 460.899 1236.23 459.56 1238.06C458.298 1239.79 456.893 1242.22 456.552 1245.12L471.449 1246.88C471.357 1247.66 471.094 1247.71 471.677 1246.91C472.184 1246.21 473.05 1245.26 474.348 1244.1C476.935 1241.79 480.602 1239.21 484.743 1236.78C488.857 1234.35 493.209 1232.21 497.057 1230.69C501.154 1229.07 503.863 1228.5 505 1228.5V1213.5ZM456.552 1245.12C456.358 1246.78 455.868 1249.01 455.208 1251.94C454.592 1254.66 453.851 1257.91 453.395 1260.95C452.967 1263.82 452.622 1267.49 453.387 1270.81C453.792 1272.57 454.609 1274.7 456.32 1276.54C458.143 1278.49 460.501 1279.6 463.009 1279.93L464.992 1265.07C465.625 1265.15 466.546 1265.51 467.292 1266.31C467.927 1266.99 468.03 1267.56 468.005 1267.45C467.91 1267.04 467.847 1265.74 468.231 1263.17C468.588 1260.78 469.19 1258.12 469.84 1255.24C470.446 1252.55 471.143 1249.47 471.449 1246.88L456.552 1245.12ZM463.009 1279.93C468.155 1280.62 475.261 1279.74 481.936 1277.84C488.656 1275.92 496.177 1272.6 501.64 1267.46L491.36 1256.54C488.323 1259.4 483.344 1261.83 477.815 1263.41C472.24 1265.01 467.346 1265.38 464.992 1265.07L463.009 1279.93ZM501.64 1267.46C508.269 1261.22 514.466 1256.1 516.634 1254.4L507.366 1242.6C504.868 1244.57 498.332 1249.98 491.36 1256.54L501.64 1267.46ZM512 1248.5C513.856 1255.77 513.857 1255.77 513.858 1255.77C513.86 1255.77 513.861 1255.77 513.864 1255.76C513.868 1255.76 513.875 1255.76 513.883 1255.76C513.9 1255.76 513.926 1255.75 513.959 1255.74C514.026 1255.72 514.126 1255.7 514.257 1255.66C514.518 1255.6 514.906 1255.5 515.41 1255.37C516.419 1255.11 517.896 1254.73 519.775 1254.24C523.533 1253.26 528.899 1251.85 535.337 1250.14C548.209 1246.71 565.387 1242.04 582.578 1237.08C599.738 1232.13 617.036 1226.87 630.097 1222.24C636.591 1219.94 642.258 1217.73 646.388 1215.72C648.414 1214.74 650.384 1213.66 651.954 1212.48C652.731 1211.9 653.684 1211.1 654.506 1210.05C655.272 1209.07 656.5 1207.15 656.5 1204.5H641.5C641.5 1202.41 642.46 1201.1 642.708 1200.79C643.012 1200.4 643.195 1200.3 642.968 1200.47C642.532 1200.8 641.559 1201.39 639.838 1202.23C636.476 1203.86 631.44 1205.85 625.091 1208.1C612.464 1212.57 595.512 1217.74 578.422 1222.67C561.363 1227.59 544.291 1232.23 531.475 1235.64C525.07 1237.35 519.733 1238.75 515.998 1239.72C514.131 1240.21 512.665 1240.58 511.667 1240.84C511.168 1240.97 510.786 1241.07 510.529 1241.13C510.401 1241.17 510.304 1241.19 510.239 1241.21C510.207 1241.22 510.183 1241.22 510.167 1241.23C510.159 1241.23 510.153 1241.23 510.149 1241.23C510.147 1241.23 510.146 1241.23 510.145 1241.23C510.144 1241.23 510.144 1241.23 512 1248.5ZM656.5 1204.5C656.5 1196.84 655.021 1190.56 651.844 1184.7C648.787 1179.06 644.361 1174.21 639.279 1169.17L628.722 1179.83C633.64 1184.7 636.713 1188.26 638.656 1191.84C640.48 1195.21 641.5 1198.97 641.5 1204.5H656.5ZM557.907 1151.08C549.019 1130.07 539.765 1096.47 538.113 1067.03C537.284 1052.27 538.409 1039.22 541.966 1029.49C545.438 1019.98 550.912 1014.29 558.849 1012.27L555.149 997.732C541.087 1001.31 532.519 1011.63 527.876 1024.34C523.319 1036.82 522.256 1052.19 523.136 1067.87C524.901 1099.3 534.647 1134.6 544.093 1156.92L557.907 1151.08ZM558.849 1012.27C567.281 1010.12 574.608 1012.1 581.677 1017.42C589.036 1022.96 595.928 1032.03 602.486 1043.52C608.995 1054.92 614.849 1068.11 620.39 1081.4C625.851 1094.51 631.11 1107.97 636.172 1119.1L649.828 1112.9C644.89 1102.03 639.899 1089.22 634.235 1075.63C628.65 1062.24 622.505 1048.33 615.513 1036.08C608.571 1023.92 600.463 1012.79 590.697 1005.44C580.641 997.871 568.718 994.278 555.149 997.732L558.849 1012.27ZM640.137 1109.07L548.137 1147.07L553.863 1160.93L645.863 1122.93L640.137 1109.07ZM349.699 1261.6C352.541 1251.86 359.701 1244.3 367.61 1239.67C371.539 1237.38 375.435 1235.94 378.724 1235.31C382.186 1234.65 384.208 1235.02 384.953 1235.35L391.045 1221.65C386.39 1219.58 380.9 1219.62 375.912 1220.58C370.751 1221.56 365.259 1223.67 360.039 1226.73C349.647 1232.8 339.457 1243.14 335.299 1257.4L349.699 1261.6ZM384.953 1235.35C384.96 1235.36 384.959 1235.36 384.956 1235.35C384.953 1235.35 384.961 1235.36 384.981 1235.38C385.018 1235.41 385.131 1235.54 385.281 1235.81C385.607 1236.42 385.985 1237.52 386.189 1239.3C386.602 1242.88 386.151 1247.77 384.938 1253.08C383.742 1258.32 381.924 1263.46 379.998 1267.39C379.033 1269.36 378.119 1270.87 377.349 1271.89C376.457 1273.08 376.217 1272.99 376.807 1272.71L383.193 1286.29C385.908 1285.01 387.934 1282.77 389.327 1280.92C390.842 1278.91 392.233 1276.51 393.47 1273.99C395.951 1268.92 398.133 1262.68 399.562 1256.42C400.973 1250.23 401.772 1243.5 401.091 1237.58C400.444 1231.96 398.122 1224.79 391.045 1221.65L384.953 1235.35ZM376.807 1272.71C374.372 1273.86 371.843 1275.32 369.745 1276.5C367.494 1277.76 365.593 1278.78 363.851 1279.49C360.232 1280.97 359.793 1280.18 359.603 1280L349.396 1291C356.206 1297.32 364.267 1295.53 369.523 1293.38C372.219 1292.28 374.85 1290.83 377.083 1289.58C379.47 1288.24 381.378 1287.14 383.193 1286.29L376.807 1272.71ZM359.603 1280C356.943 1277.53 353.797 1274.3 351.665 1270.73C349.534 1267.16 348.947 1264.18 349.699 1261.6L335.299 1257.4C332.921 1265.55 335.533 1272.97 338.786 1278.42C342.037 1283.87 346.456 1288.27 349.396 1291L359.603 1280ZM369 1578.5C371.079 1578.5 375.714 1578.4 381.51 1578.31C387.384 1578.22 394.62 1578.12 402.125 1578.12C417.415 1578.12 432.968 1578.52 440.697 1579.89L443.303 1565.11C434.032 1563.48 417.085 1563.12 402.125 1563.12C394.505 1563.12 387.178 1563.22 381.271 1563.31C375.286 1563.41 370.921 1563.5 369 1563.5V1578.5ZM368 1599.5C374.752 1599.5 389.679 1599.5 404.278 1599.81C411.582 1599.97 418.746 1600.2 424.734 1600.54C430.918 1600.9 435.285 1601.35 437.338 1601.81L440.662 1587.19C437.215 1586.4 431.644 1585.91 425.594 1585.57C419.348 1585.21 411.981 1584.97 404.597 1584.81C389.821 1584.5 374.748 1584.5 368 1584.5V1599.5ZM579.303 1594.39C587.722 1592.9 637.155 1584.91 653.158 1582.41L650.842 1567.59C634.845 1570.09 585.278 1578.1 576.697 1579.61L579.303 1594.39ZM589.819 1620.28C597.455 1618.37 641.153 1610.41 657.158 1607.91L654.842 1593.09C638.847 1595.59 594.545 1603.63 586.181 1605.72L589.819 1620.28ZM370.08 876.891C373.383 872.318 375.726 869.399 378.897 867.471C381.823 865.691 386.259 864.316 394.394 864.976L395.606 850.025C385.241 849.184 377.427 850.809 371.103 854.654C365.024 858.351 361.117 863.682 357.92 868.109L370.08 876.891ZM394.394 864.976C410.111 866.25 413.655 874.45 414.138 876.932L428.862 874.069C427.011 864.55 417.578 851.806 395.606 850.025L394.394 864.976ZM417.34 869.26C414.389 871.227 409.332 873.518 403.794 875.228C398.15 876.972 393.11 877.768 390.106 877.525L388.894 892.476C394.742 892.95 401.952 891.496 408.221 889.56C414.594 887.592 421.111 884.773 425.66 881.741L417.34 869.26ZM390.106 877.525C381.657 876.84 377.49 875.079 375.235 873.602C372.913 872.08 372.033 870.613 369.92 867.896L358.08 877.105C359.467 878.888 362.087 882.92 367.015 886.149C372.01 889.421 378.843 891.661 388.894 892.476L390.106 877.525ZM470.08 874.583C473.383 870.01 475.726 867.091 478.897 865.163C481.823 863.383 486.259 862.008 494.394 862.668L495.606 847.717C485.241 846.876 477.427 848.501 471.103 852.346C465.024 856.043 461.117 861.374 457.92 865.801L470.08 874.583ZM494.394 862.668C510.111 863.942 513.655 872.142 514.138 874.624L528.862 871.76C527.011 862.242 517.578 849.498 495.606 847.717L494.394 862.668ZM517.34 866.952C514.389 868.919 509.332 871.209 503.794 872.92C498.15 874.663 493.11 875.46 490.106 875.217L488.894 890.167C494.742 890.642 501.952 889.188 508.221 887.252C514.594 885.283 521.111 882.465 525.66 879.432L517.34 866.952ZM490.106 875.217C481.657 874.531 477.49 872.771 475.235 871.294C472.913 869.772 472.033 868.305 469.92 865.587L458.08 874.797C459.467 876.579 462.087 880.612 467.015 883.84C472.01 887.113 478.843 889.352 488.894 890.167L490.106 875.217ZM395.5 875.5C395.5 875.276 395.638 875.61 394.801 876.246C393.958 876.887 392.463 877.5 390.5 877.5V892.5C395.441 892.5 400.195 890.987 403.877 888.189C407.564 885.387 410.5 880.971 410.5 875.5H395.5ZM390.5 877.5C388.537 877.5 387.042 876.887 386.199 876.246C385.362 875.61 385.5 875.276 385.5 875.5H370.5C370.5 880.971 373.436 885.387 377.123 888.189C380.805 890.987 385.559 892.5 390.5 892.5V877.5ZM385.5 875.5C385.5 875.724 385.362 875.39 386.199 874.754C387.042 874.113 388.537 873.5 390.5 873.5V858.5C385.559 858.5 380.805 860.013 377.123 862.811C373.436 865.613 370.5 870.029 370.5 875.5H385.5ZM390.5 873.5C392.463 873.5 393.958 874.113 394.801 874.754C395.638 875.39 395.5 875.724 395.5 875.5H410.5C410.5 870.029 407.564 865.613 403.877 862.811C400.195 860.013 395.441 858.5 390.5 858.5V873.5ZM495.5 873.192C495.5 872.968 495.638 873.302 494.801 873.938C493.958 874.579 492.463 875.192 490.5 875.192V890.192C495.441 890.192 500.195 888.679 503.877 885.881C507.564 883.078 510.5 878.663 510.5 873.192H495.5ZM490.5 875.192C488.537 875.192 487.042 874.579 486.199 873.938C485.362 873.302 485.5 872.968 485.5 873.192H470.5C470.5 878.663 473.436 883.078 477.123 885.881C480.805 888.679 485.559 890.192 490.5 890.192V875.192ZM485.5 873.192C485.5 873.416 485.362 873.082 486.199 872.446C487.042 871.805 488.537 871.192 490.5 871.192V856.192C485.559 856.192 480.805 857.705 477.123 860.503C473.436 863.305 470.5 867.721 470.5 873.192H485.5ZM490.5 871.192C492.463 871.192 493.958 871.805 494.801 872.446C495.638 873.082 495.5 873.416 495.5 873.192H510.5C510.5 867.721 507.564 863.305 503.877 860.503C500.195 857.705 495.441 856.192 490.5 856.192V871.192ZM416.843 881.782C412.563 886.199 410.362 893.167 410.841 899.639C411.354 906.577 415.079 913.962 423.683 917.451L429.319 903.549C426.97 902.597 425.975 900.899 425.8 898.531C425.59 895.696 426.729 893.134 427.616 892.218L416.843 881.782ZM423.683 917.451C438.465 923.443 453.429 917.15 460.779 903.57L447.587 896.43C443.571 903.85 436.444 906.438 429.319 903.549L423.683 917.451ZM425.257 918.509C424.46 918.047 424.094 917.729 423.989 917.624C423.862 917.498 424.233 917.81 424.508 918.629C424.828 919.584 424.889 920.889 424.347 922.184C423.855 923.36 423.113 923.937 422.846 924.115C422.45 924.379 422.84 923.996 424.706 923.915C426.387 923.842 428.752 924.044 431.681 924.776L435.319 910.224C431.247 909.206 427.423 908.783 424.057 908.929C420.876 909.067 417.36 909.745 414.526 911.634C413.04 912.625 411.447 914.155 410.511 916.39C409.526 918.743 409.552 921.213 410.287 923.401C411.59 927.285 414.899 929.845 417.742 931.49L425.257 918.509ZM431.681 924.776C436.456 925.97 445.973 926.989 456.26 927.491C466.711 928.001 478.757 928.014 488.785 926.959L487.215 912.041C478.243 912.986 467.039 912.999 456.99 912.509C446.777 912.011 438.544 911.03 435.319 910.224L431.681 924.776ZM482.171 914.781C475.113 923.5 459.942 931.706 444.057 930.521L442.941 945.479C464.058 947.055 483.887 936.5 493.829 924.219L482.171 914.781ZM444.057 930.521C437.576 930.037 433.427 929.28 430.831 928.499C428.158 927.695 427.82 927.07 428.087 927.385C428.609 927.998 428.634 928.746 428.635 928.716C428.641 928.561 428.665 928.353 428.759 927.703C428.826 927.244 428.999 926.141 428.999 925H413.999C413.999 924.858 414.017 924.848 413.915 925.545C413.842 926.05 413.686 927.06 413.645 928.154C413.553 930.622 414.015 933.992 416.662 937.104C419.054 939.917 422.529 941.666 426.512 942.863C430.571 944.084 435.922 944.955 442.941 945.479L444.057 930.521ZM405.952 921.063C407.06 924.112 409.223 926.604 411.527 928.529C413.907 930.517 416.864 932.262 420.233 933.706C426.984 936.599 435.886 938.5 446.5 938.5V923.5C437.614 923.5 430.766 921.901 426.142 919.919C423.823 918.925 422.187 917.889 421.145 917.018C420.027 916.084 419.94 915.638 420.048 915.937L405.952 921.063ZM446.5 938.5C456.279 938.5 465.093 938.151 473.14 935.832C481.495 933.423 488.655 929.014 495.511 921.587L484.489 911.413C479.345 916.986 474.505 919.827 468.985 921.418C463.157 923.099 456.221 923.5 446.5 923.5V938.5ZM451.5 1167.5V1182.5C459.784 1182.5 466.5 1175.78 466.5 1167.5H451.5ZM451.5 1167.5H436.5C436.5 1175.78 443.216 1182.5 451.5 1182.5V1167.5ZM451.5 1167.5V1152.5C443.216 1152.5 436.5 1159.22 436.5 1167.5H451.5ZM451.5 1167.5H466.5C466.5 1159.22 459.784 1152.5 451.5 1152.5V1167.5Z" fill="white"/>
<path d="M791 1676C802.2 1648 774 1569.5 740 1538.5L737.5 1560C766.833 1582.33 782.9 1646.4 756.5 1676C730.1 1705.6 716.333 1703 697 1698L690 1715C738 1743 777 1711 791 1676Z" fill="#2E3545"/>
<path d="M825 1682C836.2 1654 771 1585 737 1554V1578C766.333 1600.33 818.4 1652.4 792 1682C765.6 1711.6 733.333 1679 714 1674L707 1702C755 1730 811 1717 825 1682Z" fill="#3C4762"/>
<path d="M665 1732C609.8 1739.2 577 1723 553.001 1708C487.235 1666.89 552.401 1534.4 570.001 1504C592.001 1466 686.001 1500 726.001 1518C766.001 1536 766.001 1625 766.001 1665C766.001 1705 734 1723 665 1732Z" fill="#4A597B"/>
<path d="M531 1587C518.2 1569.4 557 1516.33 582 1491C607 1465.67 748.333 1512 740.999 1533C733.666 1554 706.399 1594.4 679.999 1620C646.999 1652 547 1609 531 1587Z" fill="#3D4964"/>
<path d="M343.5 1261C338.7 1253 355.833 1156.67 365 1109.5L391 1117.5L402.5 1219C390 1233 363.6 1263 358 1271C351 1281 349.5 1271 343.5 1261Z" fill="#959595"/>
<path d="M424 1715L467 1386L366 1366.5L367 1682C358.333 1687 336.2 1700.6 317 1715C297.8 1729.4 299.667 1745 303 1751L424 1715Z" fill="#AEAEAE"/>
<path d="M368 1682V1542.5H445.362L423.092 1714.23L303.512 1749.8C300.672 1743.78 299.524 1729.36 317.6 1715.8C336.759 1701.43 358.856 1687.85 367.5 1682.87L368 1682.58V1682Z" fill="white" stroke="#434343" stroke-width="2"/>
<path d="M303 1751L424 1715L428 1682H367C358.333 1687 336.2 1700.6 317 1715C297.8 1729.4 299.667 1745 303 1751Z" fill="#33405C"/>
<path d="M321 812C298.2 850.8 353.167 900.167 383.5 920L321 997.5C350.667 1009.33 423.6 1035.6 478 1046C532.4 1056.4 631 1014.67 673.5 992.5L584 896C587.5 883 592.9 885.7 596.5 830.5C601 761.5 539 696 453 704C367 712 349.5 763.5 321 812Z" fill="#434343"/>
<path d="M644 1767L504 1389L614 1372L678 1711C701 1718.33 751.8 1735.8 771 1747C790.2 1758.2 791 1774.33 789 1781L644 1767Z" fill="#AEAEAE"/>
<path d="M677.017 1711.18L677.125 1711.77L677.696 1711.95C689.184 1715.62 707.619 1721.81 725.576 1728.49C743.559 1735.17 760.981 1742.31 770.496 1747.86C788.526 1758.38 789.838 1773.22 788.253 1779.92L644.718 1766.06L567.353 1558.77L646.198 1544.17L677.017 1711.18Z" fill="white" stroke="#434343" stroke-width="2"/>
<path d="M617.5 1391L612 1360L499.5 1376L525.5 1447.5L617.5 1391Z" fill="#959595"/>
<path d="M366.5 1404V1374L467 1386L457 1465L366.5 1404Z" fill="#959595"/>
<path d="M789 1781L644 1767L626 1717L678 1711C701 1718.33 751.8 1735.8 771 1747C790.2 1758.2 791 1774.33 789 1781Z" fill="#33405C"/>
<path d="M342 1378C352.5 1347.83 371.3 1278.5 374.5 1270.5L490.5 1318.5L477 1410L342 1378Z" fill="#262C3A"/>
<path d="M473 1348.5L433.5 1313.5L589.5 1286.5L629.5 1378.5L494 1404L473 1348.5Z" fill="#33405C"/>
<path d="M571.5 1290.5C576.333 1300.5 587.4 1325.4 593 1345C598.6 1364.6 603 1378.5 604.5 1383" stroke="#7F97CB" stroke-width="2"/>
<path d="M586.5 1324C577.333 1329.33 556.2 1336.9 547 1326.5C537.8 1316.1 538 1296.67 536 1293.5" stroke="#7F97CB" stroke-width="2"/>
<path d="M584.001 1318.5C573.501 1323 556.786 1328.12 551 1315.5C545.499 1303.5 548 1297 547 1293" stroke="#7F97CB" stroke-width="2"/>
<path d="M575 856.827C564.2 852.427 551.5 866.66 546.5 874.327L540 909.827C543.5 909.327 552.081 906.846 559.5 902.827C571.5 896.327 588.5 862.327 575 856.827Z" fill="#AEAEAE"/>
<path d="M387.501 941.501C353.101 928.701 351.001 858.167 355.001 824.5C364.5 806 369.084 752 444 752C521.5 752 553.5 809.5 553.5 840.501C549.333 871.501 543 932.586 523.5 941.501C496.5 953.843 430.501 957.501 387.501 941.501Z" fill="#AEAEAE"/>
<path d="M416 830L354.5 872.5C344.5 806.5 369.084 752.001 444 752C521.5 752 553.5 809.5 553.5 840.501C549.333 871.501 547.5 883 547.5 883L416 830Z" fill="#959595"/>
<path d="M362.5 856C364.667 849.667 373.4 836.9 391 836.5C408.6 836.1 416.333 844 418 848" stroke="black" stroke-width="3" stroke-linecap="round"/>
<path d="M464.5 849C476 842.5 479.9 838.4 497.5 838C515.1 837.6 530.333 854.5 532 858.5" stroke="black" stroke-width="3" stroke-linecap="round"/>
<path d="M373.5 841.5C391.501 822.5 408.499 789.667 413.499 771.5C422 805.5 436.878 821.399 457.5 835C481 850.5 525.5 864.5 550.5 864C554.5 861.5 560.7 853.4 547.5 805C531 744.5 463.999 733.5 399.999 747C348.799 757.8 339.666 828.167 341.499 862C345.166 860.667 358.084 857.771 373.5 841.5Z" fill="#434343"/>
<path d="M332 1105L375 1130.5L399 1190.5L370.5 1284.5C372.333 1287.33 395.726 1309.45 422 1316.5C488 1334.21 543.5 1319 596.5 1293L553 1208.5L568 1010C507 968.5 408 1001.5 382 1013C361.2 1022.2 340.667 1074.33 332 1105Z" fill="#516288"/>
<path d="M332 1105L375 1130.5C375 1130.5 354.1 1105 386.5 1057C400 1037 421.5 1000 421.5 1000C421.5 1000 402.8 1003.8 382 1013C361.2 1022.2 340.667 1074.33 332 1105Z" fill="black" fill-opacity="0.2"/>
<path d="M332.001 1147C319.722 1150.84 356.611 1252.06 379.645 1312.09C381.316 1316.44 385.766 1319.02 390.395 1318.44C433.747 1313.01 508.993 1309.26 512.001 1307C516.001 1304 477.06 1152.69 472.001 1147C464 1138 348.001 1142 332.001 1147Z" fill="#535353" stroke="black"/>
<path d="M488 959C475.6 962.2 455.5 960.333 447 959L444 992L422 999.5C425.833 1012.17 440.7 1038.3 471.5 1047.5C502.3 1056.7 527 1025 535.5 1008L518.5 992L522.5 948C516.167 950.333 500.4 955.8 488 959Z" fill="#AEAEAE"/>
<path d="M488 959C475.6 962.2 455.5 960.333 447 959L444 992C452 990.5 461.5 989 478 984.5C494.499 980 517 971.5 521 969L522.5 948C516.167 950.333 500.4 955.8 488 959Z" fill="#959595"/>
<path d="M556 1129L579 1182.5C599.167 1190.5 635.1 1207.9 637.5 1209.5C640.5 1211.5 649 1207.5 652 1200C654.4 1194 632.667 1133.17 621.5 1103.5L556 1129Z" fill="#959595"/>
<path d="M582 1163.5C591.6 1156.7 619.255 1159.89 634 1174.5C644 1184.41 649 1191.31 649 1204.5C649 1213.5 512 1248.5 512 1248.5C509.667 1250.33 503.3 1255.6 496.5 1262C488 1270 471.5 1273.5 464 1272.5C456.5 1271.5 463 1254.5 464 1246C465 1237.5 494.5 1221 505 1221C515.5 1221 570 1172 582 1163.5Z" fill="#AEAEAE"/>
<path d="M556.999 1005C512.999 1016.2 532.667 1110.67 551 1154L643 1116C623 1072 600.999 993.8 556.999 1005Z" fill="#5D6D92"/>
<path d="M387.999 1228.5C377.199 1223.7 349.499 1235.5 342.499 1259.5C339.368 1270.24 348.899 1280.3 354.499 1285.5C361.499 1292 371.5 1283.5 380 1279.5C388.5 1275.5 401.499 1234.5 387.999 1228.5Z" fill="#AEAEAE"/>
<path d="M369 1571C377 1571 425 1569.5 442 1572.5" stroke="#33405C" stroke-width="10"/>
<path d="M368 1592C381.5 1592 428 1592 439 1594.5" stroke="#33405C" stroke-width="10"/>
<path d="M578 1587C586.5 1585.5 636 1577.5 652 1575" stroke="#33405C" stroke-width="10"/>
<path d="M588 1613C596 1611 640 1603 656 1600.5" stroke="#33405C" stroke-width="10"/>
<path d="M395 857.5C376.5 856 370.5 863.5 364 872.5C367.5 877 371 883.5 389.5 885C398.352 885.718 414 880.5 421.5 875.5C420.333 869.5 413.844 859.028 395 857.5Z" fill="white" stroke="black" stroke-width="2"/>
<path d="M495 855.192C476.5 853.692 470.5 861.192 464 870.192C467.5 874.692 471 881.192 489.5 882.692C498.352 883.41 514 878.192 521.5 873.192C520.333 867.192 513.844 856.72 495 855.192Z" fill="white" stroke="black" stroke-width="2"/>
<ellipse cx="390.5" cy="875.5" rx="12.5" ry="9.5" fill="black"/>
<ellipse cx="490.5" cy="873.192" rx="12.5" ry="9.5" fill="black"/>
<path d="M422.23 887C417.063 892.333 415.548 906.06 426.501 910.5C437.454 914.94 448.5 910.5 454.183 900" stroke="black" stroke-width="2" stroke-linecap="round"/>
<path d="M433.5 917.5C419.498 914 411.998 919.5 421.499 925C421.499 929 416.5 935.985 443.499 938C462 939.381 479.5 930 488 919.5C469 921.5 441.5 919.5 433.5 917.5Z" fill="white"/>
<path d="M413 918.5C415 924 427 931 446.5 931C466 931 478 929.5 490 916.5" stroke="black" stroke-width="2" stroke-linecap="round"/>
<circle cx="451.5" cy="1167.5" r="7.5" fill="black"/>
<path d="M1449.06 1175.61C1447.01 1173.71 1445.91 1171.35 1445.79 1168.55C1445.66 1165.74 1446.57 1163.31 1448.52 1161.25C1450.38 1159.2 1452.71 1158.13 1455.52 1158.05C1458.32 1157.96 1460.76 1158.87 1462.81 1160.78C1464.8 1162.62 1465.85 1164.94 1465.98 1167.75C1466.13 1170.57 1465.28 1173.01 1463.42 1175.07C1462.12 1176.42 1460.6 1177.34 1458.85 1177.82C1457.13 1178.32 1455.39 1178.39 1453.63 1178.02C1451.92 1177.65 1450.39 1176.85 1449.06 1175.61Z" fill="white"/>
<path d="M1486.26 1210.09C1484.21 1208.19 1483.11 1205.83 1482.99 1203.03C1482.86 1200.22 1483.77 1197.79 1485.72 1195.73C1487.58 1193.68 1489.91 1192.61 1492.72 1192.53C1495.52 1192.44 1497.96 1193.35 1500.01 1195.26C1502 1197.1 1503.05 1199.42 1503.18 1202.23C1503.33 1205.05 1502.48 1207.49 1500.62 1209.54C1499.32 1210.9 1497.8 1211.82 1496.05 1212.3C1494.33 1212.8 1492.58 1212.87 1490.83 1212.5C1489.11 1212.13 1487.59 1211.32 1486.26 1210.09Z" fill="white"/>
<path d="M1523.46 1244.57C1521.4 1242.66 1520.31 1240.31 1520.18 1237.5C1520.06 1234.7 1520.97 1232.27 1522.91 1230.21C1524.78 1228.16 1527.11 1227.09 1529.92 1227C1532.72 1226.92 1535.15 1227.83 1537.21 1229.73C1539.2 1231.58 1540.25 1233.9 1540.38 1236.71C1540.53 1239.53 1539.68 1241.97 1537.82 1244.02C1536.52 1245.38 1534.99 1246.3 1533.25 1246.78C1531.52 1247.28 1529.78 1247.35 1528.03 1246.98C1526.31 1246.61 1524.79 1245.8 1523.46 1244.57Z" fill="white"/>
<path d="M1560.66 1279.05C1558.6 1277.14 1557.51 1274.79 1557.38 1271.98C1557.26 1269.18 1558.17 1266.75 1560.11 1264.69C1561.97 1262.64 1564.31 1261.57 1567.12 1261.48C1569.92 1261.4 1572.35 1262.31 1574.41 1264.21C1576.4 1266.06 1577.45 1268.38 1577.58 1271.18C1577.73 1274.01 1576.88 1276.45 1575.02 1278.5C1573.72 1279.86 1572.19 1280.78 1570.45 1281.26C1568.72 1281.76 1566.98 1281.83 1565.23 1281.46C1563.51 1281.09 1561.99 1280.28 1560.66 1279.05Z" fill="white"/>
<path d="M1597.86 1313.53C1595.8 1311.62 1594.71 1309.27 1594.58 1306.46C1594.46 1303.66 1595.37 1301.23 1597.31 1299.17C1599.17 1297.12 1601.51 1296.05 1604.32 1295.96C1607.12 1295.88 1609.55 1296.79 1611.61 1298.69C1613.59 1300.53 1614.65 1302.86 1614.78 1305.66C1614.93 1308.49 1614.08 1310.93 1612.22 1312.98C1610.92 1314.34 1609.39 1315.26 1607.65 1315.74C1605.92 1316.24 1604.18 1316.31 1602.43 1315.94C1600.71 1315.57 1599.19 1314.76 1597.86 1313.53Z" fill="white"/>
<path d="M1635.06 1348.01C1633 1346.1 1631.91 1343.75 1631.78 1340.94C1631.65 1338.14 1632.56 1335.71 1634.51 1333.65C1636.37 1331.6 1638.71 1330.53 1641.51 1330.44C1644.32 1330.36 1646.75 1331.27 1648.81 1333.17C1650.79 1335.01 1651.85 1337.34 1651.98 1340.14C1652.13 1342.97 1651.28 1345.41 1649.41 1347.46C1648.12 1348.82 1646.59 1349.74 1644.85 1350.22C1643.12 1350.72 1641.38 1350.78 1639.63 1350.42C1637.91 1350.04 1636.39 1349.24 1635.06 1348.01Z" fill="white"/>
<path d="M1672.26 1382.49C1670.2 1380.58 1669.11 1378.23 1668.98 1375.42C1668.85 1372.62 1669.76 1370.19 1671.71 1368.13C1673.57 1366.08 1675.91 1365.01 1678.71 1364.92C1681.52 1364.84 1683.95 1365.75 1686.01 1367.65C1687.99 1369.49 1689.05 1371.82 1689.18 1374.62C1689.33 1377.45 1688.48 1379.89 1686.61 1381.94C1685.32 1383.3 1683.79 1384.22 1682.05 1384.7C1680.32 1385.2 1678.58 1385.26 1676.83 1384.89C1675.11 1384.52 1673.59 1383.72 1672.26 1382.49Z" fill="white"/>
<path d="M1418.12 1208.99C1416.07 1207.09 1414.97 1204.73 1414.85 1201.93C1414.72 1199.12 1415.63 1196.69 1417.58 1194.63C1419.44 1192.58 1421.77 1191.51 1424.58 1191.43C1427.38 1191.34 1429.82 1192.25 1431.87 1194.16C1433.86 1196 1434.91 1198.32 1435.04 1201.13C1435.19 1203.95 1434.34 1206.39 1432.48 1208.45C1431.18 1209.8 1429.66 1210.72 1427.91 1211.2C1426.19 1211.7 1424.45 1211.77 1422.69 1211.4C1420.98 1211.03 1419.45 1210.23 1418.12 1208.99Z" fill="white"/>
<path d="M1455.32 1243.47C1453.26 1241.57 1452.17 1239.21 1452.05 1236.41C1451.92 1233.6 1452.83 1231.17 1454.77 1229.11C1456.64 1227.06 1458.97 1225.99 1461.78 1225.91C1464.58 1225.82 1467.01 1226.73 1469.07 1228.64C1471.06 1230.48 1472.11 1232.8 1472.24 1235.61C1472.39 1238.43 1471.54 1240.87 1469.68 1242.93C1468.38 1244.28 1466.85 1245.2 1465.11 1245.68C1463.38 1246.18 1461.64 1246.25 1459.89 1245.88C1458.17 1245.51 1456.65 1244.71 1455.32 1243.47Z" fill="white"/>
<path d="M1492.52 1277.95C1490.46 1276.05 1489.37 1273.69 1489.24 1270.89C1489.12 1268.08 1490.03 1265.65 1491.97 1263.59C1493.84 1261.54 1496.17 1260.47 1498.98 1260.39C1501.78 1260.3 1504.21 1261.21 1506.27 1263.12C1508.26 1264.96 1509.31 1267.28 1509.44 1270.09C1509.59 1272.91 1508.74 1275.35 1506.88 1277.41C1505.58 1278.76 1504.05 1279.68 1502.31 1280.16C1500.58 1280.66 1498.84 1280.73 1497.09 1280.36C1495.37 1279.99 1493.85 1279.19 1492.52 1277.95Z" fill="white"/>
<path d="M1529.72 1312.43C1527.66 1310.53 1526.57 1308.17 1526.44 1305.37C1526.32 1302.56 1527.23 1300.13 1529.17 1298.07C1531.03 1296.02 1533.37 1294.95 1536.18 1294.87C1538.98 1294.78 1541.41 1295.69 1543.47 1297.6C1545.46 1299.44 1546.51 1301.76 1546.64 1304.57C1546.79 1307.39 1545.94 1309.83 1544.08 1311.88C1542.78 1313.24 1541.25 1314.16 1539.51 1314.64C1537.78 1315.14 1536.04 1315.21 1534.29 1314.84C1532.57 1314.47 1531.05 1313.66 1529.72 1312.43Z" fill="white"/>
<path d="M1566.92 1346.91C1564.86 1345 1563.77 1342.65 1563.64 1339.84C1563.52 1337.04 1564.43 1334.61 1566.37 1332.55C1568.23 1330.5 1570.57 1329.43 1573.38 1329.35C1576.18 1329.26 1578.61 1330.17 1580.67 1332.07C1582.65 1333.92 1583.71 1336.24 1583.84 1339.05C1583.99 1341.87 1583.14 1344.31 1581.28 1346.36C1579.98 1347.72 1578.45 1348.64 1576.71 1349.12C1574.98 1349.62 1573.24 1349.69 1571.49 1349.32C1569.77 1348.95 1568.25 1348.14 1566.92 1346.91Z" fill="white"/>
<path d="M1604.12 1381.39C1602.06 1379.48 1600.97 1377.13 1600.84 1374.32C1600.71 1371.52 1601.62 1369.09 1603.57 1367.03C1605.43 1364.98 1607.77 1363.91 1610.57 1363.82C1613.38 1363.74 1615.81 1364.65 1617.87 1366.55C1619.85 1368.4 1620.91 1370.72 1621.04 1373.52C1621.19 1376.35 1620.34 1378.79 1618.47 1380.84C1617.18 1382.2 1615.65 1383.12 1613.91 1383.6C1612.18 1384.1 1610.44 1384.17 1608.69 1383.8C1606.97 1383.43 1605.45 1382.62 1604.12 1381.39Z" fill="white"/>
<path d="M1641.32 1415.87C1639.26 1413.96 1638.17 1411.61 1638.04 1408.8C1637.91 1406 1638.82 1403.57 1640.77 1401.51C1642.63 1399.46 1644.97 1398.39 1647.77 1398.3C1650.58 1398.22 1653.01 1399.13 1655.07 1401.03C1657.05 1402.88 1658.11 1405.2 1658.24 1408C1658.39 1410.83 1657.53 1413.27 1655.67 1415.32C1654.37 1416.68 1652.85 1417.6 1651.11 1418.08C1649.38 1418.58 1647.64 1418.65 1645.88 1418.28C1644.17 1417.91 1642.65 1417.1 1641.32 1415.87Z" fill="white"/>
<path d="M1387.18 1242.37C1385.13 1240.47 1384.03 1238.11 1383.91 1235.31C1383.78 1232.5 1384.69 1230.07 1386.64 1228.02C1388.5 1225.96 1390.83 1224.89 1393.64 1224.81C1396.44 1224.72 1398.87 1225.63 1400.93 1227.54C1402.92 1229.38 1403.97 1231.7 1404.1 1234.51C1404.25 1237.34 1403.4 1239.78 1401.54 1241.83C1400.24 1243.18 1398.72 1244.1 1396.97 1244.58C1395.25 1245.08 1393.5 1245.15 1391.75 1244.78C1390.03 1244.41 1388.51 1243.61 1387.18 1242.37Z" fill="white"/>
<path d="M1424.38 1276.85C1422.32 1274.95 1421.23 1272.59 1421.1 1269.79C1420.98 1266.98 1421.89 1264.55 1423.83 1262.5C1425.7 1260.44 1428.03 1259.37 1430.84 1259.29C1433.64 1259.2 1436.07 1260.11 1438.13 1262.02C1440.12 1263.86 1441.17 1266.18 1441.3 1268.99C1441.45 1271.81 1440.6 1274.25 1438.74 1276.31C1437.44 1277.66 1435.91 1278.58 1434.17 1279.06C1432.44 1279.56 1430.7 1279.63 1428.95 1279.26C1427.23 1278.89 1425.71 1278.09 1424.38 1276.85Z" fill="white"/>
<path d="M1461.58 1311.33C1459.52 1309.43 1458.43 1307.07 1458.3 1304.27C1458.18 1301.46 1459.09 1299.03 1461.03 1296.97C1462.89 1294.92 1465.23 1293.85 1468.04 1293.77C1470.84 1293.68 1473.27 1294.59 1475.33 1296.5C1477.32 1298.34 1478.37 1300.66 1478.5 1303.47C1478.65 1306.29 1477.8 1308.73 1475.94 1310.79C1474.64 1312.14 1473.11 1313.06 1471.37 1313.54C1469.64 1314.04 1467.9 1314.11 1466.15 1313.74C1464.43 1313.37 1462.91 1312.57 1461.58 1311.33Z" fill="white"/>
<path d="M1498.78 1345.81C1496.72 1343.91 1495.63 1341.55 1495.5 1338.75C1495.38 1335.94 1496.29 1333.51 1498.23 1331.45C1500.09 1329.4 1502.43 1328.33 1505.24 1328.25C1508.04 1328.16 1510.47 1329.07 1512.53 1330.98C1514.51 1332.82 1515.57 1335.14 1515.7 1337.95C1515.85 1340.77 1515 1343.21 1513.14 1345.27C1511.84 1346.62 1510.31 1347.54 1508.57 1348.02C1506.84 1348.52 1505.1 1348.59 1503.35 1348.22C1501.63 1347.85 1500.11 1347.05 1498.78 1345.81Z" fill="white"/>
<path d="M1535.98 1380.29C1533.92 1378.39 1532.83 1376.03 1532.7 1373.23C1532.57 1370.42 1533.48 1367.99 1535.43 1365.93C1537.29 1363.88 1539.63 1362.81 1542.43 1362.73C1545.24 1362.64 1547.67 1363.55 1549.73 1365.46C1551.71 1367.3 1552.77 1369.62 1552.9 1372.43C1553.05 1375.25 1552.2 1377.69 1550.33 1379.75C1549.04 1381.1 1547.51 1382.02 1545.77 1382.5C1544.04 1383 1542.3 1383.07 1540.55 1382.7C1538.83 1382.33 1537.31 1381.53 1535.98 1380.29Z" fill="white"/>
<path d="M1573.18 1414.77C1571.12 1412.87 1570.03 1410.51 1569.9 1407.71C1569.77 1404.9 1570.68 1402.47 1572.63 1400.41C1574.49 1398.36 1576.83 1397.29 1579.63 1397.21C1582.44 1397.12 1584.87 1398.03 1586.93 1399.94C1588.91 1401.78 1589.97 1404.1 1590.1 1406.91C1590.25 1409.73 1589.4 1412.17 1587.53 1414.23C1586.24 1415.58 1584.71 1416.5 1582.97 1416.98C1581.24 1417.48 1579.5 1417.55 1577.75 1417.18C1576.03 1416.81 1574.51 1416 1573.18 1414.77Z" fill="white"/>
<path d="M1610.38 1449.25C1608.32 1447.34 1607.23 1444.99 1607.1 1442.18C1606.97 1439.38 1607.88 1436.95 1609.83 1434.89C1611.69 1432.84 1614.03 1431.77 1616.83 1431.69C1619.64 1431.6 1622.07 1432.51 1624.13 1434.41C1626.11 1436.26 1627.17 1438.58 1627.3 1441.39C1627.45 1444.21 1626.59 1446.65 1624.73 1448.7C1623.43 1450.06 1621.91 1450.98 1620.17 1451.46C1618.44 1451.96 1616.7 1452.03 1614.94 1451.66C1613.23 1451.29 1611.71 1450.48 1610.38 1449.25Z" fill="white"/>
<path d="M1356.24 1275.75C1354.18 1273.85 1353.09 1271.5 1352.97 1268.69C1352.84 1265.88 1353.75 1263.45 1355.69 1261.4C1357.56 1259.34 1359.89 1258.28 1362.7 1258.19C1365.5 1258.11 1367.93 1259.02 1369.99 1260.92C1371.98 1262.76 1373.03 1265.08 1373.16 1267.89C1373.31 1270.72 1372.46 1273.16 1370.6 1275.21C1369.3 1276.57 1367.77 1277.48 1366.03 1277.96C1364.3 1278.47 1362.56 1278.53 1360.81 1278.16C1359.09 1277.79 1357.57 1276.99 1356.24 1275.75Z" fill="white"/>
<path d="M1393.44 1310.23C1391.38 1308.33 1390.29 1305.97 1390.16 1303.17C1390.04 1300.36 1390.95 1297.93 1392.89 1295.88C1394.76 1293.82 1397.09 1292.75 1399.9 1292.67C1402.7 1292.58 1405.13 1293.49 1407.19 1295.4C1409.18 1297.24 1410.23 1299.56 1410.36 1302.37C1410.51 1305.2 1409.66 1307.64 1407.8 1309.69C1406.5 1311.05 1404.97 1311.96 1403.23 1312.44C1401.5 1312.94 1399.76 1313.01 1398.01 1312.64C1396.29 1312.27 1394.77 1311.47 1393.44 1310.23Z" fill="white"/>
<path d="M1430.64 1344.71C1428.58 1342.81 1427.49 1340.45 1427.36 1337.65C1427.24 1334.84 1428.15 1332.41 1430.09 1330.36C1431.95 1328.3 1434.29 1327.23 1437.1 1327.15C1439.9 1327.06 1442.33 1327.97 1444.39 1329.88C1446.38 1331.72 1447.43 1334.04 1447.56 1336.85C1447.71 1339.68 1446.86 1342.12 1445 1344.17C1443.7 1345.52 1442.17 1346.44 1440.43 1346.92C1438.7 1347.42 1436.96 1347.49 1435.21 1347.12C1433.49 1346.75 1431.97 1345.95 1430.64 1344.71Z" fill="white"/>
<path d="M1467.84 1379.19C1465.78 1377.29 1464.69 1374.93 1464.56 1372.13C1464.44 1369.32 1465.34 1366.89 1467.29 1364.84C1469.15 1362.78 1471.49 1361.71 1474.29 1361.63C1477.1 1361.54 1479.53 1362.45 1481.59 1364.36C1483.57 1366.2 1484.63 1368.52 1484.76 1371.33C1484.91 1374.15 1484.06 1376.59 1482.2 1378.65C1480.9 1380 1479.37 1380.92 1477.63 1381.4C1475.9 1381.9 1474.16 1381.97 1472.41 1381.6C1470.69 1381.23 1469.17 1380.43 1467.84 1379.19Z" fill="white"/>
<path d="M1505.04 1413.67C1502.98 1411.77 1501.89 1409.41 1501.76 1406.61C1501.63 1403.8 1502.54 1401.37 1504.49 1399.31C1506.35 1397.26 1508.69 1396.19 1511.49 1396.11C1514.3 1396.02 1516.73 1396.93 1518.79 1398.84C1520.77 1400.68 1521.83 1403 1521.96 1405.81C1522.11 1408.63 1521.26 1411.07 1519.39 1413.13C1518.1 1414.48 1516.57 1415.4 1514.83 1415.88C1513.1 1416.38 1511.36 1416.45 1509.61 1416.08C1507.89 1415.71 1506.37 1414.91 1505.04 1413.67Z" fill="white"/>
<path d="M1542.24 1448.15C1540.18 1446.25 1539.09 1443.89 1538.96 1441.09C1538.83 1438.28 1539.74 1435.85 1541.69 1433.79C1543.55 1431.74 1545.89 1430.67 1548.69 1430.59C1551.5 1430.5 1553.93 1431.41 1555.99 1433.32C1557.97 1435.16 1559.03 1437.48 1559.16 1440.29C1559.31 1443.11 1558.45 1445.55 1556.59 1447.61C1555.29 1448.96 1553.77 1449.88 1552.03 1450.36C1550.3 1450.86 1548.56 1450.93 1546.8 1450.56C1545.09 1450.19 1543.57 1449.39 1542.24 1448.15Z" fill="white"/>
<path d="M1579.44 1482.63C1577.38 1480.73 1576.29 1478.37 1576.16 1475.57C1576.03 1472.76 1576.94 1470.33 1578.89 1468.27C1580.75 1466.22 1583.09 1465.15 1585.89 1465.07C1588.7 1464.98 1591.13 1465.89 1593.19 1467.8C1595.17 1469.64 1596.23 1471.96 1596.36 1474.77C1596.51 1477.59 1595.65 1480.03 1593.79 1482.09C1592.49 1483.44 1590.97 1484.36 1589.22 1484.84C1587.5 1485.34 1585.76 1485.41 1584 1485.04C1582.29 1484.67 1580.77 1483.87 1579.44 1482.63Z" fill="white"/>
<path d="M1325.3 1309.14C1323.24 1307.23 1322.15 1304.88 1322.02 1302.07C1321.9 1299.27 1322.81 1296.83 1324.75 1294.78C1326.62 1292.73 1328.95 1291.66 1331.76 1291.57C1334.56 1291.49 1336.99 1292.4 1339.05 1294.3C1341.04 1296.14 1342.09 1298.47 1342.22 1301.27C1342.37 1304.1 1341.52 1306.54 1339.66 1308.59C1338.36 1309.95 1336.83 1310.87 1335.09 1311.35C1333.36 1311.85 1331.62 1311.91 1329.87 1311.54C1328.15 1311.17 1326.63 1310.37 1325.3 1309.14Z" fill="white"/>
<path d="M1362.5 1343.62C1360.44 1341.71 1359.35 1339.36 1359.22 1336.55C1359.1 1333.75 1360.01 1331.31 1361.95 1329.26C1363.81 1327.2 1366.15 1326.14 1368.96 1326.05C1371.76 1325.97 1374.19 1326.88 1376.25 1328.78C1378.24 1330.62 1379.29 1332.95 1379.42 1335.75C1379.57 1338.58 1378.72 1341.02 1376.86 1343.07C1375.56 1344.43 1374.03 1345.34 1372.29 1345.83C1370.56 1346.33 1368.82 1346.39 1367.07 1346.02C1365.35 1345.65 1363.83 1344.85 1362.5 1343.62Z" fill="white"/>
<path d="M1399.7 1378.09C1397.64 1376.19 1396.55 1373.84 1396.42 1371.03C1396.3 1368.22 1397.21 1365.79 1399.15 1363.74C1401.01 1361.68 1403.35 1360.62 1406.16 1360.53C1408.96 1360.45 1411.39 1361.36 1413.45 1363.26C1415.43 1365.1 1416.49 1367.43 1416.62 1370.23C1416.77 1373.06 1415.92 1375.5 1414.06 1377.55C1412.76 1378.91 1411.23 1379.82 1409.49 1380.3C1407.76 1380.81 1406.02 1380.87 1404.27 1380.5C1402.55 1380.13 1401.03 1379.33 1399.7 1378.09Z" fill="white"/>
<path d="M1436.9 1412.57C1434.84 1410.67 1433.75 1408.31 1433.62 1405.51C1433.49 1402.7 1434.4 1400.27 1436.35 1398.22C1438.21 1396.16 1440.55 1395.09 1443.35 1395.01C1446.16 1394.93 1448.59 1395.83 1450.65 1397.74C1452.63 1399.58 1453.69 1401.9 1453.82 1404.71C1453.97 1407.54 1453.12 1409.98 1451.25 1412.03C1449.96 1413.39 1448.43 1414.3 1446.69 1414.78C1444.96 1415.29 1443.22 1415.35 1441.47 1414.98C1439.75 1414.61 1438.23 1413.81 1436.9 1412.57Z" fill="white"/>
<path d="M1474.1 1447.05C1472.04 1445.15 1470.95 1442.79 1470.82 1439.99C1470.69 1437.18 1471.6 1434.75 1473.55 1432.7C1475.41 1430.64 1477.75 1429.57 1480.55 1429.49C1483.36 1429.4 1485.79 1430.31 1487.85 1432.22C1489.83 1434.06 1490.89 1436.38 1491.02 1439.19C1491.17 1442.02 1490.32 1444.46 1488.45 1446.51C1487.15 1447.86 1485.63 1448.78 1483.89 1449.26C1482.16 1449.76 1480.42 1449.83 1478.66 1449.46C1476.95 1449.09 1475.43 1448.29 1474.1 1447.05Z" fill="white"/>
<path d="M1511.3 1481.53C1509.24 1479.63 1508.15 1477.27 1508.02 1474.47C1507.89 1471.66 1508.8 1469.23 1510.75 1467.18C1512.61 1465.12 1514.95 1464.05 1517.75 1463.97C1520.56 1463.88 1522.99 1464.79 1525.05 1466.7C1527.03 1468.54 1528.09 1470.86 1528.22 1473.67C1528.37 1476.49 1527.51 1478.93 1525.65 1480.99C1524.35 1482.34 1522.83 1483.26 1521.09 1483.74C1519.36 1484.24 1517.62 1484.31 1515.86 1483.94C1514.15 1483.57 1512.63 1482.77 1511.3 1481.53Z" fill="white"/>
<path d="M1548.5 1516.01C1546.44 1514.11 1545.35 1511.75 1545.22 1508.95C1545.09 1506.14 1546 1503.71 1547.95 1501.65C1549.81 1499.6 1552.15 1498.53 1554.95 1498.45C1557.76 1498.36 1560.19 1499.27 1562.25 1501.18C1564.23 1503.02 1565.29 1505.34 1565.42 1508.15C1565.57 1510.97 1564.71 1513.41 1562.85 1515.47C1561.55 1516.82 1560.03 1517.74 1558.28 1518.22C1556.56 1518.72 1554.82 1518.79 1553.06 1518.42C1551.35 1518.05 1549.83 1517.25 1548.5 1516.01Z" fill="white"/>
<path d="M1294.36 1342.52C1292.3 1340.61 1291.21 1338.26 1291.08 1335.45C1290.96 1332.65 1291.87 1330.22 1293.81 1328.16C1295.68 1326.11 1298.01 1325.04 1300.82 1324.95C1303.62 1324.87 1306.05 1325.78 1308.11 1327.68C1310.1 1329.52 1311.15 1331.85 1311.28 1334.65C1311.43 1337.48 1310.58 1339.92 1308.72 1341.97C1307.42 1343.33 1305.89 1344.25 1304.15 1344.73C1302.42 1345.23 1300.68 1345.29 1298.93 1344.93C1297.21 1344.55 1295.69 1343.75 1294.36 1342.52Z" fill="white"/>
<path d="M1331.56 1377C1329.5 1375.09 1328.41 1372.74 1328.28 1369.93C1328.16 1367.13 1329.07 1364.7 1331.01 1362.64C1332.87 1360.59 1335.21 1359.52 1338.02 1359.43C1340.82 1359.35 1343.25 1360.26 1345.31 1362.16C1347.3 1364 1348.35 1366.33 1348.48 1369.13C1348.63 1371.96 1347.78 1374.4 1345.92 1376.45C1344.62 1377.81 1343.09 1378.73 1341.35 1379.21C1339.62 1379.71 1337.88 1379.77 1336.13 1379.4C1334.41 1379.03 1332.89 1378.23 1331.56 1377Z" fill="white"/>
<path d="M1368.76 1411.48C1366.7 1409.57 1365.61 1407.22 1365.48 1404.41C1365.36 1401.61 1366.26 1399.17 1368.21 1397.12C1370.07 1395.07 1372.41 1394 1375.21 1393.91C1378.02 1393.83 1380.45 1394.74 1382.51 1396.64C1384.49 1398.48 1385.55 1400.81 1385.68 1403.61C1385.83 1406.44 1384.98 1408.88 1383.12 1410.93C1381.82 1412.29 1380.29 1413.21 1378.55 1413.69C1376.82 1414.19 1375.08 1414.25 1373.33 1413.88C1371.61 1413.51 1370.09 1412.71 1368.76 1411.48Z" fill="white"/>
<path d="M1405.96 1445.96C1403.9 1444.05 1402.81 1441.7 1402.68 1438.89C1402.55 1436.09 1403.46 1433.65 1405.41 1431.6C1407.27 1429.54 1409.61 1428.48 1412.41 1428.39C1415.22 1428.31 1417.65 1429.22 1419.71 1431.12C1421.69 1432.96 1422.75 1435.29 1422.88 1438.09C1423.03 1440.92 1422.18 1443.36 1420.31 1445.41C1419.02 1446.77 1417.49 1447.69 1415.75 1448.17C1414.02 1448.67 1412.28 1448.73 1410.53 1448.36C1408.81 1447.99 1407.29 1447.19 1405.96 1445.96Z" fill="white"/>
<path d="M1443.16 1480.43C1441.1 1478.53 1440.01 1476.18 1439.88 1473.37C1439.75 1470.56 1440.66 1468.13 1442.61 1466.08C1444.47 1464.02 1446.81 1462.96 1449.61 1462.87C1452.42 1462.79 1454.85 1463.7 1456.91 1465.6C1458.89 1467.44 1459.95 1469.77 1460.08 1472.57C1460.23 1475.4 1459.37 1477.84 1457.51 1479.89C1456.21 1481.25 1454.69 1482.16 1452.95 1482.64C1451.22 1483.15 1449.48 1483.21 1447.72 1482.84C1446.01 1482.47 1444.49 1481.67 1443.16 1480.43Z" fill="white"/>
<path d="M1480.36 1514.91C1478.3 1513.01 1477.21 1510.65 1477.08 1507.85C1476.95 1505.04 1477.86 1502.61 1479.81 1500.56C1481.67 1498.5 1484.01 1497.43 1486.81 1497.35C1489.62 1497.27 1492.05 1498.17 1494.11 1500.08C1496.09 1501.92 1497.15 1504.24 1497.28 1507.05C1497.43 1509.88 1496.57 1512.32 1494.71 1514.37C1493.41 1515.73 1491.89 1516.64 1490.14 1517.12C1488.42 1517.63 1486.68 1517.69 1484.92 1517.32C1483.21 1516.95 1481.69 1516.15 1480.36 1514.91Z" fill="white"/>
<path d="M1517.56 1549.39C1515.5 1547.49 1514.41 1545.13 1514.28 1542.33C1514.15 1539.52 1515.06 1537.09 1517.01 1535.04C1518.87 1532.98 1521.21 1531.91 1524.01 1531.83C1526.82 1531.74 1529.25 1532.65 1531.31 1534.56C1533.29 1536.4 1534.35 1538.72 1534.48 1541.53C1534.63 1544.36 1533.77 1546.8 1531.91 1548.85C1530.61 1550.2 1529.09 1551.12 1527.34 1551.6C1525.62 1552.1 1523.88 1552.17 1522.12 1551.8C1520.41 1551.43 1518.89 1550.63 1517.56 1549.39Z" fill="white"/>
<path d="M410.225 332.764L548.226 386.439" stroke="white" stroke-width="10"/>
<path d="M330.575 528.667L515.119 600.465" stroke="white" stroke-width="10"/>
<path d="M361.874 574.044L463.001 613.45" stroke="white" stroke-width="10"/>
<path d="M442.507 313.765L543.634 353.17" stroke="white" stroke-width="10"/>
<path d="M364.712 344.562L571.156 425.402" stroke="white" stroke-width="10"/>
<path d="M330.199 364.871L585.439 464.956" stroke="white" stroke-width="10"/>
<path d="M296.826 486.429L552.066 586.514" stroke="white" stroke-width="10"/>
<path d="M289.077 381.58L610.337 507.258" stroke="white" stroke-width="10"/>
<path d="M271.93 444.128L593.19 569.806" stroke="white" stroke-width="10"/>
<path d="M261.64 403.721L600.125 535.749" stroke="white" stroke-width="10"/>
<rect x="1381" y="910" width="399.392" height="56.125" rx="28.0625" fill="#A1BEFF"/>
<rect x="1463.61" y="985.873" width="399.392" height="56.125" rx="28.0625" fill="#A1BEFF"/>
<path d="M1497.41 976.713C1495.57 968.464 1478.95 968.1 1466.48 966.125L1759.8 963.528C1753.48 963.638 1737.62 972.131 1737.62 976.713C1737.62 991.528 1782.55 984.833 1759.92 988.731H1484.08C1486.96 987.249 1499.38 985.608 1497.41 976.713Z" fill="#A1BEFF"/>
<rect width="228.697" height="32.138" rx="16.069" transform="matrix(-1 0 0 1 1892 1092)" fill="#A1BEFF"/>
<rect width="228.697" height="32.138" rx="16.069" transform="matrix(-1 0 0 1 1844.7 1135.45)" fill="#A1BEFF"/>
<path d="M1825.34 1130.2C1826.39 1125.48 1835.91 1125.27 1843.05 1124.14L1675.1 1122.65C1678.71 1122.71 1687.79 1127.58 1687.79 1130.2C1687.79 1138.68 1662.07 1134.85 1675.03 1137.08H1832.98C1831.33 1136.23 1824.21 1135.29 1825.34 1130.2Z" fill="#A1BEFF"/>
<circle cx="209" cy="615" r="92" fill="#BDCEF5"/>
<circle cx="777.5" cy="147.5" r="77.5" fill="white"/>
<circle cx="651.5" cy="273.5" r="48.5" fill="white"/>
<circle cx="172.808" cy="435.808" r="44.5" transform="rotate(-5.85653 172.808 435.808)" fill="#BDCEF5"/>
</g>
<defs>
<clipPath id="clip0_344_29">
<rect width="2000" height="2000" fill="white"/>
</clipPath>
</defs>
</svg>
