<svg width="2000" height="2000" viewBox="0 0 2000 2000" fill="none" xmlns="http://www.w3.org/2000/svg">
<circle cx="1000" cy="1000" r="750" fill="#ABE2FA"/>
<mask id="mask0_314_97" style="mask-type:alpha" maskUnits="userSpaceOnUse" x="250" y="250" width="1500" height="1500">
<circle cx="1000" cy="1000" r="750" fill="#ABE2FA"/>
</mask>
<g mask="url(#mask0_314_97)">
<mask id="mask1_314_97" style="mask-type:alpha" maskUnits="userSpaceOnUse" x="140" y="1015" width="1728" height="796">
<path d="M1012 1226C685.6 1462.8 294.667 1191.33 140 1026C206.667 1290 458.4 1816.4 932 1810C1524 1802 1868 1266 1868 1130C1868 994 1420 930 1012 1226Z" fill="#E8BF82"/>
</mask>
<g mask="url(#mask1_314_97)">
<rect x="265" y="342.738" width="1531" height="1531" fill="#E3B97B"/>
<circle cx="664.591" cy="1165.65" r="7.655" fill="#957259"/>
<circle cx="453.313" cy="1419.8" r="7.655" fill="#957259"/>
<circle cx="476.278" cy="1724.47" r="7.655" fill="#957259"/>
<circle cx="1727.87" cy="1112.07" r="7.655" fill="#957259"/>
<circle cx="1071.84" cy="1135.03" r="7.655" fill="#957259"/>
<circle cx="1353.54" cy="1251.39" r="7.655" fill="#957259"/>
<circle cx="1635.24" cy="1367.74" r="7.655" fill="#957259"/>
<circle cx="1466.07" cy="1379.23" r="3.8275" fill="#957259"/>
<circle cx="1533.43" cy="1239.9" r="3.8275" fill="#957259"/>
<circle cx="639.329" cy="1125.08" r="3.8275" fill="#957259"/>
<circle cx="709.755" cy="1321.05" r="3.8275" fill="#957259"/>
<circle cx="780.182" cy="1517.02" r="3.8275" fill="#957259"/>
<circle cx="850.608" cy="1712.98" r="3.8275" fill="#957259"/>
<circle cx="1162.93" cy="1454.24" r="3.8275" fill="#957259"/>
<circle cx="1475.26" cy="1195.51" r="3.8275" fill="#957259"/>
<circle cx="1326.75" cy="1146.51" r="3.8275" fill="#957259"/>
<circle cx="1280.82" cy="1360.09" r="3.8275" fill="#957259"/>
<circle cx="1234.89" cy="1573.66" r="3.8275" fill="#957259"/>
<circle cx="1159.1" cy="1123.55" r="3.8275" fill="#957259"/>
<circle cx="988.398" cy="1132.73" r="3.8275" fill="#957259"/>
<circle cx="1064.95" cy="1050.06" r="3.8275" fill="#957259"/>
<circle cx="1164.46" cy="1244.5" r="3.8275" fill="#957259"/>
<circle cx="1263.98" cy="1438.93" r="3.8275" fill="#957259"/>
<circle cx="957.777" cy="1343.25" r="3.8275" fill="#957259"/>
<circle cx="940.171" cy="1442" r="3.8275" fill="#957259"/>
<circle cx="651.578" cy="1247.56" r="3.8275" fill="#957259"/>
<circle cx="1083.32" cy="1199.33" r="3.8275" fill="#957259"/>
<circle cx="755.685" cy="1024.03" r="3.8275" fill="#957259"/>
<circle cx="297.916" cy="1278.18" r="3.8275" fill="#957259"/>
<circle cx="464.795" cy="1356.26" r="3.8275" fill="#957259"/>
<circle cx="631.675" cy="1434.34" r="3.8275" fill="#957259"/>
<circle cx="798.553" cy="1512.42" r="3.8275" fill="#957259"/>
<circle cx="965.432" cy="1590.5" r="3.8275" fill="#957259"/>
<circle cx="1398.71" cy="1586.68" r="3.8275" fill="#957259"/>
<circle cx="1533.43" cy="1720.64" r="3.8275" fill="#957259"/>
<circle cx="1198.14" cy="1728.29" r="3.8275" fill="#957259"/>
<circle cx="1311.44" cy="1667.05" r="3.8275" fill="#957259"/>
<circle cx="1654.38" cy="1644.09" r="3.8275" fill="#957259"/>
<circle cx="1720.22" cy="1636.43" r="3.8275" fill="#957259"/>
<circle cx="464.795" cy="1599.69" r="3.8275" fill="#957259"/>
<circle cx="494.65" cy="1667.05" r="3.8275" fill="#957259"/>
<circle cx="412.742" cy="1663.23" r="3.8275" fill="#957259"/>
<circle cx="330.833" cy="1659.4" r="3.8275" fill="#957259"/>
<circle cx="531.394" cy="1724.47" r="3.8275" fill="#957259"/>
<circle cx="1744.71" cy="1347.07" r="3.8275" fill="#957259"/>
<circle cx="1209.63" cy="1511.66" r="7.655" fill="#957259"/>
<circle cx="1353.54" cy="1701.5" r="7.655" fill="#957259"/>
<circle cx="784.009" cy="1655.57" r="7.655" fill="#957259"/>
<circle cx="860.559" cy="1465.73" r="7.655" fill="#957259"/>
<circle cx="1454.59" cy="1588.21" r="7.655" fill="#957259"/>
<circle cx="1690.36" cy="1701.5" r="7.655" fill="#957259"/>
</g>
<path d="M1158 566H666C671.667 542.667 665.999 518 683.001 506C707.773 488.515 733.627 504.869 734.491 510.928C731.83 489.966 730.253 474.906 751 459C781 436 807.333 452.333 808 459C814.333 414.667 843 353 929 353C1010.28 353 1051.67 423.333 1049 454C1068.33 442.667 1083 432 1112 454C1138.41 474.035 1131.67 504.333 1123 511C1140.67 505 1165.4 506.6 1167 533C1168.6 559.4 1161.67 566 1158 566Z" fill="white"/>
<circle cx="1701.5" cy="654.5" r="253.5" fill="url(#paint0_linear_314_97)"/>
</g>
<path d="M1095.94 643.66C1038.42 610.501 966.544 652.02 966.544 718.34C966.544 784.659 998.613 842.131 1051.18 877.59L1273.78 1006.54L1274.34 1006.33L1499.93 876.057L1095.94 643.66Z" fill="white"/>
<path d="M1051.18 877.584C998.616 842.125 966.547 782.424 966.547 718.334C966.547 686.776 983.07 660.443 1006.56 645.535C1005.45 646.162 1007.68 644.909 1006.56 645.535L654.433 843.24L597.895 877.375L559.342 899.528C583.603 887.198 613.999 886.222 641.118 901.966L738.091 957.14L823.074 1006.25L1048.67 1136.31L1273.71 1006.39L1051.11 877.445L1051.18 877.584Z" fill="#98C8DC"/>
<path d="M1500 1136.46L1048.74 1397L963.544 1347.88L963.195 1347.54L597.54 1136.46C572.513 1120.15 552.156 1097.93 537.795 1072.92C521.063 1044.08 512 1010.92 512 976.579C512 945.648 527.546 920.082 550.134 904.895C553.202 903.014 556.199 901.273 559.406 899.601C583.667 887.27 614.063 886.295 641.182 902.039L737.598 957.63L822.58 1006.53L823.138 1006.32L1048.74 1136.39L1273.78 1006.46L1500 1136.39V1136.46Z" fill="#2C62A0"/>
<path d="M686 703C605 701.667 441 703 429 703C434.333 694.333 429 674 468 674C489.541 674 489 665.5 503 660.5C514.72 656.314 535 661.167 543 668.5C539.333 662.167 549.538 645 582.5 645C621.5 645 621.5 657.5 621.5 674C635.5 655 660.009 654.03 675.5 668.5C685.792 678.113 691.333 694.667 686 703Z" fill="white"/>
<defs>
<linearGradient id="paint0_linear_314_97" x1="1701.5" y1="401" x2="1701.5" y2="908" gradientUnits="userSpaceOnUse">
<stop stop-color="#FFC946"/>
<stop offset="1" stop-color="#FFA41D"/>
</linearGradient>
</defs>
</svg>
