<svg width="2000" height="2000" viewBox="0 0 2000 2000" fill="none" xmlns="http://www.w3.org/2000/svg">
<circle cx="1000" cy="1000" r="750" fill="#2A2D34"/>
<mask id="mask0_315_20" style="mask-type:alpha" maskUnits="userSpaceOnUse" x="250" y="250" width="1500" height="1500">
<circle cx="1000" cy="1000" r="750" fill="#E7E7E7"/>
</mask>
<g mask="url(#mask0_315_20)">
</g>
<path d="M1089.5 628.66C1032.03 595.501 960.208 637.02 960.208 703.34C960.208 769.659 992.253 827.131 1044.78 862.59L1267.21 991.537L1267.77 991.328L1493.2 861.057L1089.5 628.66Z" fill="white"/>
<path d="M1044.78 862.584C992.256 827.125 960.21 767.424 960.21 703.334C960.21 671.776 976.721 645.443 1000.2 630.535C999.082 631.162 1001.31 629.909 1000.2 630.535L648.327 828.24L591.83 862.375L553.307 884.528C577.549 872.198 607.923 871.222 635.022 886.966L731.924 942.14L816.843 991.252L1042.27 1121.31L1267.15 991.392L1044.71 862.445L1044.78 862.584Z" fill="#999999"/>
<path d="M1493.27 1121.46L1042.34 1382L957.21 1332.88L956.861 1332.54L591.477 1121.46C566.468 1105.15 546.126 1082.93 531.775 1057.92C515.056 1029.08 506 995.923 506 961.579C506 930.648 521.535 905.082 544.106 889.895C547.171 888.014 550.167 886.273 553.371 884.601C577.614 872.27 607.987 871.295 635.086 887.039L731.431 942.63L816.35 991.534L816.908 991.325L1042.34 1121.39L1267.21 991.464L1493.27 1121.39V1121.46Z" fill="#4C4C4C"/>
</svg>
