<svg width="2000" height="2000" viewBox="0 0 2000 2000" fill="none" xmlns="http://www.w3.org/2000/svg">
<circle cx="1000" cy="1000" r="750" fill="url(#paint0_linear_313_11)"/>
<mask id="mask0_313_11" style="mask-type:alpha" maskUnits="userSpaceOnUse" x="250" y="250" width="1500" height="1500">
<circle cx="1000" cy="1000" r="750" fill="url(#paint1_linear_313_11)"/>
</mask>
<g mask="url(#mask0_313_11)">
<path d="M481.58 1289.37L378.921 1233.03C346.368 1278.73 336.129 1383.55 456.725 1448.94C577.321 1514.34 644.569 1432.46 680.692 1381.74L546.809 1322.48C559.025 1370.33 517.73 1369.19 494.863 1366.09C471.995 1362.99 455.092 1310.45 481.58 1289.37Z" fill="url(#paint2_linear_313_11)"/>
<path d="M487.501 1290.68L397.055 1241.87C366.711 1284.47 359.298 1374.19 465.569 1430.79C571.84 1487.4 635.556 1410.81 661.565 1374.3L545.041 1319.23C543.791 1322.41 536.192 1328.22 515.798 1325.98C495.404 1323.74 488.436 1301.51 487.501 1290.68Z" fill="url(#paint3_linear_313_11)"/>
<path d="M558.956 1327.56C546.765 1359.68 530.519 1377.68 498.35 1365.57C466.182 1353.47 460.816 1316.35 473.008 1284.23C518.437 1301.91 482.753 1310.2 509.639 1323.91C536.525 1337.61 521.405 1300.96 558.956 1327.56Z" fill="url(#paint4_radial_313_11)"/>
<path d="M532.904 1427.37C545.615 1425.21 573.877 1419.74 590.357 1411.07C594.028 1409.14 598.929 1410.41 600.546 1414.22L600.957 1415.19C603.177 1420.42 601.57 1426.52 596.594 1429.29C587.422 1434.4 573.88 1439.9 558.199 1442.23C542.062 1444.64 525.872 1441.48 512.2 1435.05C510.142 1434.09 512.663 1427.94 514.937 1428.06C521.539 1428.4 528.223 1428.16 532.904 1427.37Z" fill="#FFE4B1" fill-opacity="0.5"/>
<path d="M612.448 1419.56C607.747 1422.42 605.582 1419.08 603.017 1414.88C600.453 1410.69 597.795 1407.64 603.161 1404.37C608.527 1401.09 609.068 1403.28 612.592 1409.04C616.116 1414.8 620.882 1414.41 612.448 1419.56Z" fill="#FFD296" fill-opacity="0.9"/>
<path d="M546.059 1427.27C397.515 1422.69 309.399 1234.95 256.421 1244.23C187.32 1256.33 484.397 1789.78 986.492 1832.65C1396.45 1867.65 1595.42 1509.93 1622.03 1479.95C1648.63 1449.97 1731.52 1435.52 1759.56 1425.25C1787.6 1414.99 1712.78 1352.76 1678.58 1358.06C1644.38 1363.35 1627.09 1359.56 1575.3 1379.97C1523.51 1400.39 1738.4 1142.45 1650.72 1139.86C1563.05 1137.28 1517.32 1276.89 1395.36 1453.09C1273.41 1629.29 1205.39 1652.75 1160.92 1630C1116.45 1607.26 1365.02 1472.87 1350.59 1449.25C1336.16 1425.62 1108.52 1482.96 1021.47 1501.82C919.108 1524.01 838.405 1507.18 797.982 1495.48C822.894 1485.88 866.5 1465.48 871.714 1432.34C878.231 1390.93 731.74 1433 546.059 1427.27Z" fill="url(#paint5_linear_313_11)"/>
<path d="M949.652 1512.94C894.036 1514.23 824.827 1503 797.175 1497.22C854.265 1520.89 935.818 1574.63 1032.12 1572.37C1151.3 1569.56 1242.23 1488.2 1313.06 1443.47C1240.53 1444.74 1005.27 1511.66 949.652 1512.94Z" fill="#FFBBA5"/>
<path d="M1548.42 1209.85C1578.8 1168.08 1609.61 1148.65 1621.22 1144.16C1620.1 1154.93 1608.29 1172.03 1600.21 1189.44C1590.99 1209.31 1496.19 1409.33 1428.33 1493.78C1370.74 1565.46 1278.62 1616.54 1251.11 1615.77C1267.28 1604.65 1333.14 1521.86 1385.09 1458.53C1437.04 1395.19 1518.04 1251.62 1548.42 1209.85Z" fill="#FFBBA5"/>
<ellipse cx="1477.15" cy="1429.39" rx="37.4329" ry="87.3434" transform="rotate(31.6505 1477.15 1429.39)" fill="#FFBBA5"/>
<path d="M231.847 1453.31C231.847 1453.31 185.519 1375.11 82.2545 1301.37C10.5708 1250.19 -46.3 1222.68 7.71973 1160.98C61.7396 1099.28 140.136 1157.8 185.635 1222.37C231.134 1286.93 249.621 1415 231.847 1453.31Z" fill="url(#paint6_linear_313_11)"/>
<path d="M1859.14 1146.87C1820.81 1177.02 1655.48 1309.78 1644.26 1307.74C1638.15 1275.29 1728.93 1106.31 1766.27 1067.56C1815.24 1016.74 1862.24 1007.96 1885.83 1037.96C1909.42 1067.96 1897.48 1116.72 1859.14 1146.87Z" fill="#FD7A70"/>
<path d="M1203.91 1357.68C1237.61 1408.78 1248.91 1470.04 1235.34 1527.96C1221.77 1585.89 1184.43 1635.75 1131.54 1666.57C1078.65 1697.39 1014.54 1706.64 953.318 1692.3C892.094 1677.95 838.768 1641.18 805.073 1590.08L1004.49 1473.88L1203.91 1357.68Z" fill="url(#paint7_linear_313_11)"/>
<path d="M1163.34 1381.94C1187.82 1423.72 1194.71 1473.52 1182.48 1520.38C1170.25 1567.24 1139.9 1607.33 1098.12 1631.81C1056.33 1656.3 1006.53 1663.18 959.671 1650.95C912.811 1638.72 872.729 1608.38 848.242 1566.59L1005.79 1474.26L1163.34 1381.94Z" fill="#FFC380"/>
<path d="M969.252 1516.56C969.252 1516.56 949.694 1561.26 932.02 1584.58C914.346 1607.91 906.791 1602.2 905.25 1601.03C903.709 1599.86 894.819 1593.12 912.493 1569.79C930.167 1546.46 969.252 1516.56 969.252 1516.56Z" fill="#FEFFBA"/>
<path d="M1058.47 1468.39C1058.47 1468.39 1098.22 1440.1 1125.37 1429.17C1152.52 1418.25 1156.06 1427.03 1156.79 1428.82C1157.51 1430.62 1161.66 1440.97 1134.51 1451.9C1107.36 1462.82 1058.47 1468.39 1058.47 1468.39Z" fill="#FEFFBA"/>
<path d="M983.517 1508.29C983.517 1508.29 986.18 1567.16 980.866 1602.44C975.552 1637.71 966.184 1636.31 964.272 1636.03C962.361 1635.74 951.326 1634.06 956.641 1598.79C961.955 1563.51 983.517 1508.29 983.517 1508.29Z" fill="#FEFFBA"/>
<path d="M1039.97 1481.04C1039.97 1481.04 1098.47 1473.92 1134.05 1476.54C1169.63 1479.16 1168.94 1488.61 1168.8 1490.54C1168.66 1492.47 1167.82 1503.6 1132.25 1500.98C1096.67 1498.35 1039.97 1481.04 1039.97 1481.04Z" fill="#FEFFBA"/>
<path d="M1005.52 1498.86C1005.52 1498.86 1028.53 1556.68 1035.82 1593.71C1043.11 1630.74 1033.82 1632.58 1031.92 1632.95C1030.03 1633.33 1019.07 1635.47 1011.78 1598.44C1004.49 1561.41 1005.52 1498.86 1005.52 1498.86Z" fill="#FEFFBA"/>
<path d="M1028.96 1489.43C1028.96 1489.43 1075.39 1530.86 1107.67 1550.4C1139.96 1569.94 1144.88 1561.84 1145.88 1560.19C1146.88 1558.53 1152.64 1548.98 1120.36 1529.44C1088.07 1509.9 1028.96 1489.43 1028.96 1489.43Z" fill="#FEFFBA"/>
<path d="M1018.43 1498.59C1018.43 1498.59 1059.3 1541.06 1078.59 1571.06C1097.89 1601.07 1089.93 1606.2 1088.3 1607.24C1086.68 1608.29 1077.28 1614.32 1057.99 1584.31C1038.69 1554.31 1018.43 1498.59 1018.43 1498.59Z" fill="#FEFFBA"/>
<path d="M1647.52 1276.36C1612.57 1279.75 1578.47 1269.07 1552.73 1246.66C1526.98 1224.25 1511.7 1191.95 1510.24 1156.87C1508.78 1121.78 1521.26 1086.78 1544.95 1059.57C1568.63 1032.36 1601.57 1015.17 1636.52 1011.77L1642.02 1144.06L1647.52 1276.36Z" fill="url(#paint8_linear_313_11)"/>
<path d="M1646.09 1249.27C1618.33 1250.5 1591.23 1240.64 1570.74 1221.88C1550.25 1203.12 1538.05 1176.98 1536.82 1149.23C1535.6 1121.47 1545.45 1094.37 1564.22 1073.88C1582.98 1053.38 1609.11 1041.18 1636.87 1039.96L1641.48 1144.62L1646.09 1249.27Z" fill="#FFC380"/>
<path d="M1629.82 1114.75C1629.82 1114.75 1612.39 1092.85 1605.29 1077.64C1598.2 1062.42 1603.12 1060.12 1604.12 1059.65C1605.13 1059.18 1610.93 1056.48 1618.03 1071.7C1625.12 1086.91 1629.82 1114.75 1629.82 1114.75Z" fill="#FEFFBA"/>
<path d="M1630.34 1172.91C1630.34 1172.91 1634.04 1200.66 1632.31 1217.36C1630.57 1234.06 1625.17 1233.5 1624.06 1233.39C1622.96 1233.27 1616.59 1232.6 1618.33 1215.9C1620.06 1199.2 1630.34 1172.91 1630.34 1172.91Z" fill="#FEFFBA"/>
<path d="M1630.19 1124.2C1630.19 1124.2 1599.61 1109.77 1583.14 1097.63C1566.68 1085.48 1569.9 1081.1 1570.55 1080.21C1571.21 1079.32 1575.02 1074.17 1591.49 1086.32C1607.96 1098.46 1630.19 1124.2 1630.19 1124.2Z" fill="#FEFFBA"/>
<path d="M1628.88 1160.14C1628.88 1160.14 1616.82 1191.72 1605.95 1209.07C1595.09 1226.41 1590.48 1223.53 1589.54 1222.94C1588.6 1222.35 1583.18 1218.95 1594.04 1201.6C1604.91 1184.26 1628.88 1160.14 1628.88 1160.14Z" fill="#FEFFBA"/>
<path d="M1629.07 1137.89C1629.07 1137.89 1593.58 1134.07 1572.85 1127.84C1552.11 1121.62 1553.67 1116.41 1553.98 1115.35C1554.3 1114.29 1556.15 1108.16 1576.89 1114.38C1597.62 1120.6 1629.07 1137.89 1629.07 1137.89Z" fill="#FEFFBA"/>
<path d="M1627.58 1152.31C1627.58 1152.31 1594.12 1164.75 1575.56 1175.89C1557 1187.04 1559.79 1191.7 1560.36 1192.65C1560.93 1193.6 1564.23 1199.09 1582.79 1187.95C1601.35 1176.8 1627.58 1152.31 1627.58 1152.31Z" fill="#FEFFBA"/>
<path d="M1625.75 1144.51C1625.75 1144.51 1593.26 1153.86 1572.87 1155.61C1552.48 1157.35 1552.01 1151.94 1551.92 1150.83C1551.82 1149.73 1551.28 1143.35 1571.67 1141.6C1592.06 1139.86 1625.75 1144.51 1625.75 1144.51Z" fill="#FEFFBA"/>
</g>
<path d="M1039.38 656.312C987.333 626.285 922.295 663.882 922.295 723.936C922.295 783.99 951.313 836.033 998.877 868.142L1200.3 984.907L1200.8 984.717L1404.94 866.754L1039.38 656.312Z" fill="#FCADA7"/>
<path d="M998.878 868.136C951.314 836.027 922.297 781.966 922.297 723.93C922.297 695.354 937.247 671.509 958.506 658.01C957.496 658.577 959.515 657.442 958.506 658.01L639.878 837.037L588.718 867.947L553.834 888.007C575.787 876.841 603.29 875.958 627.829 890.215L715.577 940.176L792.474 984.649L996.607 1102.42L1200.24 984.775L998.815 868.01L998.878 868.136Z" fill="#F79792"/>
<path d="M1405 1102.55L996.665 1338.48L919.579 1294.01L919.264 1293.69L588.398 1102.55C565.751 1087.79 547.331 1067.67 534.336 1045.02C519.197 1018.9 510.996 988.878 510.996 957.778C510.996 929.77 525.063 906.619 545.502 892.867C548.278 891.164 550.99 889.587 553.892 888.073C575.845 876.907 603.348 876.024 627.887 890.28L715.13 940.62L792.027 984.904L792.532 984.714L996.665 1102.49L1200.29 984.841L1405 1102.49V1102.55Z" fill="#FC796F"/>
<defs>
<linearGradient id="paint0_linear_313_11" x1="1000" y1="250" x2="1000" y2="1750" gradientUnits="userSpaceOnUse">
<stop stop-color="#FBBE86"/>
<stop offset="1" stop-color="#FFE6D0"/>
</linearGradient>
<linearGradient id="paint1_linear_313_11" x1="1000" y1="250" x2="1000" y2="1750" gradientUnits="userSpaceOnUse">
<stop stop-color="#FBBE86"/>
<stop offset="1" stop-color="#FFE6D0"/>
</linearGradient>
<linearGradient id="paint2_linear_313_11" x1="456.231" y1="1201.73" x2="566.187" y2="1473.31" gradientUnits="userSpaceOnUse">
<stop stop-color="#F27648"/>
<stop offset="1" stop-color="#FFB599"/>
</linearGradient>
<linearGradient id="paint3_linear_313_11" x1="439.051" y1="1208.68" x2="604.442" y2="1446.73" gradientUnits="userSpaceOnUse">
<stop stop-color="#E27E59"/>
<stop offset="0.617708" stop-color="#FFBF7A"/>
<stop offset="1" stop-color="#FFBF7A"/>
<stop offset="1" stop-color="#FFEEDC"/>
</linearGradient>
<radialGradient id="paint4_radial_313_11" cx="0" cy="0" r="1" gradientUnits="userSpaceOnUse" gradientTransform="translate(466.981 1121.9) rotate(70.6885) scale(454.691 525.871)">
<stop offset="0.365198" stop-color="#EA8F62"/>
<stop offset="1" stop-color="#EA8F62" stop-opacity="0"/>
</radialGradient>
<linearGradient id="paint5_linear_313_11" x1="1207.92" y1="1592.56" x2="212.872" y2="1502.3" gradientUnits="userSpaceOnUse">
<stop stop-color="#FC796F"/>
<stop offset="1" stop-color="#FEDAB9"/>
</linearGradient>
<linearGradient id="paint6_linear_313_11" x1="72.8425" y1="1192.91" x2="254.19" y2="1490.78" gradientUnits="userSpaceOnUse">
<stop stop-color="#FD7A70"/>
<stop offset="1" stop-color="#FFDDBE"/>
</linearGradient>
<linearGradient id="paint7_linear_313_11" x1="955.76" y1="1602.73" x2="1204.22" y2="1374.09" gradientUnits="userSpaceOnUse">
<stop stop-color="#FFB25E"/>
<stop offset="1" stop-color="#DC660D"/>
</linearGradient>
<linearGradient id="paint8_linear_313_11" x1="1589.72" y1="1084.81" x2="1639.11" y2="1272.11" gradientUnits="userSpaceOnUse">
<stop stop-color="#FFB25E"/>
<stop offset="1" stop-color="#DC660D"/>
</linearGradient>
</defs>
</svg>
