<svg width="2000" height="2000" viewBox="0 0 2000 2000" fill="none" xmlns="http://www.w3.org/2000/svg">
<g clip-path="url(#clip0_392_591)">
<path d="M324.2 1393.64C368.392 1566.64 836.088 1707.27 924.472 1750.69C1141.75 1857.44 1378.91 1812.54 1517.38 1750.69C1690.46 1673.39 2048.06 873.748 1771.49 569.094C1591.04 370.32 1279.03 641.455 966 439C808.315 337.015 302.105 388.725 324.2 701.61C348.719 1048.81 280.008 1220.63 324.2 1393.64Z" fill="#FFEA85"/>
<path d="M412.852 405.9C475.416 362.647 646.721 339.881 698.186 381.502C698.792 338.979 725.764 259.572 789.782 226.005C869.804 184.047 1020.52 296.646 1033.82 314.339C1047.12 332.033 968.223 305.495 890.244 307.543C827.86 309.181 793.51 393.054 784.133 434.785L342.358 757.03C375.812 679.264 232.453 530.618 412.852 405.9Z" fill="url(#paint0_linear_392_591)"/>
<path d="M660.532 191.428C630.225 235.31 652.872 283.415 672.123 306.754C674.333 309.432 678.469 308.786 679.995 305.667C690.145 284.919 705.971 252.497 718.563 221.784C730.988 191.476 745.101 142.887 732.758 134.363C720.416 125.838 702.017 131.361 660.532 191.428Z" fill="url(#paint1_linear_392_591)"/>
<path d="M552.262 196.862C619.676 226.141 643.871 295.37 646.39 326.283C647.544 340.449 571.275 288.989 542.671 274.095C506.917 255.477 467.161 277.848 421.668 261.012C396.502 251.698 485.885 168.033 552.262 196.862Z" fill="url(#paint2_linear_392_591)"/>
<path d="M276.066 601.152C245.822 670.94 256.846 843.4 307.691 885.776C266.1 894.65 193.464 936.567 173.005 1005.89C147.431 1092.55 287.219 1218.46 307.164 1228.06C327.11 1237.66 285.717 1165.44 272.543 1088.56C262.003 1027.05 337.582 977.026 376.689 959.703L606.75 463.64C536.985 511.595 363.271 399.922 276.066 601.152Z" fill="url(#paint3_linear_392_591)"/>
<path d="M113.923 885.852C151.064 847.58 202.658 860.427 229.299 874.765C232.356 876.411 232.528 880.594 229.765 882.699C211.391 896.694 182.671 918.53 154.998 936.861C127.689 954.95 82.7778 978.253 72.0134 967.806C61.249 957.36 63.084 938.238 113.923 885.852Z" fill="url(#paint4_linear_392_591)"/>
<path d="M98.1722 778.596C140.017 839.018 212.632 849.271 243.444 845.722C257.563 844.096 192.238 779.307 172.06 754.151C146.837 722.705 161.038 679.354 135.667 638.011C121.632 615.139 56.9707 719.102 98.1722 778.596Z" fill="url(#paint5_linear_392_591)"/>
<path d="M1068 283C1148 339 1170.07 358.011 1320 383C1488 411 1618 527 1656 565C1730 639 1900 889 1646 1021" stroke="#4D8543" stroke-width="35" stroke-linecap="round"/>
<ellipse cx="1038.74" cy="222.646" rx="58.5" ry="91.5" transform="rotate(-36.3708 1038.74 222.646)" fill="#4D8543"/>
<ellipse cx="1204.42" cy="261.717" rx="49.8409" ry="91.5" transform="rotate(3.46092 1204.42 261.717)" fill="#4D8543"/>
<ellipse cx="1330.09" cy="312.803" rx="49.8409" ry="71.9253" transform="rotate(3.46092 1330.09 312.803)" fill="#4D8543"/>
<ellipse cx="1468.09" cy="357.803" rx="49.8409" ry="71.9253" transform="rotate(3.46092 1468.09 357.803)" fill="#4D8543"/>
<ellipse cx="1443.11" cy="515.628" rx="49.8409" ry="84.515" transform="rotate(45.4932 1443.11 515.628)" fill="#4D8543"/>
<ellipse cx="1600.49" cy="429.617" rx="49.8409" ry="84.515" transform="rotate(177.49 1600.49 429.617)" fill="#4D8543"/>
<ellipse cx="1570.91" cy="573.877" rx="41.5783" ry="71.8482" transform="rotate(-122.81 1570.91 573.877)" fill="#4D8543"/>
<ellipse cx="1718.73" cy="538.94" rx="41.5783" ry="86.2963" transform="rotate(-2.17922 1718.73 538.94)" fill="#4D8543"/>
<ellipse cx="1809.07" cy="668.095" rx="38.5504" ry="80.012" transform="rotate(15.1906 1809.07 668.095)" fill="#4D8543"/>
<ellipse cx="1830.88" cy="797.407" rx="38.5504" ry="65.9838" transform="rotate(29.2574 1830.88 797.407)" fill="#4D8543"/>
<ellipse cx="1830.88" cy="797.407" rx="38.5504" ry="65.9838" transform="rotate(29.2574 1830.88 797.407)" fill="#4D8543"/>
<ellipse cx="1798.36" cy="934.948" rx="38.5504" ry="65.9838" transform="rotate(57.5299 1798.36 934.948)" fill="#4D8543"/>
<ellipse cx="1651.23" cy="659.549" rx="41.5783" ry="64.769" transform="rotate(72.011 1651.23 659.549)" fill="#4D8543"/>
<ellipse cx="1699.44" cy="754.549" rx="41.5783" ry="64.769" transform="rotate(90.7296 1699.44 754.549)" fill="#4D8543"/>
<ellipse cx="1722.44" cy="851.548" rx="41.5783" ry="64.769" transform="rotate(121.824 1722.44 851.548)" fill="#4D8543"/>
<ellipse cx="1665.96" cy="930.481" rx="41.5783" ry="64.769" transform="rotate(121.824 1665.96 930.481)" fill="#4D8543"/>
<ellipse cx="49.8409" cy="91.5" rx="49.8409" ry="91.5" transform="matrix(-0.522113 -0.852876 -0.852876 0.522113 1218.12 398.016)" fill="#4D8543"/>
<ellipse cx="46.0979" cy="84.6284" rx="46.0979" ry="84.6284" transform="matrix(-0.522113 -0.852876 -0.852876 0.522113 1365.16 432.824)" fill="#4D8543"/>
<circle cx="1000" cy="1000" r="700" fill="#FBDD11"/>
<circle cx="1000" cy="1000" r="624" fill="#4E4E4E"/>
<g style="mix-blend-mode:multiply" opacity="0.3">
<path d="M1565 1415C1410 1625 1182 1700 1005 1700C504.5 1707.5 108.001 1160 397 646C415.999 672 500.002 1204 821.001 1386C1192 1582 1565 1415 1565 1415Z" fill="#3C4F9A"/>
</g>
<path d="M1248.27 1293.65C894.927 1338.21 732.221 1026.48 761.065 996.079C780.108 975.984 809.765 974.817 835.41 974.107C953.53 970.91 1120.81 1109.09 1154.68 1108.43C1220.39 1107.06 1319.16 1002.47 1383.91 916.257C1411.03 880.177 1580.34 825.828 1561.55 920.621C1500.71 1227.94 1293.32 1287.97 1248.27 1293.65ZM751.823 705.359C1105.17 660.754 1267.87 972.483 1238.98 1002.93C1219.93 1023.03 1190.33 1024.19 1164.63 1024.9C1046.51 1028.1 879.286 889.869 845.364 890.58C779.702 891.95 680.88 996.536 616.081 1082.75C589.014 1118.83 419.706 1173.18 438.444 1078.44C499.332 771.074 706.779 711.042 751.823 705.359Z" fill="#FBDD11"/>
<path d="M1944.06 1048.32C1959.3 1025.83 1960.02 982.756 1958.48 964.031C1956.73 968.715 1949.21 984.267 1933.13 1009C1897.41 1063.98 1819.41 1047.64 1789.85 1086.77C1760.28 1125.89 1791.82 1172.91 1784.25 1207.44C1776.68 1241.98 1723.69 1216.64 1666.42 1237.07C1580.2 1267.84 1574.46 1366.04 1575.76 1382.54C1577.07 1399.04 1607.25 1483.98 1593.09 1587.58C1578.93 1691.18 1404.6 1646.31 1359.09 1662.4C1313.58 1678.49 1296.52 1704.14 1252.33 1745.27C1216.97 1778.18 1123.42 1728.67 1075 1693.5L1036 1699C1072.23 1721.08 1151.49 1752.85 1207.89 1775.64C1278.38 1804.11 1340.89 1711.11 1365.68 1690.48C1390.47 1669.86 1439.17 1679.51 1524.26 1680.35C1609.35 1681.19 1635.22 1586.24 1643.02 1553.93C1650.83 1521.62 1626.32 1481.5 1636.44 1428.7C1646.57 1375.91 1790.6 1383.34 1850.4 1330.38C1904.65 1282.33 1896.6 1198.18 1893.51 1160.74C1890.43 1123.29 1925.02 1076.43 1944.06 1048.32Z" fill="#C65D3C"/>
<path d="M1806.32 1571.18C1819.36 1554.06 1826.49 1508.62 1826.59 1491.22C1826.54 1492.98 1807.89 1522.41 1793.86 1530.23C1770.94 1543.02 1738.87 1527.72 1692.04 1528.48C1637.26 1529.36 1638.35 1560.72 1629.6 1584.14C1620.85 1607.56 1612.87 1697.97 1587.59 1696.55C1540.54 1693.91 1523.3 1677.86 1490.3 1665.53C1448.14 1649.78 1361.43 1659 1345.67 1701.16C1356.4 1699.12 1396.74 1681.43 1426.09 1708.79C1481.51 1760.46 1517.85 1806.06 1611.71 1800.57C1705.57 1795.08 1701.21 1669.62 1704.45 1640.94C1707.7 1612.26 1772.78 1615.23 1806.32 1571.18Z" fill="#C65D3C"/>
<path d="M1572.65 1522.29C1597.32 1561.4 1561.58 1633.81 1540.63 1665.12L1532.2 1661.97C1536.11 1641.01 1541.32 1593 1530.8 1568.57C1517.66 1538.04 1428.51 1508.37 1412.33 1448.51C1388.59 1360.63 1465.82 1342.52 1472.89 1286.45C1477.43 1250.51 1423.71 1233.91 1464.55 1157.36C1481.65 1125.32 1546.85 1103.78 1567.61 1107.27C1554.2 1116.49 1523.73 1141.26 1509.16 1166.56C1490.93 1198.18 1536.62 1230.2 1551.18 1274.07C1565.74 1317.95 1499.66 1360.51 1495.48 1388.84C1491.3 1417.16 1541.81 1473.4 1572.65 1522.29Z" fill="#C65D3C"/>
<path d="M1323.96 1645C1332.04 1666.81 1306.32 1710.29 1292.45 1729.31L1241.69 1759.44C1248.31 1745.55 1276.74 1707.72 1276.73 1691.4C1276.7 1665.77 1226.6 1659.86 1203.12 1599.84C1191.77 1570.84 1230.3 1521.4 1247.13 1502.07C1263.96 1482.73 1201.45 1415.76 1221.11 1363.17C1247.71 1291.98 1309.57 1311.18 1331.08 1323.13C1317.2 1327.91 1287.84 1342.84 1281.5 1364.39C1273.57 1391.31 1336.46 1420.15 1361.79 1463.78C1387.12 1507.41 1331.24 1565.52 1320.13 1575.25C1309.02 1584.98 1313.86 1617.74 1323.96 1645Z" fill="#C65D3C"/>
<path d="M1215.92 1838.42C1148.47 1813.22 1135.38 1759.22 1121.8 1723.18L1135.16 1738.85C1158.49 1776.39 1183.83 1775.72 1202.57 1782.72C1225.99 1791.47 1299.25 1781.12 1314.87 1783.59C1342.09 1787.89 1365.17 1810.39 1390.87 1817.33C1410.77 1822.7 1420.91 1782.65 1460.83 1790.09C1484.75 1794.55 1510.01 1808.47 1511.38 1836.21C1490.14 1833.07 1485.42 1830.56 1464.91 1830.58C1439.28 1830.61 1447.81 1865.79 1418.79 1876.87C1392.64 1886.85 1348.33 1841.99 1320.78 1834.9C1275 1823.14 1241.68 1848.05 1215.92 1838.42Z" fill="#C65D3C"/>
<path d="M1836.08 1191.58C1835.33 1150.74 1875.71 1083.63 1901.7 1055.97C1884.51 1073.39 1848.26 1110.42 1840.11 1132.24C1828.9 1162.21 1828.9 1196.5 1812.84 1239.48C1791.9 1295.5 1733.21 1306.87 1677.52 1324.49C1632.97 1338.58 1625.45 1400.04 1630.36 1430.7C1633.27 1417.2 1641.43 1386.8 1650.88 1361.5C1662.28 1331.01 1705.61 1326.45 1755.57 1309.89C1805.53 1293.33 1837.07 1245.66 1836.08 1191.58Z" fill="#FFEE8A"/>
<path d="M1513.5 1283.48C1500.6 1255.17 1487.51 1208.29 1482.13 1178.88C1484.93 1203.77 1492.31 1258.48 1499.45 1278.23C1508.37 1302.91 1471.45 1353.17 1457.45 1390.64C1444.26 1425.91 1448.71 1431.14 1505.9 1495.21C1544.18 1538.09 1554.52 1589.21 1551.64 1621.57C1550.74 1628.59 1549.63 1634.42 1548.55 1638.19C1550.01 1633.5 1551.08 1627.9 1551.64 1621.57C1554.6 1598.69 1555.39 1563.19 1545.87 1545.38C1519.48 1496.02 1466.03 1441.96 1462.4 1420.24C1457.45 1390.64 1522.78 1303.82 1513.5 1283.48Z" fill="#FFEE8A"/>
<path d="M1676.32 1604.8C1681.57 1570.63 1765.92 1559.29 1774.47 1559.28C1759.53 1558.32 1733.95 1563.14 1707.65 1569.54C1693.56 1572.97 1666.09 1563.62 1653 1681.49C1639.12 1806.49 1528.63 1711.88 1472.3 1690.83C1416.1 1669.83 1376.63 1679.27 1361.82 1692.24C1371.37 1687.63 1398.6 1679.51 1431.1 1683.97C1471.72 1689.54 1538.49 1742.25 1600.3 1756.81C1662.12 1771.37 1672.61 1629.04 1676.32 1604.8Z" fill="#FFEE8A"/>
<path d="M1402.96 1850.67C1414.15 1848.21 1438.55 1823.05 1448.1 1818.43C1443.15 1818.36 1418.75 1834.11 1405.76 1843.18C1391.32 1853.26 1329.21 1810.9 1316.77 1809.92C1272.18 1806.4 1227.25 1823.8 1211.15 1816.89C1176.26 1801.92 1154.76 1767.35 1139.28 1756.4C1154.82 1770.04 1187.11 1814.95 1209.4 1821.57C1237.26 1829.85 1286 1816.57 1307.88 1815.14C1329.77 1813.71 1383.19 1855.02 1402.96 1850.67Z" fill="#FFEE8A"/>
<path d="M1272.52 1394.12C1249.18 1367.47 1268.68 1342.51 1281.35 1333.37L1281.06 1333.57C1274.27 1338.24 1261.16 1347.25 1250.84 1363.6C1237.75 1384.33 1317.51 1443.41 1326.91 1465.69C1336.54 1488.5 1287.08 1535.14 1273.42 1563.13C1259.76 1591.12 1263.63 1597.9 1287.79 1638.96C1307.11 1671.8 1287.13 1715.93 1273.73 1730.85C1279.11 1725.03 1292.31 1706.84 1302.11 1680.61C1314.37 1647.82 1290.94 1630.53 1280.36 1590.28C1269.78 1550.03 1320.54 1519.89 1334.9 1490.03C1349.26 1460.16 1301.71 1427.45 1272.52 1394.12Z" fill="#FFEE8A"/>
<path d="M257.329 1347.04C243.455 1361.2 238.905 1379.24 247.167 1387.34C255.428 1395.43 273.372 1390.51 287.246 1376.35C301.12 1362.18 301.195 1339.76 297.409 1336.05C293.622 1332.34 271.203 1332.88 257.329 1347.04Z" fill="#5D8016"/>
<path d="M271.197 1418.87C266.336 1433.19 270.076 1447.4 279.549 1450.61C289.023 1453.83 300.643 1444.84 305.504 1430.52C310.364 1416.21 301.493 1400.25 297.151 1398.78C292.809 1397.3 276.057 1404.56 271.197 1418.87Z" fill="#5D8016"/>
<path d="M283.759 1475.64C278.899 1489.95 282.638 1504.16 292.112 1507.38C301.586 1510.6 313.206 1501.6 318.066 1487.28C322.927 1472.97 314.056 1457.02 309.714 1455.54C305.372 1454.07 288.62 1461.32 283.759 1475.64Z" fill="#5D8016"/>
<path d="M337.577 1460.88C351.497 1474.41 370.039 1477.9 378.991 1468.69C387.943 1459.48 383.916 1441.05 369.997 1427.52C356.077 1413.99 332.686 1415.48 328.583 1419.71C324.48 1423.93 323.658 1447.35 337.577 1460.88Z" fill="#5D8016"/>
<path d="M470.149 1488.25C488.514 1481.97 500.031 1467.02 495.873 1454.87C491.715 1442.72 473.457 1437.96 455.092 1444.24C436.728 1450.52 427.463 1472.05 429.368 1477.62C431.274 1483.19 451.784 1494.53 470.149 1488.25Z" fill="#5D8016"/>
<path d="M518.932 1651.45C523.722 1666.21 535.526 1675.61 545.297 1672.44C555.069 1669.27 559.107 1654.73 554.317 1639.97C549.527 1625.2 532.43 1617.52 527.952 1618.97C523.473 1620.43 514.142 1636.68 518.932 1651.45Z" fill="#5D8016"/>
<path d="M559.903 1685.11C565.074 1701.05 577.818 1711.2 588.367 1707.78C598.917 1704.36 603.277 1688.66 598.105 1672.72C592.934 1656.78 574.476 1648.49 569.641 1650.06C564.806 1651.62 554.732 1669.17 559.903 1685.11Z" fill="#5D8016"/>
<path d="M619.828 1726.52C625.636 1744.42 644.354 1759.26 656.201 1755.42C668.049 1751.58 668.539 1730.5 662.732 1712.6C656.924 1694.7 631.379 1681.11 625.949 1682.87C620.519 1684.64 614.021 1708.62 619.828 1726.52Z" fill="#5D8016"/>
<path d="M672.229 1746.59C667.847 1762.69 674.666 1782.82 685.452 1785.75C696.238 1788.69 706.906 1773.32 711.288 1757.23C715.671 1741.13 703.105 1718.6 698.161 1717.25C693.218 1715.91 676.611 1730.5 672.229 1746.59Z" fill="#5D8016"/>
<path d="M706.614 1792.81C702.232 1808.91 712.368 1830.11 723.154 1833.05C733.94 1835.99 749.273 1820.71 753.655 1804.62C761.2 1774.55 747.485 1757.14 742.542 1755.79C737.598 1754.45 710.996 1776.72 706.614 1792.81Z" fill="#5D8016"/>
<path d="M769.61 1851.45C771.62 1868.01 789.004 1883.83 800.101 1882.48C811.199 1881.14 819.64 1861.21 817.63 1844.65C813.28 1813.95 794.011 1803 788.925 1803.62C783.839 1804.23 767.6 1834.89 769.61 1851.45Z" fill="#5D8016"/>
<path d="M921.289 1894.63C937.043 1900.11 968.711 1888.48 963.278 1860.83C958.804 1838.06 940.659 1835.93 918.685 1832.11C885.333 1826.32 868.52 1847.91 866.836 1852.75C865.153 1857.59 887.154 1882.75 921.289 1894.63Z" fill="#5D8016"/>
<path d="M721.857 1698.12C733.205 1699.24 744.402 1708.5 743.649 1716.11C742.896 1723.71 730.478 1726.78 719.13 1725.66C707.781 1724.54 696.45 1711.02 696.795 1707.53C697.14 1704.04 710.508 1696.99 721.857 1698.12Z" fill="#5D8016"/>
<path d="M774.692 1738.18C786.041 1739.31 797.238 1748.57 796.485 1756.17C795.732 1763.78 783.314 1766.85 771.966 1765.72C760.617 1764.6 749.286 1751.08 749.631 1747.6C749.976 1744.11 763.344 1737.06 774.692 1738.18Z" fill="#5D8016"/>
<path d="M834.93 1776.56C849.619 1771 867.886 1777.3 872.753 1790.17C877.62 1803.04 867.818 1813.52 853.129 1819.07C838.44 1824.63 806.424 1812.69 804.193 1806.79C801.963 1800.89 820.241 1782.11 834.93 1776.56Z" fill="#5D8016"/>
<path d="M663.505 1665.95C674.854 1667.07 685.967 1677.18 685.135 1685.58C684.303 1693.98 671.842 1697.5 660.493 1696.37C649.144 1695.25 637.94 1680.44 638.322 1676.59C638.703 1672.74 652.157 1664.82 663.505 1665.95Z" fill="#5D8016"/>
<path d="M313.175 1545.18C310.799 1561.58 316.962 1576.05 326.94 1577.49C336.918 1578.94 346.932 1566.81 349.308 1550.41C351.683 1534.01 340.116 1518.76 335.543 1518.09C330.97 1517.43 315.55 1528.77 313.175 1545.18Z" fill="#5D8016"/>
<path d="M349.741 1611.06C347.365 1627.46 353.528 1641.93 363.506 1643.38C373.484 1644.82 383.498 1632.7 385.874 1616.29C388.25 1599.89 376.682 1584.64 372.109 1583.98C367.536 1583.31 352.117 1594.66 349.741 1611.06Z" fill="#5D8016"/>
<path d="M372.06 1487.48C385.443 1497.25 391.47 1511.78 385.522 1519.92C379.574 1528.06 363.903 1526.73 350.521 1516.96C337.138 1507.18 334.333 1488.24 337.059 1484.51C339.785 1480.78 358.677 1477.7 372.06 1487.48Z" fill="#5D8016"/>
<path d="M466.818 1519.98C472.595 1535.51 469.618 1550.96 460.168 1554.47C450.719 1557.99 438.375 1548.24 432.597 1532.71C426.82 1517.17 434.916 1499.83 439.247 1498.21C443.578 1496.6 461.041 1504.44 466.818 1519.98Z" fill="#5D8016"/>
<path d="M401.569 1540.76C418.797 1545.84 430.256 1558.45 427.165 1568.93C424.075 1579.41 407.603 1583.79 390.376 1578.71C373.149 1573.62 363.364 1555.33 364.78 1550.53C366.197 1545.73 384.342 1535.68 401.569 1540.76Z" fill="#5D8016"/>
<path d="M453.694 1648.32C464.866 1666.16 465.125 1686.13 454.272 1692.93C443.419 1699.72 425.565 1690.77 414.393 1672.93C403.221 1655.09 408.841 1631.43 413.815 1628.32C418.789 1625.2 442.522 1630.48 453.694 1648.32Z" fill="#5D8016"/>
<path d="M1191.52 1687.98C1209.69 1692.37 1222.25 1704.89 1219.58 1715.94C1216.9 1726.99 1200.01 1732.38 1181.85 1727.99C1163.68 1723.6 1152.57 1705.09 1153.8 1700.03C1155.02 1694.97 1173.36 1683.58 1191.52 1687.98Z" fill="#5D8016"/>
<path d="M1133.31 1702.97C1147.16 1715.51 1151.4 1723.99 1143.77 1732.42C1136.14 1740.84 1118.73 1737.5 1104.87 1724.96C1091.02 1712.41 1090.11 1690.85 1093.61 1686.99C1097.11 1683.12 1119.46 1690.42 1133.31 1702.97Z" fill="#5D8016"/>
<path d="M259.649 1211.54C257.348 1181.27 291.747 1139.98 311.002 1123.5L319.002 1159C306.707 1166.91 291.885 1181.69 290.687 1219.33C289.19 1266.38 279.793 1246.31 298.203 1271.55C316.613 1296.79 330.134 1366.17 328.615 1437.96C327.4 1495.39 405.613 1624.15 435.81 1668.15C409.161 1634.66 352.472 1561.46 338.912 1536.61C321.963 1505.55 290.039 1402.69 298.801 1367.77C307.564 1332.85 262.526 1249.38 259.649 1211.54Z" fill="#A17D21"/>
<path d="M401.635 1372.96C377.616 1327.34 326.353 1299.08 303.724 1290.65C302.182 1296.79 303.221 1310.73 319.707 1317.34C340.316 1325.61 375.447 1366.38 383.196 1380.7C390.944 1395.02 407.872 1450.82 408.329 1481.86C408.787 1512.91 430.594 1536.94 449.004 1562.18C467.414 1587.42 558.562 1639.16 567.527 1648.62C576.493 1658.09 655.035 1702.54 686.552 1716.64C718.069 1730.73 724.604 1745.78 738.906 1754.52C753.208 1763.27 784.943 1805.25 836.814 1840.95C878.311 1869.51 892.901 1862.59 895.009 1855.56C874.634 1858.69 839.978 1828.34 817.92 1813.53C795.863 1798.71 757.582 1754.05 743.287 1737.06C728.993 1720.07 700.869 1708.89 669.112 1691.64C643.706 1677.84 602.285 1655.28 584.75 1645.73C598.408 1651.56 633.435 1663.72 664.284 1665.69C702.845 1668.15 743.803 1702.14 756.405 1713.55C769.007 1724.96 827.428 1759.21 868.408 1768.46C909.388 1777.71 1025.14 1702.63 1036.07 1687.85C1044.81 1676.02 1174.53 1716.75 1185.71 1699.62C1173.73 1710.36 1045.81 1650.7 1030.27 1669.89C1010.84 1693.89 894.135 1748.11 872.546 1751.97C850.957 1755.83 831.573 1734.47 801.999 1716.74C772.425 1699.01 748.196 1672.31 706.979 1655.78C665.763 1639.25 636.174 1638.01 609.016 1631.2C581.859 1624.38 531.916 1601.54 512.042 1586.24C492.168 1570.95 460.673 1532.11 437.652 1508.81C414.632 1485.5 431.659 1429.98 401.635 1372.96Z" fill="#A17D21"/>
<path d="M514.706 1527.53C524.932 1540.57 526.79 1556.19 518.856 1562.41C510.922 1568.63 496.2 1563.1 485.974 1550.05C475.747 1537.01 478.187 1518.02 481.823 1515.17C485.459 1512.32 504.479 1514.48 514.706 1527.53Z" fill="#5D8016"/>
<path d="M577.185 1585.68C593.689 1584.16 607.819 1591.06 608.744 1601.1C609.67 1611.14 597.04 1620.52 580.536 1622.04C564.032 1623.56 549.401 1611.21 548.977 1606.61C548.552 1602.01 560.68 1587.2 577.185 1585.68Z" fill="#5D8016"/>
<path d="M625.69 1607.58C641.273 1601.94 656.69 1605.04 660.125 1614.52C663.561 1624 653.714 1636.26 638.132 1641.91C622.55 1647.56 605.272 1639.32 603.697 1634.97C602.122 1630.63 610.108 1613.23 625.69 1607.58Z" fill="#5D8016"/>
<path d="M832.573 1704.61C848.155 1698.96 863.573 1702.06 867.008 1711.54C870.444 1721.02 860.597 1733.28 845.015 1738.93C829.433 1744.58 812.155 1736.34 810.58 1732C809.005 1727.65 816.991 1710.25 832.573 1704.61Z" fill="#5D8016"/>
<path d="M870.251 1719.37C878.404 1704.94 892.129 1697.26 900.907 1702.22C909.685 1707.18 910.192 1722.9 902.039 1737.33C893.886 1751.76 875.407 1756.75 871.383 1754.48C867.36 1752.21 862.099 1733.8 870.251 1719.37Z" fill="#5D8016"/>
<path d="M959.67 1731.56C978.326 1732.66 992.905 1742.76 992.234 1754.11C991.563 1765.45 975.896 1773.76 957.24 1772.66C938.584 1771.55 924.368 1755.31 924.676 1750.11C924.984 1744.91 941.014 1730.46 959.67 1731.56Z" fill="#5D8016"/>
<path d="M1043.84 1705.18C1062 1709.58 1074.56 1722.1 1071.89 1733.14C1069.22 1744.19 1052.32 1749.59 1034.16 1745.2C1015.99 1740.8 1004.88 1722.3 1006.11 1717.24C1007.33 1712.17 1025.67 1700.79 1043.84 1705.18Z" fill="#5D8016"/>
<path d="M910.159 1775.69C919.941 1788.32 921.648 1803.37 913.971 1809.32C906.294 1815.27 892.14 1809.86 882.358 1797.24C872.575 1784.62 875.026 1766.34 878.545 1763.62C882.064 1760.89 900.376 1763.07 910.159 1775.69Z" fill="#5D8016"/>
<path d="M823.716 1756.27C827.596 1766.96 825.469 1777.54 818.965 1779.9C812.462 1782.26 804.045 1775.51 800.165 1764.81C796.286 1754.12 801.935 1742.26 804.916 1741.18C807.897 1740.1 819.837 1745.58 823.716 1756.27Z" fill="#5D8016"/>
<circle cx="155.5" cy="1282.5" r="90.5" fill="#FFEA85"/>
<circle cx="179.5" cy="1455.5" r="52.5" fill="#FFEA85"/>
</g>
<defs>
<linearGradient id="paint0_linear_392_591" x1="312.254" y1="488.059" x2="1064.68" y2="310.131" gradientUnits="userSpaceOnUse">
<stop stop-color="#B0FAC9"/>
<stop offset="0.529167" stop-color="#C1E19F"/>
<stop offset="1" stop-color="#D0CB7A"/>
</linearGradient>
<linearGradient id="paint1_linear_392_591" x1="312.254" y1="488.059" x2="1064.68" y2="310.131" gradientUnits="userSpaceOnUse">
<stop stop-color="#B0FAC9"/>
<stop offset="0.529167" stop-color="#C1E19F"/>
<stop offset="1" stop-color="#D0CB7A"/>
</linearGradient>
<linearGradient id="paint2_linear_392_591" x1="312.254" y1="488.059" x2="1064.68" y2="310.131" gradientUnits="userSpaceOnUse">
<stop stop-color="#B0FAC9"/>
<stop offset="0.529167" stop-color="#C1E19F"/>
<stop offset="1" stop-color="#D0CB7A"/>
</linearGradient>
<linearGradient id="paint3_linear_392_591" x1="337.065" y1="486.482" x2="309.045" y2="1259.15" gradientUnits="userSpaceOnUse">
<stop stop-color="#B0FAC9"/>
<stop offset="0.529167" stop-color="#C1E19F"/>
<stop offset="1" stop-color="#D0CB7A"/>
</linearGradient>
<linearGradient id="paint4_linear_392_591" x1="337.065" y1="486.482" x2="309.045" y2="1259.15" gradientUnits="userSpaceOnUse">
<stop stop-color="#B0FAC9"/>
<stop offset="0.529167" stop-color="#C1E19F"/>
<stop offset="1" stop-color="#D0CB7A"/>
</linearGradient>
<linearGradient id="paint5_linear_392_591" x1="337.065" y1="486.482" x2="309.045" y2="1259.15" gradientUnits="userSpaceOnUse">
<stop stop-color="#B0FAC9"/>
<stop offset="0.529167" stop-color="#C1E19F"/>
<stop offset="1" stop-color="#D0CB7A"/>
</linearGradient>
<clipPath id="clip0_392_591">
<rect width="2000" height="2000" fill="white"/>
</clipPath>
</defs>
</svg>
