<svg width="2000" height="2000" viewBox="0 0 2000 2000" fill="none" xmlns="http://www.w3.org/2000/svg">
<defs>
<linearGradient id="paint0_linear_301_173" x1="869.157" y1="493.988" x2="1203.62" y2="1485.33" gradientUnits="userSpaceOnUse">
<stop stop-color="#273498"/>
<stop offset="0.53" stop-color="#0074C2"/>
<stop offset="1" stop-color="#00ABE7"/>
</linearGradient>
<linearGradient id="paint1_linear_301_173" x1="1778.93" y1="1057.56" x2="1602.97" y2="1196.13" gradientUnits="userSpaceOnUse">
<stop stop-color="#CA7D2E"/>
<stop offset="0.425" stop-color="#0198DA"/>
</linearGradient>
<linearGradient id="paint2_linear_301_173" x1="673.927" y1="230.5" x2="562" y2="1315" gradientUnits="userSpaceOnUse">
<stop offset="0.737992" stop-color="#367183"/>
<stop offset="1" stop-color="#0198DA"/>
</linearGradient>
<linearGradient id="paint3_linear_301_173" x1="251" y1="1200" x2="370" y2="1288" gradientUnits="userSpaceOnUse">
<stop stop-color="#366C83"/>
<stop offset="1" stop-color="#0C91C9"/>
</linearGradient>
<linearGradient id="paint4_linear_301_173" x1="973.307" y1="1765.48" x2="1827.87" y2="985.585" gradientUnits="userSpaceOnUse">
<stop stop-color="#33624D" stop-opacity="0.79"/>
<stop offset="1" stop-color="#5D8016" stop-opacity="0"/>
</linearGradient>
<clipPath id="clip0_301_173">
<rect width="2000" height="2000" fill="white"/>
</clipPath>
</defs>
<g clip-path="url(#clip0_301_173)">
<path d="M433.999 439C625.999 215 1239.33 285.667 1402 379C1384.67 421.667 1083.6 586.2 978 663C846 759 1342 1531 1258 1751C1174 1971 790 1903 726 1867C662 1831 729.999 1815 485.999 1727C241.999 1639 193.999 1347 217.999 1195C241.999 1043 193.999 719 433.999 439Z" fill="#FFEA85"/>
<path d="M228 1083C257.6 1115 361 1246.67 433 1236L520.999 1256L566.999 1480C535.999 1502.33 466.999 1556 438.999 1592C410.999 1628 427.333 1701 438.999 1733C335.999 1682 342.999 1572 356.999 1526C368.199 1489.2 458.999 1449.33 502.999 1434C471.666 1442 424.317 1405.2 365.578 1389.02C322 1377.02 214 1377.02 108.578 1377.02C156 1341 187.078 1310.51 260 1302C345 1292.09 375.999 1357.67 458.999 1302C426.333 1309 339.3 1309 272 1256C192 1193 191 1043 228 1083Z" fill="#5A914C"/>
<path d="M130.001 1407C314.212 1407 325.577 1363.33 377.577 1294C438.91 1370 551.11 1472.05 564 1551C579.999 1649 632.456 1758.67 669.789 1784C643.122 1798.67 488 1763 452 1693C425.943 1642.33 427.123 1570.67 421.79 1496C421.79 1508 368 1580.6 368 1635C368 1679 368.455 1695.67 389.789 1725C361.789 1721 291.045 1682.74 278 1627C257.498 1539.4 322.107 1501.3 377.771 1447.96C349.839 1467.26 286.546 1481 234 1481C164 1481 90.2129 1407 130.001 1407Z" fill="#69AB59"/>
<circle cx="1052" cy="1035.05" r="700" fill="#0198DA"/>
<circle cx="1052" cy="1035.05" r="624" fill="#00ABE7"/>
<circle cx="1052" cy="1035.05" r="619" stroke="white" stroke-opacity="0.5" stroke-width="10"/>
<path fill-rule="evenodd" clip-rule="evenodd" d="M868.061 900.074C920.662 869.626 973.732 839.177 1026.33 808.728C1034.06 804.116 1042.89 801.681 1051.89 801.681C1060.89 801.681 1069.72 804.116 1077.45 808.728L1155.72 853.423C1156.72 854.049 1157.55 854.92 1158.12 855.954C1158.7 856.988 1159 858.15 1159 859.333C1159 860.515 1158.7 861.678 1158.12 862.712C1157.55 863.746 1156.72 864.616 1155.72 865.242L964.417 975.296C962.005 976.688 960.008 978.699 958.632 981.121C957.256 983.542 956.551 986.287 956.59 989.072V1081.44C956.557 1084.15 957.27 1086.81 958.65 1089.15C960.031 1091.48 962.026 1093.39 964.417 1094.66L1044.49 1140.85C1046.77 1142.3 1049.42 1143.08 1052.12 1143.08C1054.83 1143.08 1057.48 1142.3 1059.76 1140.85L1389.92 950.718C1445.96 918.312 1445.96 824.931 1389.92 792.526L1093.1 621.496C1080.73 614.009 1066.54 610.051 1052.08 610.051C1037.62 610.051 1023.44 614.009 1011.07 621.496L714.252 792.526C701.651 799.643 691.182 810 683.929 822.524C676.676 835.048 672.903 849.283 673.002 863.755C673.002 977.957 673.472 1092.24 673.002 1206.21C672.906 1220.69 676.679 1234.93 683.93 1247.47C691.182 1260 701.65 1270.38 714.252 1277.51L1011.07 1449.01C1023.53 1456.24 1037.68 1460.05 1052.08 1460.05C1066.49 1460.05 1080.64 1456.24 1093.1 1449.01L1389.92 1277.51C1402.51 1270.41 1412.96 1260.03 1420.14 1247.48C1427.32 1234.93 1430.96 1220.66 1430.7 1206.21V1057.48L1077.45 1261.78C1069.7 1266.35 1060.88 1268.76 1051.89 1268.76C1042.9 1268.76 1034.07 1266.35 1026.33 1261.78L868.688 1170.36C860.829 1165.98 854.3 1159.56 849.794 1151.77C845.288 1143.99 842.972 1135.13 843.092 1126.13V943.83C843.058 934.98 845.356 926.277 849.752 918.596C854.149 910.915 860.491 904.527 868.14 900.074H868.061Z" fill="url(#paint0_linear_301_173)"/>
<path fill-rule="evenodd" clip-rule="evenodd" d="M868.061 900.074C920.662 869.626 973.732 839.177 1026.33 808.728C1034.06 804.116 1042.89 801.681 1051.89 801.681C1060.89 801.681 1069.72 804.116 1077.45 808.728L1155.72 853.423C1156.72 854.049 1157.55 854.92 1158.12 855.954C1158.7 856.988 1159 858.15 1159 859.333C1159 860.515 1158.7 861.678 1158.12 862.712C1157.55 863.746 1156.72 864.616 1155.72 865.242L964.417 975.296C962.005 976.688 960.008 978.699 958.632 981.121C957.256 983.542 956.551 986.287 956.59 989.072V1081.44C956.557 1084.15 957.27 1086.81 958.65 1089.15C960.031 1091.48 962.026 1093.39 964.417 1094.66L1044.49 1140.85C1046.77 1142.3 1049.42 1143.08 1052.12 1143.08C1054.83 1143.08 1057.48 1142.3 1059.76 1140.85L1389.92 950.718C1445.96 918.312 1445.96 824.931 1389.92 792.526L1093.1 621.496C1080.73 614.009 1066.54 610.051 1052.08 610.051C1037.62 610.051 1023.44 614.009 1011.07 621.496L714.252 792.526C701.651 799.643 691.182 810 683.929 822.524C676.676 835.048 672.903 849.283 673.002 863.755C673.002 977.957 673.472 1092.24 673.002 1206.21C672.906 1220.69 676.679 1234.93 683.93 1247.47C691.182 1260 701.65 1270.38 714.252 1277.51L1011.07 1449.01C1023.53 1456.24 1037.68 1460.05 1052.08 1460.05C1066.49 1460.05 1080.64 1456.24 1093.1 1449.01L1389.92 1277.51C1402.51 1270.41 1412.96 1260.03 1420.14 1247.48C1427.32 1234.93 1430.96 1220.66 1430.7 1206.21V1057.48L1077.45 1261.78C1069.7 1266.35 1060.88 1268.76 1051.89 1268.76C1042.9 1268.76 1034.07 1266.35 1026.33 1261.78L868.688 1170.36C860.829 1165.98 854.3 1159.56 849.794 1151.77C845.288 1143.99 842.972 1135.13 843.092 1126.13V943.83C843.058 934.98 845.356 926.277 849.752 918.596C854.149 910.915 860.491 904.527 868.14 900.074H868.061Z" fill="white"/>
<path d="M1764.07 1080.63C1747.55 1106.97 1724.85 1154.35 1678 1179L1664.5 1223C1715.15 1198.02 1738.86 1154.39 1787.19 1118.44C1835.53 1082.49 1786.44 912.474 1755.85 831.96C1740.91 758.525 1698.83 606.73 1650.03 587.03C1601.22 567.331 1553.62 524.12 1535.93 504.978C1532.45 509.099 1531.6 526.001 1555.98 560.637C1586.45 603.933 1632.99 611.434 1664.5 640.106C1696.02 668.779 1706.71 758.131 1716.41 800.139C1726.12 842.148 1804.76 1015.8 1764.07 1080.63Z" fill="url(#paint1_linear_301_173)"/>
<path d="M1822.67 1005.88C1806.7 1016.15 1799.77 1056.77 1794.58 1097.43C1790.47 1109.99 1783.29 1136.22 1787.53 1140.66C1792.82 1146.21 1833.55 1106.19 1876.95 1055.39C1920.35 1004.58 1896.21 980.504 1904.12 951.761C1912.04 923.018 1923.61 917.868 1921.13 895.508C1918.64 873.148 1962.54 826.576 1958.66 812.62C1954.77 798.665 1887.18 878.428 1871.09 896.128C1842.35 927.735 1860.62 981.467 1822.67 1005.88Z" fill="#BB522A"/>
<path d="M1759.2 674.094C1764.68 630.789 1824.71 505.183 1841.07 504.168C1869.15 502.427 1839.63 697.825 1885.42 772.706C1916.44 823.435 1857.44 834.761 1850.67 898.831C1845.26 950.086 1808.82 985.019 1791.28 996.079C1790.12 985.468 1788.33 961.525 1790.46 950.634C1793.12 937.02 1795.01 900.906 1786.92 859.906C1778.83 818.907 1791.27 803.311 1779.82 745.387C1768.37 687.463 1755.2 705.681 1759.2 674.094Z" fill="#CA7D2E"/>
<path d="M1713.88 846.637C1718.93 862.729 1738.3 882.481 1746.84 889.911L1751.49 904.049C1733.02 892.366 1692.53 865.289 1665.41 852.305C1631.51 836.075 1621.56 782.231 1610.29 762.157C1599.01 742.084 1563.59 752.758 1542.74 741.533C1521.89 730.309 1502.57 692.181 1492.95 660.109C1483.33 628.038 1434.44 584.02 1434.27 564.145C1434.1 544.271 1456.97 570.239 1470.83 584.737C1484.69 599.235 1543.27 613.358 1554.74 622.323C1566.22 631.287 1593.82 663.354 1609.41 675.792C1625.01 688.229 1659.87 697.874 1676.08 712.937C1692.28 728.001 1707.58 826.521 1713.88 846.637Z" fill="#BB522A"/>
<path d="M1651.91 550.917C1645.07 556.704 1652.04 577.807 1655.6 589.615L1644.09 584.67C1638.11 574.344 1615.03 550.701 1601.09 520.069C1583.67 481.779 1618.12 477.689 1630.08 456.398C1642.03 435.106 1610.11 410.675 1609.45 385.105C1608.8 359.535 1626.41 350.764 1639.09 347.004C1651.78 343.244 1649.72 341.507 1650.07 314.321C1650.43 287.135 1687.14 255.697 1679.43 277.392C1671.72 299.086 1704.91 369.689 1714.61 393.721C1724.31 417.754 1704.92 423.617 1685.74 436.346C1666.55 449.076 1696.5 517.66 1691.21 531.88C1685.93 546.101 1660.48 543.684 1651.91 550.917Z" fill="#BB522A"/>
<path d="M1563.02 459.444C1561.51 473.955 1576.38 530.847 1584.01 557.479C1574.53 541.969 1551.03 507.131 1532.89 491.85C1510.23 472.749 1512.24 451.541 1510.22 436.797C1508.19 422.053 1512.27 420.557 1486.04 377.664C1459.82 334.771 1481.62 303.459 1479.84 282.575C1478.06 261.691 1438.5 214.964 1427.83 197.516C1417.16 180.068 1418.12 155.507 1426.44 136.438C1434.75 117.369 1423.19 80.4912 1420.56 63.1218C1417.93 45.7524 1488.57 138.401 1494.8 184.531C1498.22 209.879 1541.47 224.914 1563.69 261.264C1585.92 297.614 1556.32 372.046 1555.08 384.392C1551.58 419.496 1564.91 441.306 1563.02 459.444Z" fill="#CA7D2E"/>
<path d="M1505.87 475.417C1511.27 492.091 1531.46 495.224 1554.35 523.677C1532.25 502.233 1459.57 510.122 1442.7 506.054C1421.61 500.97 1394.36 441.717 1386.04 424.834C1377.71 407.951 1334.77 411.235 1318.29 397.343C1301.8 383.452 1270.76 306.547 1259.2 287.645C1249.95 272.523 1220.55 267.996 1207 267.623C1203 267.072 1199.69 263.504 1218.43 253.643C1241.86 241.316 1263.35 260.134 1300.64 262.306C1337.92 264.477 1345.48 276.836 1363.71 306.643C1381.93 336.45 1382.21 308.314 1417.85 340.46C1449.07 368.618 1425.25 377.884 1441.29 391.049C1457.33 404.213 1453.41 389.631 1470.06 405.422C1486.7 421.212 1499.11 454.575 1505.87 475.417Z" fill="#BB522A"/>
<path d="M1871.62 949.784C1868.21 928.306 1887.93 905.971 1900.14 890.791C1899.03 895.385 1890.77 912.447 1882.67 928.649C1872.54 948.902 1882.06 966.908 1886.17 984.183C1889.66 998.85 1859.22 1016.27 1848.21 1034.51C1840.68 1046.99 1809.3 1112.25 1786.35 1139.43C1798.54 1116.81 1823.97 1067.99 1828.17 1053.63C1833.42 1035.67 1851.94 1016.82 1874.76 995.063C1882.39 987.789 1874.08 965.302 1871.62 949.784Z" fill="#FFCF5C"/>
<path d="M1810.75 704.499C1796.91 685.791 1816.6 617.687 1828.17 585.974C1829.3 599.263 1821.72 644.852 1818.41 659.86C1809.55 700.08 1836.98 747.392 1842.16 772.193C1847.33 796.995 1814.46 815.101 1831.62 866.035C1841.53 895.456 1811.64 949.336 1795.11 964.772C1801.07 949.474 1813.99 916.268 1818 905.828C1823 892.779 1813.37 815.768 1826.98 800.454C1840.58 785.141 1828.05 727.883 1810.75 704.499Z" fill="#FFCF5C"/>
<path d="M1676.97 810.774C1685.92 832.767 1723.07 873.644 1747.77 896.333C1732.26 882.677 1696.69 850.858 1678.47 832.83C1655.7 810.295 1666.8 783.53 1655.97 746.208C1653.1 736.32 1632.8 727.915 1600.88 721.46C1565.32 714.269 1549.31 679.584 1545.77 667.264C1542.94 657.409 1507 628.374 1492.17 619.632C1497.28 622.001 1511.78 629.318 1528.87 639.638C1550.25 652.539 1559.56 674.31 1567.69 693.314C1575.81 712.317 1620.43 717.496 1643.3 725.488C1666.16 733.48 1669.64 792.76 1676.97 810.774Z" fill="#FFCF5C"/>
<path d="M1652.07 378.024C1667.19 368.777 1669.85 336.856 1669.28 322.051C1670.38 330.372 1672.52 349.236 1672.36 358.123C1672.16 369.232 1647.39 383.433 1654.44 408.037C1660.39 428.783 1664.39 442.28 1660.05 458.045C1655.71 473.811 1629.31 484.818 1625.57 511.094C1621.24 529.718 1645.7 558.715 1647.76 587.415C1641.98 577.964 1623.68 526.631 1619.02 515.095C1613.2 500.675 1644.38 471.622 1653.97 456.269C1663.56 440.916 1633.17 389.582 1652.07 378.024Z" fill="#FFCF5C"/>
<path d="M1484.8 237.593C1439.92 193.614 1450.72 153.552 1450.35 138.795C1455.16 151.834 1450.71 182.733 1476.57 215.155C1497.99 242.013 1513.48 260.005 1506.91 303.977C1500.34 347.949 1518.12 368.041 1531.55 384.297C1544.99 400.552 1527.79 450.021 1538.46 467.469C1555.95 496.069 1557.53 512.34 1570.11 535.448C1570.33 535.849 1570.55 536.239 1570.76 536.618C1570.54 536.226 1570.33 535.836 1570.11 535.448C1561.06 519.02 1541.87 485.545 1532.53 474.096C1520.57 459.436 1530.74 426.248 1530.91 412.655C1531.09 399.062 1514.69 377.131 1503.17 363.198C1491.65 349.265 1513.92 266.137 1484.8 237.593Z" fill="#FFCF5C"/>
<path d="M1346.1 324.401C1328.52 311.176 1286.24 279.598 1269.31 273.968C1285.72 277.922 1293.34 284.845 1322.3 300.998C1346.29 314.378 1375.07 336.393 1383.54 370.926C1392.01 405.46 1417.86 408.302 1432.73 416.257C1447.61 424.212 1456.04 453.187 1469.22 462.864C1490.8 478.7 1526.93 500.891 1544.28 514.533C1544.61 514.783 1544.92 515.031 1545.22 515.276C1544.92 515.031 1544.6 514.783 1544.28 514.533C1532.61 505.442 1509.02 492.973 1477.45 476.313C1462.6 468.48 1447.15 440.97 1443.16 430.857C1439.17 420.744 1418.39 417.165 1405.65 410.346C1377.33 395.2 1380.15 350.024 1346.1 324.401Z" fill="#FFCF5C"/>
<path d="M1126.57 230.5C1152.62 230.5 1194.07 253.167 1212.07 260.5C1202.74 260.5 1174.57 248 1118.57 260.5C1057.28 274.182 1014.02 318 974.574 318C898.574 318 815.074 334 623.074 354C431.074 374 311.42 472.456 287.074 530C265.074 582 293.074 674 317.074 748C341.074 822 179.074 961.199 179.074 1034C179.074 1100 359.741 1259.33 463.074 1338V1386C368.408 1312 171.874 1147.6 143.074 1082C114.274 1016.4 175.823 957.977 239.074 856C337.074 698 225.904 700 249.074 550C287.074 304 741.074 314 949.074 292C1011.02 285.448 1075.07 230.5 1126.57 230.5Z" fill="url(#paint2_linear_301_173)"/>
<path d="M1111.58 253C1121.08 299 1168.57 293 1197.57 299C1226.57 305 1285.11 371.843 1292.08 355C1283.07 331 1271.07 269.794 1230.08 250.5C1179.07 226.5 1101.55 204.454 1111.58 253Z" fill="#366C83"/>
<path d="M947.754 270.989C925.105 229.84 965.122 203.555 983.278 180.16C1001.43 156.764 1002.54 67.9191 1018.77 76.2052C1027.51 100.301 1058.14 154.637 1039.49 195.934C1016.29 247.305 971.656 314.416 947.754 270.989Z" fill="#366C83"/>
<path d="M940.074 299C966.474 293.4 981.074 272.667 985.074 263C982.074 260.667 974.474 257.4 968.074 263C961.674 268.6 914.074 296.667 891.074 310C896.408 308.667 913.674 304.6 940.074 299Z" fill="#366C83"/>
<path d="M1066.08 250C1045.08 250 1058.57 199.5 1075.57 183C1092.38 166.689 1094.04 183.604 1108.57 119.266C1108.83 118.092 1110.08 117.354 1111.17 117.873C1129.02 126.413 1134.49 158.145 1121.58 190.5C1104.9 232.28 1099.73 250 1066.08 250Z" fill="#274B5F"/>
<path d="M769.074 286.529C761.575 282 777.64 258.972 801.075 255.5C824.02 252.1 856.196 267.82 883.343 245.484C884.272 244.719 885.691 244.878 886.247 245.945C895.084 262.939 872.661 286.677 849.075 290.5C805.741 297.525 787.37 297.578 769.074 286.529Z" fill="#274B5F"/>
<path d="M716.81 396.06C716.81 403.365 736.492 409.902 753.739 400.269C770.553 390.878 783.765 364.306 812.803 365.006C814.006 365.035 815.03 364.041 814.787 362.862C811.622 347.445 785.016 343.319 767.631 352.722C735.433 370.136 716.81 379.5 716.81 396.06Z" fill="#274B5F"/>
<path d="M553.324 292.712C545.825 288.183 561.89 265.155 585.325 261.683C608.27 258.283 640.446 274.003 667.593 251.667C668.522 250.902 669.941 251.06 670.497 252.128C679.334 269.122 656.911 292.86 633.325 296.683C589.991 303.708 571.62 303.761 553.324 292.712Z" fill="#274B5F"/>
<path d="M716.897 294.164C708.984 297.924 692.977 278.021 696.404 254.58C699.759 231.628 724.083 205.345 710.516 172.915C710.051 171.804 710.615 170.486 711.803 170.292C730.165 167.295 740.731 202.52 745.075 226C755.4 281.801 734.075 286 716.897 294.164Z" fill="#366C83"/>
<path d="M587.113 248.428C579.201 252.188 563.194 232.286 566.621 208.844C569.976 185.893 594.299 159.61 580.732 127.179C580.268 126.069 580.832 124.751 582.02 124.557C600.382 121.559 610.948 156.785 615.292 180.265C625.617 236.065 604.292 240.265 587.113 248.428Z" fill="#366C83"/>
<path d="M166.18 701.194C150.764 705.026 115.866 684.567 110.076 642C104.353 599.924 134.688 541.697 93.0593 491.691C92.2893 490.766 92.4725 489.332 93.5222 488.743C124.349 471.453 161.384 528.852 181.081 568.279C227.071 660.332 194.478 694.159 166.18 701.194Z" fill="#366C83"/>
<path d="M489.786 801.364C489.409 814.246 508.065 836.361 537.392 830.557C566.191 824.857 600.612 787.701 639.691 807.012C640.812 807.566 642.211 807.025 642.498 805.808C649.03 778.058 605.694 763.367 576.676 757.663C508.503 744.262 490.479 777.719 489.786 801.364Z" fill="#366C83"/>
<path d="M468.603 317.301C466.09 312.52 477.952 302.165 492.478 303.694C506.509 305.17 523.045 319.14 542.347 310.713C543.45 310.232 544.793 310.744 544.913 311.941C545.992 322.698 525.28 329.79 511.292 332.966C477.175 340.712 474.059 327.68 468.603 317.301Z" fill="#366C83"/>
<path d="M483.113 298.428C475.201 302.188 459.194 282.286 462.621 258.844C465.976 235.893 490.299 209.61 476.732 177.179C476.268 176.069 476.832 174.751 478.02 174.557C496.382 171.559 506.948 206.785 511.292 230.265C521.617 286.065 500.292 290.265 483.113 298.428Z" fill="#274B5F"/>
<path d="M167.651 786.495C157.965 784.416 157.322 755.541 176.543 736.882C195.41 718.567 235.478 711.766 245.531 673.087C245.834 671.922 247.08 671.217 248.151 671.767C267.089 681.499 252.214 720.621 239.877 744.783C210.695 801.934 188.679 791.009 167.651 786.495Z" fill="#274B5F"/>
<path d="M227.866 1100.28C223.935 1092.09 244.503 1075.41 268.82 1078.87C292.647 1082.26 320.02 1107.4 353.621 1093.13C354.729 1092.66 356.049 1093.22 356.255 1094.4C359.559 1113.48 323.012 1124.6 298.652 1129.21C240.844 1140.15 236.401 1118.06 227.866 1100.28Z" fill="#274B5F"/>
<path d="M174.075 1237C178.006 1228.81 151.893 1215.23 127.576 1218.69C103.746 1222.08 67.1329 1249.13 33.1556 1234.92C32.0452 1234.46 30.7269 1235.02 30.5609 1236.21C27.8664 1255.56 72.9762 1270.21 97.7438 1269.03C151.076 1266.5 165.54 1254.78 174.075 1237Z" fill="#274B5F"/>
<path d="M296.358 1269.27C300.2 1261.04 273.939 1247.74 249.661 1251.47C225.87 1255.11 189.555 1282.57 155.424 1268.73C154.309 1268.28 152.997 1268.85 152.844 1270.05C150.361 1289.42 195.628 1303.58 220.382 1302.13C273.683 1299.02 288.018 1287.13 296.358 1269.27Z" fill="#274B5F"/>
<path d="M320.846 1072.57C316.894 1061.94 323.987 1035.35 352.637 1024.42C380.824 1013.68 426.177 1024.73 454.227 988.297C454.961 987.344 456.386 987.188 457.168 988.103C473.185 1006.84 439.659 1041.47 415.652 1061.38C359.119 1108.27 328.074 1092 320.846 1072.57Z" fill="#274B5F"/>
<path d="M192.076 861C192.076 851.094 187.076 831 165.076 817C143.332 803.163 117.68 828.401 102.574 765.654C102.293 764.488 101.037 763.752 100.01 764.369C80.7223 775.958 91.7848 844.561 112.076 861C137.107 881.277 192.076 882 192.076 861Z" fill="#274B5F"/>
<path d="M231.899 548.552C241.087 547.512 244.342 520.752 228.206 501.651C212.389 482.929 175.876 472.926 170.023 436.196C169.834 435.007 168.661 434.184 167.546 434.637C149.255 442.071 159.441 479.644 168.653 503.161C190.498 558.93 211.952 550.809 231.899 548.552Z" fill="#366C83"/>
<path d="M581.076 501C579.63 510.133 594.19 530.633 619.177 531.558C643.719 532.466 682.656 542.628 722.882 546.78C724.057 546.901 725.083 545.974 724.94 544.802C722.296 523.1 681.811 495.547 658.148 486.502C602.202 465.116 583.644 484.784 581.076 501Z" fill="#274B5F"/>
<path d="M827.056 421.934C823.644 430.528 833.358 453.721 857.536 460.098C881.281 466.362 917.046 484.809 955.385 497.674C956.505 498.05 957.708 497.37 957.826 496.195C960.001 474.441 926.538 438.687 905.432 424.676C855.532 391.551 833.115 406.675 827.056 421.934Z" fill="#366C83"/>
<path d="M527.986 505.963C534.124 507.87 563.074 489 572.074 469C580.395 450.51 581.878 440.139 579.683 416.159C579.393 412.991 576.228 410.937 573.31 412.204C555.58 419.903 533.69 437.199 525.706 451.499C505.41 487.849 517.087 502.578 527.986 505.963Z" fill="#366C83"/>
<path d="M447.576 558.5C453.25 555.482 479.076 535.887 479.076 511C479.076 488.27 479.91 473.276 474.176 449.598C473.355 446.205 469.377 444.844 466.854 447.257C453.159 460.356 440.375 483.637 434.414 498.559C407.076 567 434.414 565.5 447.576 558.5Z" fill="#366C83"/>
<path d="M659.137 417.101C658.422 422.693 659.365 451.116 677.186 463.728C693.236 475.088 703.488 483.215 722.814 491.008C726.052 492.314 729.449 489.851 728.886 486.405C726.224 470.099 716.256 449.674 708.727 438.053C673.575 383.793 660.795 404.129 659.137 417.101Z" fill="#366C83"/>
<path d="M635.947 365.811C638.623 363.951 653.442 356.844 664.666 362.61C673.893 367.35 680.45 370.333 688.487 376.769C691.213 378.951 690.555 383.046 687.169 383.896C678.372 386.103 667.074 386.31 659.929 385.633C622.731 382.106 629.741 370.125 635.947 365.811Z" fill="#274B5F"/>
<path d="M484.752 535.281C482.252 541.135 495.076 568.218 511.549 576.368C526.873 583.949 535.854 585.126 557.62 582.527C560.422 582.192 562.376 579.568 561.664 576.837C557.306 560.108 544.834 539.433 533.173 532.081C503.755 513.535 489.191 524.885 484.752 535.281Z" fill="#274B5F"/>
<path d="M359.551 584.355C359.551 616 392.575 616 418.575 616C442.648 616 465.764 620.311 492.566 620.53C495.851 620.557 498.188 617.369 496.589 614.5C488.476 599.942 468.605 594.387 453.076 584.355C416.245 560.562 359.551 572.903 359.551 584.355Z" fill="#274B5F"/>
<path d="M307.076 606C321.388 614.007 346.251 580.29 354.576 558C362.3 537.322 359.456 531.371 366.221 510.148C367.12 507.327 365.467 504.225 362.507 504.196C347.455 504.047 336.339 518.633 322.801 527.289C290.959 547.647 297.427 600.602 307.076 606Z" fill="#366C83"/>
<path d="M384.247 837.285C374.191 853.834 412.925 884.605 438.876 895.376C463.255 905.494 470.272 902.183 495.802 911.491C498.584 912.506 501.725 910.968 501.968 908.017C503.474 889.774 486.286 875.83 476.466 859.182C453.792 820.742 391.027 826.127 384.247 837.285Z" fill="#274B5F"/>
<path d="M432.43 819.456C415.06 810.896 431.208 764.137 447.314 741.115C460.611 722.109 469.588 711.205 482.942 693.373C485.845 689.498 492.575 691.517 493.202 696.318C495.688 715.379 501.218 735.01 498.462 751.458C489.992 802 444.142 825.226 432.43 819.456Z" fill="#274B5F"/>
<path d="M334.864 812.651C307.711 803.084 333.642 757.333 349.748 734.31C363.045 715.304 372.021 704.401 385.376 686.569C388.278 682.693 395.009 684.712 395.635 689.514C398.122 708.574 403.652 728.205 400.895 744.654C392.425 795.195 367.075 824 334.864 812.651Z" fill="#366C83"/>
<path d="M216.818 1081.67C231.79 1083.87 230.945 1056.24 229.098 1041.59C227.913 1032.18 226.741 1025.7 225.415 1017.84C224.608 1013.07 217.333 1011.52 214.381 1015.35C209.648 1021.51 204.87 1027.52 202.777 1033.86C194.328 1059.44 199.057 1079.05 216.818 1081.67Z" fill="#366C83"/>
<path d="M213.574 1220C224.724 1209.77 206.32 1188.25 181.197 1174.38C162.29 1163.93 136.935 1160.02 119.369 1155.03C114.711 1153.71 110.186 1158.69 112.917 1162.69C122.385 1176.55 137.274 1194.78 145.574 1202C165.903 1219.68 200.347 1232.14 213.574 1220Z" fill="#366C83"/>
<path d="M269.394 1047.62C292.664 1055.23 298.874 1010.94 299.935 987.07C300.776 968.17 300.437 956.355 300.61 938.709C300.657 933.867 294.019 931.319 290.554 934.7C279.354 945.628 266.428 955.615 260.078 967.552C239.611 1006.03 241.788 1038.59 269.394 1047.62Z" fill="#366C83"/>
<path d="M264.075 479C255.058 484.022 220.121 461.932 222.369 434.111C224.577 406.783 251.343 373.91 232.576 336.663C232.034 335.589 232.504 334.237 233.67 333.939C255.243 328.416 270.487 369.366 277.422 396.811C293.801 461.632 283.652 468.097 264.075 479Z" fill="#274B5F"/>
<path d="M325.127 364.445C313.524 368.715 271.594 340.13 267.094 307C262.853 275.775 272.806 249.209 273.965 206.922C274.065 203.249 277.89 200.844 281.093 202.645C300.606 213.616 322.803 233.076 336.746 261C372.524 332.652 348.074 356 325.127 364.445Z" fill="#366C83"/>
<path d="M747.074 295C770.274 293.4 791.408 242.333 799.074 217L804.074 193C797.408 207 780.874 240.6 768.074 263C752.074 291 724.074 290 698.074 290C677.274 290 645.408 318.667 632.074 333C636.741 333 647.474 331.2 653.074 324C660.074 315 718.074 297 747.074 295Z" fill="#366C83"/>
<path d="M513.074 306C536.274 304.4 580.408 274.333 588.074 249L598.074 230C584.074 239 569.127 259.767 549.074 276C528.074 293 497.574 290 466.074 303C446.847 310.935 405.408 370.667 392.074 385C396.741 385 410.112 393.216 414.074 385C449.074 312.428 484.074 308 513.074 306Z" fill="#366C83"/>
<path d="M796.88 214.75C777.688 206.225 790.574 183 807.574 166.5C824.379 150.188 844.605 172.479 859.557 108.265C859.83 107.093 861.083 106.352 862.142 106.923C879.562 116.302 879.226 159.179 870.075 177C848.33 219.347 807.574 219.5 796.88 214.75Z" fill="#274B5F"/>
<path d="M419.315 340.801C435.137 346.766 440.807 326.376 440.33 307.479C439.859 288.855 415.839 290.037 443.003 245.693C443.632 244.665 443.255 243.26 442.087 242.961C426.787 239.053 403.25 263.196 398.52 278.285C387.176 314.478 410.499 337.477 419.315 340.801Z" fill="#366C83"/>
<path d="M324.074 431C336.074 415 332.074 341 340.074 355L324.074 311C319.741 341.667 310.074 405.8 306.074 417C301.074 431 241.074 502 234.074 528C227.074 554 256.074 570 253.074 549C250.074 528 312.074 447 324.074 431Z" fill="#366C83"/>
<path d="M187.074 691C196.674 678.2 183.074 629.667 175.074 607C175.074 623 178.092 616 175.074 672C174.159 688.975 154.074 713 144.074 751C134.074 789 163.074 815 187.074 849C206.274 876.2 195.074 936.333 187.074 963C196.741 951 216.874 918.2 220.074 883C224.074 839 187.074 801 175.074 781C163.074 761 175.074 707 187.074 691Z" fill="#366C83"/>
<path d="M476.074 534C502.217 497.4 568.074 494.333 596.074 496C576.074 501.333 532.574 506 516.074 518C480.006 544.231 462.491 565.494 435.074 572C405.574 579 381.074 571 356.074 582C336.074 590.8 289.741 646.667 283.074 666L273.074 658C278.408 646.333 293.374 620.6 320.574 591C356.074 552.368 438.932 586 476.074 534Z" fill="#366C83"/>
<path d="M699.074 404.5C678.574 411 597.574 346.5 591.574 347H567.074C595.741 364.167 651.474 394.5 667.074 404.5C699.074 425.013 712.074 409 760.074 404.5C800.551 400.705 839.908 417 855.074 429C854.241 425.333 846.574 415.3 822.574 404.5C792.574 391 743.703 390.349 699.074 404.5Z" fill="#366C83"/>
<path d="M387.074 834C423.874 848.4 490.741 813 519.074 792C481.741 799.667 453.831 822 423.074 822C395.074 822 324.408 809.333 295.074 801L283.074 815C302.741 816.333 350.274 819.6 387.074 834Z" fill="#366C83"/>
<path d="M300.074 1062C326.474 1070 349.741 1065.33 358.074 1062C346.074 1060.33 317.674 1055.2 300.074 1048C278.074 1039 251.074 1049 231.074 1057C215.074 1063.4 212.408 1103 213.074 1122L231.074 1144C228.741 1133.33 225.474 1106.6 231.074 1085C238.074 1058 267.074 1052 300.074 1062Z" fill="#366C83"/>
<path d="M251.574 1223C264.074 1229.45 323.908 1260.83 360.074 1279.5L370.074 1302C327.574 1283.17 257.687 1243.01 235.574 1239.5C194.574 1233 161.241 1235.5 147.074 1239.5C199.074 1209 236.074 1215 251.574 1223Z" fill="url(#paint3_linear_301_173)"/>
<path d="M1016.26 1845.38C899.935 1874.86 685.985 1717.27 593.469 1610.05C673.29 1642.77 843.319 1710.12 884.867 1717.75C936.801 1727.28 1040.81 1641.08 1130.4 1595.67C1219.99 1550.27 1425.35 1603.44 1459.75 1592.65C1494.16 1581.87 1445.47 1528.18 1498.15 1467.38C1527.92 1433.01 1579.81 1437.05 1602.26 1414.16C1639.97 1375.72 1608.68 1301.12 1636.62 1240.39C1654.33 1201.89 1706.74 1187.72 1707.2 1168.85C1708.49 1116.95 1755.95 1092.54 1772.33 1059.5C1788.71 1026.46 1757.89 945.553 1760.73 924.201C1763.57 902.848 1815.8 1003.09 1834.5 1085C1853.2 1166.92 1805.83 1216.07 1779.7 1235.07C1753.57 1254.07 1783.08 1378.64 1767.3 1446.6C1751.51 1514.57 1652.83 1597.35 1618.42 1608.14C1584.02 1618.92 1573.86 1676.52 1518.32 1701.6C1435.01 1739.23 1325.95 1733.86 1233.28 1757.35C1173.18 1772.59 1165.79 1807.47 1016.26 1845.38Z" fill="#5D8016"/>
<path d="M902.465 1722.06C901.279 1730.27 897.683 1737.82 884.955 1744.55C869.944 1752.48 835.291 1749.4 813.415 1747.21" stroke="#78A51C" stroke-width="8" stroke-linecap="round"/>
<path d="M955.824 1796.22C960.364 1799.88 976.035 1813.28 981.49 1820.15C986.946 1827.02 993.438 1839.47 996.003 1844.84" stroke="#78A51C" stroke-width="8" stroke-linecap="round"/>
<path d="M1012.65 1670.4C1021.15 1686.98 1032.5 1716.37 1024.64 1740.09C1015.88 1766.55 990.587 1783.45 980.317 1795.17" stroke="#78A51C" stroke-width="8" stroke-linecap="round"/>
<path d="M983.586 1793.82C1000.32 1794.74 1025.09 1787.84 1046.65 1796.41C1068.22 1804.97 1087.86 1813.13 1094.98 1816.14" stroke="#78A51C" stroke-width="8" stroke-linecap="round"/>
<path d="M1521.64 1458.33C1524.62 1466 1533.27 1484.26 1534.39 1498.42C1535.5 1512.58 1526.73 1566.56 1523.65 1588.32" stroke="#78A51C" stroke-width="8" stroke-linecap="round"/>
<path d="M644.27 1643.6C743.468 1717.49 960.48 1847.55 1034.95 1776.68C1128.03 1688.09 1141.31 1667.19 1219.89 1667.9C1298.47 1668.61 1435.21 1673.92 1472.8 1652.27C1530.42 1619.1 1533.72 1518.15 1588.51 1510.49C1679.18 1497.83 1689.39 1418.38 1697.97 1384.74C1714.01 1321.87 1645.25 1282.56 1759.34 1166.98C1826.65 1098.8 1791.74 987.522 1775.01 952.046" stroke="#78A51C" stroke-width="8" stroke-linecap="round"/>
<path d="M1766.47 1085.23C1768.42 1092.9 1768.21 1101.5 1768.61 1109.28C1769.24 1122.02 1770.31 1135.24 1767.38 1147.79C1765.68 1155.11 1762.51 1161.16 1758.89 1167.62" stroke="#78A51C" stroke-width="5" stroke-linecap="round"/>
<path d="M1820.32 1056.72C1820.51 1057.45 1820.66 1058.17 1820.47 1058.93C1816.78 1073.38 1811.27 1087.89 1805.05 1101.4C1800.49 1111.32 1795.45 1118.48 1787.95 1126" stroke="#78A51C" stroke-width="5" stroke-linecap="round"/>
<path d="M1729.86 1199.22C1733.61 1195.98 1747.48 1186.42 1751.64 1183.71C1764.97 1175.05 1778.5 1166.53 1792.9 1159.73C1800.4 1156.18 1808.19 1153.99 1816.1 1151.67C1820.27 1150.45 1824.46 1149.34 1828.67 1148.28" stroke="#78A51C" stroke-width="5" stroke-linecap="round"/>
<path d="M1694.2 1270.16C1694.27 1270.77 1693.77 1269.94 1694.37 1268.76C1698.54 1260.66 1707.53 1252.47 1713.41 1246.1C1726.36 1232.05 1739.27 1219.72 1755.99 1210.43C1768.21 1203.65 1780.88 1197.44 1794.02 1192.67C1796.93 1191.62 1799.84 1190.94 1802.68 1189.65C1806.73 1187.82 1811.08 1186.06 1815.38 1184.97" stroke="#78A51C" stroke-width="5" stroke-linecap="round"/>
<path d="M1681.17 1202.48C1682.3 1206.1 1684.13 1209.38 1685.23 1213.24C1689.01 1226.63 1691.97 1240.21 1692.98 1254.12C1693.52 1261.71 1692.55 1268.28 1691.89 1275.69" stroke="#78A51C" stroke-width="5" stroke-linecap="round"/>
<path d="M1729.3 1117.24C1729.59 1118.74 1729.31 1120.72 1729.29 1122.1C1729.07 1140.12 1730.06 1158.64 1727.12 1176.48C1724.92 1189.86 1721.6 1203.97 1716.24 1216.47C1712.4 1225.42 1706.97 1233.56 1701.87 1241.8" stroke="#78A51C" stroke-width="5" stroke-linecap="round"/>
<path d="M1639.31 1246.93C1647.61 1252.56 1663.29 1276.44 1667.35 1292.44C1670.69 1305.62 1689.47 1358.01 1697.83 1380.13" stroke="#78A51C" stroke-width="8" stroke-linecap="round"/>
<path d="M1764.24 1255.49C1750.77 1264.76 1732.92 1282.52 1724.24 1297.1C1715.56 1311.68 1702.02 1338.32 1699.55 1348.24" stroke="#78A51C" stroke-width="8" stroke-linecap="round"/>
<path d="M1628.68 1335.25C1637.43 1341.28 1652.15 1354.58 1661.92 1374.8C1670.13 1391.78 1674.83 1427.75 1673.58 1453.34" stroke="#78A51C" stroke-width="8" stroke-linecap="round"/>
<path d="M1606.33 1507.52C1632.75 1503.92 1671.8 1503.31 1688.28 1499.13C1714.9 1492.38 1743.5 1474.82 1757.4 1460.46" stroke="#78A51C" stroke-width="8" stroke-linecap="round"/>
<path d="M1616.54 1405.38C1622.36 1417.49 1628.81 1438.33 1627.72 1449.49C1624.44 1483.33 1600.5 1494.04 1589.36 1509.76" stroke="#78A51C" stroke-width="8" stroke-linecap="round"/>
<path d="M1765.84 1371.66C1756.64 1378.12 1740.3 1388.97 1723.74 1402.97C1712.07 1412.83 1681.45 1449.8 1667.55 1466.21" stroke="#78A51C" stroke-width="8" stroke-linecap="round"/>
<path d="M1515.82 1604.23C1532.43 1590.39 1559.84 1568.31 1592.77 1551.71C1626.38 1534.77 1688.81 1537.85 1707.06 1532.54" stroke="#78A51C" stroke-width="8" stroke-linecap="round"/>
<path d="M1491.92 1638.14C1503.77 1628.6 1546.34 1613 1557.07 1610.28C1573.06 1606.23 1614.5 1595.38 1643.82 1588.29" stroke="#78A51C" stroke-width="8" stroke-linecap="round"/>
<path d="M1476.46 1546.64C1479.84 1565.38 1477.98 1604.6 1465.06 1619.68C1440.78 1648.01 1410.21 1657.65 1390.39 1666.97" stroke="#78A51C" stroke-width="8" stroke-linecap="round"/>
<path d="M1461.66 1657.16C1470.18 1654.83 1497.95 1651.78 1517.07 1653.95C1536.19 1656.11 1554.96 1657.58 1561.96 1658.04" stroke="#78A51C" stroke-width="8" stroke-linecap="round"/>
<path d="M1346.62 1669.3C1375.21 1662.05 1420.65 1682.89 1436.66 1688.77C1458.28 1696.7 1465.67 1706.87 1473.72 1710.84" stroke="#78A51C" stroke-width="8" stroke-linecap="round"/>
<path d="M1379.72 1594.37C1369.94 1606.65 1349.38 1630.53 1334.77 1642.9C1320.16 1655.27 1299.55 1664.73 1291.07 1667.91" stroke="#78A51C" stroke-width="8" stroke-linecap="round"/>
<path d="M1306.84 1669.07C1328.01 1676.6 1364 1686.92 1379.1 1701.82C1394.92 1717.41 1394.37 1722.7 1397.62 1728.07" stroke="#78A51C" stroke-width="8" stroke-linecap="round"/>
<path d="M1305.36 1585.88C1296.19 1601.27 1275.24 1631.48 1256.07 1643.77C1236.9 1656.06 1196.64 1666.4 1183.76 1669.84" stroke="#78A51C" stroke-width="8" stroke-linecap="round"/>
<path d="M1199.63 1667.36C1217.91 1668.23 1268.84 1677.05 1287.51 1690.47C1306.18 1703.9 1331.6 1725.38 1341.98 1734.44" stroke="#78A51C" stroke-width="8" stroke-linecap="round"/>
<path d="M1113.53 1704.14C1126.48 1696.22 1184.37 1697.84 1208.13 1706.99C1231.57 1716 1258.63 1723.07 1274.46 1742.78" stroke="#78A51C" stroke-width="8" stroke-linecap="round"/>
<path d="M1229.79 1580.8C1220.71 1596.51 1198.21 1631.61 1180.89 1646.32C1163.57 1661.03 1140.3 1680.85 1130.83 1688.93" stroke="#78A51C" stroke-width="8" stroke-linecap="round"/>
<path d="M1038.1 1774.85C1050.84 1766.12 1094.43 1744.43 1132.33 1741.67C1163.73 1739.39 1190.69 1750.09 1211.94 1758.63" stroke="#78A51C" stroke-width="8" stroke-linecap="round"/>
<path d="M1073.75 1738.47C1079.05 1728.87 1094.7 1700.25 1095.96 1669.4C1097.22 1638.54 1091.72 1623.53 1089.26 1622.61" stroke="#78A51C" stroke-width="8" stroke-linecap="round"/>
<path d="M1157.67 1591.34C1158.75 1598.98 1160.17 1615.46 1153.32 1633.19C1145.67 1652.98 1116.81 1693.34 1108.21 1707.56" stroke="#78A51C" stroke-width="8" stroke-linecap="round"/>
<path d="M956.851 1702.6C963.77 1717 972.766 1748.29 953.395 1758.15C934.024 1768.01 899.119 1773.97 881.664 1776.33" stroke="#78A51C" stroke-width="8" stroke-linecap="round"/>
<path d="M864.305 1770.93C873.179 1777.45 887.909 1794.87 895.343 1805.88C902.776 1816.89 903.486 1823.76 905.118 1828.16" stroke="#78A51C" stroke-width="8" stroke-linecap="round"/>
<path d="M778.553 1729.74C789.334 1738.35 812.017 1757.57 816.506 1765.51C822.372 1775.89 837.13 1792.61 841.237 1799.99" stroke="#78A51C" stroke-width="8" stroke-linecap="round"/>
<path d="M746.6 1711.53C756.031 1715.5 787.339 1724.11 806.534 1720.07C825.73 1716.03 839.089 1712.16 843.369 1710.73" stroke="#78A51C" stroke-width="8" stroke-linecap="round"/>
<path d="M708.572 1689.71C720.611 1699.9 744.938 1722.06 745.932 1729.24C746.925 1736.42 764.519 1751.7 768.697 1755.97" stroke="#78A51C" stroke-width="8" stroke-linecap="round"/>
<path d="M1016.26 1845.38C899.935 1874.86 685.985 1717.27 593.469 1610.05C673.29 1642.77 843.319 1710.12 884.867 1717.75C936.801 1727.28 1040.81 1641.08 1130.4 1595.67C1219.99 1550.27 1425.35 1603.44 1459.75 1592.65C1494.16 1581.87 1445.47 1528.18 1498.15 1467.38C1527.92 1433.01 1579.81 1437.05 1602.26 1414.16C1639.97 1375.72 1608.68 1301.12 1636.62 1240.39C1654.33 1201.89 1706.74 1187.72 1707.2 1168.85C1708.49 1116.95 1755.95 1092.54 1772.33 1059.5C1788.71 1026.46 1757.89 945.553 1760.73 924.201C1763.57 902.848 1815.8 1003.09 1834.5 1085C1853.2 1166.92 1805.83 1216.07 1779.7 1235.07C1753.57 1254.07 1783.08 1378.64 1767.3 1446.6C1751.51 1514.57 1652.83 1597.35 1618.42 1608.14C1584.02 1618.92 1573.86 1676.52 1518.32 1701.6C1435.01 1739.23 1325.95 1733.86 1233.28 1757.35C1173.18 1772.59 1165.79 1807.47 1016.26 1845.38Z" fill="url(#paint4_linear_301_173)"/>
<path d="M702.012 1766.23C585.076 1739.29 466.817 1501.32 433.541 1363.67C489.578 1429.26 610.021 1566.88 643.489 1592.66C685.324 1624.87 817.231 1595.74 917.669 1596.31C1018.11 1596.87 1176.46 1738.03 1211.99 1744.17C1247.52 1750.3 1228.75 1680.3 1303.4 1650.29C1345.59 1633.33 1389.89 1660.65 1420.32 1650.55C1471.44 1633.59 1477.7 1552.94 1530.31 1511.7C1563.66 1485.55 1616.75 1496.9 1625.79 1480.34C1650.65 1434.76 1704.02 1434.74 1733.7 1412.84C1763.37 1390.95 1772.93 1304.9 1785.22 1287.2C1797.51 1269.51 1798.14 1382.54 1777.34 1463.94C1756.53 1545.35 1691.92 1567.41 1660 1572.37C1628.07 1577.33 1597.38 1701.61 1552.28 1754.84C1507.17 1808.07 1381.56 1836.6 1346.03 1830.46C1310.5 1824.33 1275.14 1870.91 1214.28 1867.84C1122.98 1863.22 1028.44 1808.6 935.274 1787.13C874.857 1773.21 852.333 1800.86 702.012 1766.23Z" fill="#CFB114"/>
<path d="M657.172 1604.53C652.364 1611.29 645.712 1616.37 631.317 1616.53C614.34 1616.73 584.927 1598.15 566.472 1586.2" stroke="#D7D97A" stroke-width="8" stroke-linecap="round"/>
<path d="M670.732 1694.88C673.095 1700.22 680.912 1719.29 682.624 1727.9C684.336 1736.5 684.418 1750.54 684.245 1756.49" stroke="#D7D97A" stroke-width="8" stroke-linecap="round"/>
<path d="M778.784 1608.95C778.766 1627.59 775.428 1658.91 757.596 1676.41C737.703 1695.95 707.485 1699.42 692.996 1705.14" stroke="#D7D97A" stroke-width="8" stroke-linecap="round"/>
<path d="M696.52 1705.44C710.988 1713.91 736.167 1719.09 751.434 1736.57C766.7 1754.04 780.44 1770.27 785.401 1776.21" stroke="#D7D97A" stroke-width="8" stroke-linecap="round"/>
<path d="M1328.43 1652.98C1327.57 1661.16 1326.92 1681.37 1321.44 1694.47C1315.96 1707.57 1283.48 1751.57 1270.8 1769.52" stroke="#D7D97A" stroke-width="8" stroke-linecap="round"/>
<path d="M463.391 1416.73C517.845 1527.79 651.411 1742.67 750.039 1713.67C873.325 1677.42 894.682 1664.9 964.251 1701.45C1033.82 1738.01 1153.01 1805.23 1196.34 1803.16C1262.75 1799.99 1311.82 1711.71 1364.06 1729.95C1450.49 1760.12 1495.88 1694.12 1518.89 1668.13C1561.9 1619.55 1518.7 1553.15 1673.01 1502.51C1764.05 1472.63 1783.86 1357.7 1785.19 1318.5" stroke="#D7D97A" stroke-width="8" stroke-linecap="round"/>
<path d="M1716.73 1433.05C1714.95 1440.77 1710.84 1448.32 1707.63 1455.42C1702.37 1467.04 1697.28 1479.28 1688.94 1489.11C1684.08 1494.84 1678.49 1498.77 1672.32 1502.86" stroke="#D7D97A" stroke-width="5" stroke-linecap="round"/>
<path d="M1777.65 1432.31C1777.48 1433.04 1777.29 1433.75 1776.77 1434.34C1766.88 1445.5 1755.35 1455.89 1743.65 1465.07C1735.05 1471.8 1727.3 1475.87 1717.19 1479.13" stroke="#D7D97A" stroke-width="5" stroke-linecap="round"/>
<path d="M1632.06 1517.7C1636.87 1516.53 1653.58 1514.37 1658.52 1513.86C1674.33 1512.26 1690.26 1510.86 1706.18 1511.39C1714.47 1511.67 1722.4 1513.28 1730.49 1514.83C1734.76 1515.64 1738.99 1516.58 1743.23 1517.56" stroke="#D7D97A" stroke-width="5" stroke-linecap="round"/>
<path d="M1567.91 1564.49C1567.7 1565.07 1567.63 1564.1 1568.71 1563.33C1576.11 1558.03 1587.86 1554.86 1596 1551.88C1613.94 1545.3 1631.05 1540.23 1650.18 1539.62C1664.14 1539.17 1678.25 1539.44 1692.11 1541.21C1695.19 1541.6 1698.09 1542.32 1701.19 1542.48C1705.63 1542.69 1710.31 1543.12 1714.64 1544.11" stroke="#D7D97A" stroke-width="5" stroke-linecap="round"/>
<path d="M1587.26 1498.35C1586.61 1502.08 1586.75 1505.83 1585.95 1509.77C1583.2 1523.4 1579.62 1536.84 1574.16 1549.67C1571.18 1556.67 1567.31 1562.07 1563.33 1568.36" stroke="#D7D97A" stroke-width="5" stroke-linecap="round"/>
<path d="M1669.03 1444.53C1668.6 1446 1667.45 1447.63 1666.8 1448.85C1658.37 1464.77 1650.79 1481.7 1640.01 1496.23C1631.94 1507.12 1622.54 1518.15 1612.05 1526.82C1604.55 1533.02 1596 1537.78 1587.69 1542.78" stroke="#D7D97A" stroke-width="5" stroke-linecap="round"/>
<path d="M1529.71 1518.75C1534.52 1527.55 1537.55 1555.96 1533.85 1572.04C1530.8 1585.29 1523.55 1640.47 1520.88 1663.97" stroke="#D7D97A" stroke-width="8" stroke-linecap="round"/>
<path d="M1636.91 1583.47C1620.7 1585.55 1596.71 1593.19 1582.32 1602.19C1567.93 1611.19 1543.71 1628.7 1536.98 1636.38" stroke="#D7D97A" stroke-width="8" stroke-linecap="round"/>
<path d="M1479.89 1592.44C1484.92 1601.81 1491.93 1620.36 1491.38 1642.81C1490.91 1661.67 1478.65 1695.8 1465.84 1717.99" stroke="#D7D97A" stroke-width="8" stroke-linecap="round"/>
<path d="M1381.27 1735.45C1406.42 1744.32 1441.42 1761.63 1457.99 1765.44C1484.75 1771.61 1518.22 1769.06 1537.14 1762.64" stroke="#D7D97A" stroke-width="8" stroke-linecap="round"/>
<path d="M1437.04 1649.27C1436.68 1662.7 1432.88 1684.18 1426.82 1693.61C1408.43 1722.21 1382.25 1720.8 1365.15 1729.68" stroke="#D7D97A" stroke-width="8" stroke-linecap="round"/>
<path d="M1585.23 1687.52C1574.1 1689.06 1554.62 1691.24 1533.48 1696.12C1518.6 1699.56 1474.46 1718.44 1454.6 1726.69" stroke="#D7D97A" stroke-width="8" stroke-linecap="round"/>
<path d="M1256.56 1780.09C1277.66 1775.37 1312.13 1768.27 1349.01 1768.55C1386.64 1768.84 1440.76 1800.13 1459.43 1803.74" stroke="#D7D97A" stroke-width="8" stroke-linecap="round"/>
<path d="M1219.8 1799.33C1234.7 1796.26 1279.7 1801.84 1290.48 1804.33C1306.56 1808.03 1348.38 1817.32 1377.7 1824.42" stroke="#D7D97A" stroke-width="8" stroke-linecap="round"/>
<path d="M1247.88 1710.87C1242.31 1729.09 1222.74 1763.12 1204.35 1770.63C1169.8 1784.73 1138.21 1779.33 1116.32 1778.56" stroke="#D7D97A" stroke-width="8" stroke-linecap="round"/>
<path d="M1184.2 1802.41C1192.84 1804.23 1218.94 1814.21 1234.95 1824.88C1250.96 1835.55 1266.99 1845.43 1273 1849.04" stroke="#D7D97A" stroke-width="8" stroke-linecap="round"/>
<path d="M1076.33 1760.63C1105.07 1767.25 1135.96 1806.56 1147.51 1819.1C1163.11 1836.04 1165.04 1848.45 1170.39 1855.67" stroke="#D7D97A" stroke-width="8" stroke-linecap="round"/>
<path d="M1140.02 1709.11C1125.7 1715.56 1096.5 1727.41 1077.85 1731.73C1059.21 1736.06 1036.55 1735.04 1027.56 1734" stroke="#D7D97A" stroke-width="8" stroke-linecap="round"/>
<path d="M1041.05 1742.24C1056.44 1758.61 1083.73 1784.24 1090.36 1804.39C1097.3 1825.49 1094.39 1829.95 1094.83 1836.21" stroke="#D7D97A" stroke-width="8" stroke-linecap="round"/>
<path d="M1077.75 1667.57C1062.57 1677.07 1030.12 1694.36 1007.46 1696.53C984.794 1698.7 944.258 1689.49 931.228 1686.66" stroke="#D7D97A" stroke-width="8" stroke-linecap="round"/>
<path d="M946.484 1691.72C962.34 1700.84 1003.61 1731.97 1014.08 1752.44C1024.55 1772.92 1037.34 1803.64 1042.43 1816.44" stroke="#D7D97A" stroke-width="8" stroke-linecap="round"/>
<path d="M853.09 1685.08C868.231 1683.95 918.974 1711.85 935.929 1730.84C952.651 1749.58 973.493 1768.23 978.562 1793" stroke="#D7D97A" stroke-width="8" stroke-linecap="round"/>
<path d="M1012.87 1628.51C997.608 1638.33 961.553 1659.27 939.429 1664.43C917.304 1669.6 887.54 1676.59 875.424 1679.45" stroke="#D7D97A" stroke-width="8" stroke-linecap="round"/>
<path d="M753.674 1713.48C769.002 1711.54 817.685 1712.18 852.655 1727.05C881.628 1739.37 900.712 1761.21 915.708 1778.52" stroke="#D7D97A" stroke-width="8" stroke-linecap="round"/>
<path d="M802.014 1697.42C811.119 1691.31 838.118 1673.01 853.34 1646.14C868.561 1619.27 870.539 1603.41 868.764 1601.46" stroke="#D7D97A" stroke-width="8" stroke-linecap="round"/>
<path d="M943.904 1604.92C941.371 1612.2 935.105 1627.52 920.906 1640.16C905.057 1654.26 860.944 1676.97 846.793 1685.68" stroke="#D7D97A" stroke-width="8" stroke-linecap="round"/>
<path d="M714.438 1612.08C714.007 1628.06 707.709 1660 685.973 1659.91C664.236 1659.83 630.466 1649.18 613.862 1643.3" stroke="#D7D97A" stroke-width="8" stroke-linecap="round"/>
<path d="M600.891 1630.56C605.803 1640.42 610.945 1662.64 612.524 1675.83C614.103 1689.02 611.594 1695.45 611.033 1700.11" stroke="#D7D97A" stroke-width="8" stroke-linecap="round"/>
<path d="M543.451 1554.73C549.102 1567.32 560.494 1594.78 560.857 1603.89C561.332 1615.8 566.815 1637.42 567.093 1645.86" stroke="#D7D97A" stroke-width="8" stroke-linecap="round"/>
<path d="M523.352 1523.93C529.925 1531.77 553.838 1553.73 572.758 1558.91C591.678 1564.09 605.328 1566.76 609.788 1567.45" stroke="#D7D97A" stroke-width="8" stroke-linecap="round"/>
<path d="M499.504 1487.14C505.555 1501.7 517.059 1532.54 514.663 1539.37C512.266 1546.21 520.931 1567.84 522.694 1573.55" stroke="#D7D97A" stroke-width="8" stroke-linecap="round"/>
<circle cx="484" cy="1839" r="73" fill="#FFEA85"/>
<circle cx="618" cy="1866" r="40" fill="#FFEA85"/>
</g>
</svg>
