<svg width="2000" height="2000" viewBox="0 0 2000 2000" fill="none" xmlns="http://www.w3.org/2000/svg">
<g clip-path="url(#clip0_345_292)">
<path d="M208 1319C86.4003 1219.8 205.334 987 280 883L1620 1127C1808 1319 1633.98 1609.01 1496 1699C1128 1939 672 1859 520 1699C389.319 1561.44 360 1443 208 1319Z" fill="#FFEA85"/>
<path d="M1260 219.745C1186.57 199.938 1017.53 235.847 982.969 292.299C968.16 252.434 916.155 186.642 844.593 176.449C755.141 163.709 650.832 320.273 644.223 341.399C637.614 362.526 703.07 311.101 777.234 286.919C836.565 267.574 897.016 335.103 919.825 371.285L1444 527C1386.44 464.925 1471.75 276.856 1260 219.745Z" fill="url(#paint0_linear_345_292)"/>
<path d="M954.803 100.589C998.055 131.789 992.824 184.701 982.499 213.138C981.313 216.402 977.199 217.178 974.717 214.75C958.206 198.599 932.436 173.348 910.288 148.624C888.431 124.226 858.863 83.1679 867.639 71.0028C876.414 58.8377 895.6 57.8812 954.803 100.589Z" fill="url(#paint1_linear_345_292)"/>
<path d="M1058.64 69.455C1004.93 119.617 1005.31 192.951 1013.29 222.924C1016.94 236.658 1071.58 162.63 1093.54 139.018C1121 109.503 1165.95 117.27 1203.18 86.173C1223.77 68.9701 1111.53 20.064 1058.64 69.455Z" fill="url(#paint2_linear_345_292)"/>
<path d="M1063.29 1793.32C1002.95 1795.12 890.221 1750.9 882.934 1712.71C859.256 1734.36 799.918 1766.37 744.046 1762.72C674.205 1758.16 647.773 1651.09 649.694 1637.65C651.616 1624.22 683.228 1663.61 729.982 1688.02C767.385 1707.54 833.49 1675.65 861.867 1657.26L1297.13 1635.87C1234.9 1664.92 1237.26 1788.12 1063.29 1793.32Z" fill="url(#paint3_linear_345_292)"/>
<path d="M800.713 1822.69C840.245 1810.72 854.138 1781.35 856.831 1762.73C857.338 1759.22 853.78 1756.86 850.518 1758.24C833.164 1765.61 806.947 1776.79 783.406 1788.14C759.511 1799.66 724.602 1820.03 727.148 1828.44C729.695 1836.85 743.491 1840.02 800.713 1822.69Z" fill="url(#paint4_linear_345_292)"/>
<path d="M867.05 1855.24C843.661 1818.19 867.475 1774.71 882.957 1758C890.051 1750.34 906.456 1801.69 915.024 1818.68C925.735 1839.92 961.269 1841.4 978.655 1864.91C988.274 1877.91 890.079 1891.73 867.05 1855.24Z" fill="url(#paint5_linear_345_292)"/>
<path d="M244.275 583.125C293.046 524.761 452.085 457.156 512.783 483.554C502.033 442.408 506.863 358.684 559.617 309.268C625.56 247.498 800.834 315.85 818.37 329.358C835.907 342.867 752.791 338.319 678.178 361.078C618.488 379.285 607.737 469.279 609.823 512L269.925 940.342C281.441 856.472 103.646 751.416 244.275 583.125Z" fill="url(#paint6_linear_345_292)"/>
<path d="M425.827 310.393C408.313 360.766 442.963 401.094 467.738 418.457C470.582 420.45 474.396 418.724 475.036 415.311C479.289 392.609 485.9 357.141 489.849 324.183C493.746 291.659 494.397 241.067 480.229 236.141C466.061 231.215 449.801 241.442 425.827 310.393Z" fill="url(#paint7_linear_345_292)"/>
<path d="M322.922 344.49C395.701 354.741 437.474 415.015 448.142 444.139C453.03 457.485 365.804 428.216 334.265 421.485C294.842 413.072 262.487 445.23 214.152 441.129C187.414 438.861 251.262 334.396 322.922 344.49Z" fill="url(#paint8_linear_345_292)"/>
<path d="M811.234 201.655C816.245 211.655 765.643 300.879 696.471 336.929C627.298 372.978 553.219 367.655 546.729 355.202C543.317 348.655 578.31 278.978 647.482 242.928C716.654 206.879 806.182 191.573 811.234 201.655Z" fill="#5A908A"/>
<path d="M518.082 210.72C531.614 202.853 550.308 276.822 520.035 352.879C490.092 413.677 426.48 439.426 413.882 433.221C407.26 429.96 382.11 342.542 455.379 296.838C521.499 255.594 508.334 216.388 518.082 210.72Z" fill="#5A908A"/>
<path d="M263.511 347.942C271.675 336.151 315.963 390.241 320.441 465.114C319.255 527.201 276.503 573.31 263.638 573.065C256.875 572.936 202 510.201 245 443.78C283.804 383.839 257.629 356.437 263.511 347.942Z" fill="#5A908A"/>
<path d="M142.233 554.655C148.773 541.891 211.428 554.446 225.733 628.076C232.738 689.778 196.434 741.119 183.649 742.57C176.928 743.333 108.358 689.162 142.233 617.655C159.389 581.442 137.522 563.851 142.233 554.655Z" fill="#5A908A"/>
<path d="M43.5954 737.527C43.1561 723.192 104.082 703.922 152.172 761.483C188.109 812.126 181.12 874.616 170.626 882.063C165.11 885.978 78.904 871.665 74.0257 792.691C71.5552 752.696 43.9119 747.855 43.5954 737.527Z" fill="#5A908A"/>
<path d="M41.8322 912.164C38.088 898.009 93.9531 866.613 154.847 914.138C202.114 957.231 198.428 1017.62 200.951 1030.24C207.234 1061.65 102.754 1037.08 92.2343 972.655C80.2335 899.165 44.5296 922.362 41.8322 912.164Z" fill="#5A908A"/>
<path d="M600.457 491.14C612.715 481.406 550.643 437.042 468.785 437.517C401.255 443.246 354.097 493.1 355.284 507.093C355.908 514.449 428.15 569.725 497.41 518.15C559.914 471.606 591.626 498.153 600.457 491.14Z" fill="#5A908A"/>
<path d="M501.457 617.14C513.715 607.406 451.643 563.042 369.785 563.517C302.255 569.246 255.097 619.1 256.284 633.093C256.908 640.449 329.15 695.725 398.41 644.149C460.914 597.606 492.626 624.153 501.457 617.14Z" fill="#5A908A"/>
<path d="M416.208 745.621C426.913 736.019 371.76 691.068 299.618 690.719C240.158 695.763 199.097 745.1 200.284 759.093C200.908 766.449 265.135 822.405 325.659 771.57C380.278 725.696 408.496 752.539 416.208 745.621Z" fill="#5A908A"/>
<path d="M387.104 810.389C392.3 796.98 322.77 781.879 258.291 814.237C207.562 845.661 193.234 884.655 200.69 920.183C205.511 943.155 287.182 947.262 318.123 874.53C346.046 808.895 383.361 820.049 387.104 810.389Z" fill="#5A908A"/>
<path d="M367.703 921.361C366.741 907.012 297.349 922.733 252.604 979.323C219.925 1029.25 233.463 1092 245.213 1099.69C251.39 1103.73 335.041 1087.65 332.321 1008.66C329.866 937.37 368.397 931.698 367.703 921.361Z" fill="#5A908A"/>
<path d="M741.992 1355.44C677.068 1365.24 610.847 1362.17 547.112 1346.38C483.377 1330.6 423.374 1302.42 370.531 1263.44C317.687 1224.47 273.038 1175.47 239.131 1119.24C205.225 1063.01 182.725 1000.65 172.918 935.73C163.11 870.805 166.186 804.585 181.971 740.849C197.755 677.114 225.939 617.112 264.912 564.268C303.886 511.425 352.886 466.775 409.115 432.868C465.344 398.962 573.31 336.463 638.234 326.655C638.234 326.655 176.226 502.374 207.265 908.291C239.44 1329.06 741.992 1355.44 741.992 1355.44Z" fill="#436156"/>
<path d="M1715.07 242.59C1679.43 246.317 1669.82 295.343 1675.95 353.939C1682.08 412.534 1716.69 456.935 1737.26 454.783C1757.84 452.63 1787.37 401.521 1781.24 342.925C1775.11 284.33 1750.7 238.862 1715.07 242.59Z" fill="#CA7D2E"/>
<path d="M1914.18 699.259C1899.19 674.825 1864.99 682.047 1830.36 703.287C1795.73 724.526 1780.12 762.066 1788.78 776.174C1797.43 790.282 1840.01 796.718 1874.64 775.478C1909.27 754.238 1929.16 723.693 1914.18 699.259Z" fill="#CA7D2E"/>
<path d="M1831.64 435.446C1807.89 419.395 1779.73 440.113 1756.99 473.77C1734.24 507.426 1735.55 548.06 1749.26 557.328C1762.97 566.596 1804.4 554.85 1827.15 521.193C1849.9 487.537 1855.39 451.497 1831.64 435.446Z" fill="#CA7D2E"/>
<path d="M1861.64 553.447C1837.89 537.396 1809.73 558.113 1786.98 591.77C1764.24 625.427 1765.55 666.061 1779.26 675.328C1792.97 684.596 1834.4 672.85 1857.15 639.193C1879.9 605.537 1885.38 569.498 1861.64 553.447Z" fill="#CA7D2E"/>
<path d="M1621.74 653.572C1633.64 627.496 1668.47 630.503 1705.42 647.371C1742.38 664.24 1762.44 699.601 1755.57 714.657C1748.69 729.713 1707.21 741.282 1670.26 724.414C1633.3 707.546 1609.84 679.648 1621.74 653.572Z" fill="#CA7D2E"/>
<path d="M1605.71 528.814C1616.67 503.276 1651.42 505.819 1688.75 521.844C1726.08 537.868 1747.22 572.098 1740.89 586.844C1734.56 601.589 1693.69 613.32 1656.36 597.296C1619.03 581.272 1594.75 554.352 1605.71 528.814Z" fill="#CA7D2E"/>
<path d="M1920.85 823.481C1900.66 803.136 1869.02 818.012 1840.19 846.63C1811.36 875.247 1804.78 915.366 1816.44 927.112C1828.1 938.859 1871.02 935.355 1899.85 906.737C1928.68 878.12 1941.04 843.825 1920.85 823.481Z" fill="#CA7D2E"/>
<path d="M1925.79 936.22C1908.49 918.785 1879.39 933.514 1852.22 960.481C1825.05 987.448 1817.41 1023.81 1827.4 1033.88C1837.39 1043.94 1876.17 1038.96 1903.34 1011.99C1930.51 985.025 1943.1 953.654 1925.79 936.22Z" fill="#CA7D2E"/>
<path d="M1970.51 1092.02C1963.47 1065.75 1927.4 1063.89 1886.47 1074.86C1845.53 1085.82 1818.19 1116.56 1822.26 1131.73C1826.32 1146.89 1866.32 1163.44 1907.25 1152.47C1948.19 1141.51 1977.54 1118.29 1970.51 1092.02Z" fill="#CA7D2E"/>
<path d="M1801.04 858.126C1787.84 883.571 1753.21 878.818 1717.15 860.114C1681.09 841.409 1662.83 805.084 1670.45 790.393C1678.07 775.701 1720.08 766.231 1756.14 784.936C1792.2 803.64 1814.24 832.681 1801.04 858.126Z" fill="#CA7D2E"/>
<path d="M1803.35 995.664C1787.03 1014.62 1758.58 1003.63 1731.72 980.518C1704.85 957.401 1696.64 922.895 1706.06 911.95C1715.48 901.005 1753.05 901.395 1779.91 924.512C1806.78 947.629 1819.66 976.709 1803.35 995.664Z" fill="#CA7D2E"/>
<path d="M1819.33 1113.29C1803.02 1132.25 1774.57 1121.26 1747.7 1098.14C1720.84 1075.03 1712.63 1040.52 1722.05 1029.57C1731.46 1018.63 1769.03 1019.02 1795.9 1042.14C1822.76 1065.25 1835.64 1094.33 1819.33 1113.29Z" fill="#CA7D2E"/>
<path d="M1791.1 1201.79C1771.63 1224.42 1746.27 1218.7 1724.82 1200.24C1703.36 1181.77 1702.16 1147.99 1713.4 1134.93C1724.64 1121.86 1760.88 1114.93 1782.33 1133.4C1803.79 1151.86 1810.57 1179.17 1791.1 1201.79Z" fill="#CA7D2E"/>
<path d="M1909.7 1253.3C1908.94 1281.94 1875.72 1292.78 1835.14 1291.69C1794.55 1290.61 1762.28 1265.91 1762.72 1249.38C1763.16 1232.84 1796.8 1206 1837.39 1207.08C1877.98 1208.16 1910.47 1224.66 1909.7 1253.3Z" fill="#CA7D2E"/>
<path d="M1825.5 1330.33C1824.74 1358.97 1791.52 1369.81 1750.94 1368.73C1710.35 1367.64 1678.08 1342.95 1678.52 1326.41C1678.96 1309.88 1712.61 1283.03 1753.19 1284.11C1793.78 1285.2 1826.27 1301.69 1825.5 1330.33Z" fill="#CA7D2E"/>
<path d="M1747.27 1424.45C1741.59 1453.36 1712.35 1452.08 1682.31 1451.28C1652.26 1450.48 1628.38 1432.2 1628.71 1419.96C1629.03 1407.72 1653.93 1387.85 1683.98 1388.65C1714.02 1389.45 1752.95 1395.54 1747.27 1424.45Z" fill="#CA7D2E"/>
<path d="M1679.24 1546.13C1659.43 1573.03 1630.05 1557.58 1599.62 1542.22C1569.18 1526.87 1553.53 1496.56 1559.78 1484.16C1566.04 1471.76 1601.2 1463.43 1631.63 1478.78C1662.06 1494.14 1699.06 1519.22 1679.24 1546.13Z" fill="#CA7D2E"/>
<path d="M1586.03 1600.06C1566.21 1626.96 1536.83 1611.51 1506.4 1596.15C1475.97 1580.8 1460.31 1550.49 1466.57 1538.09C1472.82 1525.69 1507.98 1517.35 1538.41 1532.71C1568.84 1548.07 1605.84 1573.15 1586.03 1600.06Z" fill="#CA7D2E"/>
<path d="M1485.71 1661.35C1457.5 1679.27 1435.7 1654.23 1412.88 1628.91C1390.07 1603.58 1386.43 1569.67 1396.75 1560.37C1407.07 1551.07 1442.86 1556.02 1465.68 1581.34C1488.49 1606.67 1513.91 1643.43 1485.71 1661.35Z" fill="#CA7D2E"/>
<path d="M1386.49 1689.25C1361.52 1711.45 1335.99 1690.22 1309.41 1668.88C1282.84 1647.53 1273.82 1614.63 1282.52 1603.8C1291.22 1592.98 1327.34 1592.13 1353.92 1613.47C1380.49 1634.82 1411.46 1667.05 1386.49 1689.25Z" fill="#CA7D2E"/>
<path d="M1257.01 1693.23C1228.09 1709.98 1207.33 1684.07 1185.57 1657.84C1163.81 1631.6 1161.57 1597.56 1172.26 1588.7C1182.95 1579.83 1218.51 1586.24 1240.27 1612.47C1262.03 1638.71 1285.92 1676.49 1257.01 1693.23Z" fill="#CA7D2E"/>
<path d="M1659.25 1199.45C1688.7 1198.9 1693.63 1227.76 1699.19 1257.29C1704.75 1286.83 1691.92 1314.03 1679.89 1316.29C1667.86 1318.56 1643.18 1298.41 1637.62 1268.88C1632.06 1239.34 1629.79 1200 1659.25 1199.45Z" fill="#CA7D2E"/>
<path d="M1611.96 1298.28C1641.42 1297.73 1646.34 1326.58 1651.9 1356.12C1657.46 1385.65 1644.64 1412.85 1632.6 1415.12C1620.57 1417.38 1595.89 1397.24 1590.33 1367.7C1584.77 1338.17 1582.51 1298.83 1611.96 1298.28Z" fill="#CA7D2E"/>
<path d="M1546.3 1363.28C1575.76 1362.73 1580.68 1391.58 1586.24 1421.12C1591.8 1450.65 1578.98 1477.86 1566.94 1480.12C1554.91 1482.39 1530.23 1462.24 1524.67 1432.71C1519.11 1403.17 1516.85 1363.83 1546.3 1363.28Z" fill="#CA7D2E"/>
<path d="M1461.76 1416.7C1491.21 1416.15 1496.14 1445 1501.7 1474.54C1507.26 1504.07 1494.43 1531.28 1482.4 1533.54C1470.37 1535.81 1445.69 1515.66 1440.13 1486.13C1434.57 1456.59 1432.3 1417.25 1461.76 1416.7Z" fill="#CA7D2E"/>
<path d="M1377.22 1470.12C1406.67 1469.57 1411.6 1498.42 1417.16 1527.96C1422.72 1557.49 1409.89 1584.7 1397.86 1586.96C1385.83 1589.23 1361.15 1569.08 1355.59 1539.55C1350.03 1510.01 1347.76 1470.67 1377.22 1470.12Z" fill="#CA7D2E"/>
<path d="M1325.82 1486.13C1350.57 1502.1 1338.58 1528.8 1326.72 1556.42C1314.87 1584.03 1289.05 1599.46 1277.8 1594.64C1266.55 1589.81 1257.29 1559.32 1269.15 1531.7C1281 1504.09 1301.06 1470.16 1325.82 1486.13Z" fill="#CA7D2E"/>
<path d="M1260.15 1497.94C1276.79 1522.26 1255.38 1542.22 1233.75 1563.09C1212.12 1583.95 1182.34 1588.17 1173.84 1579.36C1165.34 1570.55 1168.62 1538.86 1190.25 1518C1211.88 1497.13 1243.52 1473.63 1260.15 1497.94Z" fill="#CA7D2E"/>
<path d="M1733.34 428.829C1715.34 528.83 1810.91 852.405 1809.47 896.699C1807.67 952.067 1813.86 998.849 1822.56 1039.31C1831.26 1079.77 1849.12 1176.16 1768.46 1232.57C1740.15 1252.37 1711.26 1256.2 1674.15 1345.53C1628.13 1456.32 1485.14 1536.37 1400.84 1571.19C1271.39 1624.66 1169.3 1565.21 1095.47 1552.82" stroke="#BB522A" stroke-width="25" stroke-linecap="round"/>
<circle cx="1000" cy="1000" r="700" fill="#5568A3"/>
<circle cx="1000" cy="1000" r="624" fill="#7991C7"/>
<circle cx="1000" cy="1000" r="619" stroke="white" stroke-opacity="0.5" stroke-width="10"/>
<g style="mix-blend-mode:multiply" opacity="0.3">
<path d="M1565 1415C1410 1625 1182 1700 1005 1700C504.5 1707.5 108.001 1160 397 646C415.999 672 500.002 1204 821.001 1386C1192 1582 1565 1415 1565 1415Z" fill="#3C4F9A"/>
</g>
<path d="M1307.82 1400H1244L1001.96 1031.95L756.302 1400H693L968.447 983.012L717.514 600H782.575L1002.99 936.905L1228.17 600H1289.2L1035.58 981.901L1307.82 1400Z" fill="white"/>
<path d="M753.506 958.648H1249.37V1004.15H753.506V958.648ZM753.506 1095.15H1249.47V1140.65H753.506V1095.15Z" fill="white"/>
<path d="M1068 283C1148 339 1170.07 358.011 1320 383C1488 411 1618 527 1656 565C1730 639 1900 889 1646 1021" stroke="url(#paint9_linear_345_292)" stroke-width="35" stroke-linecap="round"/>
<ellipse cx="1038.74" cy="222.646" rx="58.5" ry="91.5" transform="rotate(-36.3708 1038.74 222.646)" fill="#4D8543"/>
<ellipse cx="1204.42" cy="261.717" rx="49.8409" ry="91.5" transform="rotate(3.46092 1204.42 261.717)" fill="#4D8543"/>
<ellipse cx="1330.09" cy="312.803" rx="49.8409" ry="71.9253" transform="rotate(3.46092 1330.09 312.803)" fill="#4D8543"/>
<ellipse cx="1468.09" cy="357.803" rx="49.8409" ry="71.9253" transform="rotate(3.46092 1468.09 357.803)" fill="#4D8543"/>
<ellipse cx="1443.11" cy="515.628" rx="49.8409" ry="84.515" transform="rotate(45.4932 1443.11 515.628)" fill="#4D8543"/>
<ellipse cx="1600.5" cy="429.617" rx="49.8409" ry="84.515" transform="rotate(177.49 1600.5 429.617)" fill="#4D8543"/>
<ellipse cx="1570.92" cy="573.877" rx="41.5783" ry="71.8482" transform="rotate(-122.81 1570.92 573.877)" fill="#4D8543"/>
<ellipse cx="1718.73" cy="538.94" rx="41.5783" ry="86.2963" transform="rotate(-2.17922 1718.73 538.94)" fill="url(#paint10_linear_345_292)"/>
<ellipse cx="1809.07" cy="668.095" rx="38.5504" ry="80.012" transform="rotate(15.1906 1809.07 668.095)" fill="url(#paint11_linear_345_292)"/>
<ellipse cx="1830.88" cy="797.407" rx="38.5504" ry="65.9838" transform="rotate(29.2574 1830.88 797.407)" fill="#4D8543"/>
<ellipse cx="1830.88" cy="797.407" rx="38.5504" ry="65.9838" transform="rotate(29.2574 1830.88 797.407)" fill="url(#paint12_linear_345_292)"/>
<ellipse cx="1798.37" cy="934.948" rx="38.5504" ry="65.9838" transform="rotate(57.5299 1798.37 934.948)" fill="url(#paint13_linear_345_292)"/>
<ellipse cx="1651.24" cy="659.549" rx="41.5783" ry="64.769" transform="rotate(72.011 1651.24 659.549)" fill="url(#paint14_linear_345_292)"/>
<ellipse cx="1699.44" cy="754.549" rx="41.5783" ry="64.769" transform="rotate(90.7296 1699.44 754.549)" fill="url(#paint15_linear_345_292)"/>
<ellipse cx="1722.44" cy="851.548" rx="41.5783" ry="64.769" transform="rotate(121.824 1722.44 851.548)" fill="url(#paint16_linear_345_292)"/>
<ellipse cx="1665.96" cy="930.481" rx="41.5783" ry="64.769" transform="rotate(121.824 1665.96 930.481)" fill="url(#paint17_linear_345_292)"/>
<ellipse cx="49.8409" cy="91.5" rx="49.8409" ry="91.5" transform="matrix(-0.522113 -0.852876 -0.852876 0.522113 1218.12 398.016)" fill="#4D8543"/>
<ellipse cx="46.0979" cy="84.6284" rx="46.0979" ry="84.6284" transform="matrix(-0.522113 -0.852876 -0.852876 0.522113 1365.17 432.824)" fill="#4D8543"/>
<path d="M156.07 730C149.67 703.6 164.07 663 172.07 646C172.07 651 173.67 668.2 180.07 697C194.291 761 273.07 773 287.07 820C301.07 867 255.07 900 250.07 935C245.07 970 303.578 964.814 350.07 1004C420.07 1063 391.07 1157 384.07 1172C377.07 1187 319.07 1256 296.07 1358C273.07 1460 452.07 1479 489.07 1510C526.07 1541 533.07 1571 560.07 1625C581.67 1668.2 702.403 1647 760.07 1631L792.07 1643C750.403 1651 651.87 1667.4 591.07 1669C515.07 1671 489.07 1562 473.07 1534C457.07 1506 408.07 1498 328.07 1469C248.07 1440 257.07 1342 261.07 1309C265.07 1276 302.07 1247 311.07 1194C320.07 1141 182.546 1097.54 145.07 1027C111.07 963 148.07 887 164.07 853C180.07 819 164.07 763 156.07 730Z" fill="url(#paint18_linear_345_292)"/>
<path d="M102.07 1268C95.8485 1247.39 105.07 1202.33 111.07 1186C110.503 1187.67 117.671 1221.77 128.07 1234C145.07 1254 180.463 1250.9 224.07 1268C275.07 1288 263.07 1317 263.07 1342C263.07 1367 238.895 1454.48 263.07 1462C308.07 1476 329.842 1467 365.07 1467C410.07 1467 488.07 1506 488.07 1551C478.737 1545.33 447.143 1514.64 410.07 1530C340.07 1559 290.07 1589 204.07 1551C118.07 1513 166.07 1397 173.07 1369C180.07 1341 118.07 1321 102.07 1268Z" fill="url(#paint19_linear_345_292)"/>
<path d="M338.069 1304C301.269 1332 309.402 1412.33 318.069 1449H327.069C330.736 1428 342.669 1381.2 361.069 1362C384.07 1338 477.963 1341.41 514.069 1291C567.069 1217 501.069 1173 514.069 1118C522.401 1082.75 578.536 1086 567.069 1000C562.269 964 508.736 921 488.069 917C497.403 930.333 517.269 964.2 522.069 993C528.069 1029 474.069 1043 445.069 1079C416.069 1115 463.069 1178 457.069 1206C451.069 1234 384.069 1269 338.069 1304Z" fill="url(#paint20_linear_345_292)"/>
<path d="M528.07 1506C512.87 1523.6 521.737 1573.33 528.07 1596L565.07 1642C563.737 1626.67 550.341 1581.28 556.07 1566C565.07 1542 614.07 1554 657.07 1506C677.852 1482.8 659.07 1423 650.07 1399C641.07 1375 723.07 1334.14 723.07 1278C723.07 1202 658.404 1198.33 634.07 1202C645.404 1211.33 667.67 1235.6 666.07 1258C664.07 1286 595.07 1291 556.07 1323C517.07 1355 549.07 1429 556.07 1442C563.07 1455 547.07 1484 528.07 1506Z" fill="url(#paint21_linear_345_292)"/>
<path d="M561.57 1725C633.57 1725 664.737 1679 690.07 1650L672.07 1660C637.07 1687 613.57 1677.5 593.57 1677.5C568.57 1677.5 503.564 1642.16 488.07 1639C461.07 1633.5 431.57 1646.5 405.07 1644C384.546 1642.06 389.07 1601 349.07 1594C325.104 1589.81 296.57 1594 285.57 1619.5C306.57 1624 311.87 1623.3 331.07 1630.5C355.07 1639.5 334.761 1669.46 358.07 1690C379.07 1708.5 436.287 1681.99 464.57 1685C511.57 1690 534.07 1725 561.57 1725Z" fill="url(#paint22_linear_345_292)"/>
<path d="M207.07 902C222.07 864 207.737 787 193.07 752C203.07 774.333 224.07 821.704 224.07 845C224.07 877 212.07 909.12 212.07 955C212.07 1014.81 263.07 1046 309.07 1082C345.87 1110.8 331.404 1171 316.07 1198C318.07 1184.33 321.07 1153 321.07 1126C321.07 1093.44 282.07 1074 241.07 1041C200.07 1008 187.213 952.306 207.07 902Z" fill="#73D4C0"/>
<path d="M477.07 1101C499.07 1079 527.737 1039.67 543.07 1014C531.737 1036.33 505.67 1085 492.07 1101C475.07 1121 492.07 1181 492.07 1221C492.07 1258.66 486.07 1262 410.07 1302C359.209 1328.77 331.627 1373.03 322.993 1404.35C321.386 1411.24 320.383 1417.09 320.07 1421C320.343 1416.1 321.306 1410.47 322.993 1404.35C328.237 1381.88 339.915 1348.35 355.07 1335C397.07 1298 466.064 1266.08 477.07 1247C492.07 1221 461.258 1116.81 477.07 1101Z" fill="#73D5C0"/>
<path d="M212.07 1345C219.122 1311.15 144.07 1271 136.07 1268C150.404 1272.33 172.67 1285.8 195.07 1301C207.07 1309.14 236.07 1310 207.07 1425C176.318 1546.95 312.937 1497 373.07 1497C433.07 1497 466.737 1519.67 476.07 1537C468.737 1529.33 446.07 1512.2 414.07 1505C374.07 1496 293.07 1522 230.07 1514C167.07 1506 207.07 1369 212.07 1345Z" fill="#73D4C0"/>
<path d="M382.07 1671C372.454 1664.78 358.404 1632.67 351.07 1625C355.737 1626.67 373.078 1649.96 382.07 1663C392.07 1677.5 465.07 1659.57 477.07 1663C520.07 1675.31 556.07 1707.34 573.57 1706.5C611.492 1704.69 643.737 1679.83 662.07 1675C642.737 1682.33 596.77 1713.1 573.57 1711.5C544.57 1709.5 503.57 1680 483.57 1671C463.57 1662 399.07 1682 382.07 1671Z" fill="#73D4C0"/>
<path d="M664.071 1289C695.271 1272.2 685.737 1242 677.071 1229L677.272 1229.29C682.001 1236.04 691.127 1249.07 695.07 1268C700.07 1292 604.678 1319.42 588.07 1337C571.07 1355 601.07 1416 604.07 1447C607.07 1478 601.07 1483 564.07 1513C534.47 1537 537.737 1585.33 545.07 1604C542.07 1596.67 536.07 1575 536.07 1547C536.07 1512 564.07 1504 588.07 1470C612.07 1436 575.071 1390 572.071 1357C569.071 1324 625.071 1310 664.071 1289Z" fill="#73D4C0"/>
</g>
<defs>
<linearGradient id="paint0_linear_345_292" x1="1382.3" y1="263.476" x2="613.736" y2="347.767" gradientUnits="userSpaceOnUse">
<stop stop-color="#B0FAC9"/>
<stop offset="0.529167" stop-color="#C1E19F"/>
<stop offset="1" stop-color="#D0CB7A"/>
</linearGradient>
<linearGradient id="paint1_linear_345_292" x1="1382.3" y1="263.476" x2="613.736" y2="347.767" gradientUnits="userSpaceOnUse">
<stop stop-color="#B0FAC9"/>
<stop offset="0.529167" stop-color="#C1E19F"/>
<stop offset="1" stop-color="#D0CB7A"/>
</linearGradient>
<linearGradient id="paint2_linear_345_292" x1="1382.3" y1="263.476" x2="613.736" y2="347.767" gradientUnits="userSpaceOnUse">
<stop stop-color="#B0FAC9"/>
<stop offset="0.529167" stop-color="#C1E19F"/>
<stop offset="1" stop-color="#D0CB7A"/>
</linearGradient>
<linearGradient id="paint3_linear_345_292" x1="1167.22" y1="1783.94" x2="731.884" y2="1481.92" gradientUnits="userSpaceOnUse">
<stop stop-color="#B0FAC9"/>
<stop offset="0.529167" stop-color="#C1E19F"/>
<stop offset="1" stop-color="#D0CB7A"/>
</linearGradient>
<linearGradient id="paint4_linear_345_292" x1="1167.22" y1="1783.94" x2="731.884" y2="1481.92" gradientUnits="userSpaceOnUse">
<stop stop-color="#B0FAC9"/>
<stop offset="0.529167" stop-color="#C1E19F"/>
<stop offset="1" stop-color="#D0CB7A"/>
</linearGradient>
<linearGradient id="paint5_linear_345_292" x1="1167.22" y1="1783.94" x2="731.884" y2="1481.92" gradientUnits="userSpaceOnUse">
<stop stop-color="#B0FAC9"/>
<stop offset="0.529167" stop-color="#C1E19F"/>
<stop offset="1" stop-color="#D0CB7A"/>
</linearGradient>
<linearGradient id="paint6_linear_345_292" x1="169.216" y1="689.126" x2="846.991" y2="317.077" gradientUnits="userSpaceOnUse">
<stop stop-color="#B0FAC9"/>
<stop offset="0.529167" stop-color="#C1E19F"/>
<stop offset="1" stop-color="#D0CB7A"/>
</linearGradient>
<linearGradient id="paint7_linear_345_292" x1="169.216" y1="689.126" x2="846.991" y2="317.077" gradientUnits="userSpaceOnUse">
<stop stop-color="#B0FAC9"/>
<stop offset="0.529167" stop-color="#C1E19F"/>
<stop offset="1" stop-color="#D0CB7A"/>
</linearGradient>
<linearGradient id="paint8_linear_345_292" x1="169.216" y1="689.126" x2="846.991" y2="317.077" gradientUnits="userSpaceOnUse">
<stop stop-color="#B0FAC9"/>
<stop offset="0.529167" stop-color="#C1E19F"/>
<stop offset="1" stop-color="#D0CB7A"/>
</linearGradient>
<linearGradient id="paint9_linear_345_292" x1="1424.29" y1="283" x2="1720" y2="1040" gradientUnits="userSpaceOnUse">
<stop stop-color="#4D8543"/>
<stop offset="0.45625" stop-color="#4768BF"/>
<stop offset="1" stop-color="#5568A3"/>
</linearGradient>
<linearGradient id="paint10_linear_345_292" x1="1718.73" y1="452.643" x2="1718.73" y2="625.236" gradientUnits="userSpaceOnUse">
<stop stop-color="#4D8543"/>
<stop offset="1" stop-color="#4C7B76"/>
</linearGradient>
<linearGradient id="paint11_linear_345_292" x1="1809.07" y1="588.083" x2="1809.07" y2="748.107" gradientUnits="userSpaceOnUse">
<stop stop-color="#4D8543"/>
<stop offset="1" stop-color="#497298"/>
</linearGradient>
<linearGradient id="paint12_linear_345_292" x1="1830.88" y1="731.424" x2="1830.88" y2="863.391" gradientUnits="userSpaceOnUse">
<stop stop-color="#4D8543"/>
<stop offset="1" stop-color="#496FA5"/>
</linearGradient>
<linearGradient id="paint13_linear_345_292" x1="1798.37" y1="868.964" x2="1798.37" y2="1000.93" gradientUnits="userSpaceOnUse">
<stop stop-color="#4D8543"/>
<stop offset="1" stop-color="#486BB6"/>
</linearGradient>
<linearGradient id="paint14_linear_345_292" x1="1651.24" y1="594.78" x2="1651.24" y2="724.318" gradientUnits="userSpaceOnUse">
<stop stop-color="#4D7C75"/>
<stop offset="1" stop-color="#4D8543"/>
</linearGradient>
<linearGradient id="paint15_linear_345_292" x1="1699.44" y1="689.78" x2="1699.44" y2="819.318" gradientUnits="userSpaceOnUse">
<stop stop-color="#49719B"/>
<stop offset="1" stop-color="#4D8543"/>
</linearGradient>
<linearGradient id="paint16_linear_345_292" x1="1722.44" y1="786.779" x2="1722.44" y2="916.317" gradientUnits="userSpaceOnUse">
<stop stop-color="#496EAA"/>
<stop offset="1" stop-color="#4D8543"/>
</linearGradient>
<linearGradient id="paint17_linear_345_292" x1="1665.96" y1="865.712" x2="1665.96" y2="995.25" gradientUnits="userSpaceOnUse">
<stop stop-color="#486AB8"/>
<stop offset="1" stop-color="#4D8543"/>
</linearGradient>
<linearGradient id="paint18_linear_345_292" x1="157.07" y1="859" x2="792.07" y2="1669" gradientUnits="userSpaceOnUse">
<stop stop-color="#3D7B70"/>
<stop offset="0.732292" stop-color="#51A263"/>
<stop offset="1" stop-color="#415290"/>
</linearGradient>
<linearGradient id="paint19_linear_345_292" x1="125.07" y1="1447" x2="488.07" y2="1546" gradientUnits="userSpaceOnUse">
<stop stop-color="#3E7C71"/>
<stop offset="0.447917" stop-color="#44A05A"/>
<stop offset="1" stop-color="#789590"/>
</linearGradient>
<linearGradient id="paint20_linear_345_292" x1="569.069" y1="1003" x2="345.069" y2="1449" gradientUnits="userSpaceOnUse">
<stop stop-color="#3E7C71"/>
<stop offset="0.445833" stop-color="#4CA05F"/>
<stop offset="1" stop-color="#58A369"/>
</linearGradient>
<linearGradient id="paint21_linear_345_292" x1="648.07" y1="1365" x2="538.07" y2="1621" gradientUnits="userSpaceOnUse">
<stop stop-color="#4C9F60"/>
<stop offset="0.513542" stop-color="#52857B"/>
<stop offset="1" stop-color="#8A9D9A"/>
</linearGradient>
<linearGradient id="paint22_linear_345_292" x1="408.07" y1="1676.5" x2="642.57" y2="1686.5" gradientUnits="userSpaceOnUse">
<stop stop-color="#4A8278"/>
<stop offset="0.497917" stop-color="#4B9D61"/>
<stop offset="1" stop-color="#A0A7A6"/>
</linearGradient>
<clipPath id="clip0_345_292">
<rect width="2000" height="2000" fill="white"/>
</clipPath>
</defs>
</svg>
