<svg width="2000" height="2000" viewBox="0 0 2000 2000" fill="none" xmlns="http://www.w3.org/2000/svg">
<g clip-path="url(#clip0_392_671)">
<circle cx="260.508" cy="260.508" r="260.508" transform="matrix(-0.707675 -0.706538 -0.706538 0.707675 1953.65 673.838)" fill="#FFEE75"/>
<path d="M1820.29 521.054C1736.69 410.597 1678.98 415.965 1627.39 405.772C1620.23 406.392 1579 398.689 1567.22 409.505C1552.5 423.025 1594.27 445.097 1644.62 446.284C1681.5 447.154 1605.47 477.359 1629.32 508.313C1653.9 540.222 1682.14 530.375 1715.93 549.383C1749.71 568.39 1689.01 678.35 1728.95 705.949C1768.88 733.548 1760.81 624.872 1779.25 640.822C1806.9 664.746 1730.85 781.472 1757.9 824.432C1784.95 867.392 1791.64 783.265 1813.73 768.511C1835.83 753.757 1797.91 939.222 1829.24 969.284C1860.58 999.346 1860.51 908.471 1874.55 802.233C1888.59 695.996 1876.35 595.126 1820.29 521.054Z" fill="#C1AF0F"/>
<path d="M1797.13 739.666C1809.96 659.218 1849.22 617.433 1720.82 522.362C1660.14 477.439 1697.42 443.172 1565.38 414.419C1555.3 412.224 1584.45 451.245 1634.8 452.433C1671.68 453.303 1605.47 477.36 1629.32 508.314C1653.9 540.223 1682.14 530.376 1715.93 549.383C1749.71 568.391 1689.01 678.35 1728.95 705.949C1768.88 733.548 1760.81 624.872 1779.24 640.822C1806.89 664.747 1730.85 781.473 1757.9 824.433C1784.95 867.393 1791.64 783.266 1813.73 768.512C1835.83 753.757 1797.9 939.223 1829.24 969.285C1860.58 999.347 1860.51 908.471 1874.55 802.234C1888.58 695.996 1791.56 774.572 1797.13 739.666Z" fill="#AA964C"/>
<path d="M1831.35 533.325C1794.46 471.952 1740.39 433.312 1723.2 432.712C1745.62 447.123 1763.95 486.532 1776.67 500.825C1825.84 556.048 1861.85 665.008 1880.92 706.133C1880.61 700.3 1881.65 617.013 1831.35 533.325Z" fill="#FFF39E"/>
<ellipse cx="50.7686" cy="16.1093" rx="50.7686" ry="16.1093" transform="matrix(-0.621969 -0.783042 -0.783042 0.621969 1827.42 548.317)" fill="#FFF39E"/>
<circle cx="260.508" cy="260.508" r="260.508" transform="matrix(-0.728754 -0.684776 -0.684776 0.728754 1654.6 386.81)" fill="#FCF2AB"/>
<path d="M1538.78 395.944C1572.41 402.761 1560.31 288.799 1520.58 245.387C1458.26 177.293 1386.96 136.509 1288.23 122.38C1075.8 91.9808 832.333 199.224 856.532 226.73C880.732 254.236 1074.91 176.933 1067.27 207.887C1059.64 238.841 1008.54 255.174 1042.33 275.01C1083.07 298.926 1252.73 205.803 1284.88 212.175C1317.02 218.547 1223 237.444 1252.49 277.072C1281.98 316.699 1328.94 246.435 1390.7 256.8C1452.45 267.165 1322.3 309.302 1374.39 324.882C1426.48 340.463 1439.98 300.726 1473.01 296.013C1506.04 291.299 1496.74 387.422 1538.78 395.944Z" fill="#FBDD11"/>
<path d="M1250.7 278.97C1273.76 311.591 1328.84 263.024 1377.08 253.537C1355.51 251.546 1331.93 251.624 1308.59 243.995C1279.42 234.459 1323.69 196.223 1297.34 178.613C1270.99 161.003 1107.06 242.894 1085.89 233.723C1064.72 224.553 1148.11 180.184 1119.73 176.153C1097.02 172.927 1001.14 181.89 956.034 186.774C931.427 185.697 1082.49 128.732 1077.42 129.245C1064.25 130.576 865.262 171.783 853.364 223.756C845.282 259.059 1043.49 193.883 1061.02 204.395C1078.54 214.908 1008.27 246.581 1036.11 272.745C1072.82 307.234 1277.91 205.633 1288 213.92C1298.08 222.207 1225.64 243.504 1250.7 278.97Z" fill="#DEC729"/>
<path d="M1506.5 227.394C1540.43 259.28 1553.8 312.951 1556.41 330.89C1537.11 309.579 1482.58 248.746 1440.99 214.688C1354.01 143.477 1267.24 139.208 1189.16 117.474C1357.65 103.017 1449.54 173.877 1506.5 227.394Z" fill="#FFF9D0"/>
<ellipse cx="64.1839" cy="20.4065" rx="64.1839" ry="20.4065" transform="matrix(-0.82299 -0.568057 -0.568057 0.82299 1491.95 233.971)" fill="#FFF9D0"/>
<circle cx="1000" cy="1000" r="700" fill="#FBDD11"/>
<circle cx="1000" cy="1000" r="624" fill="#4E4E4E"/>
<g style="mix-blend-mode:multiply" opacity="0.3">
<path d="M1565 1415C1410 1625 1182 1700 1005 1700C504.5 1707.5 108.001 1160 397 646C415.999 672 500.002 1204 821.001 1386C1192 1582 1565 1415 1565 1415Z" fill="#3C4F9A"/>
</g>
<path d="M1248.27 1293.65C894.927 1338.21 732.221 1026.48 761.065 996.079C780.108 975.984 809.765 974.817 835.41 974.107C953.53 970.91 1120.81 1109.09 1154.68 1108.43C1220.39 1107.06 1319.16 1002.47 1383.91 916.257C1411.03 880.177 1580.34 825.828 1561.55 920.621C1500.71 1227.94 1293.32 1287.97 1248.27 1293.65ZM751.823 705.359C1105.17 660.754 1267.87 972.483 1238.98 1002.93C1219.93 1023.03 1190.33 1024.19 1164.63 1024.9C1046.51 1028.1 879.286 889.869 845.364 890.58C779.702 891.95 680.88 996.536 616.081 1082.75C589.014 1118.83 419.706 1173.18 438.444 1078.44C499.332 771.074 706.779 711.042 751.823 705.359Z" fill="#FBDD11"/>
<path d="M156.073 988.874C196.073 1070.88 280.401 1256.8 212.073 1212.87C156.074 1176.87 132.573 1040.87 63.2677 1100.87C-1.96203 1157.35 274.155 1363.24 212.074 1376.87C149.992 1390.51 142.767 1296.69 86.7681 1312.87C-118.038 1372.08 435.268 1800.8 918.443 1800.8C1218.72 1800.8 1699.38 1552.73 1521.12 1525.84C1464.18 1517.25 1270.53 1669.8 1236.91 1654.63C1203.3 1639.46 1405.69 1589.66 1344.9 1538.19C1284.11 1486.73 1337.25 1614.23 939.219 1651.91C541.189 1689.6 370.013 1054.82 295.268 892.874C223.269 736.874 113.322 654.633 86.7681 664.374C-12.7316 700.874 121.877 918.77 156.073 988.874Z" fill="#FBDD11"/>
<path d="M1791.42 1414.79C1831 1489.22 1722.01 1466.26 1671.71 1479.56C1632.8 1489.84 1576.59 1504.7 1576.59 1504.7C1536.13 1524.88 1571.86 1444.32 1637.12 1409.62C1702.37 1374.93 1771.46 1377.24 1791.42 1414.79Z" fill="#FBDD11"/>
<ellipse cx="250.848" cy="624.488" rx="67.5424" ry="38" transform="rotate(70.0304 250.848 624.488)" fill="#FBDD11"/>
<path d="M572.059 1463.19C460.059 1323.19 280.059 830.19 280.059 869.19C280.059 982.349 418.059 1363.19 572.059 1463.19Z" fill="#FFF39E"/>
<ellipse cx="37.5977" cy="108.592" rx="37.5977" ry="108.592" transform="matrix(-0.930517 0.36625 0.36625 0.930517 355.508 1059.91)" fill="#FFF39E"/>
<path d="M198.506 1198.5C214.006 1215.5 237.342 1216.66 238.009 1211C239.509 1226.5 206.75 1236.06 189.509 1224C164.506 1206.5 151.805 1152.71 123.509 1119C100.006 1091 91.6725 1084.16 86.0059 1086.5C130.506 1068.17 167.062 1164.01 198.506 1198.5Z" fill="#FFF39E"/>
<path d="M192.003 1377.11C206.541 1380.6 224.336 1372.78 225.003 1367.11C226.503 1382.61 197.245 1406.68 180.004 1394.61C155 1377.11 147.799 1374.82 119.503 1341.11C95.9998 1313.11 72.6682 1321.78 67.0016 1324.11C127.503 1277.61 167.003 1371.11 192.003 1377.11Z" fill="#FFF39E"/>
<path d="M796.648 220.597L729.637 244.38L733.998 263.886L805.649 261.93C811.867 261.76 816.308 256.087 814.957 250.041L810.036 228.031C808.705 222.079 802.376 218.564 796.648 220.597Z" fill="#FBDD11"/>
<path d="M520.578 239.574C596.605 208.341 730.409 172.086 758.159 260.197C772.767 306.581 665.304 336.665 560.086 379.41C458.283 443.548 284.07 714.085 296.938 530.897C305.524 408.662 423.35 279.517 520.578 239.574Z" fill="#FFEA55"/>
<path d="M520.578 239.574C597.183 210.087 730.408 172.086 758.158 260.197C763.912 278.466 665.844 194.3 473.975 317.265C365.076 387.056 301.233 591.69 299.658 583.846C271.492 443.591 415.103 280.174 520.578 239.574Z" fill="#A27C33" fill-opacity="0.3"/>
<path d="M301.075 590.471C294.572 580.253 294.777 549.513 297.154 547.467C309.931 556.826 348.179 589.238 325.7 593.752C313.841 596.134 305.095 596.787 301.075 590.471Z" fill="#585136"/>
<path d="M546.365 389.815C582.269 363.72 665.373 345.008 699.676 322.821C672.875 324.803 551.809 352.37 522.038 377.872C448.935 440.489 423.375 482.511 388.319 544.969C442.214 498.447 492.072 429.277 546.365 389.815Z" fill="#FFF8D1"/>
<path d="M1620.18 1693.72L1658.62 1633.9L1643.23 1621.15L1587.77 1666.54C1582.95 1670.48 1582.91 1677.69 1587.68 1681.64L1605.04 1696.04C1609.74 1699.93 1616.9 1698.84 1620.18 1693.72Z" fill="#FBDD11"/>
<path d="M1826.89 1509.76C1785.88 1580.99 1702.25 1691.55 1626.38 1638.85C1586.44 1611.11 1653.02 1521.55 1710.07 1423.35C1751.33 1310.32 1723.53 989.746 1825.47 1142.5C1893.49 1244.42 1879.34 1418.66 1826.89 1509.76Z" fill="#FBDD11"/>
<path d="M1710.07 1423.35C1751.33 1310.32 1723.54 989.747 1825.47 1142.5C1875.68 1217.73 1881.12 1332.35 1859.44 1423.86L1854.46 1386.48L1834.29 1348.34L1763.14 1333.54L1710.07 1423.35Z" fill="#FFF7BC"/>
<path d="M1826.89 1509.76C1784.36 1579.96 1702.25 1691.55 1626.38 1638.85C1610.65 1627.92 1739.72 1634.47 1816.2 1419.8C1859.61 1297.95 1784.86 1097.05 1790.91 1102.29C1899.02 1195.97 1885.46 1413.1 1826.89 1509.76Z" fill="#A27C33" fill-opacity="0.3"/>
<g filter="url(#filter0_d_392_671)">
<path d="M1698.03 1302.06C1732.26 1280.68 1743.46 1313.31 1745.87 1324.39L1724.13 1360.85C1719.26 1358.84 1705.24 1354.93 1688.14 1355.38C1666.77 1355.94 1638.56 1409.67 1621.22 1405.26C1601.24 1400.17 1655.23 1328.77 1698.03 1302.06Z" fill="#DFC668"/>
</g>
<g filter="url(#filter1_d_392_671)">
<path d="M1900.39 1313.25C1870.86 1285.74 1853.64 1315.63 1849.16 1326.04L1863.55 1365.98C1868.71 1364.94 1883.22 1363.78 1899.92 1367.48C1920.79 1372.1 1938.24 1430.23 1956.1 1429.2C1976.68 1428.02 1937.3 1347.64 1900.39 1313.25Z" fill="url(#paint0_linear_392_671)"/>
</g>
<g filter="url(#filter2_d_392_671)">
<path d="M1780.95 1324.09C1866.53 1344.25 1813.19 1343.83 1795.29 1345.71C1778.96 1347.43 1760.78 1362.34 1742.95 1383.39C1723.27 1406.62 1718.7 1438.73 1714.52 1447.72C1707.14 1463.58 1671.65 1451.22 1682.54 1401.81C1693.43 1352.4 1715.62 1308.7 1780.95 1324.09Z" fill="#EFD575"/>
</g>
<g filter="url(#filter3_d_392_671)">
<path d="M1833.47 1334.8C1745.72 1340.31 1807.82 1349.64 1815.71 1353.7C1823.59 1357.77 1824.69 1373.75 1827.43 1386.33C1833.9 1416.08 1842.04 1444.95 1844.65 1454.52C1849.27 1471.39 1886.32 1465.17 1883.88 1414.63C1881.44 1364.09 1870.95 1332.45 1833.47 1334.8Z" fill="url(#paint1_linear_392_671)"/>
</g>
</g>
<defs>
<filter id="filter0_d_392_671" x="1616.93" y="1294.95" width="128.938" height="116.559" filterUnits="userSpaceOnUse" color-interpolation-filters="sRGB">
<feFlood flood-opacity="0" result="BackgroundImageFix"/>
<feColorMatrix in="SourceAlpha" type="matrix" values="0 0 0 0 0 0 0 0 0 0 0 0 0 0 0 0 0 0 127 0" result="hardAlpha"/>
<feOffset dy="6"/>
<feComposite in2="hardAlpha" operator="out"/>
<feColorMatrix type="matrix" values="0 0 0 0 0.804167 0 0 0 0 0.737333 0 0 0 0 0.306254 0 0 0 1 0"/>
<feBlend mode="normal" in2="BackgroundImageFix" result="effect1_dropShadow_392_671"/>
<feBlend mode="normal" in="SourceGraphic" in2="effect1_dropShadow_392_671" result="shape"/>
</filter>
<filter id="filter1_d_392_671" x="1849.16" y="1301.91" width="112.602" height="133.307" filterUnits="userSpaceOnUse" color-interpolation-filters="sRGB">
<feFlood flood-opacity="0" result="BackgroundImageFix"/>
<feColorMatrix in="SourceAlpha" type="matrix" values="0 0 0 0 0 0 0 0 0 0 0 0 0 0 0 0 0 0 127 0" result="hardAlpha"/>
<feOffset dy="6"/>
<feComposite in2="hardAlpha" operator="out"/>
<feColorMatrix type="matrix" values="0 0 0 0 0.804167 0 0 0 0 0.737333 0 0 0 0 0.306254 0 0 0 1 0"/>
<feBlend mode="normal" in2="BackgroundImageFix" result="effect1_dropShadow_392_671"/>
<feBlend mode="normal" in="SourceGraphic" in2="effect1_dropShadow_392_671" result="shape"/>
</filter>
<filter id="filter2_d_392_671" x="1680.48" y="1320.95" width="147.703" height="141.264" filterUnits="userSpaceOnUse" color-interpolation-filters="sRGB">
<feFlood flood-opacity="0" result="BackgroundImageFix"/>
<feColorMatrix in="SourceAlpha" type="matrix" values="0 0 0 0 0 0 0 0 0 0 0 0 0 0 0 0 0 0 127 0" result="hardAlpha"/>
<feOffset dy="8"/>
<feComposite in2="hardAlpha" operator="out"/>
<feColorMatrix type="matrix" values="0 0 0 0 0.803922 0 0 0 0 0.737255 0 0 0 0 0.305882 0 0 0 1 0"/>
<feBlend mode="normal" in2="BackgroundImageFix" result="effect1_dropShadow_392_671"/>
<feBlend mode="normal" in="SourceGraphic" in2="effect1_dropShadow_392_671" result="shape"/>
</filter>
<filter id="filter3_d_392_671" x="1779.04" y="1334.68" width="104.957" height="136.247" filterUnits="userSpaceOnUse" color-interpolation-filters="sRGB">
<feFlood flood-opacity="0" result="BackgroundImageFix"/>
<feColorMatrix in="SourceAlpha" type="matrix" values="0 0 0 0 0 0 0 0 0 0 0 0 0 0 0 0 0 0 127 0" result="hardAlpha"/>
<feOffset dx="-8" dy="8"/>
<feComposite in2="hardAlpha" operator="out"/>
<feColorMatrix type="matrix" values="0 0 0 0 0.803922 0 0 0 0 0.737255 0 0 0 0 0.305882 0 0 0 1 0"/>
<feBlend mode="normal" in2="BackgroundImageFix" result="effect1_dropShadow_392_671"/>
<feBlend mode="normal" in="SourceGraphic" in2="effect1_dropShadow_392_671" result="shape"/>
</filter>
<linearGradient id="paint0_linear_392_671" x1="1928.31" y1="1321.84" x2="1893.31" y2="1403.2" gradientUnits="userSpaceOnUse">
<stop stop-color="#F2D87A"/>
<stop offset="1" stop-color="#FFE998"/>
</linearGradient>
<linearGradient id="paint1_linear_392_671" x1="1849.54" y1="1336.24" x2="1816.96" y2="1452.39" gradientUnits="userSpaceOnUse">
<stop stop-color="#F1D778"/>
<stop offset="1" stop-color="#FFE998"/>
</linearGradient>
<clipPath id="clip0_392_671">
<rect width="2000" height="2000" fill="white"/>
</clipPath>
</defs>
</svg>
