<svg width="2000" height="2000" viewBox="0 0 2000 2000" fill="none" xmlns="http://www.w3.org/2000/svg">
<g clip-path="url(#clip0_301_173)">
<circle cx="300" cy="300" r="300" transform="matrix(-0.893979 -0.448109 -0.448109 0.893979 1864.25 418.668)" fill="#B8CBFF"/>
<path d="M1663.13 299.955C1531.74 209.486 1470.59 236.258 1410.51 243.801C1402.9 247.073 1355.04 253.584 1346.08 269.675C1334.88 289.788 1388.54 298.786 1444.01 281.847C1484.64 269.44 1412.47 329.997 1449.75 355.196C1488.18 381.173 1515.48 360.181 1559.3 368.722C1603.12 377.263 1576.59 519.45 1630.24 535.157C1683.89 550.863 1635.71 434.986 1661.64 445.745C1700.53 461.884 1659.68 617.026 1704.81 654.19C1749.94 691.354 1726.78 596.969 1745.59 572.838C1764.39 548.707 1790.12 765.184 1835.26 786.696C1880.41 808.207 1847.42 708.893 1824.28 587.675C1801.15 466.457 1751.24 360.623 1663.13 299.955Z" fill="#6D51DD"/>
<path d="M1716.99 547.319C1701.88 454.73 1729.66 394.832 1554.86 337.413C1472.26 310.282 1500.6 259.32 1345.85 275.712C1334.04 276.963 1380.03 309.064 1435.5 292.125C1476.13 279.717 1412.47 329.998 1449.75 355.197C1488.18 381.173 1515.48 360.182 1559.3 368.723C1603.12 377.264 1576.59 519.451 1630.24 535.157C1683.89 550.863 1635.71 434.987 1661.64 445.746C1700.53 461.885 1659.68 617.027 1704.81 654.191C1749.94 691.355 1726.78 596.969 1745.59 572.839C1764.39 548.708 1790.11 765.185 1835.26 786.696C1880.41 808.208 1847.41 708.893 1824.28 587.675C1801.15 466.457 1723.55 587.493 1716.99 547.319Z" fill="#4654A7"/>
<path d="M1679.66 309.363C1617.11 255.635 1544.01 232.977 1525 238.549C1554.73 246.181 1589.04 282.624 1608.12 293.639C1681.87 336.198 1760.7 442.267 1796.44 480.316C1793.98 474.052 1764.96 382.627 1679.66 309.363Z" fill="#CFDCFF"/>
<ellipse cx="58.4648" cy="18.5513" rx="58.4648" ry="18.5513" transform="matrix(-0.836684 -0.547686 -0.547686 0.836684 1680.8 327.174)" fill="#CFDCFF"/>
<circle cx="300" cy="300" r="300" transform="matrix(-0.907143 -0.420821 -0.420821 0.907143 1433.6 265.635)" fill="#41BDF7"/>
<path d="M1310.3 317.569C1349.53 312.84 1295.03 192.645 1235.87 159.579C1143.08 107.715 1050.37 88.9563 937.321 109.271C694.103 152.978 466.793 358.395 503.21 379.698C539.627 401.001 723.894 246.168 726.757 282.771C729.619 319.375 679.68 355.736 723.803 365.18C777.003 376.568 928.738 213.321 966.183 208.644C1003.63 203.967 907.697 258.678 954.289 291.315C1000.88 323.953 1026.77 230.134 1098.03 219.097C1169.29 208.061 1042.27 301.264 1104.85 299.43C1167.44 297.596 1167.81 249.266 1202.21 232.151C1236.6 215.036 1261.26 323.481 1310.3 317.569Z" fill="#2BA3DC"/>
<path d="M953.027 294.037C990.042 321.348 1032.67 248.304 1081.96 220.463C1057.67 226.096 1031.91 234.725 1003.64 234.838C968.298 234.979 1002.84 177.146 967.661 167.439C932.478 157.733 782.934 306.627 756.468 304.271C730.002 301.915 805.097 223.208 772.608 229.081C746.618 233.78 645.049 278.306 597.514 299.981C570.225 307.716 714.724 190.731 709.366 193.129C695.455 199.353 492.857 316.47 498.674 377.594C502.626 419.112 695.69 276.076 718.658 281.219C741.627 286.362 676.276 346.44 716.191 364.956C768.805 389.364 956.205 204.015 970.233 209.42C984.261 214.825 912.785 264.345 953.027 294.037Z" fill="#0087CB"/>
<path d="M1213.97 145.009C1262.61 167.575 1296.67 221.403 1306.01 240.069C1277.2 223.763 1195.56 177.013 1137.75 154.848C1016.88 108.505 920.484 135.266 827.258 139.787C1006.21 62.9582 1132.33 107.135 1213.97 145.009Z" fill="#C7EDFF"/>
<ellipse cx="73.9138" cy="23.5" rx="73.9138" ry="23.5" transform="matrix(-0.959887 -0.280386 -0.280386 0.959887 1200.44 157.471)" fill="#C7EDFF"/>
<ellipse cx="41" cy="50" rx="41" ry="50" transform="matrix(-0.689103 -0.724663 -0.724663 0.689103 498.65 431.113)" fill="#0087CB"/>
<circle cx="1052" cy="1035.05" r="700" fill="#0198DA"/>
<circle cx="1052" cy="1035.05" r="624" fill="#00ABE7"/>
<circle cx="1052" cy="1035.05" r="619" stroke="white" stroke-opacity="0.5" stroke-width="10"/>
<path fill-rule="evenodd" clip-rule="evenodd" d="M868.061 900.074C920.662 869.626 973.732 839.177 1026.33 808.728C1034.06 804.116 1042.89 801.681 1051.89 801.681C1060.89 801.681 1069.72 804.116 1077.45 808.728L1155.72 853.423C1156.72 854.049 1157.55 854.92 1158.12 855.954C1158.7 856.988 1159 858.15 1159 859.333C1159 860.515 1158.7 861.678 1158.12 862.712C1157.55 863.746 1156.72 864.616 1155.72 865.242L964.417 975.296C962.005 976.688 960.008 978.699 958.632 981.121C957.256 983.542 956.551 986.287 956.59 989.072V1081.44C956.557 1084.15 957.27 1086.81 958.65 1089.15C960.031 1091.48 962.026 1093.39 964.417 1094.66L1044.49 1140.85C1046.77 1142.3 1049.42 1143.08 1052.12 1143.08C1054.83 1143.08 1057.48 1142.3 1059.76 1140.85L1389.92 950.718C1445.96 918.312 1445.96 824.931 1389.92 792.526L1093.1 621.496C1080.73 614.009 1066.54 610.051 1052.08 610.051C1037.62 610.051 1023.44 614.009 1011.07 621.496L714.252 792.526C701.651 799.643 691.182 810 683.929 822.524C676.676 835.048 672.903 849.283 673.002 863.755C673.002 977.957 673.472 1092.24 673.002 1206.21C672.906 1220.69 676.679 1234.93 683.93 1247.47C691.182 1260 701.65 1270.38 714.252 1277.51L1011.07 1449.01C1023.53 1456.24 1037.68 1460.05 1052.08 1460.05C1066.49 1460.05 1080.64 1456.24 1093.1 1449.01L1389.92 1277.51C1402.51 1270.41 1412.96 1260.03 1420.14 1247.48C1427.32 1234.93 1430.96 1220.66 1430.7 1206.21V1057.48L1077.45 1261.78C1069.7 1266.35 1060.88 1268.76 1051.89 1268.76C1042.9 1268.76 1034.07 1266.35 1026.33 1261.78L868.688 1170.36C860.829 1165.98 854.3 1159.56 849.794 1151.77C845.288 1143.99 842.972 1135.13 843.092 1126.13V943.83C843.058 934.98 845.356 926.277 849.752 918.596C854.149 910.915 860.491 904.527 868.14 900.074H868.061Z" fill="url(#paint0_linear_301_173)"/>
<path fill-rule="evenodd" clip-rule="evenodd" d="M868.061 900.074C920.662 869.626 973.732 839.177 1026.33 808.728C1034.06 804.116 1042.89 801.681 1051.89 801.681C1060.89 801.681 1069.72 804.116 1077.45 808.728L1155.72 853.423C1156.72 854.049 1157.55 854.92 1158.12 855.954C1158.7 856.988 1159 858.15 1159 859.333C1159 860.515 1158.7 861.678 1158.12 862.712C1157.55 863.746 1156.72 864.616 1155.72 865.242L964.417 975.296C962.005 976.688 960.008 978.699 958.632 981.121C957.256 983.542 956.551 986.287 956.59 989.072V1081.44C956.557 1084.15 957.27 1086.81 958.65 1089.15C960.031 1091.48 962.026 1093.39 964.417 1094.66L1044.49 1140.85C1046.77 1142.3 1049.42 1143.08 1052.12 1143.08C1054.83 1143.08 1057.48 1142.3 1059.76 1140.85L1389.92 950.718C1445.96 918.312 1445.96 824.931 1389.92 792.526L1093.1 621.496C1080.73 614.009 1066.54 610.051 1052.08 610.051C1037.62 610.051 1023.44 614.009 1011.07 621.496L714.252 792.526C701.651 799.643 691.182 810 683.929 822.524C676.676 835.048 672.903 849.283 673.002 863.755C673.002 977.957 673.472 1092.24 673.002 1206.21C672.906 1220.69 676.679 1234.93 683.93 1247.47C691.182 1260 701.65 1270.38 714.252 1277.51L1011.07 1449.01C1023.53 1456.24 1037.68 1460.05 1052.08 1460.05C1066.49 1460.05 1080.64 1456.24 1093.1 1449.01L1389.92 1277.51C1402.51 1270.41 1412.96 1260.03 1420.14 1247.48C1427.32 1234.93 1430.96 1220.66 1430.7 1206.21V1057.48L1077.45 1261.78C1069.7 1266.35 1060.88 1268.76 1051.89 1268.76C1042.9 1268.76 1034.07 1266.35 1026.33 1261.78L868.688 1170.36C860.829 1165.98 854.3 1159.56 849.794 1151.77C845.288 1143.99 842.972 1135.13 843.092 1126.13V943.83C843.058 934.98 845.356 926.277 849.752 918.596C854.149 910.915 860.491 904.527 868.14 900.074H868.061Z" fill="white"/>
<path d="M396.239 1089.26C385.831 1089.2 330.371 1036.83 254.734 1036.4C201.754 1036.09 150.416 966.472 171.055 944.951C191.695 923.431 275.19 956.154 296.71 976.794C339.765 1018.09 385.982 1063.18 396.239 1089.26Z" fill="#CFDCFF"/>
<path d="M289.919 1098.39C213.314 1092.05 153.022 1106.9 114.748 1137.95C89.6302 1158.32 36.7761 1201.6 89.1668 1231.48C143.222 1262.31 218.096 1215.52 264.577 1237.51C317.615 1262.6 382.969 1375.9 367.973 1415.13C352.977 1454.36 286.811 1331.19 229.232 1348.18C150.197 1371.5 373.683 1657.87 515.257 1741.21C826.37 1924.36 1022.68 1864.51 1140.37 1836.69C1383.32 1779.27 1648.42 1678.62 1641.84 1628.43C1630.9 1545.02 1411.69 1714.54 1405.58 1680.09C1395.46 1622.94 1776.72 1547.8 1662.62 1454.23C1623.49 1422.15 1453.63 1623.32 1434.45 1577.14C1425.09 1554.59 1768.58 1349.58 1761.29 1274.65C1754.42 1204.11 1611.59 1274.02 1578.64 1335.46C1554.57 1380.32 1064.08 1707.38 850.186 1637.99C516.829 1529.84 547.28 1119.68 289.919 1098.39Z" fill="url(#paint1_linear_301_173)"/>
<ellipse cx="1752.71" cy="1415.82" rx="39.5" ry="60.5" transform="rotate(55.1928 1752.71 1415.82)" fill="#1B99D5"/>
<path d="M358.518 1114.97C289.35 1080.83 195.103 1099.97 156.625 1113.81C201.103 1119.75 323.559 1143.15 367.534 1169.8C444.022 1216.17 536.756 1376.87 596.596 1427.58C556.717 1354.53 477.399 1173.66 358.518 1114.97Z" fill="#CFDCFF"/>
<ellipse cx="366.229" cy="1187.14" rx="80" ry="40" transform="rotate(41.5829 366.229 1187.14)" fill="#CFDCFF"/>
<path d="M897.349 1636.2C810.983 1619.32 691.661 1546.71 659.241 1515.76C697.817 1560.48 759.334 1697.16 961.493 1690.19C1092.3 1685.67 1306.26 1518.68 1399.83 1468.08C1296.39 1511.04 1034.68 1663.04 897.349 1636.2Z" fill="#B2C7FF"/>
<path d="M1690 965C1726 982.333 1796 1025.8 1788 1061C1778 1105 1634 1205 1662 1245C1684.4 1277 1788.67 1251.67 1838 1235" stroke="#3B5C33" stroke-width="8"/>
<path d="M360.858 821.997C359.849 806.69 370.972 810.342 376.66 814.082C397.889 830.844 442.76 867.113 452.419 878.088C464.493 891.807 476.967 883.477 474.051 877.656C471.052 873.332 470.018 861.99 469.875 856.859C476.951 861.984 492.932 871.319 500.251 867.652L533.518 850.988C549.32 843.072 539.327 831.432 535.578 823.947C531.828 816.461 532.237 806.893 539.722 803.144C547.207 799.394 565.081 781.077 553.434 782.75C541.788 784.423 543.445 775.27 553.005 765.279C562.566 755.288 551.327 745.312 544.257 747.813C537.187 750.315 543.828 730.342 543.814 711.622C543.8 692.903 536.731 697.484 522.593 704.566C508.454 711.649 506.786 706.242 509.273 694.592C511.761 682.943 505.928 671.299 498.441 672.969C490.955 674.638 517.55 636.347 520.872 628.441C524.194 620.535 503.402 630.95 502.561 618.887C501.72 606.824 506.71 604.324 503.374 593.511C500.038 582.697 496.721 596.843 488.404 601.01C480.087 605.176 485.474 576.468 471.739 567.743C458.005 559.017 463.004 568.997 461.324 546.951C459.643 524.904 450.912 530.319 445.09 533.235C439.268 536.151 430.931 513.278 423.855 507.459C416.779 501.641 417.625 519.944 408.064 529.935C398.504 539.926 399.747 534.101 390.179 533.692C380.611 533.283 381.042 552.835 372.734 569.481C364.427 586.126 365.269 600.27 354.87 600.277C344.47 600.285 361.913 562.417 354.005 557.015C346.097 551.613 344.857 561.597 335.289 561.189C328.562 560.901 318.978 550.527 313.551 543.502C313.012 542.42 312.27 541.492 311.562 540.823C312.134 541.629 312.803 542.534 313.551 543.502C315.021 546.451 314.987 550.551 308.66 553.721C297.848 559.137 293.672 538.34 287.013 533.353C280.353 528.366 278.696 537.519 270.379 541.685C262.062 545.852 259.143 535.87 247.492 531.303C235.841 526.736 235.428 532.144 232.522 538.802C229.615 545.46 209.635 530.499 195.078 532.59C180.52 534.681 190.517 552.561 187.611 561.299C184.706 570.037 206.755 572.517 196.36 578.764C185.965 585.012 206.771 593.316 208.859 603.714C210.946 614.113 200.537 601.641 188.474 602.482C176.411 603.323 183.492 615.381 182.669 628.277C182.048 638.026 185.828 640.12 188.118 639.969C183.345 640.585 172.932 642.518 166.459 645.761C158.142 649.927 162.302 649.924 172.291 657.405C182.281 664.885 177.291 667.385 172.301 669.885C167.311 672.384 185.62 679.858 178.966 683.191C172.313 686.524 150.674 676.557 142.36 684.883C134.047 693.209 156.09 687.368 161.089 697.348C170.247 705.245 139.878 702.772 128.235 708.604C116.592 714.437 150.316 752.683 139.087 757.268C127.858 761.852 145.336 769.743 151.585 782.218C157.834 794.693 158.251 795.525 152.847 801.353C147.442 807.181 172.403 807.162 181.978 815.891C191.554 824.619 172.832 824.633 156.616 833.797C140.4 842.961 201.142 854.148 192.413 863.722C185.43 871.382 188.678 876.344 191.175 877.867C193.81 877.588 200.993 877.527 208.648 879.518C218.217 882.007 204.505 900.32 197.861 916.133C192.545 928.783 219.22 922.773 233.222 918.187C235.722 923.87 239.059 936.902 232.408 943.563C225.757 950.224 266.514 936.882 287.724 929.378C282.182 934.929 275.922 945.694 295.223 944.348C319.35 942.666 326.008 945.573 338.074 948.892C350.14 952.211 363.85 927.657 377.15 912.672C387.791 900.683 386.717 911 397.528 905.585C399.74 896.154 387.273 876.806 374.614 859.843C358.791 838.639 362.121 841.132 360.858 821.997Z" fill="#4D7E41"/>
<path d="M240.4 608.344C270.888 624.095 327.859 662.526 333.838 724.561C338.622 774.189 357.283 802.979 365.464 810.29" stroke="#61AB4F" stroke-width="3"/>
<path d="M418.942 608.889C443.761 621.677 410.148 701.86 415.005 752.247C418.89 792.556 339.584 769.759 346.243 775.696" stroke="#61AB4F" stroke-width="3"/>
<path d="M340.274 762.253C332.03 763.981 317.448 750.416 277.804 734.634C246.089 722.008 202.331 777.976 199.092 771.189" stroke="#61AB4F" stroke-width="3"/>
<path d="M319.938 754.869C311.694 756.597 298.115 752.507 268.467 783.195C236.913 815.855 205.544 811.309 202.305 804.522" stroke="#61AB4F" stroke-width="3"/>
<path d="M319.938 754.869C311.694 756.597 298.115 752.507 268.467 783.195C236.913 815.855 205.544 811.309 202.305 804.522" stroke="#61AB4F" stroke-width="3"/>
<path d="M512.16 725.782C503.917 727.51 490.337 723.421 460.69 754.108C429.136 786.769 397.766 782.222 394.527 775.436" stroke="#61AB4F" stroke-width="3"/>
<path d="M260.758 790.477C264.674 808.478 269.183 846.857 255.895 856.361C242.606 865.865 235.819 871.068 234.086 872.481" stroke="#61AB4F" stroke-width="3"/>
<path d="M355.311 879.485C336.916 872.847 337.373 848.508 319.904 841.779C304.658 835.907 293.056 834.711 291.323 836.124" stroke="#61AB4F" stroke-width="3"/>
<path d="M263.023 804.276C266.939 822.277 325.07 846.889 296.055 885.197C286.19 898.22 343.354 910.542 351.597 908.813" stroke="#61AB4F" stroke-width="3"/>
<path d="M497.284 814.989C478.95 816.787 440.308 816.807 432.412 802.505C424.515 788.202 420.137 780.856 418.935 778.971" stroke="#61AB4F" stroke-width="3"/>
<path d="M464.903 678.089C453.53 692.581 437.969 698.491 445.783 712.839C453.597 727.187 454.946 757.494 455.89 759.521" stroke="#61AB4F" stroke-width="3"/>
<path d="M233.115 654.402C248.44 664.626 262.639 685.733 259.689 701.802C256.738 717.871 271.186 729.684 270.922 731.905" stroke="#61AB4F" stroke-width="3"/>
<path d="M288.345 582.227C303.67 592.45 317.869 613.558 314.919 629.627C311.968 645.695 316.141 671.738 315.877 673.959" stroke="#61AB4F" stroke-width="3"/>
<path d="M374.579 632.133C389.904 642.356 404.103 663.463 401.153 679.532C398.202 695.601 415.369 721.984 415.105 724.204" stroke="#61AB4F" stroke-width="3"/>
<path d="M534.249 847.814C542.754 842.427 544.14 849.984 543.771 854.435C540.775 871.93 533.959 909.171 530.667 918.182C526.551 929.446 535.266 934.02 537.706 930.512C539.256 927.427 545.467 923.27 548.379 921.578C547.647 927.264 547.284 939.403 551.694 942.47L571.739 956.409C581.26 963.03 584.832 953.618 587.968 949.108C591.105 944.598 596.747 941.83 601.257 944.967C605.767 948.103 621.932 952.654 617.313 946.467C612.693 940.281 618.488 938.363 627.246 940.736C636.004 943.109 638.225 933.501 634.564 930.212C630.904 926.923 644.498 924.481 655.28 918.597C666.063 912.713 661.205 910.078 652.686 904.154C644.166 898.23 646.758 895.571 654.252 893.348C661.746 891.125 666.625 884.109 663.313 880.319C660.001 876.529 690.414 879.835 696.013 879.268C701.612 878.7 689.083 869.988 695.771 865.717C702.458 861.446 705.465 863.537 710.649 858.22C715.833 852.904 706.64 855.432 701.629 851.948C696.618 848.463 714.851 842.556 715.568 831.902C716.285 821.249 712.104 827.263 724.28 819.374C736.457 811.486 730.596 808.154 727.089 805.714C723.581 803.275 734.145 791.291 735.276 785.387C736.408 779.483 726.127 785.715 717.368 783.342C708.61 780.969 712.357 779.857 709.589 774.215C706.822 768.573 695.69 774.958 683.491 775.396C671.291 775.834 663.405 780.759 660.136 774.768C656.868 768.778 684.165 766.943 684.795 760.691C685.426 754.438 679.283 756.857 676.515 751.215C674.569 747.249 677.539 738.47 679.884 733.138C680.338 732.487 680.64 731.768 680.804 731.15C680.519 731.733 680.207 732.402 679.884 733.138C678.646 734.91 676.273 736.177 672.46 733.526C665.945 728.996 676.619 720.062 677.402 714.659C678.186 709.256 672.391 711.174 667.38 707.689C662.369 704.204 667.204 699.389 666.179 691.241C665.154 683.094 661.907 684.554 657.159 684.969C652.41 685.384 654.759 669.174 648.985 661.442C643.211 653.709 636.045 665.082 630.098 666.151C624.151 667.219 629.643 680.703 622.78 676.674C615.917 672.645 617.662 687.241 612.325 691.708C606.988 696.175 610.908 686.262 606.637 679.574C602.366 672.887 597.64 680.752 589.95 684.326C584.137 687.028 584.117 689.864 584.923 691.136C583.07 688.579 578.687 683.185 574.787 680.473C569.775 676.988 571.083 679.384 569.908 687.489C568.733 695.593 565.726 693.502 562.719 691.411C559.713 689.32 561.153 702.217 557.144 699.429C553.135 696.641 552.086 681.043 544.679 678.866C537.271 676.688 547.556 687.558 543.374 693.571C541.698 701.327 533.591 683.05 526.575 678.172C519.56 673.293 508.106 704.732 501.939 699.7C495.773 694.668 496.712 707.217 491.484 714.734C486.257 722.251 485.909 722.752 480.854 721.467C475.799 720.182 483.645 734.56 481.621 742.817C479.597 751.075 473.712 740.291 463.341 733.823C452.97 727.354 465.59 765.869 457.333 763.844C450.727 762.224 448.887 765.653 448.793 767.57C449.781 769.001 452.071 773.121 453.326 778.157C454.896 784.453 440.039 782.299 428.841 783.434C419.883 784.342 431.719 797.827 438.757 804.456C436.267 807.68 429.804 813.694 423.878 811.952C417.952 810.21 438.434 829.509 449.415 839.376C444.477 837.924 436.309 837.696 443.143 848.396C451.685 861.771 452.1 866.52 453.974 874.515C455.849 882.51 474.302 882.703 487.112 885.664C497.36 888.032 491.078 890.652 497.592 895.182C503.721 893.496 510.957 880.239 516.759 867.62C524.011 851.846 523.619 854.548 534.249 847.814Z" fill="url(#paint2_linear_301_173)"/>
<path d="M619.559 711.337C620.052 733.85 615.788 778.742 581.917 801.66C554.82 819.994 544.087 839.785 542.443 846.793" stroke="#61AB4F" stroke-width="3"/>
<path d="M675.286 814.393C675.707 832.709 618.951 838.508 591.44 857.122C569.431 872.014 557.675 819.158 556.344 824.858" stroke="#61AB4F" stroke-width="3"/>
<path d="M562.217 817.2C558.634 812.992 561.874 800.33 558.525 772.532C555.845 750.293 509.859 742.645 512.753 738.648" stroke="#61AB4F" stroke-width="3"/>
<path d="M560.089 803.163C556.506 798.955 554.6 789.846 527.61 782.394C498.885 774.463 491.659 754.959 494.553 750.962" stroke="#61AB4F" stroke-width="3"/>
<path d="M560.089 803.163C556.506 798.955 554.6 789.846 527.61 782.394C498.885 774.463 491.659 754.959 494.553 750.962" stroke="#61AB4F" stroke-width="3"/>
<path d="M637.187 904.802C633.603 900.594 631.697 891.485 604.708 884.033C575.983 876.101 568.756 856.598 571.65 852.601" stroke="#61AB4F" stroke-width="3"/>
<path d="M520.994 780.238C511.85 788.144 491.15 802.789 481.502 798.115C471.854 793.441 466.725 791.162 465.367 790.607" stroke="#61AB4F" stroke-width="3"/>
<path d="M499.382 862.662C497.433 849.978 511.602 842.602 509.996 830.423C508.595 819.795 505.642 812.734 504.284 812.179" stroke="#61AB4F" stroke-width="3"/>
<path d="M513.754 785.874C504.61 793.781 508.673 835.004 477.491 830.308C466.89 828.712 477.732 865.52 481.316 869.728" stroke="#61AB4F" stroke-width="3"/>
<path d="M581.112 924.23C574.321 914.23 562.18 891.968 567.943 882.929C573.706 873.889 576.565 869.06 577.274 867.776" stroke="#61AB4F" stroke-width="3"/>
<path d="M649.837 862.599C637.916 860.594 629.626 853.483 623.81 862.489C617.995 871.495 600.954 881.786 600.082 882.966" stroke="#61AB4F" stroke-width="3"/>
<path d="M590.73 721.596C589.649 733.636 581.943 748.444 571.757 751.787C561.571 755.131 559.299 767.165 557.936 767.709" stroke="#61AB4F" stroke-width="3"/>
<path d="M649.656 730.768C648.576 742.808 640.869 757.615 630.684 760.959C620.498 764.303 606.8 774.882 605.438 775.426" stroke="#61AB4F" stroke-width="3"/>
<path d="M647.967 796.125C646.886 808.165 639.18 822.972 628.994 826.316C618.808 829.66 608.994 847.833 607.631 848.378" stroke="#61AB4F" stroke-width="3"/>
<path d="M1826.04 1186.03C1828.32 1193.53 1822.36 1193 1819.1 1191.79C1806.59 1185.91 1780.07 1173.05 1774 1168.71C1766.4 1163.28 1761.16 1168.87 1763.28 1171.43C1765.27 1173.23 1767.1 1178.76 1767.77 1181.29C1763.65 1179.56 1754.62 1176.76 1751.4 1179.44L1736.78 1191.58C1729.83 1197.34 1736.15 1201.98 1738.88 1205.27C1741.61 1208.56 1742.52 1213.37 1739.22 1216.1C1735.93 1218.83 1729.16 1230.01 1734.76 1227.83C1740.36 1225.65 1740.6 1230.4 1736.99 1236.48C1733.39 1242.55 1740.14 1246.22 1743.37 1244.16C1746.6 1242.09 1745.6 1252.8 1747.78 1262.11C1749.95 1271.43 1752.94 1268.33 1759.15 1263.17C1765.37 1258.01 1766.82 1260.51 1766.93 1266.59C1767.04 1272.68 1771.29 1277.79 1774.82 1276.1C1778.36 1274.4 1769.55 1296.53 1768.81 1300.85C1768.07 1305.17 1777.22 1297.58 1779.03 1303.48C1780.84 1309.39 1778.65 1311.21 1781.56 1316.21C1784.47 1321.2 1784.49 1313.78 1788.14 1310.74C1791.8 1307.71 1792.44 1322.61 1800.28 1325.37C1808.13 1328.12 1804.48 1323.73 1807.87 1334.51C1811.26 1345.28 1814.97 1341.58 1817.53 1339.46C1820.09 1337.33 1826.89 1347.75 1831.08 1349.82C1835.28 1351.9 1832.74 1342.89 1836.34 1336.81C1839.94 1330.74 1840 1333.78 1844.8 1332.88C1849.61 1331.97 1847.14 1322.29 1849.34 1313.05C1851.55 1303.81 1849.5 1296.87 1854.67 1295.66C1859.84 1294.45 1855.55 1315.31 1860.11 1317.09C1864.67 1318.86 1864.13 1313.75 1868.94 1312.84C1872.32 1312.21 1878.28 1316.26 1881.8 1319.13C1882.19 1319.61 1882.67 1319.98 1883.1 1320.23C1882.72 1319.9 1882.28 1319.53 1881.8 1319.13C1880.73 1317.83 1880.27 1315.79 1883.05 1313.48C1887.8 1309.53 1892.29 1319.4 1896.18 1321.11C1900.07 1322.82 1899.83 1318.08 1903.49 1315.04C1907.15 1312.01 1909.75 1316.63 1916.08 1317.56C1922.4 1318.48 1921.98 1315.75 1922.66 1312.1C1923.34 1308.45 1935.01 1313.58 1942.01 1310.86C1949.01 1308.13 1941.97 1300.39 1942.4 1295.71C1942.84 1291.02 1931.58 1292.34 1936.03 1288.03C1940.48 1283.72 1929.17 1281.99 1926.93 1277.06C1924.68 1272.13 1931.31 1277.13 1937.21 1275.31C1943.12 1273.5 1938.2 1268.32 1937.12 1261.81C1936.3 1256.89 1934.17 1256.28 1933.05 1256.62C1935.36 1255.76 1940.31 1253.6 1943.16 1251.23C1946.82 1248.2 1944.75 1248.68 1938.91 1246.11C1933.07 1243.55 1935.27 1241.73 1937.46 1239.91C1939.66 1238.08 1929.68 1236.48 1932.61 1234.06C1935.53 1231.63 1947.45 1234.08 1950.63 1228.98C1953.8 1223.87 1943.51 1229.33 1939.86 1224.94C1934.39 1222.07 1949.79 1219.79 1954.91 1215.54C1960.03 1211.29 1938.82 1196.16 1943.88 1192.58C1948.94 1189 1939.33 1187.1 1934.78 1181.61C1930.22 1176.13 1929.92 1175.76 1931.93 1172.24C1933.95 1168.71 1921.53 1171.61 1915.76 1168.37C1909.98 1165.14 1919.3 1162.97 1926.31 1156.53C1933.31 1150.1 1901.8 1151.56 1905.03 1145.78C1907.62 1141.16 1905.43 1139.07 1904.01 1138.6C1902.73 1139.04 1899.17 1139.91 1895.13 1139.8C1890.08 1139.67 1894.78 1128.97 1896.26 1120.33C1897.44 1113.42 1884.86 1119.5 1878.43 1123.4C1876.53 1120.86 1873.36 1114.76 1875.9 1110.68C1878.43 1106.6 1859.7 1117.95 1850.01 1124.14C1852.13 1120.73 1854 1114.65 1844.55 1117.56C1832.74 1121.18 1829.09 1120.51 1822.7 1120.25C1816.31 1120 1812.33 1133.8 1807.45 1142.79C1803.54 1149.99 1802.88 1144.73 1798.13 1148.68C1798.12 1153.63 1806.56 1161.81 1814.82 1168.79C1825.15 1177.51 1823.2 1176.65 1826.04 1186.03Z" fill="url(#paint3_linear_301_173)"/>
<path d="M1910.7 1278.4C1893.7 1274.09 1860.91 1261.56 1850.76 1231.39C1842.64 1207.24 1830.02 1195.08 1825.11 1192.39" stroke="#61AB4F" stroke-width="3"/>
<path d="M1821.79 1298.79C1807.97 1295.29 1815.42 1251.51 1807.17 1227C1800.57 1207.39 1842.67 1209.56 1838.67 1207.38" stroke="#61AB4F" stroke-width="3"/>
<path d="M1843.2 1213.37C1847.1 1211.56 1855.92 1216.62 1877.48 1219.89C1894.72 1222.5 1910.02 1189.59 1912.41 1192.6" stroke="#61AB4F" stroke-width="3"/>
<path d="M1854.17 1214.7C1858.07 1212.88 1865.3 1213.35 1876.5 1194.65C1888.43 1174.75 1904.56 1173.38 1906.96 1176.38" stroke="#61AB4F" stroke-width="3"/>
<path d="M1854.17 1214.7C1858.07 1212.88 1865.3 1213.35 1876.5 1194.65C1888.43 1174.75 1904.56 1173.38 1906.96 1176.38" stroke="#61AB4F" stroke-width="3"/>
<path d="M1761.89 1251.4C1765.79 1249.59 1773.02 1250.06 1784.22 1231.36C1796.14 1211.46 1812.28 1210.09 1814.67 1213.09" stroke="#61AB4F" stroke-width="3"/>
<path d="M1879.5 1190.13C1875.47 1181.63 1868.78 1163.05 1874.29 1156.79C1879.81 1150.52 1882.58 1147.15 1883.28 1146.24" stroke="#61AB4F" stroke-width="3"/>
<path d="M1822.15 1156.78C1832.07 1157.96 1834.66 1170.12 1844.13 1171.45C1852.4 1172.61 1858.31 1171.86 1859.01 1170.96" stroke="#61AB4F" stroke-width="3"/>
<path d="M1876.77 1183.53C1872.74 1175.02 1840.97 1169.5 1850.98 1147.08C1854.38 1139.46 1824.51 1139.94 1820.61 1141.76" stroke="#61AB4F" stroke-width="3"/>
<path d="M1758.97 1205.3C1767.88 1202.28 1787.11 1197.8 1792.69 1204C1798.28 1210.21 1801.31 1213.36 1802.12 1214.15" stroke="#61AB4F" stroke-width="3"/>
<path d="M1790.92 1269.67C1794.9 1261.14 1801.96 1256.4 1796.41 1250.17C1790.86 1243.93 1786.69 1229.01 1785.98 1228.11" stroke="#61AB4F" stroke-width="3"/>
<path d="M1908.99 1254.64C1900.18 1251.33 1890.68 1242.47 1890.29 1234.13C1889.9 1225.8 1881.34 1221.59 1881.22 1220.45" stroke="#61AB4F" stroke-width="3"/>
<path d="M1889.86 1296.95C1881.05 1293.63 1871.54 1284.77 1871.15 1276.43C1870.76 1268.1 1865.67 1255.62 1865.55 1254.49" stroke="#61AB4F" stroke-width="3"/>
<path d="M1841.18 1282.09C1832.37 1278.77 1822.86 1269.91 1822.47 1261.58C1822.08 1253.24 1810.49 1242.1 1810.36 1240.96" stroke="#61AB4F" stroke-width="3"/>
<path d="M1722.73 983.316C1721.12 977.712 1725.55 978.174 1727.96 979.106C1737.19 983.625 1756.77 993.488 1761.24 996.787C1766.83 1000.91 1770.79 996.816 1769.24 994.888C1767.78 993.523 1766.48 989.394 1766.02 987.5C1769.06 988.835 1775.74 991.017 1778.17 989.067L1789.18 980.204C1794.41 975.995 1789.77 972.475 1787.77 969.996C1785.78 967.518 1785.16 963.931 1787.64 961.937C1790.12 959.943 1795.28 951.704 1791.09 953.261C1786.9 954.818 1786.78 951.286 1789.53 946.807C1792.28 942.328 1787.3 939.527 1784.88 941.024C1782.45 942.521 1783.31 934.57 1781.8 927.619C1780.29 920.668 1778.04 922.937 1773.35 926.704C1768.67 930.471 1767.62 928.597 1767.61 924.07C1767.59 919.544 1764.49 915.689 1761.85 916.91C1759.2 918.132 1766 901.774 1766.6 898.57C1767.2 895.367 1760.31 900.906 1759.03 896.494C1757.75 892.081 1759.4 890.752 1757.29 887.004C1755.18 883.256 1755.09 888.777 1752.33 890.993C1749.58 893.208 1749.27 882.114 1743.47 879.977C1737.67 877.841 1740.33 881.145 1737.93 873.093C1735.54 865.04 1732.73 867.753 1730.8 869.304C1728.87 870.855 1723.94 863.03 1720.84 861.438C1717.75 859.846 1719.53 866.575 1716.78 871.054C1714.04 875.533 1714.03 873.27 1710.44 873.887C1706.86 874.504 1708.59 881.731 1706.84 888.58C1705.09 895.43 1706.54 900.615 1702.68 901.454C1698.82 902.293 1702.26 886.827 1698.88 885.456C1695.51 884.086 1695.85 887.893 1692.27 888.511C1689.75 888.945 1685.35 885.862 1682.77 883.689C1682.49 883.331 1682.14 883.046 1681.82 882.854C1682.1 883.108 1682.42 883.39 1682.77 883.689C1683.56 884.667 1683.87 886.192 1681.78 887.878C1678.2 890.758 1674.98 883.37 1672.1 882.053C1669.23 880.737 1669.35 884.269 1666.59 886.485C1663.84 888.701 1661.95 885.228 1657.26 884.468C1652.57 883.709 1652.85 885.751 1652.3 888.457C1651.76 891.163 1643.14 887.213 1637.9 889.159C1632.66 891.106 1637.81 896.943 1637.43 900.422C1637.06 903.9 1645.44 903.049 1642.09 906.205C1638.73 909.361 1647.12 910.772 1648.73 914.466C1650.34 918.16 1645.48 914.365 1641.06 915.647C1636.65 916.929 1640.25 920.838 1640.98 925.694C1641.53 929.364 1643.11 929.838 1643.94 929.598C1642.22 930.21 1638.51 931.765 1636.37 933.49C1633.61 935.706 1635.16 935.37 1639.47 937.345C1643.78 939.32 1642.13 940.65 1640.47 941.979C1638.82 943.309 1646.22 944.613 1644.02 946.385C1641.82 948.158 1632.98 946.196 1630.56 949.956C1628.14 953.716 1635.86 949.776 1638.52 953.08C1642.55 955.277 1631.08 956.799 1627.22 959.901C1623.37 963.003 1638.96 974.497 1635.16 977.102C1631.36 979.707 1638.49 981.233 1641.81 985.363C1645.13 989.494 1645.35 989.77 1643.82 992.368C1642.28 994.967 1651.55 992.954 1655.8 995.426C1660.06 997.898 1653.11 999.408 1647.82 1004.11C1642.54 1008.82 1666 1008.09 1663.52 1012.35C1661.55 1015.76 1663.15 1017.34 1664.2 1017.7C1665.16 1017.39 1667.82 1016.79 1670.82 1016.91C1674.58 1017.07 1670.96 1024.97 1669.76 1031.38C1668.8 1036.5 1678.23 1032.13 1683.06 1029.3C1684.44 1031.21 1686.73 1035.78 1684.79 1038.79C1682.86 1041.8 1696.92 1033.57 1704.2 1029.07C1702.59 1031.58 1701.13 1036.08 1708.19 1034.03C1717.01 1031.47 1719.72 1032.01 1724.47 1032.27C1729.21 1032.54 1732.33 1022.32 1736.07 1015.68C1739.05 1010.37 1739.49 1014.29 1743.07 1011.41C1743.13 1007.73 1736.94 1001.55 1730.88 996.265C1723.3 989.662 1724.73 990.321 1722.73 983.316Z" fill="url(#paint4_linear_301_173)"/>
<path d="M1660.82 913.65C1673.41 917.05 1697.66 926.743 1704.86 949.301C1710.63 967.348 1719.87 976.54 1723.5 978.598" stroke="#61AB4F" stroke-width="3"/>
<path d="M1727.17 899.502C1737.42 902.257 1731.38 934.737 1737.23 953.06C1741.91 967.717 1710.63 965.626 1713.58 967.295" stroke="#61AB4F" stroke-width="3"/>
<path d="M1710.28 962.782C1707.36 964.087 1700.85 960.221 1684.86 957.546C1672.07 955.406 1660.32 979.709 1658.57 977.449" stroke="#61AB4F" stroke-width="3"/>
<path d="M1702.14 961.675C1699.21 962.979 1693.84 962.552 1685.3 976.331C1676.2 990.997 1664.19 991.83 1662.44 989.57" stroke="#61AB4F" stroke-width="3"/>
<path d="M1702.14 961.675C1699.21 962.979 1693.84 962.552 1685.3 976.331C1676.2 990.997 1664.19 991.83 1662.44 989.57" stroke="#61AB4F" stroke-width="3"/>
<path d="M1771.19 935.422C1768.27 936.726 1762.89 936.299 1754.35 950.079C1745.26 964.744 1733.24 965.577 1731.49 963.317" stroke="#61AB4F" stroke-width="3"/>
<path d="M1683.02 979.656C1685.92 986.026 1690.68 999.917 1686.51 1004.51C1682.34 1009.11 1680.24 1011.59 1679.71 1012.25" stroke="#61AB4F" stroke-width="3"/>
<path d="M1725.29 1005.11C1717.92 1004.13 1716.14 995.05 1709.11 993.955C1702.97 992.999 1698.57 993.488 1698.04 994.152" stroke="#61AB4F" stroke-width="3"/>
<path d="M1684.97 984.598C1687.87 990.969 1711.44 995.437 1703.74 1012C1701.13 1017.63 1723.35 1017.61 1726.27 1016.3" stroke="#61AB4F" stroke-width="3"/>
<path d="M1772.83 969.748C1766.17 971.889 1751.82 975.003 1747.74 970.326C1743.65 965.649 1741.44 963.272 1740.84 962.669" stroke="#61AB4F" stroke-width="3"/>
<path d="M1749.8 921.507C1746.74 927.804 1741.44 931.249 1745.5 935.95C1749.55 940.65 1752.49 951.798 1753 952.475" stroke="#61AB4F" stroke-width="3"/>
<path d="M1661.82 931.341C1668.33 933.906 1675.3 940.604 1675.49 946.809C1675.69 953.014 1682.01 956.24 1682.09 957.086" stroke="#61AB4F" stroke-width="3"/>
<path d="M1676.53 900.097C1683.04 902.662 1690.01 909.36 1690.21 915.565C1690.4 921.769 1694.04 931.106 1694.13 931.952" stroke="#61AB4F" stroke-width="3"/>
<path d="M1712.56 911.7C1719.08 914.265 1726.05 920.963 1726.24 927.168C1726.44 933.373 1734.93 941.791 1735.02 942.637" stroke="#61AB4F" stroke-width="3"/>
<path d="M1668.19 1251.17C1665.26 1252.38 1666.95 1254.11 1668.16 1254.83C1673.21 1257.23 1684.04 1262.24 1686.96 1263.03C1690.61 1264.01 1690.2 1267.09 1688.85 1267.08C1687.78 1266.92 1685.58 1267.76 1684.62 1268.21C1686.21 1269.05 1689.4 1271.16 1689.39 1272.85L1689.34 1280.55C1689.32 1284.2 1686.25 1283.41 1684.51 1283.4C1682.78 1283.39 1681.05 1284.34 1681.04 1286.07C1681.02 1287.8 1679.26 1292.79 1678.51 1290.48C1677.75 1288.16 1676.21 1289.31 1675.23 1291.99C1674.25 1294.68 1671.37 1293.51 1671.19 1291.97C1671 1290.43 1667.91 1293.48 1664.43 1295.19C1660.96 1296.9 1661.16 1295.17 1661.19 1291.9C1661.21 1288.63 1660.05 1288.82 1658.12 1290.34C1656.19 1291.87 1653.49 1291.85 1653.12 1290.31C1652.74 1288.77 1648.07 1297.2 1646.91 1298.54C1645.75 1299.88 1645.78 1295.07 1643.46 1296.01C1641.15 1296.96 1641.14 1298.11 1638.83 1298.48C1636.52 1298.85 1638.84 1296.95 1638.85 1295.02C1638.87 1293.1 1634.03 1296.72 1631.16 1294.97C1628.29 1293.22 1630.6 1293.24 1626.35 1294.94C1622.11 1296.64 1622.32 1294.53 1622.33 1293.18C1622.33 1291.84 1617.33 1292.38 1615.6 1291.6C1613.88 1290.82 1617.35 1289.3 1618.33 1286.62C1619.31 1283.93 1618.34 1284.69 1617.39 1282.96C1616.44 1281.22 1620.11 1279.51 1622.44 1276.45C1624.76 1273.39 1627.47 1272.25 1626.52 1270.32C1625.57 1268.39 1620.14 1275.09 1618.41 1274.11C1616.69 1273.14 1618.43 1272 1617.48 1270.26C1616.81 1269.04 1614.01 1268.21 1612.21 1267.85C1611.96 1267.85 1611.72 1267.79 1611.53 1267.72C1611.73 1267.75 1611.96 1267.8 1612.21 1267.85C1612.89 1267.85 1613.65 1267.47 1613.66 1266.01C1613.67 1263.5 1609.44 1264.63 1607.9 1263.85C1606.37 1263.07 1607.92 1261.93 1607.93 1260C1607.94 1258.08 1605.82 1258.45 1603.91 1256.71C1602 1254.96 1602.96 1254.39 1603.93 1253.25C1604.9 1252.1 1600.3 1249.76 1599.36 1246.87C1598.42 1243.98 1602.65 1244.2 1604 1242.86C1605.36 1241.52 1607.83 1245.39 1608.04 1242.89C1608.25 1240.39 1611.69 1243.49 1613.81 1242.93C1615.93 1242.36 1612.67 1241.57 1611.72 1239.26C1610.77 1236.94 1613.66 1237.15 1615.97 1235.82C1617.72 1234.82 1618.46 1235.33 1618.64 1235.77C1618.32 1234.82 1617.73 1232.72 1617.74 1231.22C1617.75 1229.3 1618.13 1230.07 1620.43 1231.24C1622.73 1232.41 1622.74 1231.25 1622.74 1230.1C1622.75 1228.94 1625.81 1231.66 1625.82 1230.12C1625.83 1228.58 1622 1225.48 1622.79 1223.17C1623.57 1220.87 1624.5 1225.49 1626.81 1225.51C1629.11 1226.49 1625.88 1221.08 1625.9 1218.39C1625.92 1215.69 1636.09 1218.45 1635.92 1215.95C1635.74 1213.45 1638.8 1215.97 1641.69 1215.99C1644.57 1216.01 1644.76 1216.01 1645.35 1214.48C1645.94 1212.94 1648.21 1217.57 1650.71 1218.55C1653.2 1219.53 1651.49 1216.06 1651.71 1212.21C1651.93 1208.37 1659.56 1218.61 1660.53 1216.12C1661.32 1214.12 1662.53 1214.27 1663.04 1214.59C1663.23 1215.11 1663.88 1216.45 1664.95 1217.68C1666.28 1219.23 1668.43 1215.01 1670.75 1212.34C1672.61 1210.19 1673.94 1215.69 1674.36 1218.71C1675.65 1218.65 1678.37 1218.08 1679 1216.24C1679.62 1214.4 1680.87 1223.17 1681.42 1227.79C1681.94 1226.26 1683.37 1224.11 1684.88 1227.82C1686.78 1232.45 1687.92 1233.41 1689.64 1235.35C1691.36 1237.28 1688.06 1242.07 1686.49 1245.91C1685.24 1248.98 1687.06 1247.83 1687.04 1250.33C1685.49 1251.61 1680.77 1251.06 1676.46 1250.26C1671.09 1249.27 1671.85 1249.66 1668.19 1251.17Z" fill="url(#paint5_linear_301_173)"/>
<path d="M1617.55 1248.35C1623.26 1252.57 1635.59 1259.62 1647.65 1255.06C1657.29 1251.42 1664.33 1252.25 1666.44 1253.1" stroke="#61AB4F" stroke-width="3"/>
<path d="M1633.97 1281.42C1638.61 1284.85 1650.41 1271.29 1660.2 1267.59C1668.03 1264.63 1656.55 1252 1658.26 1252.69" stroke="#61AB4F" stroke-width="3"/>
<path d="M1655.23 1252.81C1654.79 1251.13 1650.94 1249.66 1644.39 1243.75C1639.15 1239.02 1645.54 1225.79 1643.98 1225.81" stroke="#61AB4F" stroke-width="3"/>
<path d="M1652 1249.72C1651.56 1248.03 1649.57 1245.88 1652.55 1237.58C1655.72 1228.74 1652.01 1223.34 1650.46 1223.36" stroke="#61AB4F" stroke-width="3"/>
<path d="M1652 1249.72C1651.56 1248.03 1649.57 1245.88 1652.55 1237.58C1655.72 1228.74 1652.01 1223.34 1650.46 1223.36" stroke="#61AB4F" stroke-width="3"/>
<path d="M1664.17 1288.03C1663.73 1286.34 1661.74 1284.2 1664.72 1275.89C1667.89 1267.06 1664.18 1261.65 1662.63 1261.67" stroke="#61AB4F" stroke-width="3"/>
<path d="M1653.19 1235.49C1656.89 1234.57 1664.42 1231.9 1664.97 1228.56C1665.52 1225.23 1665.86 1223.5 1665.97 1223.05" stroke="#61AB4F" stroke-width="3"/>
<path d="M1678.34 1244.89C1675.43 1242.08 1670.96 1244.39 1668.11 1241.77C1665.63 1239.48 1664.35 1237.43 1664.45 1236.98" stroke="#61AB4F" stroke-width="3"/>
<path d="M1655.96 1234.65C1659.66 1233.73 1669.53 1242.26 1673.99 1233.38C1675.5 1230.36 1683.01 1239.83 1683.44 1241.52" stroke="#61AB4F" stroke-width="3"/>
<path d="M1679.35 1277.12C1678.01 1273.55 1674.48 1266.38 1671.11 1266.22C1667.74 1266.07 1665.97 1265.93 1665.51 1265.88" stroke="#61AB4F" stroke-width="3"/>
<path d="M1651 1283.62C1652.65 1280.19 1652.33 1276.76 1655.7 1276.9C1659.08 1277.04 1664.82 1274.52 1665.28 1274.51" stroke="#61AB4F" stroke-width="3"/>
<path d="M1625.43 1242.79C1628.73 1244.7 1633.94 1245.41 1636.65 1243.39C1639.36 1241.37 1642.87 1242.97 1643.26 1242.72" stroke="#61AB4F" stroke-width="3"/>
<path d="M1617.09 1259.63C1620.39 1261.54 1625.6 1262.25 1628.31 1260.23C1631.02 1258.21 1636.23 1256.61 1636.62 1256.36" stroke="#61AB4F" stroke-width="3"/>
<path d="M1634.23 1271.07C1637.52 1272.97 1642.74 1273.68 1645.45 1271.66C1648.16 1269.65 1654.62 1270.42 1655.01 1270.17" stroke="#61AB4F" stroke-width="3"/>
<path d="M437.587 705.051C337.587 705.051 167.248 989.051 437.587 989.051C725.587 989.051 537.586 705.051 437.587 705.051Z" fill="url(#paint6_linear_301_173)"/>
<path d="M318 883.051C318 826.075 357.841 784.22 383.74 759.933C384.587 759.139 385.78 760.151 385.141 761.12C367.979 787.176 354.37 796.368 343 848.051C332.24 896.961 358.799 927.372 369.322 948.643C369.647 949.299 369.163 949.977 368.456 949.787C358.506 947.116 318 924.175 318 883.051Z" fill="url(#paint7_linear_301_173)"/>
<path d="M370 892.051C364.539 864.064 376.751 838.313 386.551 811.102C386.962 809.96 388.824 810.389 388.673 811.594C384.078 848.131 379.965 884.332 390 908.051C408.18 951.021 401.529 940.309 407.776 954.221C408.229 955.229 406.939 956.172 406.129 955.419C388.427 938.974 377.47 930.335 370 892.051Z" fill="url(#paint8_linear_301_173)"/>
<path d="M432.498 905.551C432.498 876.482 432.499 872.994 436.996 857.231C437.505 855.448 439.967 855.284 440.731 856.975C448.703 874.616 448.703 876.05 448.703 902.051C448.703 939.051 448.703 931.051 441.35 955.051C432.999 930.051 432.498 926.551 432.498 905.551Z" fill="url(#paint9_linear_301_173)"/>
<path d="M508 892.051C513.461 864.064 501.249 838.313 491.449 811.102C491.038 809.96 489.176 810.389 489.327 811.594C493.922 848.131 498.035 884.332 488 908.051C469.82 951.021 476.471 940.309 470.224 954.221C469.771 955.229 471.061 956.172 471.871 955.419C489.573 938.974 500.53 930.335 508 892.051Z" fill="url(#paint10_linear_301_173)"/>
<path d="M560 883.051C560 826.075 520.159 784.22 494.26 759.933C493.413 759.139 492.22 760.151 492.859 761.12C510.021 787.176 523.63 796.368 535 848.051C545.76 896.961 519.201 927.372 508.678 948.643C508.353 949.299 508.837 949.977 509.544 949.787C519.494 947.116 560 924.175 560 883.051Z" fill="url(#paint11_linear_301_173)"/>
<path d="M575.063 954.043C512.186 919.705 307.56 1039.79 477.542 1132.62C658.63 1231.51 637.94 988.381 575.063 954.043Z" fill="url(#paint12_linear_301_173)"/>
<path d="M438.746 1024.9C457.797 990.017 495.676 977.119 520.388 970.577C521.51 970.28 522.061 971.7 521.03 972.233C502.36 981.874 490.613 983.767 466.484 1011.48C443.131 1038.3 449.072 1066.28 448.51 1083.31C448.485 1084.05 447.762 1084.41 447.252 1083.89C441.586 1078.06 424.882 1050.29 438.746 1024.9Z" fill="url(#paint13_linear_301_173)"/>
<path d="M468.354 1048.42C474.231 1029.89 489.473 1018.13 504.295 1005.19C505.209 1004.39 506.67 1005.7 505.961 1006.68C491.162 1027.26 477.2 1047.68 475.435 1065.34C472.278 1096.93 471.665 1090.39 470.885 1098.98C470.785 1100.08 469.186 1100.29 468.834 1099.24C463.609 1083.69 460.152 1074.27 468.354 1048.42Z" fill="url(#paint14_linear_301_173)"/>
<path d="M503.016 1078.37C512.548 1060.91 514.07 1058.12 521.365 1050.62C522.658 1049.29 524.901 1050.32 524.755 1052.17C523.778 1064.57 522.995 1066 514.407 1081.73C501.701 1104.99 504.449 1099.96 491.584 1112.53C494.918 1093.94 495.805 1091.57 503.016 1078.37Z" fill="url(#paint15_linear_301_173)"/>
<path d="M555.125 1095.8C567.536 1080.84 569.192 1061.66 572.064 1042.2C572.241 1041 570.353 1040.48 569.907 1041.6C560.598 1065.18 550.959 1087.96 537.055 1099C512.187 1118.73 518.024 1115.7 511.219 1121C510.347 1121.68 511.032 1123.14 512.104 1122.87C528.009 1118.86 537.804 1116.68 555.125 1095.8Z" fill="url(#paint16_linear_301_173)"/>
<path d="M590.912 1108C609.963 1073.12 600.338 1034.28 592.484 1009.95C592.128 1008.84 590.635 1009.15 590.744 1010.3C592.726 1031.22 597.482 1042.13 587.211 1077.41C577.27 1111.55 550.517 1121.68 536.49 1131.36C535.888 1131.78 535.971 1132.58 536.689 1132.73C544.653 1134.35 577.048 1133.39 590.912 1108Z" fill="url(#paint17_linear_301_173)"/>
<path d="M1874.06 1009.04C1811.19 974.705 1606.56 1094.79 1776.54 1187.62C1957.63 1286.51 1936.94 1043.38 1874.06 1009.04Z" fill="url(#paint18_linear_301_173)"/>
<path d="M1737.75 1079.9C1756.8 1045.02 1794.68 1032.12 1819.39 1025.58C1820.51 1025.28 1821.06 1026.7 1820.03 1027.23C1801.36 1036.87 1789.61 1038.77 1765.48 1066.48C1742.13 1093.3 1748.07 1121.28 1747.51 1138.31C1747.49 1139.05 1746.76 1139.41 1746.25 1138.89C1740.59 1133.06 1723.88 1105.29 1737.75 1079.9Z" fill="url(#paint19_linear_301_173)"/>
<path d="M1767.35 1103.42C1773.23 1084.89 1788.47 1073.13 1803.29 1060.19C1804.21 1059.39 1805.67 1060.7 1804.96 1061.68C1790.16 1082.26 1776.2 1102.68 1774.44 1120.34C1771.28 1151.93 1770.67 1145.39 1769.88 1153.98C1769.78 1155.08 1768.19 1155.29 1767.83 1154.24C1762.61 1138.69 1759.15 1129.27 1767.35 1103.42Z" fill="url(#paint20_linear_301_173)"/>
<path d="M1802.02 1133.37C1811.55 1115.91 1813.07 1113.12 1820.36 1105.62C1821.66 1104.29 1823.9 1105.32 1823.76 1107.17C1822.78 1119.57 1822 1121 1813.41 1136.73C1800.7 1159.99 1803.45 1154.96 1790.58 1167.53C1793.92 1148.94 1794.8 1146.57 1802.02 1133.37Z" fill="url(#paint21_linear_301_173)"/>
<path d="M1854.12 1150.8C1866.54 1135.84 1868.19 1116.66 1871.06 1097.2C1871.24 1096 1869.35 1095.48 1868.91 1096.6C1859.6 1120.18 1849.96 1142.96 1836.06 1154C1811.19 1173.73 1817.02 1170.7 1810.22 1176C1809.35 1176.68 1810.03 1178.14 1811.1 1177.87C1827.01 1173.86 1836.8 1171.68 1854.12 1150.8Z" fill="url(#paint22_linear_301_173)"/>
<path d="M1889.91 1163C1908.96 1128.12 1899.34 1089.28 1891.48 1064.95C1891.13 1063.84 1889.63 1064.15 1889.74 1065.3C1891.73 1086.22 1896.48 1097.13 1886.21 1132.41C1876.27 1166.55 1849.52 1176.68 1835.49 1186.36C1834.89 1186.78 1834.97 1187.58 1835.69 1187.73C1843.65 1189.35 1876.05 1188.39 1889.91 1163Z" fill="url(#paint23_linear_301_173)"/>
<path d="M455.12 1093.05C420.694 1155.03 538.066 1358.37 631.133 1190.82L455.12 1093.05Z" fill="url(#paint24_linear_301_173)"/>
<path d="M463.497 1097.72C436.314 1146.66 550.471 1319.15 623.957 1186.85L463.497 1097.72Z" fill="url(#paint25_linear_301_173)"/>
<path d="M463.497 1097.72C436.314 1146.66 550.471 1319.15 623.957 1186.85L463.497 1097.72Z" fill="#F8AFC9"/>
<path d="M467.467 1099.85C443.401 1143.17 554.896 1301.68 619.957 1184.55L467.467 1099.85Z" fill="url(#paint26_linear_301_173)"/>
<path d="M467.467 1099.85C443.401 1143.17 554.896 1301.68 619.957 1184.55L467.467 1099.85Z" fill="#BC4771"/>
<path d="M467.467 1099.85C443.401 1143.17 554.896 1301.68 619.957 1184.55L467.467 1099.85Z" fill="url(#paint27_linear_301_173)"/>
<path d="M484.183 1123.95C484.183 1118.99 503.325 1127.14 508.287 1127.14L597.263 1175.35C599.508 1178.78 603.714 1186.63 602.58 1190.6C601.162 1195.56 589.11 1184.22 582.02 1181.73C574.93 1179.25 584.856 1203.71 582.02 1208.32C579.184 1212.93 567.132 1196.62 563.587 1187.76C560.042 1178.9 555.434 1205.84 547.99 1208.32C540.546 1210.8 546.926 1177.48 546.218 1171.45C545.509 1165.43 520.34 1188.11 508.287 1190.6C496.235 1193.08 524.594 1161.17 526.721 1152.31C528.848 1143.45 486.664 1159.76 482.055 1155.15C477.447 1150.54 502.615 1141.68 503.323 1138.13C504.032 1134.59 484.183 1129.27 484.183 1123.95Z" fill="#792C48"/>
<path d="M476.384 1134.94C479.93 1127.5 511.833 1143.45 515.732 1138.49C519.89 1133.19 492.336 1122.18 483.829 1116.51C475.321 1110.84 479.103 1108.24 482.057 1107.65L612.151 1180.32C611.678 1181.02 610.024 1182.73 607.188 1183.86C603.643 1185.28 591.236 1173.58 577.412 1168.97C563.587 1164.36 603.289 1193.43 599.035 1201.58C594.781 1209.74 590.882 1188.11 576.348 1182.44C561.814 1176.77 578.829 1212.57 566.423 1218.25C554.016 1223.92 569.967 1178.9 556.497 1172.52C543.027 1166.14 550.471 1204.42 532.393 1206.9C514.314 1209.38 551.18 1174.64 540.191 1164.36C529.202 1154.08 514.314 1188.47 506.515 1180.32C498.717 1172.16 529.911 1150.54 513.251 1146.99C491.308 1142.33 472.073 1143.99 476.384 1134.94Z" fill="#8E3455"/>
<path d="M495.173 1120.41C504.85 1124.73 525.304 1134.23 525.304 1141.32C518.569 1134.59 509.235 1129.06 496.946 1124.31C479.93 1117 476.727 1123.66 474.614 1120.41C472.174 1116.66 483.325 1115.12 495.173 1120.41Z" fill="url(#paint28_linear_301_173)"/>
<path d="M535.022 1148.69C527.677 1152.31 483.208 1162.22 490.987 1164.59C498.767 1166.97 534.159 1154.29 535.022 1148.69Z" fill="url(#paint29_linear_301_173)"/>
<path d="M550.635 1160.75C545.374 1167.03 508.668 1194.01 516.744 1193.05C524.82 1192.09 552.104 1166.22 550.635 1160.75Z" fill="url(#paint30_linear_301_173)"/>
<path d="M563.381 1167.2C560.899 1175.35 551.329 1220.95 556.199 1220.95C563.381 1220.95 563.381 1176.42 563.381 1167.2Z" fill="url(#paint31_linear_301_173)"/>
<path d="M572.211 1166.2C576.713 1173.05 602.802 1202.36 605.533 1198.82C608.264 1195.27 577.878 1166.37 572.211 1166.2Z" fill="url(#paint32_linear_301_173)"/>
<path d="M1748.01 1084.05C1782.44 1146.03 1665.07 1349.37 1572 1181.82L1748.01 1084.05Z" fill="url(#paint33_linear_301_173)"/>
<path d="M1739.64 1088.72C1766.82 1137.66 1652.66 1310.15 1579.18 1177.85L1739.64 1088.72Z" fill="url(#paint34_linear_301_173)"/>
<path d="M1739.64 1088.72C1766.82 1137.66 1652.66 1310.15 1579.18 1177.85L1739.64 1088.72Z" fill="#F8AFC9"/>
<path d="M1735.67 1090.85C1759.73 1134.17 1648.24 1292.68 1583.18 1175.55L1735.67 1090.85Z" fill="url(#paint35_linear_301_173)"/>
<path d="M1735.67 1090.85C1759.73 1134.17 1648.24 1292.68 1583.18 1175.55L1735.67 1090.85Z" fill="#BC4771"/>
<path d="M1735.67 1090.85C1759.73 1134.17 1648.24 1292.68 1583.18 1175.55L1735.67 1090.85Z" fill="url(#paint36_linear_301_173)"/>
<path d="M1718.95 1114.95C1718.95 1109.99 1699.81 1118.14 1694.85 1118.14L1605.87 1166.35C1603.63 1169.78 1599.42 1177.63 1600.55 1181.6C1601.97 1186.56 1614.02 1175.22 1621.11 1172.73C1628.2 1170.25 1618.28 1194.71 1621.11 1199.32C1623.95 1203.93 1636 1187.62 1639.55 1178.76C1643.09 1169.9 1647.7 1196.84 1655.14 1199.32C1662.59 1201.8 1656.21 1168.48 1656.92 1162.45C1657.62 1156.43 1682.79 1179.11 1694.85 1181.6C1706.9 1184.08 1678.54 1152.17 1676.41 1143.31C1674.28 1134.45 1716.47 1150.76 1721.08 1146.15C1725.69 1141.54 1700.52 1132.68 1699.81 1129.13C1699.1 1125.59 1718.95 1120.27 1718.95 1114.95Z" fill="#792C48"/>
<path d="M1726.75 1125.94C1723.2 1118.5 1691.3 1134.45 1687.4 1129.49C1683.24 1124.19 1710.8 1113.18 1719.3 1107.51C1727.81 1101.84 1724.03 1099.24 1721.08 1098.65L1590.98 1171.32C1591.45 1172.02 1593.11 1173.73 1595.94 1174.86C1599.49 1176.28 1611.9 1164.58 1625.72 1159.97C1639.55 1155.36 1599.84 1184.43 1604.1 1192.58C1608.35 1200.74 1612.25 1179.11 1626.78 1173.44C1641.32 1167.77 1624.3 1203.57 1636.71 1209.25C1649.12 1214.92 1633.17 1169.9 1646.64 1163.52C1660.11 1157.14 1652.66 1195.42 1670.74 1197.9C1688.82 1200.38 1651.95 1165.64 1662.94 1155.36C1673.93 1145.08 1688.82 1179.47 1696.62 1171.32C1704.42 1163.16 1673.22 1141.54 1689.88 1137.99C1711.82 1133.33 1731.06 1134.99 1726.75 1125.94Z" fill="#8E3455"/>
<path d="M1707.96 1111.41C1698.28 1115.73 1677.83 1125.23 1677.83 1132.32C1684.56 1125.59 1693.9 1120.06 1706.19 1115.31C1723.2 1108 1726.41 1114.66 1728.52 1111.41C1730.96 1107.66 1719.81 1106.12 1707.96 1111.41Z" fill="url(#paint37_linear_301_173)"/>
<path d="M1668.11 1139.69C1675.46 1143.31 1719.93 1153.22 1712.15 1155.59C1704.37 1157.97 1668.97 1145.29 1668.11 1139.69Z" fill="url(#paint38_linear_301_173)"/>
<path d="M1652.5 1151.75C1657.76 1158.03 1694.47 1185.01 1686.39 1184.05C1678.31 1183.09 1651.03 1157.22 1652.5 1151.75Z" fill="url(#paint39_linear_301_173)"/>
<path d="M1639.75 1158.2C1642.23 1166.35 1651.8 1211.95 1646.93 1211.95C1639.75 1211.95 1639.75 1167.42 1639.75 1158.2Z" fill="url(#paint40_linear_301_173)"/>
<path d="M1630.92 1157.2C1626.42 1164.05 1600.33 1193.36 1597.6 1189.82C1594.87 1186.27 1625.25 1157.37 1630.92 1157.2Z" fill="url(#paint41_linear_301_173)"/>
<path d="M1740.52 801C1713.97 848.801 1804.49 1005.63 1876.27 876.408L1740.52 801Z" fill="url(#paint42_linear_301_173)"/>
<path d="M1746.98 804.602C1726.01 842.346 1814.06 975.383 1870.74 873.347L1746.98 804.602Z" fill="url(#paint43_linear_301_173)"/>
<path d="M1746.98 804.602C1726.01 842.346 1814.06 975.383 1870.74 873.347L1746.98 804.602Z" fill="#F8AFC9"/>
<path d="M1750.04 806.243C1731.48 839.659 1817.47 961.911 1867.65 871.573L1750.04 806.243Z" fill="url(#paint44_linear_301_173)"/>
<path d="M1750.04 806.243C1731.48 839.659 1817.47 961.911 1867.65 871.573L1750.04 806.243Z" fill="#BC4771"/>
<path d="M1750.04 806.243C1731.48 839.659 1817.47 961.911 1867.65 871.573L1750.04 806.243Z" fill="url(#paint45_linear_301_173)"/>
<path d="M1762.93 824.835C1762.93 821.007 1777.7 827.295 1781.52 827.295L1850.15 864.478C1851.88 867.121 1855.12 873.172 1854.25 876.234C1853.16 880.062 1843.86 871.313 1838.39 869.399C1832.92 867.485 1840.58 886.35 1838.39 889.904C1836.21 893.459 1826.91 880.882 1824.18 874.047C1821.44 867.212 1817.89 887.991 1812.15 889.904C1806.4 891.818 1811.33 866.118 1810.78 861.47C1810.23 856.823 1790.82 874.32 1781.52 876.234C1772.23 878.148 1794.1 853.542 1795.74 846.707C1797.38 839.872 1764.85 852.448 1761.29 848.894C1757.74 845.34 1777.15 838.505 1777.7 835.771C1778.24 833.037 1762.93 828.936 1762.93 824.835Z" fill="#792C48"/>
<path d="M1756.92 833.31C1759.65 827.568 1784.26 839.871 1787.27 836.044C1790.47 831.962 1769.22 823.467 1762.66 819.093C1756.1 814.718 1759.02 812.713 1761.29 812.258L1861.63 868.305C1861.27 868.852 1859.99 870.164 1857.8 871.039C1855.07 872.133 1845.5 863.111 1834.84 859.556C1824.18 856.002 1854.8 878.421 1851.52 884.709C1848.24 890.998 1845.23 874.32 1834.02 869.946C1822.81 865.571 1835.93 893.185 1826.36 897.559C1816.79 901.934 1829.1 867.212 1818.71 862.29C1808.32 857.369 1814.06 886.897 1800.12 888.81C1786.17 890.724 1814.61 863.931 1806.13 856.002C1797.66 848.074 1786.17 874.594 1780.16 868.305C1774.14 862.017 1798.2 845.339 1785.35 842.605C1768.43 839.005 1753.59 840.291 1756.92 833.31Z" fill="#8E3455"/>
<path d="M1771.41 822.101C1778.87 825.43 1794.65 832.763 1794.65 838.231C1789.46 833.037 1782.26 828.776 1772.78 825.108C1759.65 819.475 1757.18 824.607 1755.55 822.1C1753.67 819.206 1762.27 818.024 1771.41 822.101Z" fill="url(#paint46_linear_301_173)"/>
<path d="M1802.14 843.91C1796.48 846.707 1762.18 854.347 1768.18 856.178C1774.18 858.009 1801.48 848.232 1802.14 843.91Z" fill="url(#paint47_linear_301_173)"/>
<path d="M1814.19 853.212C1810.13 858.055 1781.82 878.868 1788.05 878.126C1794.28 877.384 1815.32 857.436 1814.19 853.212Z" fill="url(#paint48_linear_301_173)"/>
<path d="M1824.02 858.19C1822.1 864.478 1814.72 899.645 1818.48 899.645C1824.02 899.645 1824.02 865.298 1824.02 858.19Z" fill="url(#paint49_linear_301_173)"/>
<path d="M1830.83 857.421C1834.3 862.699 1854.42 885.309 1856.53 882.574C1858.64 879.84 1835.2 857.549 1830.83 857.421Z" fill="url(#paint50_linear_301_173)"/>
</g>
<defs>
<linearGradient id="paint0_linear_301_173" x1="869.157" y1="493.988" x2="1203.62" y2="1485.33" gradientUnits="userSpaceOnUse">
<stop stop-color="#273498"/>
<stop offset="0.53" stop-color="#0074C2"/>
<stop offset="1" stop-color="#00ABE7"/>
</linearGradient>
<linearGradient id="paint1_linear_301_173" x1="1835.93" y1="1490.2" x2="19.0154" y2="1330.99" gradientUnits="userSpaceOnUse">
<stop stop-color="#0087CB"/>
<stop offset="1" stop-color="#A0A9F3"/>
</linearGradient>
<linearGradient id="paint2_linear_301_173" x1="437.76" y1="707.824" x2="731.253" y2="719.864" gradientUnits="userSpaceOnUse">
<stop stop-color="#385232"/>
<stop offset="1" stop-color="#448733"/>
</linearGradient>
<linearGradient id="paint3_linear_301_173" x1="1951.13" y1="1142.74" x2="1881.08" y2="1360.43" gradientUnits="userSpaceOnUse">
<stop stop-color="#385232"/>
<stop offset="1" stop-color="#448733"/>
</linearGradient>
<linearGradient id="paint4_linear_301_173" x1="1629.2" y1="1014.09" x2="1683.78" y2="852.982" gradientUnits="userSpaceOnUse">
<stop stop-color="#385232"/>
<stop offset="1" stop-color="#448733"/>
</linearGradient>
<linearGradient id="paint5_linear_301_173" x1="1649.66" y1="1200.9" x2="1599.46" y2="1278.66" gradientUnits="userSpaceOnUse">
<stop stop-color="#385232"/>
<stop offset="1" stop-color="#448733"/>
</linearGradient>
<linearGradient id="paint6_linear_301_173" x1="441.411" y1="705.051" x2="441" y2="942.051" gradientUnits="userSpaceOnUse">
<stop stop-color="#7ADA78"/>
<stop offset="0.201042" stop-color="#AE4AEC"/>
<stop offset="0.680208" stop-color="#4E53D6"/>
</linearGradient>
<linearGradient id="paint7_linear_301_173" x1="353.5" y1="755.051" x2="353.5" y2="950.051" gradientUnits="userSpaceOnUse">
<stop stop-color="#45539F" stop-opacity="0"/>
<stop offset="1" stop-color="#45539F"/>
</linearGradient>
<linearGradient id="paint8_linear_301_173" x1="389.324" y1="801.051" x2="389.324" y2="959.051" gradientUnits="userSpaceOnUse">
<stop stop-color="#45539F" stop-opacity="0"/>
<stop offset="1" stop-color="#45539F"/>
</linearGradient>
<linearGradient id="paint9_linear_301_173" x1="440.6" y1="852.051" x2="440.6" y2="955.051" gradientUnits="userSpaceOnUse">
<stop stop-color="#45539F" stop-opacity="0"/>
<stop offset="1" stop-color="#45539F"/>
</linearGradient>
<linearGradient id="paint10_linear_301_173" x1="488.676" y1="801.051" x2="488.676" y2="959.051" gradientUnits="userSpaceOnUse">
<stop stop-color="#45539F" stop-opacity="0"/>
<stop offset="1" stop-color="#45539F"/>
</linearGradient>
<linearGradient id="paint11_linear_301_173" x1="524.5" y1="755.051" x2="524.5" y2="950.051" gradientUnits="userSpaceOnUse">
<stop stop-color="#45539F" stop-opacity="0"/>
<stop offset="1" stop-color="#45539F"/>
</linearGradient>
<linearGradient id="paint12_linear_301_173" x1="577.468" y1="955.356" x2="495.827" y2="1104.23" gradientUnits="userSpaceOnUse">
<stop stop-color="#7ADA78"/>
<stop offset="0.201042" stop-color="#AE4AEC"/>
<stop offset="0.680208" stop-color="#4E53D6"/>
</linearGradient>
<linearGradient id="paint13_linear_301_173" x1="505.021" y1="956.608" x2="438.061" y2="1079.22" gradientUnits="userSpaceOnUse">
<stop stop-color="#45539F" stop-opacity="0"/>
<stop offset="1" stop-color="#45539F"/>
</linearGradient>
<linearGradient id="paint14_linear_301_173" x1="511.752" y1="997.833" x2="457.498" y2="1097.18" gradientUnits="userSpaceOnUse">
<stop stop-color="#45539F" stop-opacity="0"/>
<stop offset="1" stop-color="#45539F"/>
</linearGradient>
<linearGradient id="paint15_linear_301_173" x1="526.481" y1="1047.51" x2="491.113" y2="1112.27" gradientUnits="userSpaceOnUse">
<stop stop-color="#45539F" stop-opacity="0"/>
<stop offset="1" stop-color="#45539F"/>
</linearGradient>
<linearGradient id="paint16_linear_301_173" x1="574.222" y1="1031.95" x2="519.968" y2="1131.3" gradientUnits="userSpaceOnUse">
<stop stop-color="#45539F" stop-opacity="0"/>
<stop offset="1" stop-color="#45539F"/>
</linearGradient>
<linearGradient id="paint17_linear_301_173" x1="612.544" y1="1015.33" x2="545.584" y2="1137.94" gradientUnits="userSpaceOnUse">
<stop stop-color="#45539F" stop-opacity="0"/>
<stop offset="1" stop-color="#45539F"/>
</linearGradient>
<linearGradient id="paint18_linear_301_173" x1="1876.47" y1="1010.36" x2="1794.83" y2="1159.23" gradientUnits="userSpaceOnUse">
<stop stop-color="#7ADA78"/>
<stop offset="0.201042" stop-color="#AE4AEC"/>
<stop offset="0.680208" stop-color="#4E53D6"/>
</linearGradient>
<linearGradient id="paint19_linear_301_173" x1="1804.02" y1="1011.61" x2="1737.06" y2="1134.22" gradientUnits="userSpaceOnUse">
<stop stop-color="#45539F" stop-opacity="0"/>
<stop offset="1" stop-color="#45539F"/>
</linearGradient>
<linearGradient id="paint20_linear_301_173" x1="1810.75" y1="1052.83" x2="1756.5" y2="1152.18" gradientUnits="userSpaceOnUse">
<stop stop-color="#45539F" stop-opacity="0"/>
<stop offset="1" stop-color="#45539F"/>
</linearGradient>
<linearGradient id="paint21_linear_301_173" x1="1825.48" y1="1102.51" x2="1790.11" y2="1167.27" gradientUnits="userSpaceOnUse">
<stop stop-color="#45539F" stop-opacity="0"/>
<stop offset="1" stop-color="#45539F"/>
</linearGradient>
<linearGradient id="paint22_linear_301_173" x1="1873.22" y1="1086.95" x2="1818.97" y2="1186.3" gradientUnits="userSpaceOnUse">
<stop stop-color="#45539F" stop-opacity="0"/>
<stop offset="1" stop-color="#45539F"/>
</linearGradient>
<linearGradient id="paint23_linear_301_173" x1="1911.54" y1="1070.33" x2="1844.58" y2="1192.94" gradientUnits="userSpaceOnUse">
<stop stop-color="#45539F" stop-opacity="0"/>
<stop offset="1" stop-color="#45539F"/>
</linearGradient>
<linearGradient id="paint24_linear_301_173" x1="456.437" y1="1090.68" x2="603.179" y2="1172.53" gradientUnits="userSpaceOnUse">
<stop stop-color="#7ADA78"/>
<stop offset="0.201042" stop-color="#AE4AEC"/>
<stop offset="0.680208" stop-color="#4E53D6"/>
</linearGradient>
<linearGradient id="paint25_linear_301_173" x1="464.536" y1="1095.85" x2="598.292" y2="1170.5" gradientUnits="userSpaceOnUse">
<stop stop-color="#7ADA78"/>
<stop offset="0.201042" stop-color="#AE4AEC"/>
<stop offset="0.680208" stop-color="#4E53D6"/>
</linearGradient>
<linearGradient id="paint26_linear_301_173" x1="468.388" y1="1098.19" x2="595.49" y2="1169.15" gradientUnits="userSpaceOnUse">
<stop stop-color="#7ADA78"/>
<stop offset="0.201042" stop-color="#AE4AEC"/>
<stop offset="0.680208" stop-color="#4E53D6"/>
</linearGradient>
<linearGradient id="paint27_linear_301_173" x1="559.334" y1="1148.06" x2="516.796" y2="1214.7" gradientUnits="userSpaceOnUse">
<stop stop-color="#923455"/>
<stop offset="1" stop-color="#BC4771" stop-opacity="0"/>
</linearGradient>
<linearGradient id="paint28_linear_301_173" x1="499.79" y1="1117" x2="499.79" y2="1141.32" gradientUnits="userSpaceOnUse">
<stop stop-color="#EEBEBE"/>
<stop offset="1" stop-color="#EEBEBE" stop-opacity="0"/>
</linearGradient>
<linearGradient id="paint29_linear_301_173" x1="506.821" y1="1149.53" x2="518.481" y2="1163.43" gradientUnits="userSpaceOnUse">
<stop stop-color="#EEBEBE"/>
<stop offset="1" stop-color="#EEBEBE" stop-opacity="0"/>
</linearGradient>
<linearGradient id="paint30_linear_301_173" x1="525.167" y1="1172.89" x2="541.438" y2="1180.9" gradientUnits="userSpaceOnUse">
<stop stop-color="#EEBEBE"/>
<stop offset="1" stop-color="#EEBEBE" stop-opacity="0"/>
</linearGradient>
<linearGradient id="paint31_linear_301_173" x1="550.637" y1="1195.82" x2="568.154" y2="1192.51" gradientUnits="userSpaceOnUse">
<stop stop-color="#EEBEBE"/>
<stop offset="1" stop-color="#EEBEBE" stop-opacity="0"/>
</linearGradient>
<linearGradient id="paint32_linear_301_173" x1="587.034" y1="1184.49" x2="590.987" y2="1180.24" gradientUnits="userSpaceOnUse">
<stop stop-color="#EEBEBE"/>
<stop offset="1" stop-color="#EEBEBE" stop-opacity="0"/>
</linearGradient>
<linearGradient id="paint33_linear_301_173" x1="1746.7" y1="1081.68" x2="1599.95" y2="1163.53" gradientUnits="userSpaceOnUse">
<stop stop-color="#7ADA78"/>
<stop offset="0.201042" stop-color="#AE4AEC"/>
<stop offset="0.680208" stop-color="#4E53D6"/>
</linearGradient>
<linearGradient id="paint34_linear_301_173" x1="1738.6" y1="1086.85" x2="1604.84" y2="1161.5" gradientUnits="userSpaceOnUse">
<stop stop-color="#7ADA78"/>
<stop offset="0.201042" stop-color="#AE4AEC"/>
<stop offset="0.680208" stop-color="#4E53D6"/>
</linearGradient>
<linearGradient id="paint35_linear_301_173" x1="1734.74" y1="1089.19" x2="1607.64" y2="1160.15" gradientUnits="userSpaceOnUse">
<stop stop-color="#7ADA78"/>
<stop offset="0.201042" stop-color="#AE4AEC"/>
<stop offset="0.680208" stop-color="#4E53D6"/>
</linearGradient>
<linearGradient id="paint36_linear_301_173" x1="1643.8" y1="1139.06" x2="1686.34" y2="1205.7" gradientUnits="userSpaceOnUse">
<stop stop-color="#923455"/>
<stop offset="1" stop-color="#BC4771" stop-opacity="0"/>
</linearGradient>
<linearGradient id="paint37_linear_301_173" x1="1703.34" y1="1108" x2="1703.34" y2="1132.32" gradientUnits="userSpaceOnUse">
<stop stop-color="#EEBEBE"/>
<stop offset="1" stop-color="#EEBEBE" stop-opacity="0"/>
</linearGradient>
<linearGradient id="paint38_linear_301_173" x1="1696.31" y1="1140.53" x2="1684.65" y2="1154.43" gradientUnits="userSpaceOnUse">
<stop stop-color="#EEBEBE"/>
<stop offset="1" stop-color="#EEBEBE" stop-opacity="0"/>
</linearGradient>
<linearGradient id="paint39_linear_301_173" x1="1677.97" y1="1163.89" x2="1661.69" y2="1171.9" gradientUnits="userSpaceOnUse">
<stop stop-color="#EEBEBE"/>
<stop offset="1" stop-color="#EEBEBE" stop-opacity="0"/>
</linearGradient>
<linearGradient id="paint40_linear_301_173" x1="1652.5" y1="1186.82" x2="1634.98" y2="1183.51" gradientUnits="userSpaceOnUse">
<stop stop-color="#EEBEBE"/>
<stop offset="1" stop-color="#EEBEBE" stop-opacity="0"/>
</linearGradient>
<linearGradient id="paint41_linear_301_173" x1="1616.1" y1="1175.49" x2="1612.15" y2="1171.24" gradientUnits="userSpaceOnUse">
<stop stop-color="#EEBEBE"/>
<stop offset="1" stop-color="#EEBEBE" stop-opacity="0"/>
</linearGradient>
<linearGradient id="paint42_linear_301_173" x1="1741.53" y1="799.172" x2="1854.71" y2="862.297" gradientUnits="userSpaceOnUse">
<stop stop-color="#7ADA78"/>
<stop offset="0.201042" stop-color="#AE4AEC"/>
<stop offset="0.680208" stop-color="#4E53D6"/>
</linearGradient>
<linearGradient id="paint43_linear_301_173" x1="1747.78" y1="803.159" x2="1850.94" y2="860.734" gradientUnits="userSpaceOnUse">
<stop stop-color="#7ADA78"/>
<stop offset="0.201042" stop-color="#AE4AEC"/>
<stop offset="0.680208" stop-color="#4E53D6"/>
</linearGradient>
<linearGradient id="paint44_linear_301_173" x1="1750.75" y1="804.965" x2="1848.78" y2="859.694" gradientUnits="userSpaceOnUse">
<stop stop-color="#7ADA78"/>
<stop offset="0.201042" stop-color="#AE4AEC"/>
<stop offset="0.680208" stop-color="#4E53D6"/>
</linearGradient>
<linearGradient id="paint45_linear_301_173" x1="1820.9" y1="843.426" x2="1788.09" y2="894.825" gradientUnits="userSpaceOnUse">
<stop stop-color="#923455"/>
<stop offset="1" stop-color="#BC4771" stop-opacity="0"/>
</linearGradient>
<linearGradient id="paint46_linear_301_173" x1="1774.97" y1="819.468" x2="1774.97" y2="838.231" gradientUnits="userSpaceOnUse">
<stop stop-color="#EEBEBE"/>
<stop offset="1" stop-color="#EEBEBE" stop-opacity="0"/>
</linearGradient>
<linearGradient id="paint47_linear_301_173" x1="1780.39" y1="844.564" x2="1789.39" y2="855.281" gradientUnits="userSpaceOnUse">
<stop stop-color="#EEBEBE"/>
<stop offset="1" stop-color="#EEBEBE" stop-opacity="0"/>
</linearGradient>
<linearGradient id="paint48_linear_301_173" x1="1794.54" y1="862.575" x2="1807.09" y2="868.76" gradientUnits="userSpaceOnUse">
<stop stop-color="#EEBEBE"/>
<stop offset="1" stop-color="#EEBEBE" stop-opacity="0"/>
</linearGradient>
<linearGradient id="paint49_linear_301_173" x1="1814.19" y1="880.26" x2="1827.7" y2="877.712" gradientUnits="userSpaceOnUse">
<stop stop-color="#EEBEBE"/>
<stop offset="1" stop-color="#EEBEBE" stop-opacity="0"/>
</linearGradient>
<linearGradient id="paint50_linear_301_173" x1="1842.26" y1="871.523" x2="1845.31" y2="868.246" gradientUnits="userSpaceOnUse">
<stop stop-color="#EEBEBE"/>
<stop offset="1" stop-color="#EEBEBE" stop-opacity="0"/>
</linearGradient>
<clipPath id="clip0_301_173">
<rect width="2000" height="2000" fill="white"/>
</clipPath>
</defs>
</svg>
