<svg width="2000" height="2000" viewBox="0 0 2000 2000" fill="none" xmlns="http://www.w3.org/2000/svg">
<g clip-path="url(#clip0_345_381)">
<circle cx="300" cy="300" r="300" transform="matrix(-0.976333 0.216273 0.216273 0.976333 1237.98 12.2153)" fill="#B8CBFF"/>
<path d="M1007.03 46.9856C848.017 59.6774 817.462 119.024 775.601 162.779C771.763 170.116 738.738 205.359 741.936 223.497C745.934 246.169 793.243 219.301 825.598 171.165C849.298 135.904 831.499 228.423 876.324 224.455C922.532 220.365 930.473 186.854 969.86 165.838C1009.25 144.823 1078.36 271.882 1129.9 250.224C1181.43 228.565 1070.95 169.052 1097.85 161.044C1138.21 149.031 1204.38 295.178 1262.85 295.543C1321.31 295.908 1243.8 237.284 1243.17 206.697C1242.53 176.109 1399.06 327.849 1447.66 316.059C1496.26 304.269 1408 248.025 1313.58 168.565C1219.16 89.1044 1113.67 38.4745 1007.03 46.9856Z" fill="#5F4589"/>
<path d="M1204.88 204.936C1134.74 142.629 1118.52 78.624 946.664 144.347C865.459 175.402 855.3 117.982 745.567 228.326C737.19 236.749 793.126 232.642 825.481 184.506C849.181 149.245 831.5 228.423 876.325 224.455C922.533 220.365 930.474 186.854 969.861 165.838C1009.25 144.823 1078.36 271.882 1129.9 250.224C1181.43 228.565 1070.95 169.052 1097.85 161.044C1138.21 149.031 1204.38 295.178 1262.85 295.543C1321.31 295.908 1243.8 237.285 1243.17 206.697C1242.54 176.109 1399.06 327.849 1447.66 316.059C1496.26 304.269 1408.01 248.025 1313.59 168.565C1219.17 89.1044 1235.31 231.971 1204.88 204.936Z" fill="#4A3669"/>
<path d="M1025.8 43.8528C943.37 41.628 872.36 70.1608 861.123 86.4773C889.007 73.6429 938.616 80.2767 960.375 76.7822C1044.44 63.2807 1172.52 95.8522 1224.25 102.829C1218.4 99.5167 1138.21 46.8866 1025.8 43.8528Z" fill="#9770D7"/>
<ellipse cx="58.4648" cy="18.5513" rx="58.4648" ry="18.5513" transform="matrix(-0.994695 0.102866 0.102866 0.994695 1037.92 56.9528)" fill="#9770D7"/>
<circle cx="300" cy="300" r="300" transform="matrix(-0.969333 0.24575 0.24575 0.969333 807.295 165.151)" fill="#A0BCFD"/>
<path d="M744.385 283.232C771.843 254.813 653.731 195.934 586.971 207.597C482.255 225.892 398.482 269.827 323.585 356.903C162.442 544.249 115.658 847.032 157.353 840.588C199.048 834.144 244.346 597.762 269.658 624.358C294.97 650.953 279.161 710.669 319.354 690.163C367.817 665.437 382.564 443.051 408.668 415.8C434.772 388.549 394.852 491.517 451.592 487.449C508.332 483.38 469.231 394.256 517.561 340.738C565.891 287.219 526.135 439.664 573.537 398.761C620.938 357.858 590.739 320.122 606.631 285.144C622.522 250.166 710.062 318.756 744.385 283.232Z" fill="#7991C7"/>
<path d="M452.33 490.357C498.279 488.197 485.274 404.632 505.957 351.933C490.662 371.629 476.121 394.573 454.255 412.496C426.922 434.9 417.243 368.234 383.821 382.897C350.4 397.56 328.297 607.428 306.275 622.296C284.254 637.164 292.868 528.721 271.365 553.774C254.163 573.816 203.444 672.438 180.235 719.243C163.94 742.46 202.26 560.534 199.614 565.775C192.747 579.379 109.433 798.06 152.507 841.817C181.765 871.538 241.33 638.761 262.396 628.262C283.462 617.763 270.656 705.604 313.307 694.791C369.528 680.538 398.006 418.503 412.3 413.848C426.595 409.192 402.375 492.705 452.33 490.357Z" fill="#5D71AB"/>
<path d="M560.783 210.11C612.763 196.932 673.142 217.215 692.169 225.803C659.526 231.328 566.689 246.556 507.853 265.826C384.835 306.117 326.92 387.694 257.437 450.014C347.817 277.513 473.543 232.227 560.783 210.11Z" fill="#9AB9FF"/>
<ellipse cx="73.9138" cy="23.5" rx="73.9138" ry="23.5" transform="matrix(-0.921664 0.387988 0.387988 0.921664 558.146 228.316)" fill="#9AB9FF"/>
<ellipse cx="41" cy="50" rx="41" ry="50" transform="matrix(-0.991832 -0.127553 -0.127553 0.991832 186.25 883.357)" fill="#0087CB"/>
<circle cx="1000" cy="1000" r="700" fill="#5568A3"/>
<circle cx="1000" cy="1000" r="624" fill="#7991C7"/>
<circle cx="1000" cy="1000" r="619" stroke="white" stroke-opacity="0.5" stroke-width="10"/>
<g style="mix-blend-mode:multiply" opacity="0.3">
<path d="M1565 1415C1410 1625 1182 1700 1005 1700C504.5 1707.5 108.001 1160 397 646C415.999 672 500.002 1204 821.001 1386C1192 1582 1565 1415 1565 1415Z" fill="#3C4F9A"/>
</g>
<path d="M1307.82 1400H1244L1001.96 1031.95L756.302 1400H693L968.447 983.012L717.514 600H782.575L1002.99 936.905L1228.17 600H1289.2L1035.58 981.901L1307.82 1400Z" fill="white"/>
<path d="M753.506 958.648H1249.37V1004.15H753.506V958.648ZM753.506 1095.15H1249.47V1140.65H753.506V1095.15Z" fill="white"/>
<path d="M1792.19 1035C1752.19 1117 1667.87 1302.93 1736.19 1259C1792.19 1223 1815.7 1087 1885 1147C1950.23 1203.47 1674.11 1409.36 1736.19 1423C1798.28 1436.64 1805.5 1342.81 1861.5 1359C2066.31 1418.21 1513 1846.93 1029.82 1846.93C729.551 1846.93 248.89 1598.85 427.151 1571.97C484.091 1563.38 677.742 1715.92 711.357 1700.76C744.971 1685.59 542.577 1635.79 603.365 1584.32C664.153 1532.85 631.794 1629.32 1029.82 1667C1427.85 1704.68 1578.25 1100.95 1653 939C1725 783 1834.95 700.759 1861.5 710.5C1961 747 1826.39 964.895 1792.19 1035Z" fill="url(#paint0_linear_345_381)"/>
<path d="M156.843 1460.91C117.272 1535.34 226.256 1512.38 276.558 1525.68C315.471 1535.97 371.677 1550.83 371.677 1550.83C412.139 1571.01 376.411 1490.44 311.152 1455.75C245.893 1421.05 176.807 1423.36 156.843 1460.91Z" fill="#7991C7"/>
<circle cx="50" cy="50" r="50" transform="matrix(-0.979019 0.20377 0.20377 0.979019 254.5 1262.66)" fill="#7A92C8"/>
<ellipse cx="67.5424" cy="38" rx="67.5424" ry="38" transform="matrix(-0.62423 0.78124 0.78124 0.62423 1882.32 962)" fill="#5669A3"/>
<path d="M1372 1514C1484 1374 1664 881 1664 920C1664 1033.16 1526 1414 1372 1514Z" fill="#8DA7E1"/>
<ellipse cx="1583.76" cy="1225.53" rx="37.5977" ry="108.592" transform="rotate(21.4845 1583.76 1225.53)" fill="#8DA7E1"/>
<path d="M1750.55 1246.31C1735.05 1263.31 1711.72 1264.47 1711.05 1258.81C1709.55 1274.31 1742.31 1283.87 1759.55 1271.81C1784.55 1254.31 1797.25 1200.52 1825.55 1166.81C1849.05 1138.81 1857.39 1131.97 1863.05 1134.31C1818.55 1115.98 1782 1211.82 1750.55 1246.31Z" fill="#8DA7E1"/>
<path d="M1760.06 1421.92C1745.52 1425.41 1727.72 1417.59 1727.06 1411.92C1725.56 1427.42 1754.81 1451.49 1772.06 1439.42C1797.06 1421.92 1804.26 1419.63 1832.56 1385.92C1856.06 1357.92 1879.39 1366.59 1885.06 1368.92C1824.56 1322.42 1785.06 1415.92 1760.06 1421.92Z" fill="#8DA7E1"/>
<path d="M1279.43 772.14C1304.24 771.667 1366.97 749.829 1423.68 718.13M1525.62 629.231C1553.11 571.528 1583.66 456.447 1595.5 406.119C1598.66 446.458 1606.26 506.057 1619.22 564.158M1525.62 629.231C1471.19 637.976 1357.78 648.616 1339.63 621.213M1525.62 629.231C1515.38 650.724 1493.35 672.021 1466.27 691.355M1700.9 738.882C1767.6 780.075 1827.22 822.139 1848.69 838.021M1700.9 738.882C1662.9 715.412 1636.37 641.099 1619.22 564.158M1700.9 738.882C1706.49 776.264 1708.36 858.038 1671.08 886.077M1619.22 564.158C1653.82 585.996 1740.88 624.393 1812.3 603.271M1423.68 718.13C1403.37 761.531 1368.62 853.477 1392.1 874.051M1423.68 718.13C1438.56 709.814 1453.02 700.82 1466.27 691.355M1466.27 691.355C1480.78 733.838 1520.91 821.056 1565.35 830.058" stroke="#448733" stroke-width="10"/>
<path d="M1463.32 633.516C1466.97 627.487 1470.2 631.792 1471.35 634.698C1474.93 646.601 1482.27 672.075 1483.01 678.751C1483.95 687.097 1490.84 687.247 1491.27 684.287C1491.28 681.869 1493.88 677.326 1495.18 675.357C1496.49 679.151 1500.05 686.874 1503.77 687.422L1520.68 689.911C1528.72 691.093 1528.02 684.079 1528.58 680.273C1529.14 676.467 1531.82 672.973 1535.62 673.533C1539.43 674.093 1550.98 671.905 1546.16 669.467C1541.33 667.029 1544.37 664.019 1550.6 662.776C1556.83 661.533 1555.23 654.817 1551.91 653.896C1548.58 652.975 1556.35 647.205 1561.27 640.154C1566.2 633.103 1562.33 632.966 1555.14 631.908C1547.95 630.85 1548.75 628.375 1552.75 624.644C1556.76 620.914 1557.63 614.994 1554.37 613.65C1551.11 612.307 1571.21 604.896 1574.55 602.794C1577.88 600.693 1567.31 599.137 1570.17 594.374C1573.03 589.611 1575.57 589.984 1577.16 585.035C1578.75 580.085 1573.78 584.537 1569.55 583.915C1565.32 583.292 1574.91 573.903 1572.04 567C1569.16 560.098 1568.42 565.172 1573.59 556.429C1578.77 547.686 1574.05 547.425 1571.09 546.989C1568.13 546.554 1571.02 535.746 1569.89 531.692C1568.76 527.637 1564.25 534.751 1558.02 535.994C1551.79 537.237 1553.79 535.371 1550.3 532.697C1546.8 530.023 1541.82 537.497 1534.3 541.576C1526.79 545.654 1523.38 551.201 1519.47 548.464C1515.55 545.728 1532.09 536.066 1530.54 531.949C1528.98 527.832 1525.89 531.265 1522.39 528.59C1519.93 526.71 1519.06 520.28 1518.87 516.206C1518.95 515.656 1518.91 515.112 1518.82 514.673C1518.83 515.127 1518.84 515.644 1518.87 516.206C1518.64 517.703 1517.55 519.238 1514.33 518.764C1508.84 517.955 1512.74 509.026 1511.55 505.394C1510.35 501.763 1507.32 504.772 1503.09 504.15C1498.86 503.528 1500.39 499.001 1497.21 494.212C1494.03 489.424 1492.45 491.351 1489.6 493.092C1486.75 494.833 1483.17 483.938 1477.14 480.89C1471.11 477.843 1470.16 487.208 1466.76 489.732C1463.37 492.256 1471.02 498.998 1465.46 498.612C1459.9 498.226 1465.54 506.833 1463.59 511.297C1461.64 515.762 1461 508.325 1456.24 505.464C1451.48 502.603 1450.97 509.008 1447.26 513.647C1444.46 517.153 1445.33 518.937 1446.23 519.483C1444.27 518.458 1439.84 516.443 1436.55 515.959C1432.32 515.337 1433.89 516.431 1435.68 521.879C1437.47 527.326 1434.93 526.953 1432.4 526.58C1429.86 526.206 1434.78 533.843 1431.4 533.345C1428.02 532.848 1422.5 523.395 1417.17 524.34C1411.85 525.284 1421.69 528.892 1420.94 533.966C1422.31 539.352 1411.53 530.421 1405.61 529.55C1399.69 528.679 1402.31 551.961 1396.87 550.729C1391.44 549.497 1395.94 557.072 1395.01 563.415C1394.07 569.758 1394.01 570.18 1390.44 570.951C1386.87 571.722 1396.27 578.289 1397.58 584.098C1398.89 589.906 1391.83 584.98 1383.32 584.159C1374.8 583.337 1394.72 603.549 1388.91 604.854C1384.26 605.899 1384.18 608.622 1384.72 609.854C1385.78 610.442 1388.5 612.312 1390.86 615.078C1393.81 618.535 1383.82 621.818 1377.16 626.021C1371.82 629.384 1383.45 634.147 1389.93 636.109C1389.37 638.907 1387.19 644.692 1382.94 645.448C1378.68 646.204 1397.54 651.917 1407.5 654.679C1403.95 655.309 1398.76 657.713 1406.38 662.29C1415.9 668.012 1417.65 670.86 1421.31 675.288C1424.98 679.716 1436.61 674.083 1445.57 671.945C1452.73 670.234 1449.61 673.836 1455.11 674.645C1458.42 671.677 1458.83 661.108 1458.53 651.388C1458.16 639.237 1458.75 641.052 1463.32 633.516Z" fill="url(#paint1_linear_345_381)"/>
<path d="M1474.25 521.35C1481.58 535.31 1492.9 564.786 1478.81 589.716C1467.54 609.66 1466.98 625.415 1468.14 630.322" stroke="#61AB4F" stroke-width="3"/>
<path d="M1541.32 568.584C1547.3 579.937 1513.52 601.27 1502.08 621.519C1492.92 637.718 1469.07 608.246 1470.01 612.235" stroke="#61AB4F" stroke-width="3"/>
<path d="M1471.31 605.602C1467.75 604.081 1465.83 595.132 1455.06 578.748C1446.45 565.641 1415.23 575.185 1415.8 571.777" stroke="#61AB4F" stroke-width="3"/>
<path d="M1465.59 597.465C1462.04 595.944 1458 590.827 1438.76 594.571C1418.27 598.556 1407.66 588.581 1408.23 585.173" stroke="#61AB4F" stroke-width="3"/>
<path d="M1465.59 597.465C1462.04 595.944 1458 590.827 1438.76 594.571C1418.27 598.556 1407.66 588.581 1408.23 585.173" stroke="#61AB4F" stroke-width="3"/>
<path d="M1545.63 637.148C1542.07 635.627 1538.03 630.511 1518.79 634.255C1498.31 638.239 1487.69 628.265 1488.26 624.856" stroke="#61AB4F" stroke-width="3"/>
<path d="M1433.93 595.282C1430.67 603.091 1422.25 618.727 1414.75 618.805C1407.24 618.883 1403.32 619.054 1402.29 619.129" stroke="#61AB4F" stroke-width="3"/>
<path d="M1446.09 653.698C1440.91 646.353 1447.49 637.311 1442.69 630.176C1438.5 623.949 1434.44 620.443 1433.42 620.518" stroke="#61AB4F" stroke-width="3"/>
<path d="M1431.15 601.073C1427.88 608.882 1443.29 633.46 1422.27 640.24C1415.13 642.544 1433.4 662.241 1436.96 663.761" stroke="#61AB4F" stroke-width="3"/>
<path d="M1516.53 666.814C1509.15 662.661 1494.6 652.49 1495.39 645.025C1496.19 637.561 1496.47 633.642 1496.52 632.615" stroke="#61AB4F" stroke-width="3"/>
<path d="M1540.4 606.744C1532.3 609.204 1524.88 607.33 1524.04 614.79C1523.21 622.25 1515.73 634.016 1515.55 635.028" stroke="#61AB4F" stroke-width="3"/>
<path d="M1459.37 536.77C1462.45 544.656 1462.23 556.343 1456.89 561.615C1451.55 566.888 1453.87 575.141 1453.19 575.908" stroke="#61AB4F" stroke-width="3"/>
<path d="M1499.18 524.146C1502.25 532.032 1502.04 543.719 1496.7 548.991C1491.35 554.264 1486.06 565.168 1485.38 565.934" stroke="#61AB4F" stroke-width="3"/>
<path d="M1518.5 565.65C1521.57 573.535 1521.36 585.222 1516.01 590.495C1510.67 595.767 1510.19 610.222 1509.5 610.988" stroke="#61AB4F" stroke-width="3"/>
<path d="M194.464 990.867C186.755 986.19 192.265 982.067 195.983 980.59C211.213 976.025 243.807 966.657 252.349 965.708C263.025 964.523 263.223 955.709 259.437 955.149C256.344 955.134 250.535 951.807 248.017 950.145C252.871 948.467 262.754 943.922 263.458 939.163L266.656 917.527C268.176 907.25 259.202 908.134 254.334 907.415C249.465 906.695 244.997 903.271 245.717 898.403C246.437 893.535 243.648 878.753 240.524 884.923C237.401 891.094 233.554 887.209 231.969 879.237C230.384 871.265 221.791 873.311 220.61 877.558C219.43 881.805 212.055 871.871 203.039 865.564C194.022 859.257 193.844 864.205 192.484 873.4C191.125 882.595 187.96 881.574 183.19 876.448C178.421 871.321 170.849 870.202 169.127 874.369C167.406 878.536 157.943 852.818 155.257 848.552C152.572 844.286 150.573 857.808 144.482 854.144C138.391 850.48 138.871 847.235 132.54 845.194C126.209 843.153 131.9 849.521 131.101 854.93C130.301 860.339 118.298 848.063 109.465 851.732C100.632 855.4 107.123 856.36 95.9431 849.733C84.7632 843.105 84.4246 849.135 83.8649 852.921C83.3052 856.708 69.482 853.006 64.2942 854.45C59.1064 855.894 68.2027 861.66 69.7877 869.632C71.3727 877.605 68.9881 875.041 65.564 879.51C62.14 883.978 71.6972 890.365 76.9085 899.979C82.1198 909.592 89.2125 913.957 85.7085 918.966C82.2045 923.975 69.8582 902.805 64.5904 904.79C59.3226 906.775 63.7109 910.74 60.2868 915.208C57.8795 918.349 49.6532 919.464 44.4408 919.707C43.7378 919.602 43.041 919.646 42.4799 919.761C43.0608 919.757 43.7222 919.74 44.4408 919.707C46.3563 919.994 48.3183 921.393 47.71 925.508C46.6706 932.54 35.2508 927.536 30.6039 929.059C25.957 930.583 29.8043 934.468 29.0047 939.877C28.2051 945.286 22.4153 943.325 16.2868 947.393C10.1583 951.461 12.6228 953.484 14.8476 957.129C17.0723 960.774 3.13141 965.346 -0.772328 973.059C-4.67609 980.773 7.30333 981.991 10.5298 986.337C13.7563 990.683 22.387 980.905 21.8885 988.016C21.3899 995.127 32.4052 987.913 38.1151 990.415C43.8249 992.917 34.31 993.721 30.6461 999.812C26.9822 1005.9 35.1754 1006.56 41.1064 1011.31C45.5896 1014.89 47.8728 1013.78 48.5724 1012.63C47.2593 1015.13 44.6777 1020.8 44.0554 1025.01C43.2558 1030.42 44.6574 1028.41 51.6278 1026.13C58.5982 1023.84 58.1184 1027.09 57.6387 1030.33C57.1589 1033.58 66.9325 1027.28 66.2929 1031.61C65.6532 1035.94 53.5561 1042.99 54.7602 1049.8C55.9642 1056.61 60.5877 1044.03 67.0783 1044.99C73.9687 1043.25 62.5348 1057.03 61.4155 1064.61C60.2961 1072.18 90.0825 1068.84 88.5021 1075.79C86.9217 1082.75 96.6154 1076.99 104.729 1078.19C112.842 1079.39 113.383 1079.47 114.366 1084.04C115.349 1088.61 123.758 1076.59 131.19 1074.92C138.621 1073.25 132.314 1082.27 131.256 1093.17C130.197 1104.07 156.071 1078.6 157.736 1086.03C159.068 1091.97 162.552 1092.08 164.127 1091.4C164.882 1090.03 167.275 1086.56 170.816 1083.54C175.241 1079.78 179.432 1092.55 184.803 1101.08C189.1 1107.91 195.204 1093.04 197.719 1084.75C201.298 1085.47 208.697 1088.26 209.661 1093.71C210.624 1099.15 217.948 1075.03 221.49 1062.29C222.292 1066.83 225.363 1073.48 231.226 1063.73C238.554 1051.55 242.199 1049.32 247.866 1044.64C253.534 1039.95 246.338 1025.06 243.61 1013.61C241.427 1004.44 246.032 1008.44 247.071 1001.41C243.277 997.162 229.758 996.637 217.323 997.01C201.778 997.475 204.101 996.713 194.464 990.867Z" fill="url(#paint2_linear_345_381)"/>
<path d="M50.9844 976.789C68.8502 967.425 106.566 952.962 138.447 971.007C163.951 985.444 184.105 986.171 190.383 984.698" stroke="#61AB4F" stroke-width="3"/>
<path d="M111.467 891.023C125.994 883.389 153.257 926.615 179.151 941.272C199.866 952.997 162.143 983.486 167.246 982.282" stroke="#61AB4F" stroke-width="3"/>
<path d="M158.761 980.624C156.812 985.175 145.363 987.62 124.394 1001.38C107.619 1012.39 119.802 1052.33 115.443 1051.6" stroke="#61AB4F" stroke-width="3"/>
<path d="M148.348 987.924C146.399 992.475 139.851 997.633 144.624 1022.26C149.704 1048.46 136.934 1062.03 132.575 1061.3" stroke="#61AB4F" stroke-width="3"/>
<path d="M148.348 987.924C146.399 992.475 139.851 997.633 144.624 1022.26C149.704 1048.46 136.934 1062.03 132.575 1061.3" stroke="#61AB4F" stroke-width="3"/>
<path d="M199.18 885.574C197.232 890.126 190.683 895.283 195.456 919.906C200.536 946.112 187.766 959.68 183.407 958.95" stroke="#61AB4F" stroke-width="3"/>
<path d="M145.528 1028.42C155.514 1032.61 175.51 1043.39 175.604 1052.99C175.697 1062.59 175.912 1067.61 176.008 1068.92" stroke="#61AB4F" stroke-width="3"/>
<path d="M220.267 1012.93C210.867 1019.54 199.305 1011.11 190.173 1017.25C182.204 1022.61 177.715 1027.79 177.811 1029.11" stroke="#61AB4F" stroke-width="3"/>
<path d="M152.936 1031.99C162.922 1036.17 194.377 1016.49 203.032 1043.38C205.974 1052.52 231.186 1029.16 233.135 1024.61" stroke="#61AB4F" stroke-width="3"/>
<path d="M237.106 922.828C231.788 932.26 218.764 950.869 209.215 949.846C199.667 948.824 194.654 948.454 193.341 948.397" stroke="#61AB4F" stroke-width="3"/>
<path d="M160.28 892.242C163.421 902.605 161.018 912.089 170.56 913.167C180.102 914.245 195.148 923.817 196.442 924.047" stroke="#61AB4F" stroke-width="3"/>
<path d="M70.6987 995.833C80.7891 991.904 95.7393 992.188 102.48 999.028C109.22 1005.87 119.78 1002.9 120.76 1003.77" stroke="#61AB4F" stroke-width="3"/>
<path d="M54.5832 944.901C64.6736 940.971 79.6238 941.255 86.3642 948.096C93.1046 954.936 107.049 961.711 108.029 962.587" stroke="#61AB4F" stroke-width="3"/>
<path d="M107.692 920.222C117.782 916.293 132.732 916.577 139.473 923.417C146.213 930.257 164.704 930.892 165.684 931.768" stroke="#61AB4F" stroke-width="3"/>
<path d="M521.429 1348.35C514.96 1345.55 518.786 1341.77 521.508 1340.23C532.813 1335.06 557.052 1324.33 563.564 1322.68C571.705 1320.62 570.916 1313.77 567.925 1313.74C565.528 1314.06 560.674 1312.11 558.547 1311.09C562.126 1309.27 569.294 1304.7 569.33 1300.94L569.495 1283.84C569.573 1275.72 562.719 1277.36 558.872 1277.33C555.026 1277.29 551.2 1275.12 551.237 1271.27C551.274 1267.42 547.534 1256.27 545.775 1261.39C544.016 1266.5 540.622 1263.9 538.543 1257.9C536.463 1251.89 530.028 1254.39 529.568 1257.81C529.107 1261.22 522.335 1254.32 514.679 1250.4C507.023 1246.48 507.414 1250.33 507.344 1257.6C507.274 1264.86 504.713 1264.41 500.472 1260.95C496.231 1257.49 490.248 1257.43 489.36 1260.84C488.473 1264.25 478.396 1245.35 475.861 1242.33C473.325 1239.32 473.223 1250 468.114 1247.81C463.006 1245.63 463.031 1243.06 457.911 1242.16C452.79 1241.26 457.878 1245.58 457.837 1249.85C457.795 1254.13 447.189 1245.9 440.741 1249.69C434.293 1253.47 439.422 1253.52 430.056 1249.59C420.691 1245.65 421.073 1250.35 421.044 1253.35C421.015 1256.34 409.916 1254.95 406.053 1256.62C402.19 1258.29 409.85 1261.79 411.929 1267.79C414.009 1273.79 411.888 1272.06 409.714 1275.89C407.54 1279.72 415.623 1283.64 420.686 1290.53C425.749 1297.42 431.708 1300.04 429.53 1304.29C427.352 1308.54 415.529 1293.47 411.662 1295.57C407.795 1297.67 411.616 1300.27 409.442 1304.1C407.914 1306.79 401.663 1308.53 397.653 1309.27C397.097 1309.27 396.562 1309.38 396.14 1309.53C396.589 1309.46 397.1 1309.38 397.653 1309.27C399.167 1309.29 400.835 1310.17 400.804 1313.42C400.751 1318.97 391.373 1316.32 387.937 1318C384.502 1319.67 387.896 1322.27 387.855 1326.54C387.814 1330.82 383.121 1329.92 378.81 1333.72C374.499 1337.53 376.623 1338.83 378.736 1341.42C380.848 1344 370.541 1349.03 368.343 1355.42C366.144 1361.81 375.551 1361.47 378.513 1364.49C381.476 1367.51 387.115 1359.02 387.489 1364.58C387.862 1370.14 395.621 1363.38 400.31 1364.7C404.999 1366.03 397.717 1367.67 395.531 1372.78C393.344 1377.89 399.759 1377.52 404.859 1380.56C408.714 1382.86 410.363 1381.76 410.782 1380.79C410.033 1382.87 408.639 1387.53 408.607 1390.86C408.566 1395.13 409.437 1393.43 414.59 1390.91C419.744 1388.4 419.719 1390.96 419.694 1393.53C419.669 1396.09 426.565 1390.18 426.532 1393.59C426.499 1397.01 417.886 1403.77 419.546 1408.91C421.206 1414.06 423.442 1403.82 428.571 1403.87C433.72 1401.78 426.339 1413.68 426.281 1419.66C426.224 1425.65 448.933 1419.88 448.452 1425.43C447.971 1430.99 454.863 1425.5 461.274 1425.56C467.684 1425.62 468.112 1425.62 469.361 1429.06C470.61 1432.49 475.838 1422.28 481.414 1420.2C486.991 1418.11 483.07 1425.77 483.415 1434.32C483.76 1442.87 501.074 1420.38 503.157 1425.96C504.824 1430.42 507.534 1430.14 508.681 1429.43C509.119 1428.3 510.601 1425.35 513.02 1422.64C516.045 1419.25 520.656 1428.69 525.727 1434.73C529.783 1439.55 532.921 1427.39 533.983 1420.7C536.831 1420.87 542.858 1422.24 544.187 1426.36C545.515 1430.47 548.609 1411.01 549.99 1400.77C551.096 1404.2 554.184 1409.01 557.683 1400.84C562.055 1390.63 564.64 1388.51 568.528 1384.28C572.415 1380.04 565.253 1369.28 561.916 1360.7C559.247 1353.84 563.239 1356.44 563.293 1350.89C559.901 1348 549.376 1349.04 539.787 1350.66C527.799 1352.68 529.517 1351.84 521.429 1348.35Z" fill="url(#paint3_linear_345_381)"/>
<path d="M408.818 1352.78C421.652 1343.62 449.313 1328.39 475.928 1338.95C497.22 1347.41 512.904 1345.82 517.609 1344.01" stroke="#61AB4F" stroke-width="3"/>
<path d="M446.49 1279.9C456.923 1272.44 482.654 1303 504.272 1311.58C521.566 1318.44 495.612 1346.09 499.436 1344.61" stroke="#61AB4F" stroke-width="3"/>
<path d="M492.687 1344.23C491.665 1347.96 483.06 1351.08 468.293 1363.98C456.48 1374.29 470.183 1403.92 466.729 1403.82" stroke="#61AB4F" stroke-width="3"/>
<path d="M485.404 1350.99C484.381 1354.73 479.861 1359.42 486.188 1377.98C492.922 1397.73 484.484 1409.6 481.031 1409.5" stroke="#61AB4F" stroke-width="3"/>
<path d="M485.404 1350.99C484.381 1354.73 479.861 1359.42 486.188 1377.98C492.922 1397.73 484.484 1409.6 481.031 1409.5" stroke="#61AB4F" stroke-width="3"/>
<path d="M513.829 1266.31C512.807 1270.04 508.287 1274.73 514.614 1293.29C521.348 1313.04 512.91 1324.91 509.456 1324.81" stroke="#61AB4F" stroke-width="3"/>
<path d="M487.548 1382.66C495.729 1384.83 512.364 1391.04 513.463 1398.47C514.561 1405.89 515.264 1409.76 515.479 1410.76" stroke="#61AB4F" stroke-width="3"/>
<path d="M543.768 1362.67C537.196 1368.8 527.342 1363.51 520.927 1369.24C515.328 1374.24 512.406 1378.73 512.62 1379.74" stroke="#61AB4F" stroke-width="3"/>
<path d="M493.664 1384.63C501.845 1386.8 524.099 1368.2 533.674 1388.09C536.93 1394.86 553.956 1374.07 554.979 1370.34" stroke="#61AB4F" stroke-width="3"/>
<path d="M547.178 1291.1C544.068 1298.98 535.972 1314.78 528.468 1315.01C520.965 1315.23 517.043 1315.48 516.02 1315.58" stroke="#61AB4F" stroke-width="3"/>
<path d="M484.42 1275.63C487.959 1283.32 487.112 1290.92 494.616 1290.73C502.121 1290.55 514.794 1296.35 515.821 1296.39" stroke="#61AB4F" stroke-width="3"/>
<path d="M426.121 1365.42C433.514 1361.3 445.122 1359.92 451.072 1364.49C457.023 1369.07 464.883 1365.64 465.735 1366.22" stroke="#61AB4F" stroke-width="3"/>
<path d="M408.198 1327.7C415.592 1323.58 427.199 1322.2 433.15 1326.78C439.1 1331.35 450.622 1335.11 451.475 1335.68" stroke="#61AB4F" stroke-width="3"/>
<path d="M446.687 1302.91C454.08 1298.79 465.688 1297.42 471.638 1301.99C477.589 1306.57 491.975 1305.08 492.827 1305.66" stroke="#61AB4F" stroke-width="3"/>
<path d="M1781.12 604.895C1779.28 600.495 1782.92 600.449 1784.97 600.976C1792.9 603.768 1809.75 609.915 1813.69 612.17C1818.63 614.988 1821.45 611.283 1820.01 609.864C1818.69 608.894 1817.25 605.663 1816.69 604.169C1819.29 604.963 1824.93 606.099 1826.71 604.284L1834.81 596.032C1838.66 592.113 1834.55 589.696 1832.7 587.872C1830.84 586.048 1830 583.193 1831.82 581.337C1833.64 579.48 1837.06 572.293 1833.8 573.958C1830.54 575.623 1830.11 572.764 1831.91 568.863C1833.72 564.962 1829.41 563.16 1827.58 564.608C1825.75 566.055 1825.7 559.513 1823.81 554.009C1821.92 548.505 1820.3 550.564 1816.85 554.071C1813.41 557.578 1812.37 556.156 1811.93 552.479C1811.49 548.802 1808.6 545.966 1806.57 547.211C1804.54 548.456 1808.5 534.516 1808.68 531.856C1808.86 529.196 1803.8 534.353 1802.33 530.89C1800.87 527.427 1802.09 526.19 1800.02 523.346C1797.95 520.501 1798.4 524.996 1796.37 527.059C1794.34 529.121 1793.04 520.136 1788.12 518.953C1783.2 517.77 1785.68 520.202 1782.96 513.888C1780.25 507.573 1778.22 510.045 1776.81 511.489C1775.39 512.933 1770.63 507.046 1767.96 506.047C1765.3 505.048 1767.39 510.346 1765.58 514.247C1763.78 518.148 1763.56 516.31 1760.7 517.153C1757.85 517.997 1759.94 523.703 1759.18 529.436C1758.41 535.168 1760.08 539.242 1757.02 540.292C1753.97 541.342 1755.28 528.448 1752.41 527.656C1749.54 526.863 1750.18 529.925 1747.33 530.768C1745.32 531.361 1741.46 529.275 1739.16 527.756C1738.89 527.492 1738.58 527.294 1738.3 527.168C1738.55 527.348 1738.84 527.547 1739.16 527.756C1739.88 528.475 1740.29 529.684 1738.75 531.254C1736.11 533.936 1732.79 528.24 1730.33 527.444C1727.87 526.648 1728.3 529.507 1726.28 531.57C1724.25 533.633 1722.39 530.991 1718.5 530.821C1714.61 530.651 1715.04 532.284 1714.85 534.534C1714.67 536.785 1707.28 534.398 1703.21 536.479C1699.14 538.56 1703.88 542.811 1703.91 545.674C1703.93 548.536 1710.67 547.045 1708.24 549.929C1705.81 552.813 1712.77 553.16 1714.43 556.008C1716.09 558.856 1711.77 556.236 1708.31 557.698C1704.85 559.161 1708.14 561.994 1709.2 565.869C1710 568.799 1711.32 569.034 1711.98 568.759C1710.64 569.421 1707.77 571.038 1706.19 572.644C1704.17 574.707 1705.39 574.287 1709.08 575.481C1712.77 576.675 1711.56 577.912 1710.34 579.15C1709.13 580.388 1715.26 580.742 1713.64 582.392C1712.02 584.042 1704.65 583.29 1703.05 586.576C1701.44 589.862 1707.34 585.925 1709.81 588.356C1713.3 589.756 1704.12 592.088 1701.28 594.975C1698.45 597.863 1712.22 605.715 1709.37 608.194C1706.53 610.673 1712.47 611.234 1715.56 614.273C1718.66 617.313 1718.86 617.515 1717.86 619.774C1716.86 622.032 1724.2 619.512 1727.89 621.115C1731.59 622.717 1726.08 624.607 1722.24 628.936C1718.39 633.264 1737.38 630.436 1735.78 634.131C1734.5 637.087 1735.95 638.219 1736.84 638.416C1737.59 638.068 1739.69 637.327 1742.14 637.141C1745.21 636.91 1743.02 643.677 1742.66 648.996C1742.37 653.252 1749.61 648.798 1753.27 646.039C1754.57 647.458 1756.87 650.955 1755.58 653.584C1754.3 656.212 1764.94 648.184 1770.42 643.841C1769.35 646.032 1768.59 649.828 1774.14 647.488C1781.06 644.564 1783.31 644.748 1787.2 644.509C1791.08 644.27 1792.64 635.668 1795.04 629.921C1796.96 625.324 1797.68 628.466 1800.32 625.785C1800.02 622.789 1794.4 618.354 1788.97 614.64C1782.18 609.998 1783.41 610.396 1781.12 604.895Z" fill="url(#paint4_linear_345_381)"/>
<path d="M1724.17 554.192C1734.72 555.754 1755.35 561.318 1763.36 578.96C1769.76 593.074 1778.15 599.661 1781.29 600.987" stroke="#61AB4F" stroke-width="3"/>
<path d="M1776.73 536.37C1785.32 537.632 1783.51 564.598 1790.01 578.928C1795.22 590.391 1769.6 591.674 1772.15 592.749" stroke="#61AB4F" stroke-width="3"/>
<path d="M1769.04 589.398C1766.79 590.736 1761.14 588.215 1747.89 587.567C1737.29 587.048 1730.06 607.914 1728.42 606.245" stroke="#61AB4F" stroke-width="3"/>
<path d="M1762.32 589.274C1760.07 590.613 1755.66 590.777 1750.04 602.788C1744.04 615.571 1734.36 617.394 1732.73 615.724" stroke="#61AB4F" stroke-width="3"/>
<path d="M1762.32 589.274C1760.07 590.613 1755.66 590.777 1750.04 602.788C1744.04 615.571 1734.36 617.394 1732.73 615.724" stroke="#61AB4F" stroke-width="3"/>
<path d="M1815.92 561.36C1813.67 562.698 1809.27 562.863 1803.64 574.874C1797.65 587.657 1787.96 589.479 1786.33 587.81" stroke="#61AB4F" stroke-width="3"/>
<path d="M1748.5 605.707C1751.47 610.607 1756.66 621.44 1753.71 625.573C1750.76 629.707 1749.28 631.92 1748.92 632.51" stroke="#61AB4F" stroke-width="3"/>
<path d="M1785.27 622.36C1779.19 622.261 1776.88 615.057 1771.06 614.837C1765.99 614.646 1762.46 615.462 1762.09 616.052" stroke="#61AB4F" stroke-width="3"/>
<path d="M1750.56 609.537C1753.52 614.436 1773.1 615.82 1768.42 630.008C1766.83 634.832 1784.88 632.698 1787.13 631.36" stroke="#61AB4F" stroke-width="3"/>
<path d="M1820.53 589.094C1815.32 591.469 1803.96 595.367 1800.2 591.956C1796.43 588.545 1794.4 586.826 1793.86 586.392" stroke="#61AB4F" stroke-width="3"/>
<path d="M1797.22 552.094C1795.34 557.501 1791.35 560.807 1795.1 564.239C1798.84 567.672 1802.29 576.449 1802.77 576.951" stroke="#61AB4F" stroke-width="3"/>
<path d="M1726.67 568.471C1732.21 569.935 1738.51 574.712 1739.26 579.735C1740.01 584.758 1745.45 586.777 1745.59 587.457" stroke="#61AB4F" stroke-width="3"/>
<path d="M1735.64 541.683C1741.18 543.146 1747.48 547.924 1748.23 552.946C1748.98 557.969 1752.83 565.208 1752.98 565.888" stroke="#61AB4F" stroke-width="3"/>
<path d="M1766.03 547.675C1771.57 549.138 1777.87 553.916 1778.62 558.939C1779.37 563.962 1787.07 569.992 1787.22 570.671" stroke="#61AB4F" stroke-width="3"/>
<path d="M1572.8 408.387C1582.03 409.296 1578.75 415.566 1575.96 418.587C1563.88 429.586 1537.83 452.754 1530.33 457.428C1520.97 463.271 1524.7 471.528 1528.46 470.365C1531.33 469.004 1538.19 469.507 1541.27 469.928C1537.51 473.64 1530.37 482.245 1531.83 486.969L1538.48 508.443C1541.64 518.644 1549.57 513.836 1554.4 512.34C1559.23 510.844 1564.89 512.032 1566.39 516.863C1567.89 521.695 1577.04 534.157 1577.19 527.05C1577.35 519.943 1582.64 521.834 1587.65 528.519C1592.66 535.203 1599.72 529.488 1598.92 525.027C1598.13 520.566 1609.38 526.496 1620.54 528.335C1631.7 530.174 1629.67 525.509 1626.84 516.382C1624.01 507.256 1627.4 506.795 1634.1 509.427C1640.8 512.06 1648.31 509.732 1648.06 505.105C1647.8 500.477 1668 520.109 1672.39 522.87C1676.77 525.63 1672.62 512.209 1679.89 512.898C1687.16 513.587 1688.16 516.808 1694.93 515.887C1701.71 514.966 1693.6 511.592 1691.94 506.224C1690.28 500.855 1706.86 506.899 1713.42 499.574C1719.97 492.248 1713.53 494.243 1726.84 495.417C1740.15 496.591 1737.78 490.852 1736.62 487.094C1735.45 483.336 1749.91 480.624 1754.08 476.981C1758.24 473.337 1747.25 472.035 1742.24 465.35C1737.23 458.665 1740.57 459.981 1741.76 454.318C1742.95 448.655 1731.25 446.982 1722.15 440.388C1713.05 433.793 1704.54 432.899 1705.56 426.699C1706.58 420.5 1727.43 434.635 1731.43 430.454C1735.43 426.273 1729.6 424.549 1730.79 418.886C1731.63 414.904 1738.75 410.216 1743.48 407.674C1744.18 407.459 1744.8 407.108 1745.27 406.753C1744.73 407.014 1744.13 407.324 1743.48 407.674C1741.57 408.259 1739.13 407.834 1737.87 403.75C1735.71 396.771 1748.52 396.334 1752.15 392.857C1755.78 389.379 1750.48 387.488 1748.82 382.12C1747.16 376.751 1753.4 375.996 1757.27 369.502C1761.14 363.007 1757.96 362.228 1754.28 359.838C1750.6 357.449 1761.48 347.016 1761.68 338.132C1761.87 329.248 1750.22 333.442 1745.3 330.848C1740.38 328.254 1736.72 341.152 1734.03 334.339C1731.33 327.526 1724.32 339.109 1717.92 339.327C1711.52 339.545 1719.98 334.571 1720.67 327.298C1721.36 320.024 1713.47 323.055 1705.86 321.292C1700.11 319.959 1698.49 322.006 1698.36 323.385C1698.46 320.48 1698.34 314.082 1697.04 309.903C1695.38 304.535 1694.97 307.015 1689.53 312.231C1684.08 317.447 1683.08 314.226 1682.09 311.005C1681.09 307.784 1674.83 317.96 1673.5 313.665C1672.17 309.37 1680.24 297.455 1676.1 291.678C1671.96 285.901 1673.26 299.616 1666.82 301.611C1661.21 306.291 1665.68 288.432 1663.35 280.917C1661.03 273.401 1634.9 289.728 1633.28 282.582C1631.65 275.437 1625.22 285.076 1617.17 287.57C1609.12 290.064 1608.58 290.23 1605.64 286.433C1602.7 282.637 1600.25 297.517 1594.1 302.363C1587.95 307.21 1589.79 296.049 1585.93 285.478C1582.07 274.908 1569.4 310.011 1564.56 303.863C1560.68 298.944 1557.4 300.39 1556.25 301.729C1556.16 303.327 1555.48 307.614 1553.54 311.981C1551.11 317.439 1541.55 307.458 1532.78 301.937C1525.76 297.52 1526.71 314.014 1528.07 322.812C1524.43 323.741 1516.33 324.445 1513.02 319.823C1509.71 315.201 1513.64 340.812 1516.02 354.195C1513.25 350.344 1507.46 345.55 1506.35 357.188C1504.97 371.735 1502.58 375.417 1499.41 382.282C1496.25 389.147 1509.53 399.742 1517.15 409.149C1523.24 416.675 1517.2 415.016 1519.36 421.995C1524.76 424.244 1537.53 418.723 1548.89 412.851C1563.09 405.512 1561.27 407.251 1572.8 408.387Z" fill="url(#paint5_linear_345_381)"/>
<path d="M1712.05 357.673C1699.65 374.291 1671.12 404.457 1633.56 401.898C1603.5 399.852 1584.5 408.134 1579.33 412.289" stroke="#61AB4F" stroke-width="3"/>
<path d="M1694.1 464.043C1684.03 477.574 1639.55 449.625 1609.04 447.547C1584.63 445.885 1606.05 400.862 1601.85 404.245" stroke="#61AB4F" stroke-width="3"/>
<path d="M1610.45 402.015C1610.24 396.93 1619.76 389.577 1633.08 367.504C1643.74 349.845 1614.7 318.238 1619.06 316.977" stroke="#61AB4F" stroke-width="3"/>
<path d="M1616.86 390.622C1616.64 385.537 1620.42 377.847 1605.06 357.146C1588.7 335.114 1594.51 316.864 1598.87 315.603" stroke="#61AB4F" stroke-width="3"/>
<path d="M1616.86 390.622C1616.64 385.537 1620.42 377.847 1605.06 357.146C1588.7 335.114 1594.51 316.864 1598.87 315.603" stroke="#61AB4F" stroke-width="3"/>
<path d="M1615.23 508.072C1615.01 502.988 1618.79 495.297 1603.42 474.596C1587.07 452.564 1592.87 434.315 1597.24 433.054" stroke="#61AB4F" stroke-width="3"/>
<path d="M1601.48 351.831C1590.36 352.389 1567.04 351.289 1562.68 342.43C1558.33 333.571 1555.9 329.012 1555.23 327.839" stroke="#61AB4F" stroke-width="3"/>
<path d="M1539.09 399.405C1544.86 389.096 1559.32 391.77 1565.06 382.021C1570.06 373.513 1571.92 366.716 1571.25 365.544" stroke="#61AB4F" stroke-width="3"/>
<path d="M1593.03 351.82C1581.91 352.377 1561.5 384.598 1541.53 363.522C1534.74 356.357 1521.76 389.214 1521.97 394.299" stroke="#61AB4F" stroke-width="3"/>
<path d="M1563.52 490.398C1564.26 479.292 1568.06 456.257 1577.36 452.962C1586.67 449.666 1591.48 447.781 1592.72 447.251" stroke="#61AB4F" stroke-width="3"/>
<path d="M1648.32 484.609C1640.8 476.399 1638.82 466.541 1629.49 469.782C1620.17 473.024 1601.97 470.837 1600.67 471.199" stroke="#61AB4F" stroke-width="3"/>
<path d="M1685.32 348.783C1677.71 356.909 1663.73 363.29 1654.44 359.945C1645.15 356.6 1636.68 364.047 1635.39 363.67" stroke="#61AB4F" stroke-width="3"/>
<path d="M1722.89 388.83C1715.28 396.956 1701.3 403.336 1692.01 399.992C1682.72 396.647 1666.79 396.564 1665.49 396.187" stroke="#61AB4F" stroke-width="3"/>
<path d="M1684.63 435.305C1677.02 443.431 1663.04 449.812 1653.75 446.467C1644.47 443.123 1627.05 450.752 1625.75 450.375" stroke="#61AB4F" stroke-width="3"/>
<path d="M1268.19 567.258L1279.96 576.97L1275.83 615.615L1258.36 624.765C1256.74 625.615 1254.92 624.016 1255.56 622.298L1260.55 608.818L1253.8 603.278C1252.71 602.392 1252.85 600.698 1254.07 599.999L1263.43 594.596L1255.34 586.648C1254.31 585.634 1254.66 583.893 1256 583.361L1266.55 579.189L1264.94 569.117C1264.65 567.297 1266.77 566.085 1268.19 567.258Z" fill="#37446B"/>
<circle cx="1313.57" cy="602.902" r="45.3458" transform="rotate(11.4513 1313.57 602.902)" fill="#455689"/>
<path d="M1358.01 611.904C1353.04 636.45 1329.11 652.317 1304.57 647.345C1280.02 642.373 1264.15 618.444 1269.13 593.899C1269.13 593.899 1285.78 613.929 1310.33 618.901C1334.87 623.873 1358.01 611.904 1358.01 611.904Z" fill="#394875"/>
<path d="M1343.49 586.138C1341.93 593.841 1332.63 577.769 1319.21 575.051C1305.79 572.333 1291.8 582.453 1293.72 572.972C1294.92 567.046 1307.95 561.666 1321.37 564.384C1334.79 567.102 1345.65 575.472 1343.49 586.138Z" fill="#98B0F7"/>
<path d="M269.061 1064.23L258.211 1041.08L288.66 991.313L320.851 990.031C322.682 989.958 323.639 992.181 322.328 993.461L305.016 1010.36L311.239 1023.53C311.837 1024.79 310.985 1026.26 309.592 1026.38L291.963 1027.8L298.366 1045.23C298.865 1046.59 297.8 1048.01 296.356 1047.92L277.822 1046.69L272.792 1063.94C272.276 1065.71 269.844 1065.9 269.061 1064.23Z" fill="#37446B"/>
<circle cx="229.291" cy="984.291" r="68.0747" transform="rotate(-143.187 229.291 984.291)" fill="#455689"/>
<path d="M174.793 943.501C197.321 913.402 239.984 907.264 270.084 929.792C300.183 952.32 306.321 994.984 283.793 1025.08C283.793 1025.08 274.077 987.2 243.978 964.672C213.878 942.144 174.793 943.501 174.793 943.501Z" fill="#394875"/>
<path d="M177.921 987.792C184.991 978.345 187.274 1006.13 203.729 1018.45C220.183 1030.76 245.67 1026.03 236.968 1037.66C231.529 1044.92 210.393 1043.84 193.939 1031.53C177.484 1019.21 168.131 1000.87 177.921 987.792Z" fill="#98B0F7"/>
<path d="M1221.51 760.291L1236.2 764.42L1248.03 801.439L1235.75 816.867C1234.6 818.3 1232.3 817.572 1232.19 815.743L1231.31 801.394L1222.89 799.055C1221.54 798.681 1220.99 797.075 1221.81 795.947L1228.2 787.22L1217.58 783.219C1216.23 782.709 1215.85 780.974 1216.86 779.943L1224.83 771.866L1219.29 763.304C1218.28 761.757 1219.73 759.792 1221.51 760.291Z" fill="#54376B"/>
<circle cx="1277.42" cy="774.565" r="45.3458" transform="rotate(-12.3742 1277.42 774.565)" fill="#5F4589"/>
<path d="M1321.71 764.847C1327.07 789.309 1311.59 813.49 1287.13 818.857C1262.67 824.224 1238.49 808.744 1233.12 784.282C1233.12 784.282 1256.45 795.877 1280.91 790.51C1305.38 785.143 1321.71 764.847 1321.71 764.847Z" fill="#533975"/>
<path d="M1298.02 747.142C1299.7 754.819 1284.7 743.874 1271.33 746.808C1257.95 749.741 1249.24 764.651 1247.17 755.202C1245.87 749.297 1255.62 739.111 1268.99 736.177C1282.37 733.244 1295.68 736.512 1298.02 747.142Z" fill="#98B0F7"/>
<path d="M245.948 1202.76L263.176 1191.91L307.367 1211.91L311.589 1237.48C311.887 1239.29 309.8 1240.51 308.368 1239.37L293.334 1227.37L283.519 1233.59C282.338 1234.34 280.773 1233.68 280.489 1232.31L277.604 1218.39L264.337 1225.22C263.051 1225.89 261.508 1225.01 261.425 1223.56L260.563 1208.66L246.696 1206.43C244.876 1206.13 244.388 1203.74 245.948 1202.76Z" fill="#54376B"/>
<circle cx="307.06" cy="1162.21" r="56.5995" transform="rotate(-60.2846 307.06 1162.21)" fill="#5F4589"/>
<path d="M335.116 1113.06C362.264 1128.55 371.711 1163.12 356.216 1190.27C340.722 1217.42 306.152 1226.86 279.004 1211.37C279.004 1211.37 309.261 1199.46 324.756 1172.31C340.251 1145.16 335.116 1113.06 335.116 1113.06Z" fill="#533975"/>
<path d="M298.895 1120.19C307.415 1125.05 284.726 1129.79 276.255 1144.63C267.784 1159.47 274.308 1180.01 263.821 1174.03C257.267 1170.29 255.987 1152.74 264.457 1137.9C272.928 1123.06 287.097 1113.46 298.895 1120.19Z" fill="#98B0F7"/>
<path d="M577.698 1390.4L570.662 1376.58L590.098 1342.37L610.077 1340.92C611.905 1340.79 612.933 1342.98 611.664 1344.3L601.539 1354.84L605.591 1362.75C606.229 1363.99 605.426 1365.49 604.037 1365.65L593.122 1366.88L597.442 1377.57C597.985 1378.91 596.967 1380.37 595.521 1380.32L584.003 1379.93L581.418 1389.99C580.96 1391.78 578.535 1392.05 577.698 1390.4Z" fill="#54376B"/>
<circle cx="549.928" cy="1338.93" r="45.9083" transform="rotate(-145.043 549.928 1338.93)" fill="#5F4589"/>
<path d="M512.304 1312.63C526.831 1291.85 555.453 1286.78 576.233 1301.3C597.013 1315.83 602.082 1344.45 587.555 1365.23C587.555 1365.23 580.179 1339.91 559.399 1325.38C538.619 1310.86 512.304 1312.63 512.304 1312.63Z" fill="#533975"/>
<path d="M515.381 1342.41C519.94 1335.89 522.086 1354.57 533.446 1362.51C544.806 1370.45 561.881 1366.7 556.27 1374.73C552.762 1379.75 538.493 1379.48 527.133 1371.54C515.773 1363.6 509.068 1351.44 515.381 1342.41Z" fill="#98B0F7"/>
<path d="M1565.55 902.311L1564.49 887.088L1595.36 863.474L1614.03 869.846C1615.76 870.438 1615.85 872.856 1614.17 873.577L1600.95 879.235L1601.59 887.949C1601.69 889.344 1600.36 890.41 1599.02 890.012L1588.66 886.937L1588.46 898.281C1588.44 899.728 1586.93 900.671 1585.62 900.061L1575.33 895.281L1569.14 903.386C1568.02 904.851 1565.68 904.15 1565.55 902.311Z" fill="#54376B"/>
<circle cx="1560.16" cy="844.858" r="45.3458" transform="rotate(-122.058 1560.16 844.858)" fill="#5F4589"/>
<path d="M1536.09 806.427C1557.32 793.134 1585.3 799.565 1598.59 820.789C1611.89 842.014 1605.46 869.996 1584.23 883.289C1584.23 883.289 1587.29 857.418 1574 836.193C1560.7 814.968 1536.09 806.427 1536.09 806.427Z" fill="#533975"/>
<path d="M1527.4 834.697C1534.06 830.525 1528.81 848.337 1536.08 859.94C1543.34 871.543 1560.32 874.722 1552.12 879.857C1546.99 883.066 1534.12 877.32 1526.85 865.717C1519.59 854.114 1518.18 840.474 1527.4 834.697Z" fill="#98B0F7"/>
<path d="M1592.13 746.694L1602.94 735.915L1641 743.751L1648.42 762.023C1649.11 763.721 1647.35 765.375 1645.7 764.575L1632.76 758.303L1626.6 764.494C1625.61 765.484 1623.94 765.183 1623.36 763.91L1618.89 754.064L1610.19 761.354C1609.08 762.284 1607.39 761.765 1606.99 760.375L1603.85 749.471L1593.67 750.106C1591.83 750.22 1590.83 747.996 1592.13 746.694Z" fill="#54376B"/>
<circle cx="1631.99" cy="704.963" r="45.3458" transform="rotate(-73.0121 1631.99 704.963)" fill="#5F4589"/>
<path d="M1645.24 661.596C1669.19 668.913 1682.67 694.261 1675.36 718.212C1668.04 742.163 1642.69 755.647 1618.74 748.33C1618.74 748.33 1640.28 733.684 1647.6 709.733C1654.92 685.782 1645.24 661.596 1645.24 661.596Z" fill="#533975"/>
<path d="M1618.19 673.562C1625.71 675.859 1608.81 683.566 1604.81 696.66C1600.81 709.753 1609.54 724.655 1600.28 721.828C1594.5 720.062 1590.4 706.573 1594.4 693.48C1598.4 680.387 1607.78 670.382 1618.19 673.562Z" fill="#98B0F7"/>
<path d="M1873.86 879.446L1865.86 866.454L1882.24 831.211L1901.73 828.191C1903.54 827.911 1904.74 830.01 1903.58 831.431L1894.5 842.576L1899.11 850.001C1899.85 851.189 1899.17 852.747 1897.8 853.017L1887.19 855.106L1892.28 865.243C1892.93 866.536 1892.04 868.07 1890.59 868.139L1879.26 868.681L1877.53 878.735C1877.22 880.552 1874.83 881.015 1873.86 879.446Z" fill="#54376B"/>
<circle cx="1842.42" cy="831.061" r="45.3458" transform="rotate(-149.714 1842.42 831.061)" fill="#5F4589"/>
<path d="M1803.26 808.192C1815.89 786.566 1843.66 779.274 1865.29 791.904C1886.91 804.534 1894.2 832.303 1881.57 853.929C1881.57 853.929 1872.28 829.594 1850.65 816.964C1829.02 804.334 1803.26 808.192 1803.26 808.192Z" fill="#533975"/>
<path d="M1808.69 837.266C1812.65 830.479 1816.26 848.694 1828.09 855.599C1839.91 862.503 1856.42 857.441 1851.54 865.795C1848.49 871.016 1834.42 871.901 1822.6 864.996C1810.78 858.092 1803.2 846.664 1808.69 837.266Z" fill="#98B0F7"/>
<path d="M1346.77 926.928L1355.95 914.736L1394.74 917.14L1404.66 934.187C1405.58 935.771 1404.06 937.657 1402.32 937.097L1388.63 932.707L1383.4 939.703C1382.56 940.823 1380.86 940.759 1380.11 939.58L1374.29 930.461L1366.71 938.902C1365.75 939.979 1363.99 939.704 1363.4 938.383L1358.76 928.029L1348.77 930.089C1346.97 930.462 1345.66 928.4 1346.77 926.928Z" fill="#37446B"/>
<circle cx="1380.36" cy="880.005" r="45.3458" transform="rotate(-81.0978 1380.36 880.005)" fill="#455689"/>
<path d="M1387.38 835.206C1412.12 839.081 1429.04 862.28 1425.16 887.022C1421.29 911.765 1398.09 928.68 1373.35 924.805C1373.35 924.805 1392.62 907.274 1396.49 882.531C1400.37 857.789 1387.38 835.206 1387.38 835.206Z" fill="#394875"/>
<path d="M1362.29 850.858C1370.05 852.074 1354.41 862.081 1352.29 875.607C1350.17 889.133 1360.9 902.66 1351.35 901.163C1345.37 900.227 1339.42 887.449 1341.54 873.923C1343.66 860.397 1351.53 849.173 1362.29 850.858Z" fill="#98B0F7"/>
<path d="M1458.07 820.06L1454.25 805.284L1480.31 776.447L1499.82 779.315C1501.63 779.581 1502.16 781.942 1500.64 782.958L1488.67 790.927L1490.88 799.38C1491.24 800.733 1490.13 802.022 1488.74 801.875L1477.98 800.739L1479.86 811.928C1480.1 813.355 1478.79 814.556 1477.39 814.195L1466.4 811.368L1461.79 820.465C1460.95 822.109 1458.53 821.845 1458.07 820.06Z" fill="#37446B"/>
<circle cx="1442.31" cy="764.548" r="45.3458" transform="rotate(-132.545 1442.31 764.548)" fill="#455689"/>
<path d="M1411.64 731.14C1430.09 714.206 1458.78 715.436 1475.71 733.887C1492.65 752.337 1491.42 781.022 1472.97 797.956C1472.97 797.956 1471.27 771.961 1454.33 753.51C1437.4 735.059 1411.64 731.14 1411.64 731.14Z" fill="#394875"/>
<path d="M1408.24 760.519C1414.03 755.205 1412.11 773.675 1421.37 783.762C1430.62 793.848 1447.89 793.885 1440.76 800.426C1436.31 804.514 1422.61 801.207 1413.35 791.12C1404.09 781.034 1400.22 767.878 1408.24 760.519Z" fill="#98B0F7"/>
<path d="M1658.15 924.613L1667.33 912.421L1706.12 914.825L1716.04 931.872C1716.96 933.456 1715.44 935.342 1713.7 934.782L1700.01 930.392L1694.78 937.388C1693.94 938.508 1692.24 938.444 1691.49 937.265L1685.67 928.146L1678.09 936.587C1677.13 937.664 1675.37 937.389 1674.78 936.068L1670.14 925.714L1660.15 927.774C1658.35 928.147 1657.04 926.085 1658.15 924.613Z" fill="#37446B"/>
<circle cx="1691.74" cy="877.69" r="45.3458" transform="rotate(-81.0978 1691.74 877.69)" fill="#455689"/>
<path d="M1698.76 832.891C1723.5 836.766 1740.42 859.965 1736.54 884.707C1732.67 909.45 1709.47 926.365 1684.72 922.49C1684.72 922.49 1703.99 904.959 1707.87 880.216C1711.75 855.474 1698.76 832.891 1698.76 832.891Z" fill="#394875"/>
<path d="M1673.66 848.543C1681.43 849.759 1665.79 859.766 1663.67 873.292C1661.55 886.818 1672.28 900.345 1662.72 898.848C1656.75 897.912 1650.8 885.134 1652.92 871.608C1655.03 858.082 1662.91 846.858 1673.66 848.543Z" fill="#98B0F7"/>
<path d="M1872.54 645.538L1860.37 636.334L1862.86 597.548L1879.93 587.666C1881.51 586.748 1883.39 588.268 1882.83 590.012L1878.41 603.691L1885.4 608.94C1886.51 609.78 1886.45 611.478 1885.27 612.227L1876.14 618.022L1884.56 625.621C1885.64 626.59 1885.36 628.344 1884.04 628.933L1873.67 633.548L1875.71 643.542C1876.08 645.349 1874.01 646.649 1872.54 645.538Z" fill="#37446B"/>
<circle cx="1825.69" cy="611.85" r="45.3458" transform="rotate(-170.978 1825.69 611.85)" fill="#455689"/>
<path d="M1780.91 604.739C1784.84 580.005 1808.07 563.138 1832.8 567.065C1857.54 570.992 1874.41 594.227 1870.48 618.961C1870.48 618.961 1852.99 599.655 1828.25 595.727C1803.52 591.8 1780.91 604.739 1780.91 604.739Z" fill="#394875"/>
<path d="M1796.51 629.866C1797.74 622.103 1807.72 637.767 1821.24 639.914C1834.76 642.061 1848.31 631.357 1846.79 640.911C1845.84 646.882 1833.05 652.81 1819.53 650.663C1806.01 648.516 1794.8 640.614 1796.51 629.866Z" fill="#98B0F7"/>
</g>
<defs>
<linearGradient id="paint0_linear_345_381" x1="1487.56" y1="1091.81" x2="920.091" y2="1908.58" gradientUnits="userSpaceOnUse">
<stop stop-color="#5568A3"/>
<stop offset="1" stop-color="#7991C7"/>
</linearGradient>
<linearGradient id="paint1_linear_345_381" x1="1359.17" y1="575.835" x2="1546.93" y2="491.865" gradientUnits="userSpaceOnUse">
<stop stop-color="#385232"/>
<stop offset="1" stop-color="#448733"/>
</linearGradient>
<linearGradient id="paint2_linear_345_381" x1="120.587" y1="1124.05" x2="13.3267" y2="883.781" gradientUnits="userSpaceOnUse">
<stop stop-color="#385232"/>
<stop offset="1" stop-color="#448733"/>
</linearGradient>
<linearGradient id="paint3_linear_345_381" x1="478.454" y1="1459.37" x2="369.72" y2="1284.78" gradientUnits="userSpaceOnUse">
<stop stop-color="#385232"/>
<stop offset="1" stop-color="#448733"/>
</linearGradient>
<linearGradient id="paint4_linear_345_381" x1="1708.06" y1="638.812" x2="1737.05" y2="502.71" gradientUnits="userSpaceOnUse">
<stop stop-color="#385232"/>
<stop offset="1" stop-color="#448733"/>
</linearGradient>
<linearGradient id="paint5_linear_345_381" x1="1582.09" y1="252.114" x2="1788.28" y2="427.146" gradientUnits="userSpaceOnUse">
<stop stop-color="#385232"/>
<stop offset="1" stop-color="#448733"/>
</linearGradient>
<clipPath id="clip0_345_381">
<rect width="2000" height="2000" fill="white"/>
</clipPath>
</defs>
</svg>
