<svg width="2000" height="2000" viewBox="0 0 2000 2000" fill="none" xmlns="http://www.w3.org/2000/svg">
<g clip-path="url(#clip0_392_55)">
<path d="M119.593 792.7C-11.928 1056.34 219.04 1321.85 350.965 1421.64C729.005 1166.38 1609.77 768.505 1684 615.877C1802.78 371.642 1300.54 32.3639 853.307 190.26C466 327 283.994 463.148 119.593 792.7Z" fill="#CFE6FF"/>
<circle cx="498" cy="456" r="245" fill="url(#paint0_linear_392_55)"/>
<mask id="mask0_392_55" style="mask-type:alpha" maskUnits="userSpaceOnUse" x="713" y="386" width="1129" height="1456">
<path d="M1801 656.581C1637 340.581 1390.33 384.581 1241 392.581L713.001 1600.58C833.001 1635.25 965.002 1827.74 1241 1840.58C1585 1856.58 1967.16 1544.58 1801 1184.58C1705 976.58 1891.34 830.656 1801 656.581Z" fill="#E3B97B"/>
</mask>
<g mask="url(#mask0_392_55)">
<rect width="1269" height="1159" transform="matrix(-1 0 0 1 2098 255.581)" fill="#E3B97B"/>
<ellipse cx="6.34499" cy="5.79498" rx="6.34499" ry="5.79498" transform="matrix(-1 0 0 1 1610.71 587.632)" fill="#957259"/>
<ellipse cx="6.34499" cy="5.79498" rx="6.34499" ry="5.79498" transform="matrix(-1 0 0 1 1514.27 394.081)" fill="#957259"/>
<ellipse cx="6.34499" cy="5.79498" rx="6.34499" ry="5.79498" transform="matrix(-1 0 0 1 1742.68 687.306)" fill="#957259"/>
<ellipse cx="6.34499" cy="5.79498" rx="6.34499" ry="5.79498" transform="matrix(-1 0 0 1 1773.14 872.745)" fill="#957259"/>
<ellipse cx="6.34499" cy="5.79498" rx="6.34499" ry="5.79498" transform="matrix(-1 0 0 1 1260.46 599.223)" fill="#957259"/>
<ellipse cx="6.34499" cy="5.79498" rx="6.34499" ry="5.79498" transform="matrix(-1 0 0 1 1077.73 629.356)" fill="#957259"/>
<ellipse cx="6.34499" cy="5.79498" rx="6.34499" ry="5.79498" transform="matrix(-1 0 0 1 891.82 832.181)" fill="#957259"/>
<ellipse cx="6.34499" cy="5.79498" rx="6.34499" ry="5.79498" transform="matrix(-1 0 0 1 1435.59 849.565)" fill="#957259"/>
<ellipse cx="6.34499" cy="5.79498" rx="6.34499" ry="5.79498" transform="matrix(-1 0 0 1 1202.09 937.649)" fill="#957259"/>
<ellipse cx="6.34499" cy="5.79498" rx="6.34499" ry="5.79498" transform="matrix(-1 0 0 1 968.598 1025.73)" fill="#957259"/>
<ellipse cx="3.1725" cy="2.89749" rx="3.1725" ry="2.89749" transform="matrix(-1 0 0 1 1105.65 1037.32)" fill="#957259"/>
<ellipse cx="3.1725" cy="2.89749" rx="3.1725" ry="2.89749" transform="matrix(-1 0 0 1 1049.81 931.854)" fill="#957259"/>
<ellipse cx="3.1725" cy="2.89749" rx="3.1725" ry="2.89749" transform="matrix(-1 0 0 1 1118.34 581.837)" fill="#957259"/>
<ellipse cx="3.1725" cy="2.89749" rx="3.1725" ry="2.89749" transform="matrix(-1 0 0 1 1023.16 554.021)" fill="#957259"/>
<ellipse cx="3.1725" cy="2.89749" rx="3.1725" ry="2.89749" transform="matrix(-1 0 0 1 1257.29 405.67)" fill="#957259"/>
<ellipse cx="3.1725" cy="2.89749" rx="3.1725" ry="2.89749" transform="matrix(-1 0 0 1 1558.68 434.646)" fill="#957259"/>
<ellipse cx="3.1725" cy="2.89749" rx="3.1725" ry="2.89749" transform="matrix(-1 0 0 1 1819.46 493.754)" fill="#957259"/>
<ellipse cx="3.1725" cy="2.89749" rx="3.1725" ry="2.89749" transform="matrix(-1 0 0 1 1790.91 844.93)" fill="#957259"/>
<ellipse cx="3.1725" cy="2.89749" rx="3.1725" ry="2.89749" transform="matrix(-1 0 0 1 1732.53 993.281)" fill="#957259"/>
<ellipse cx="3.1725" cy="2.89749" rx="3.1725" ry="2.89749" transform="matrix(-1 0 0 1 1674.16 1141.63)" fill="#957259"/>
<ellipse cx="3.1725" cy="2.89749" rx="3.1725" ry="2.89749" transform="matrix(-1 0 0 1 1615.78 1289.98)" fill="#957259"/>
<ellipse cx="3.1725" cy="2.89749" rx="3.1725" ry="2.89749" transform="matrix(-1 0 0 1 1356.91 1094.11)" fill="#957259"/>
<ellipse cx="3.1725" cy="2.89749" rx="3.1725" ry="2.89749" transform="matrix(-1 0 0 1 1098.03 898.244)" fill="#957259"/>
<ellipse cx="3.1725" cy="2.89749" rx="3.1725" ry="2.89749" transform="matrix(-1 0 0 1 1016.82 640.946)" fill="#957259"/>
<ellipse cx="3.1725" cy="2.89749" rx="3.1725" ry="2.89749" transform="matrix(-1 0 0 1 1227.47 638.049)" fill="#957259"/>
<ellipse cx="3.1725" cy="2.89749" rx="3.1725" ry="2.89749" transform="matrix(-1 0 0 1 1438.12 635.151)" fill="#957259"/>
<ellipse cx="3.1725" cy="2.89749" rx="3.1725" ry="2.89749" transform="matrix(-1 0 0 1 1183.05 699.475)" fill="#957259"/>
<ellipse cx="3.1725" cy="2.89749" rx="3.1725" ry="2.89749" transform="matrix(-1 0 0 1 1221.12 861.156)" fill="#957259"/>
<ellipse cx="3.1725" cy="2.89749" rx="3.1725" ry="2.89749" transform="matrix(-1 0 0 1 1259.2 1022.83)" fill="#957259"/>
<ellipse cx="3.1725" cy="2.89749" rx="3.1725" ry="2.89749" transform="matrix(-1 0 0 1 1297.27 1184.52)" fill="#957259"/>
<ellipse cx="3.1725" cy="2.89749" rx="3.1725" ry="2.89749" transform="matrix(-1 0 0 1 1360.08 843.771)" fill="#957259"/>
<ellipse cx="3.1725" cy="2.89749" rx="3.1725" ry="2.89749" transform="matrix(-1 0 0 1 1501.57 850.724)" fill="#957259"/>
<ellipse cx="3.1725" cy="2.89749" rx="3.1725" ry="2.89749" transform="matrix(-1 0 0 1 1520.61 640.946)" fill="#957259"/>
<ellipse cx="3.1725" cy="2.89749" rx="3.1725" ry="2.89749" transform="matrix(-1 0 0 1 1438.12 788.139)" fill="#957259"/>
<ellipse cx="3.1725" cy="2.89749" rx="3.1725" ry="2.89749" transform="matrix(-1 0 0 1 1355.64 935.332)" fill="#957259"/>
<ellipse cx="3.1725" cy="2.89749" rx="3.1725" ry="2.89749" transform="matrix(-1 0 0 1 1273.16 1082.52)" fill="#957259"/>
<ellipse cx="3.1725" cy="2.89749" rx="3.1725" ry="2.89749" transform="matrix(-1 0 0 1 1526.95 1010.09)" fill="#957259"/>
<ellipse cx="3.1725" cy="2.89749" rx="3.1725" ry="2.89749" transform="matrix(-1 0 0 1 1541.55 1084.84)" fill="#957259"/>
<ellipse cx="3.1725" cy="2.89749" rx="3.1725" ry="2.89749" transform="matrix(-1 0 0 1 1780.75 937.649)" fill="#957259"/>
<ellipse cx="3.1725" cy="2.89749" rx="3.1725" ry="2.89749" transform="matrix(-1 0 0 1 1422.89 901.141)" fill="#957259"/>
<ellipse cx="3.1725" cy="2.89749" rx="3.1725" ry="2.89749" transform="matrix(-1 0 0 1 1416.55 464.2)" fill="#957259"/>
<ellipse cx="3.1725" cy="2.89749" rx="3.1725" ry="2.89749" transform="matrix(-1 0 0 1 877.863 646.741)" fill="#957259"/>
<ellipse cx="3.1725" cy="2.89749" rx="3.1725" ry="2.89749" transform="matrix(-1 0 0 1 891.82 734.825)" fill="#957259"/>
<ellipse cx="3.1725" cy="2.89749" rx="3.1725" ry="2.89749" transform="matrix(-1 0 0 1 1648.78 632.254)" fill="#957259"/>
<ellipse cx="3.1725" cy="2.89749" rx="3.1725" ry="2.89749" transform="matrix(-1 0 0 1 935.602 383.649)" fill="#957259"/>
<ellipse cx="3.1725" cy="2.89749" rx="3.1725" ry="2.89749" transform="matrix(-1 0 0 1 1315.03 576.043)" fill="#957259"/>
<ellipse cx="3.1725" cy="2.89749" rx="3.1725" ry="2.89749" transform="matrix(-1 0 0 1 1694.46 768.436)" fill="#957259"/>
<ellipse cx="3.1725" cy="2.89749" rx="3.1725" ry="2.89749" transform="matrix(-1 0 0 1 1797.25 1079.05)" fill="#957259"/>
<ellipse cx="3.1725" cy="2.89749" rx="3.1725" ry="2.89749" transform="matrix(-1 0 0 1 1658.93 1138.16)" fill="#957259"/>
<ellipse cx="3.1725" cy="2.89749" rx="3.1725" ry="2.89749" transform="matrix(-1 0 0 1 1520.61 1197.26)" fill="#957259"/>
<ellipse cx="3.1725" cy="2.89749" rx="3.1725" ry="2.89749" transform="matrix(-1 0 0 1 1161.48 1194.37)" fill="#957259"/>
<ellipse cx="3.1725" cy="2.89749" rx="3.1725" ry="2.89749" transform="matrix(-1 0 0 1 1049.81 1295.78)" fill="#957259"/>
<ellipse cx="3.1725" cy="2.89749" rx="3.1725" ry="2.89749" transform="matrix(-1 0 0 1 1294.09 1361.84)" fill="#957259"/>
<ellipse cx="3.1725" cy="2.89749" rx="3.1725" ry="2.89749" transform="matrix(-1 0 0 1 1327.72 1301.57)" fill="#957259"/>
<ellipse cx="3.1725" cy="2.89749" rx="3.1725" ry="2.89749" transform="matrix(-1 0 0 1 1538.38 1427.9)" fill="#957259"/>
<ellipse cx="3.1725" cy="2.89749" rx="3.1725" ry="2.89749" transform="matrix(-1 0 0 1 1233.81 1255.21)" fill="#957259"/>
<ellipse cx="3.1725" cy="2.89749" rx="3.1725" ry="2.89749" transform="matrix(-1 0 0 1 949.559 1237.83)" fill="#957259"/>
<ellipse cx="3.1725" cy="2.89749" rx="3.1725" ry="2.89749" transform="matrix(-1 0 0 1 894.992 1232.03)" fill="#957259"/>
<ellipse cx="3.1725" cy="2.89749" rx="3.1725" ry="2.89749" transform="matrix(-1 0 0 1 1714.13 1347.93)" fill="#957259"/>
<ellipse cx="3.1725" cy="2.89749" rx="3.1725" ry="2.89749" transform="matrix(-1 0 0 1 874.691 1012.98)" fill="#957259"/>
<ellipse cx="6.34499" cy="5.79498" rx="6.34499" ry="5.79498" transform="matrix(-1 0 0 1 1321.38 1134.68)" fill="#957259"/>
<ellipse cx="6.34499" cy="5.79498" rx="6.34499" ry="5.79498" transform="matrix(-1 0 0 1 1252.85 1336.34)" fill="#957259"/>
<ellipse cx="6.34499" cy="5.79498" rx="6.34499" ry="5.79498" transform="matrix(-1 0 0 1 1202.09 1278.39)" fill="#957259"/>
<ellipse cx="6.34499" cy="5.79498" rx="6.34499" ry="5.79498" transform="matrix(-1 0 0 1 1674.16 1243.62)" fill="#957259"/>
<ellipse cx="6.34499" cy="5.79498" rx="6.34499" ry="5.79498" transform="matrix(-1 0 0 1 1610.71 1099.91)" fill="#957259"/>
<ellipse cx="6.34499" cy="5.79498" rx="6.34499" ry="5.79498" transform="matrix(-1 0 0 1 1118.34 1192.63)" fill="#957259"/>
<ellipse cx="6.34499" cy="5.79498" rx="6.34499" ry="5.79498" transform="matrix(-1 0 0 1 922.91 1278.39)" fill="#957259"/>
<ellipse cx="6.34499" cy="5.79498" rx="6.34499" ry="5.79498" transform="matrix(-1 0 0 1 1785.83 1350.25)" fill="#957259"/>
<ellipse cx="6.34499" cy="5.79498" rx="6.34499" ry="5.79498" transform="matrix(-1 0 0 1 1016.82 388.286)" fill="#957259"/>
<rect width="1189.01" height="1044.38" transform="matrix(-1 0 0 1 1967 895.581)" fill="#E3B97B"/>
<ellipse cx="5.94503" cy="5.22191" rx="5.94503" ry="5.22191" transform="matrix(-1 0 0 1 1510.42 1194.8)" fill="#957259"/>
<ellipse cx="5.94503" cy="5.22191" rx="5.94503" ry="5.22191" transform="matrix(-1 0 0 1 1420.05 1020.38)" fill="#957259"/>
<ellipse cx="5.94503" cy="5.22191" rx="5.94503" ry="5.22191" transform="matrix(-1 0 0 1 1760.11 1086.18)" fill="#957259"/>
<ellipse cx="5.94503" cy="5.22191" rx="5.94503" ry="5.22191" transform="matrix(-1 0 0 1 1634.08 1284.61)" fill="#957259"/>
<ellipse cx="5.94503" cy="5.22191" rx="5.94503" ry="5.22191" transform="matrix(-1 0 0 1 1662.62 1451.71)" fill="#957259"/>
<ellipse cx="5.94503" cy="5.22191" rx="5.94503" ry="5.22191" transform="matrix(-1 0 0 1 1826.7 1625.08)" fill="#957259"/>
<ellipse cx="5.94503" cy="5.22191" rx="5.94503" ry="5.22191" transform="matrix(-1 0 0 1 1808.86 1832.91)" fill="#957259"/>
<ellipse cx="5.94503" cy="5.22191" rx="5.94503" ry="5.22191" transform="matrix(-1 0 0 1 1182.26 1205.24)" fill="#957259"/>
<ellipse cx="5.94503" cy="5.22191" rx="5.94503" ry="5.22191" transform="matrix(-1 0 0 1 1011.04 1232.39)" fill="#957259"/>
<ellipse cx="5.94503" cy="5.22191" rx="5.94503" ry="5.22191" transform="matrix(-1 0 0 1 836.852 1415.16)" fill="#957259"/>
<ellipse cx="5.94503" cy="5.22191" rx="5.94503" ry="5.22191" transform="matrix(-1 0 0 1 1346.34 1430.83)" fill="#957259"/>
<ellipse cx="5.94503" cy="5.22191" rx="5.94503" ry="5.22191" transform="matrix(-1 0 0 1 1127.56 1510.2)" fill="#957259"/>
<ellipse cx="5.94503" cy="5.22191" rx="5.94503" ry="5.22191" transform="matrix(-1 0 0 1 908.785 1589.57)" fill="#957259"/>
<ellipse cx="2.97252" cy="2.61095" rx="2.97252" ry="2.61095" transform="matrix(-1 0 0 1 1037.2 1600.02)" fill="#957259"/>
<ellipse cx="2.97252" cy="2.61095" rx="2.97252" ry="2.61095" transform="matrix(-1 0 0 1 984.879 1504.98)" fill="#957259"/>
<ellipse cx="2.97252" cy="2.61095" rx="2.97252" ry="2.61095" transform="matrix(-1 0 0 1 1049.09 1189.57)" fill="#957259"/>
<ellipse cx="2.97252" cy="2.61095" rx="2.97252" ry="2.61095" transform="matrix(-1 0 0 1 959.91 1164.51)" fill="#957259"/>
<ellipse cx="2.97252" cy="2.61095" rx="2.97252" ry="2.61095" transform="matrix(-1 0 0 1 896.895 1004.72)" fill="#957259"/>
<ellipse cx="2.97252" cy="2.61095" rx="2.97252" ry="2.61095" transform="matrix(-1 0 0 1 1179.29 1030.83)" fill="#957259"/>
<ellipse cx="2.97252" cy="2.61095" rx="2.97252" ry="2.61095" transform="matrix(-1 0 0 1 1461.67 1056.94)" fill="#957259"/>
<ellipse cx="2.97252" cy="2.61095" rx="2.97252" ry="2.61095" transform="matrix(-1 0 0 1 1706.01 1110.2)" fill="#957259"/>
<ellipse cx="2.97252" cy="2.61095" rx="2.97252" ry="2.61095" transform="matrix(-1 0 0 1 1843.34 1025.61)" fill="#957259"/>
<ellipse cx="2.97252" cy="2.61095" rx="2.97252" ry="2.61095" transform="matrix(-1 0 0 1 1788.65 1159.29)" fill="#957259"/>
<ellipse cx="2.97252" cy="2.61095" rx="2.97252" ry="2.61095" transform="matrix(-1 0 0 1 1733.96 1292.97)" fill="#957259"/>
<ellipse cx="2.97252" cy="2.61095" rx="2.97252" ry="2.61095" transform="matrix(-1 0 0 1 1679.26 1426.65)" fill="#957259"/>
<ellipse cx="2.97252" cy="2.61095" rx="2.97252" ry="2.61095" transform="matrix(-1 0 0 1 1624.57 1560.33)" fill="#957259"/>
<ellipse cx="2.97252" cy="2.61095" rx="2.97252" ry="2.61095" transform="matrix(-1 0 0 1 1569.88 1694.01)" fill="#957259"/>
<ellipse cx="2.97252" cy="2.61095" rx="2.97252" ry="2.61095" transform="matrix(-1 0 0 1 1515.18 1827.69)" fill="#957259"/>
<ellipse cx="2.97252" cy="2.61095" rx="2.97252" ry="2.61095" transform="matrix(-1 0 0 1 1272.62 1651.19)" fill="#957259"/>
<ellipse cx="2.97252" cy="2.61095" rx="2.97252" ry="2.61095" transform="matrix(-1 0 0 1 1030.06 1474.69)" fill="#957259"/>
<ellipse cx="2.97252" cy="2.61095" rx="2.97252" ry="2.61095" transform="matrix(-1 0 0 1 953.965 1242.84)" fill="#957259"/>
<ellipse cx="2.97252" cy="2.61095" rx="2.97252" ry="2.61095" transform="matrix(-1 0 0 1 1151.34 1240.23)" fill="#957259"/>
<ellipse cx="2.97252" cy="2.61095" rx="2.97252" ry="2.61095" transform="matrix(-1 0 0 1 1348.71 1237.62)" fill="#957259"/>
<ellipse cx="2.97252" cy="2.61095" rx="2.97252" ry="2.61095" transform="matrix(-1 0 0 1 1109.73 1295.58)" fill="#957259"/>
<ellipse cx="2.97252" cy="2.61095" rx="2.97252" ry="2.61095" transform="matrix(-1 0 0 1 1145.39 1441.27)" fill="#957259"/>
<ellipse cx="2.97252" cy="2.61095" rx="2.97252" ry="2.61095" transform="matrix(-1 0 0 1 1181.07 1586.96)" fill="#957259"/>
<ellipse cx="2.97252" cy="2.61095" rx="2.97252" ry="2.61095" transform="matrix(-1 0 0 1 1216.74 1732.65)" fill="#957259"/>
<ellipse cx="2.97252" cy="2.61095" rx="2.97252" ry="2.61095" transform="matrix(-1 0 0 1 1275.59 1425.6)" fill="#957259"/>
<ellipse cx="2.97252" cy="2.61095" rx="2.97252" ry="2.61095" transform="matrix(-1 0 0 1 1408.17 1431.87)" fill="#957259"/>
<ellipse cx="2.97252" cy="2.61095" rx="2.97252" ry="2.61095" transform="matrix(-1 0 0 1 1426 1242.84)" fill="#957259"/>
<ellipse cx="2.97252" cy="2.61095" rx="2.97252" ry="2.61095" transform="matrix(-1 0 0 1 1348.71 1375.47)" fill="#957259"/>
<ellipse cx="2.97252" cy="2.61095" rx="2.97252" ry="2.61095" transform="matrix(-1 0 0 1 1271.43 1508.11)" fill="#957259"/>
<ellipse cx="2.97252" cy="2.61095" rx="2.97252" ry="2.61095" transform="matrix(-1 0 0 1 1194.14 1640.75)" fill="#957259"/>
<ellipse cx="2.97252" cy="2.61095" rx="2.97252" ry="2.61095" transform="matrix(-1 0 0 1 1431.95 1575.47)" fill="#957259"/>
<ellipse cx="2.97252" cy="2.61095" rx="2.97252" ry="2.61095" transform="matrix(-1 0 0 1 1445.62 1642.83)" fill="#957259"/>
<ellipse cx="2.97252" cy="2.61095" rx="2.97252" ry="2.61095" transform="matrix(-1 0 0 1 1669.75 1510.2)" fill="#957259"/>
<ellipse cx="2.97252" cy="2.61095" rx="2.97252" ry="2.61095" transform="matrix(-1 0 0 1 1334.45 1477.3)" fill="#957259"/>
<ellipse cx="2.97252" cy="2.61095" rx="2.97252" ry="2.61095" transform="matrix(-1 0 0 1 1328.5 1083.57)" fill="#957259"/>
<ellipse cx="2.97252" cy="2.61095" rx="2.97252" ry="2.61095" transform="matrix(-1 0 0 1 1426 971.82)" fill="#957259"/>
<ellipse cx="2.97252" cy="2.61095" rx="2.97252" ry="2.61095" transform="matrix(-1 0 0 1 1188.2 966.598)" fill="#957259"/>
<ellipse cx="2.97252" cy="2.61095" rx="2.97252" ry="2.61095" transform="matrix(-1 0 0 1 1751.2 1036.05)" fill="#957259"/>
<ellipse cx="2.97252" cy="2.61095" rx="2.97252" ry="2.61095" transform="matrix(-1 0 0 1 1782.71 991.663)" fill="#957259"/>
<ellipse cx="2.97252" cy="2.61095" rx="2.97252" ry="2.61095" transform="matrix(-1 0 0 1 823.77 1248.06)" fill="#957259"/>
<ellipse cx="2.97252" cy="2.61095" rx="2.97252" ry="2.61095" transform="matrix(-1 0 0 1 836.852 1327.43)" fill="#957259"/>
<ellipse cx="2.97252" cy="2.61095" rx="2.97252" ry="2.61095" transform="matrix(-1 0 0 1 1546.09 1235)" fill="#957259"/>
<ellipse cx="2.97252" cy="2.61095" rx="2.97252" ry="2.61095" transform="matrix(-1 0 0 1 877.871 1010.98)" fill="#957259"/>
<ellipse cx="2.97252" cy="2.61095" rx="2.97252" ry="2.61095" transform="matrix(-1 0 0 1 1233.38 1184.35)" fill="#957259"/>
<ellipse cx="2.97252" cy="2.61095" rx="2.97252" ry="2.61095" transform="matrix(-1 0 0 1 1588.89 1357.72)" fill="#957259"/>
<ellipse cx="2.97252" cy="2.61095" rx="2.97252" ry="2.61095" transform="matrix(-1 0 0 1 1814.81 1584.35)" fill="#957259"/>
<ellipse cx="2.97252" cy="2.61095" rx="2.97252" ry="2.61095" transform="matrix(-1 0 0 1 1685.21 1637.61)" fill="#957259"/>
<ellipse cx="2.97252" cy="2.61095" rx="2.97252" ry="2.61095" transform="matrix(-1 0 0 1 1555.61 1690.88)" fill="#957259"/>
<ellipse cx="2.97252" cy="2.61095" rx="2.97252" ry="2.61095" transform="matrix(-1 0 0 1 1426 1744.14)" fill="#957259"/>
<ellipse cx="2.97252" cy="2.61095" rx="2.97252" ry="2.61095" transform="matrix(-1 0 0 1 1089.51 1741.53)" fill="#957259"/>
<ellipse cx="2.97252" cy="2.61095" rx="2.97252" ry="2.61095" transform="matrix(-1 0 0 1 984.879 1832.91)" fill="#957259"/>
<ellipse cx="2.97252" cy="2.61095" rx="2.97252" ry="2.61095" transform="matrix(-1 0 0 1 1245.27 1838.13)" fill="#957259"/>
<ellipse cx="2.97252" cy="2.61095" rx="2.97252" ry="2.61095" transform="matrix(-1 0 0 1 1157.29 1796.36)" fill="#957259"/>
<ellipse cx="2.97252" cy="2.61095" rx="2.97252" ry="2.61095" transform="matrix(-1 0 0 1 890.945 1780.69)" fill="#957259"/>
<ellipse cx="2.97252" cy="2.61095" rx="2.97252" ry="2.61095" transform="matrix(-1 0 0 1 839.82 1775.47)" fill="#957259"/>
<ellipse cx="2.97252" cy="2.61095" rx="2.97252" ry="2.61095" transform="matrix(-1 0 0 1 1814.81 1750.41)" fill="#957259"/>
<ellipse cx="2.97252" cy="2.61095" rx="2.97252" ry="2.61095" transform="matrix(-1 0 0 1 1791.62 1796.36)" fill="#957259"/>
<ellipse cx="2.97252" cy="2.61095" rx="2.97252" ry="2.61095" transform="matrix(-1 0 0 1 1763.08 1835.52)" fill="#957259"/>
<ellipse cx="2.97252" cy="2.61095" rx="2.97252" ry="2.61095" transform="matrix(-1 0 0 1 820.797 1578.08)" fill="#957259"/>
<ellipse cx="5.94503" cy="5.22191" rx="5.94503" ry="5.22191" transform="matrix(-1 0 0 1 1239.33 1687.74)" fill="#957259"/>
<ellipse cx="5.94503" cy="5.22191" rx="5.94503" ry="5.22191" transform="matrix(-1 0 0 1 1127.56 1817.25)" fill="#957259"/>
<ellipse cx="5.94503" cy="5.22191" rx="5.94503" ry="5.22191" transform="matrix(-1 0 0 1 1569.88 1785.92)" fill="#957259"/>
<ellipse cx="5.94503" cy="5.22191" rx="5.94503" ry="5.22191" transform="matrix(-1 0 0 1 1510.42 1656.41)" fill="#957259"/>
<ellipse cx="5.94503" cy="5.22191" rx="5.94503" ry="5.22191" transform="matrix(-1 0 0 1 1049.09 1739.96)" fill="#957259"/>
<ellipse cx="5.94503" cy="5.22191" rx="5.94503" ry="5.22191" transform="matrix(-1 0 0 1 865.977 1817.25)" fill="#957259"/>
<ellipse cx="5.94503" cy="5.22191" rx="5.94503" ry="5.22191" transform="matrix(-1 0 0 1 1115.67 994.275)" fill="#957259"/>
<ellipse cx="5.94503" cy="5.22191" rx="5.94503" ry="5.22191" transform="matrix(-1 0 0 1 953.965 1015.16)" fill="#957259"/>
</g>
<mask id="mask1_392_55" style="mask-type:alpha" maskUnits="userSpaceOnUse" x="1283" y="80" width="636" height="484">
<path d="M1700.79 183.681C1911.06 316.062 1901.04 436.459 1918.01 518.539C1914.48 519.884 1901.42 513.454 1890.38 521.521C1877.37 531.035 1872.18 549.164 1871.6 563.513C1860.83 555.771 1833.73 536.498 1811.59 521.338C1775.53 496.647 1718.45 478.952 1686.82 472.11C1685.58 467.538 1663.31 432.863 1598.27 390.88C1547.26 357.959 1492.43 334.419 1467.72 332.5C1455.2 318.866 1434.21 292.317 1392.96 259.628C1351.71 226.94 1318.3 216.743 1290.43 207.202C1290.3 204.223 1299.3 192.275 1296.72 166.197C1293.54 134.104 1289.89 118.595 1283.14 110.829C1344.32 86.7035 1455.46 29.2378 1700.79 183.681Z" fill="#D9D9D9"/>
</mask>
<g mask="url(#mask1_392_55)">
<path d="M1837.93 374.275C1847.65 421.126 1867.5 539.219 1876.21 592.41C1890.83 585.438 1922.7 566.098 1933.23 544.516C1943.76 522.934 1934.25 498.963 1928.18 489.675C1894.04 431.688 1828.21 327.425 1837.93 374.275Z" fill="white"/>
<path d="M1838.85 369.759C1852.58 447.651 1880.14 604.684 1880.53 609.681C1868.51 599.009 1830.89 568.089 1776.6 529.786C1722.3 491.483 1689.07 507.077 1679.25 519.661L1720.18 316.686C1717.89 310.369 1719.73 299.069 1745.39 304.408C1771.04 309.747 1818.39 350.2 1838.85 369.759Z" fill="#AC3030"/>
<path d="M1687.85 485.718L1721.92 310.345L1611.36 196.268L1452.21 346.375C1464.35 351.073 1498.49 362.91 1537.95 372.668C1577.4 382.425 1654.32 452.1 1687.85 485.718Z" fill="white"/>
<path d="M1435.66 367.456L1586.21 225.554L1434.99 149.713L1286.37 206.482C1282.84 211.111 1280.67 220.694 1300.24 221.998C1319.82 223.303 1398.68 319.513 1435.66 367.456Z" fill="#AC3030"/>
<path d="M1267.06 215.372L1430.82 156.607L1365.76 101.222L1255.13 104.875C1253.27 103.314 1259.25 112.083 1273.5 131.164C1287.75 150.245 1275.14 195.253 1267.06 215.372Z" fill="white"/>
</g>
<g style="mix-blend-mode:multiply">
<path d="M1700.79 183.681C1911.06 316.062 1901.04 436.459 1918.01 518.539C1914.48 519.884 1901.42 513.454 1890.38 521.521C1877.37 531.035 1872.18 549.164 1871.6 563.513C1860.83 555.771 1833.73 536.498 1811.59 521.338C1775.53 496.647 1718.45 478.952 1686.82 472.11C1685.58 467.538 1663.31 432.863 1598.27 390.88C1547.26 357.959 1492.43 334.419 1467.72 332.5C1455.2 318.866 1434.21 292.317 1392.96 259.628C1351.71 226.94 1318.3 216.743 1290.43 207.202C1290.3 204.223 1299.3 192.275 1296.72 166.197C1293.54 134.104 1289.89 118.595 1283.14 110.829C1344.32 86.7035 1455.46 29.2378 1700.79 183.681Z" fill="#6F6F6F"/>
</g>
<path d="M1297.42 825.972L1650.42 271.799L1642.83 220.202L1262.74 810.459L1297.42 825.972Z" fill="url(#paint1_linear_392_55)"/>
<mask id="mask2_392_55" style="mask-type:alpha" maskUnits="userSpaceOnUse" x="1283" y="80" width="636" height="439">
<path d="M1700.79 183.681C1911.06 316.062 1901.04 436.459 1918.01 518.539C1908.25 506.873 1879.31 451.736 1844.83 420.084C1808.92 387.12 1766.8 354.515 1739.68 358.818C1731.13 328.943 1660.61 283.32 1605.92 253.746C1525.18 210.092 1466.46 178.965 1432.93 176.383C1429.69 170.554 1407.38 153.248 1364.72 134.167C1318.16 113.347 1294.52 108.249 1283.14 110.829C1344.32 86.7035 1455.46 29.2377 1700.79 183.681Z" fill="#D9D9D9"/>
</mask>
<g mask="url(#mask2_392_55)">
<path d="M1803.55 235.588C1890.1 303.654 1930.93 468.817 1930.66 536.794L1905.4 536.925C1900.6 527.657 1880.88 495.503 1840.39 441.027C1799.9 386.551 1746.91 373.663 1726.95 364.005C1734.82 334.659 1732.12 298.79 1728.29 265.468C1713.96 140.75 1717 167.522 1803.55 235.588Z" fill="#AC3030"/>
<path d="M1742.78 269.83C1745.23 326.796 1744.6 358.829 1735.23 369.976L1588.8 269.981C1532.08 243.705 1420.65 188.649 1428.63 178.635C1436.62 168.622 1554.87 131.934 1611.3 111.893L1736.36 167.823C1740.43 179.137 1740.45 215.819 1742.78 269.83Z" fill="white"/>
<path d="M1419.59 181.711L1605.2 115.737C1587.9 96.8618 1538.34 54.8335 1478.51 37.7185C1418.68 20.6035 1312.96 73.9558 1267.57 102.771C1284.88 111.425 1326.78 130.566 1355.93 137.904C1385.07 145.241 1410.51 170.166 1419.59 181.711Z" fill="#AC3030"/>
</g>
<path d="M854.692 1507.12C1009.9 1542.24 1217.94 1536.78 1489.7 1495.83C1383.34 1599.38 1231.32 1730.63 828.41 1794.9C392.184 1864.49 20.832 1485.5 138.992 1377.62C196.856 1324.79 249.425 1438.31 366.297 1486.12C497.61 1539.83 78.8133 1207.21 207.286 1119.08C323.86 1039.12 605.832 1450.79 854.692 1507.12Z" fill="#3372BC"/>
<circle cx="1000" cy="1000" r="700" fill="#FBDD11"/>
<circle cx="1000" cy="1000" r="624" fill="#4E4E4E"/>
<g style="mix-blend-mode:multiply" opacity="0.3">
<path d="M1565 1415C1410 1625 1182 1700 1005 1700C504.5 1707.5 108.001 1160 397 646C415.999 672 500.002 1204 821.001 1386C1192 1582 1565 1415 1565 1415Z" fill="#3C4F9A"/>
</g>
<path d="M1248.27 1293.65C894.927 1338.21 732.221 1026.48 761.065 996.079C780.108 975.984 809.765 974.817 835.41 974.107C953.53 970.91 1120.81 1109.09 1154.68 1108.43C1220.39 1107.06 1319.16 1002.47 1383.91 916.257C1411.03 880.177 1580.34 825.828 1561.55 920.621C1500.71 1227.94 1293.32 1287.97 1248.27 1293.65ZM751.823 705.359C1105.17 660.754 1267.87 972.483 1238.98 1002.93C1219.93 1023.03 1190.33 1024.19 1164.63 1024.9C1046.51 1028.1 879.286 889.869 845.364 890.58C779.702 891.95 680.88 996.536 616.081 1082.75C589.014 1118.83 419.706 1173.18 438.444 1078.44C499.332 771.074 706.779 711.042 751.823 705.359Z" fill="#FBDD11"/>
<mask id="mask3_392_55" style="mask-type:alpha" maskUnits="userSpaceOnUse" x="1424" y="1387" width="432" height="429">
<path d="M1855.5 1601.24C1855.5 1719.29 1759.02 1814.99 1640 1814.99C1520.98 1814.99 1424.5 1719.29 1424.5 1601.24C1424.5 1483.2 1520.98 1387.5 1640 1387.5C1759.02 1387.5 1855.5 1483.2 1855.5 1601.24Z" fill="#D9D9D9" stroke="black"/>
</mask>
<g mask="url(#mask3_392_55)">
<path d="M1806.83 1421.24C1794.54 1416.85 1697.95 1458.12 1693.56 1462.51V1486.22C1726.93 1503.78 1800.68 1541.71 1828.78 1552.95C1856.88 1564.19 1876.2 1545.34 1882.34 1534.51C1861.27 1498.22 1816.66 1424.76 1806.83 1421.24Z" fill="#E6EEF2"/>
<g filter="url(#filter0_i_392_55)">
<path d="M1581.17 1393.15C1617 1403.68 1661.66 1451.39 1679.51 1473.93V1487.1L1571.51 1523.98L1416.98 1659.19L1376.59 1622.32L1451.22 1447.59C1479.61 1425.05 1545.35 1382.61 1581.17 1393.15Z" fill="#DF2D2D"/>
</g>
<g filter="url(#filter1_i_392_55)">
<path d="M1664.59 1472.17L1536.39 1390.51C1555.71 1385.54 1605.58 1374.36 1650.54 1369.44C1695.49 1364.52 1772.29 1381.44 1805.07 1390.51C1814.73 1410.71 1828.25 1448.29 1805.07 1437.05C1781.89 1425.81 1730.44 1452.85 1707.61 1467.78L1664.59 1472.17Z" fill="#4784BC"/>
</g>
<g filter="url(#filter2_i_392_55)">
<path d="M1432.78 1588.07C1479.84 1513.61 1616 1489.73 1675.12 1485.34C1671.32 1512.56 1657.91 1579.64 1634.73 1630.22C1611.55 1680.8 1564.78 1774.22 1544.29 1814.61L1438.93 1734.71C1419.32 1718.02 1385.72 1662.53 1432.78 1588.07Z" fill="#E6EEF2"/>
</g>
<g filter="url(#filter3_i_392_55)">
<path d="M1754.15 1650.42C1746.63 1594.91 1731.32 1542.42 1714.64 1513.44C1700.88 1510.81 1681.62 1503.08 1714.64 1493.24C1747.65 1483.41 1822.93 1515.78 1855.12 1532.76C1858.64 1563.2 1859.34 1636.54 1844.59 1689.93C1829.84 1743.31 1767.03 1784.17 1740.98 1797.93C1754.15 1761.93 1765.56 1734.71 1754.15 1650.42Z" fill="#4784BC"/>
</g>
<g filter="url(#filter4_i_392_55)">
<path d="M1553.07 1707.49C1573.27 1595.1 1627.71 1535.39 1663.71 1496.76L1694.44 1481.83C1699.71 1484.46 1717.44 1508.35 1746.24 1582.8C1775.04 1657.26 1758.24 1759.59 1746.24 1801.44C1739.51 1809.93 1713.58 1829.01 1663.71 1837.44C1613.83 1845.87 1569.17 1836.85 1553.07 1831.29C1552.19 1821.63 1539.65 1782.18 1553.07 1707.49Z" fill="#DF2D2D"/>
</g>
<g filter="url(#filter5_d_392_55)">
<ellipse cx="1688.73" cy="1488.42" rx="40.8293" ry="32.9268" fill="#E6EEF2"/>
</g>
</g>
<path d="M965.649 1618.01C1153.57 1612.57 1219.14 1592.68 1413.43 1560.94C1284.19 1720.95 985.456 1890.25 596.459 1876.64C371.435 1868.77 80.9535 1628.06 195.079 1540.25C299.548 1459.86 472.055 1714.97 589.845 1664.71C692.86 1620.76 445.611 1574.63 534.244 1506.43C637.115 1427.28 741.421 1624.49 965.649 1618.01Z" fill="#418FE8"/>
<g filter="url(#filter6_d_392_55)">
<path d="M952.093 339.468H1250.09C1255.09 327.968 1261.69 311.868 1244.09 289.468C1226.49 267.068 1196.43 259.135 1181.09 262.468C1181.76 245.801 1164.09 209.468 1115.09 214.468C1079.32 218.118 1069.43 244.135 1070.09 271.468C1069.43 264.135 1058.11 245.462 1034.09 254.468C1010.09 263.468 1008.09 284.135 1010.09 299.468C1007.43 294.135 1000.89 284.668 972.094 289.468C950.095 293.135 944.76 324.801 952.093 339.468Z" fill="#EAF4FF"/>
</g>
<g filter="url(#filter7_d_392_55)">
<path d="M71.3305 812H295.873C299.642 803.293 304.614 791.102 291.352 774.142C278.09 757.181 255.435 751.174 243.882 753.698C244.384 741.079 231.072 713.569 194.151 717.354C167.198 720.118 159.741 739.817 160.243 760.513C159.741 754.96 151.215 740.822 133.118 747.641C115.034 754.456 113.526 770.104 115.033 781.713C113.024 777.675 108.102 770.507 86.4011 774.142C69.8253 776.918 65.8048 800.895 71.3305 812Z" fill="#EAF4FF"/>
</g>
<path d="M745.062 235C826.062 233.667 990.062 235 1002.06 235C996.729 226.333 1002.06 206 963.062 206C941.522 206 942.062 197.5 928.062 192.5C916.342 188.314 896.062 193.167 888.062 200.5C891.729 194.167 881.525 177 848.562 177C809.562 177 809.562 189.5 809.562 206C795.562 187 771.053 186.03 755.562 200.5C745.271 210.113 739.729 226.667 745.062 235Z" fill="white"/>
<path d="M924.349 1634.33C932.345 1627.17 945.052 1630.48 948.541 1640.63L966.281 1692.24C967.453 1695.65 969.813 1698.52 972.93 1700.33L1020.12 1727.75C1029.4 1733.14 1030.18 1746.25 1021.6 1752.7L978.001 1785.52C975.12 1787.69 973.117 1790.82 972.358 1794.35L960.865 1847.69C958.604 1858.18 946.379 1862.98 937.591 1856.82L892.904 1825.49C889.952 1823.42 886.354 1822.49 882.767 1822.85L828.478 1828.41C817.802 1829.5 809.466 1819.35 812.609 1809.09L828.592 1756.91C829.648 1753.47 829.427 1749.75 827.97 1746.46L805.911 1696.54C801.573 1686.73 808.646 1675.66 819.377 1675.48L873.941 1674.56C877.546 1674.5 881.008 1673.14 883.694 1670.73L924.349 1634.33Z" fill="url(#paint2_radial_392_55)"/>
<circle cx="909.148" cy="1744.47" r="10.7717" transform="rotate(14.594 909.148 1744.47)" fill="white"/>
<circle cx="917.828" cy="1711.11" r="8.61734" transform="rotate(14.594 917.828 1711.11)" fill="white"/>
<circle cx="883.625" cy="1735.6" r="8.61734" transform="rotate(14.594 883.625 1735.6)" fill="white"/>
<circle cx="888.035" cy="1765.69" r="8.61734" transform="rotate(14.594 888.035 1765.69)" fill="white"/>
<circle cx="936.016" cy="1748.13" r="8.61734" transform="rotate(14.594 936.016 1748.13)" fill="white"/>
<circle cx="919.309" cy="1773.83" r="8.61734" transform="rotate(14.594 919.309 1773.83)" fill="white"/>
<circle cx="924.884" cy="1684.01" r="6.46301" transform="rotate(14.594 924.884 1684.01)" fill="white"/>
<circle cx="863.634" cy="1722.61" r="6.46301" transform="rotate(14.594 863.634 1722.61)" fill="white"/>
<circle cx="849.627" cy="1712.28" r="4.30867" transform="rotate(14.594 849.627 1712.28)" fill="white"/>
<circle cx="975.803" cy="1740.68" r="4.30867" transform="rotate(14.594 975.803 1740.68)" fill="white"/>
<circle cx="939.811" cy="1814.79" r="4.30867" transform="rotate(14.594 939.811 1814.79)" fill="white"/>
<circle cx="929.502" cy="1666.29" r="4.30867" transform="rotate(14.594 929.502 1666.29)" fill="white"/>
<circle cx="850.166" cy="1791.45" r="4.30867" transform="rotate(14.594 850.166 1791.45)" fill="white"/>
<circle cx="868.556" cy="1780.66" r="6.46301" transform="rotate(14.594 868.556 1780.66)" fill="white"/>
<circle cx="957.45" cy="1747.03" r="6.46301" transform="rotate(14.594 957.45 1747.03)" fill="white"/>
<circle cx="931.103" cy="1796.94" r="6.46301" transform="rotate(14.594 931.103 1796.94)" fill="white"/>
<path d="M645.619 1717.05C653.614 1709.89 666.322 1713.2 669.811 1723.35L677.612 1746.04C678.784 1749.45 681.145 1752.33 684.262 1754.14L705.013 1766.19C714.292 1771.58 715.072 1784.69 706.498 1791.15L687.323 1805.58C684.443 1807.75 682.44 1810.88 681.681 1814.41L676.626 1837.87C674.366 1848.36 662.141 1853.15 653.353 1846.99L633.701 1833.21C630.749 1831.15 627.15 1830.21 623.564 1830.58L599.689 1833.02C589.013 1834.11 580.677 1823.96 583.82 1813.7L590.849 1790.76C591.905 1787.31 591.684 1783.6 590.227 1780.3L580.526 1758.35C576.188 1748.53 583.261 1737.47 593.992 1737.29L617.988 1736.88C621.592 1736.82 625.054 1735.46 627.74 1733.06L645.619 1717.05Z" fill="url(#paint3_radial_392_55)"/>
<circle cx="642.253" cy="1780.94" r="6.79287" transform="rotate(14.594 642.253 1780.94)" fill="white"/>
<circle cx="647.73" cy="1759.9" r="5.4343" transform="rotate(14.594 647.73 1759.9)" fill="white"/>
<circle cx="626.159" cy="1775.34" r="5.4343" transform="rotate(14.594 626.159 1775.34)" fill="white"/>
<circle cx="628.94" cy="1794.32" r="5.4343" transform="rotate(14.594 628.94 1794.32)" fill="white"/>
<circle cx="659.198" cy="1783.24" r="5.4343" transform="rotate(14.594 659.198 1783.24)" fill="white"/>
<circle cx="648.663" cy="1799.45" r="5.4343" transform="rotate(14.594 648.663 1799.45)" fill="white"/>
<circle cx="652.179" cy="1742.81" r="4.07572" transform="rotate(14.594 652.179 1742.81)" fill="white"/>
<circle cx="613.55" cy="1767.15" r="4.07572" transform="rotate(14.594 613.55 1767.15)" fill="white"/>
<circle cx="604.718" cy="1760.63" r="2.71715" transform="rotate(14.594 604.718 1760.63)" fill="white"/>
<circle cx="684.289" cy="1778.54" r="2.71715" transform="rotate(14.594 684.289 1778.54)" fill="white"/>
<circle cx="661.589" cy="1825.28" r="2.71715" transform="rotate(14.594 661.589 1825.28)" fill="white"/>
<circle cx="655.089" cy="1731.63" r="2.71715" transform="rotate(14.594 655.089 1731.63)" fill="white"/>
<circle cx="605.058" cy="1810.56" r="2.71715" transform="rotate(14.594 605.058 1810.56)" fill="white"/>
<circle cx="616.656" cy="1803.75" r="4.07572" transform="rotate(14.594 616.656 1803.75)" fill="white"/>
<circle cx="672.714" cy="1782.55" r="4.07572" transform="rotate(14.594 672.714 1782.55)" fill="white"/>
<circle cx="656.101" cy="1814.02" r="4.07572" transform="rotate(14.594 656.101 1814.02)" fill="white"/>
</g>
<defs>
<filter id="filter0_i_392_55" x="1376.59" y="1391.49" width="322.926" height="275.701" filterUnits="userSpaceOnUse" color-interpolation-filters="sRGB">
<feFlood flood-opacity="0" result="BackgroundImageFix"/>
<feBlend mode="normal" in="SourceGraphic" in2="BackgroundImageFix" result="shape"/>
<feColorMatrix in="SourceAlpha" type="matrix" values="0 0 0 0 0 0 0 0 0 0 0 0 0 0 0 0 0 0 127 0" result="hardAlpha"/>
<feOffset dx="20" dy="8"/>
<feGaussianBlur stdDeviation="10"/>
<feComposite in2="hardAlpha" operator="arithmetic" k2="-1" k3="1"/>
<feColorMatrix type="matrix" values="0 0 0 0 0 0 0 0 0 0 0 0 0 0 0 0 0 0 0.25 0"/>
<feBlend mode="normal" in2="shape" result="effect1_innerShadow_392_55"/>
</filter>
<filter id="filter1_i_392_55" x="1536.39" y="1368.56" width="289.48" height="111.61" filterUnits="userSpaceOnUse" color-interpolation-filters="sRGB">
<feFlood flood-opacity="0" result="BackgroundImageFix"/>
<feBlend mode="normal" in="SourceGraphic" in2="BackgroundImageFix" result="shape"/>
<feColorMatrix in="SourceAlpha" type="matrix" values="0 0 0 0 0 0 0 0 0 0 0 0 0 0 0 0 0 0 127 0" result="hardAlpha"/>
<feOffset dx="8" dy="8"/>
<feGaussianBlur stdDeviation="4"/>
<feComposite in2="hardAlpha" operator="arithmetic" k2="-1" k3="1"/>
<feColorMatrix type="matrix" values="0 0 0 0 0 0 0 0 0 0 0 0 0 0 0 0 0 0 0.25 0"/>
<feBlend mode="normal" in2="shape" result="effect1_innerShadow_392_55"/>
</filter>
<filter id="filter2_i_392_55" x="1408.87" y="1485.34" width="266.25" height="337.269" filterUnits="userSpaceOnUse" color-interpolation-filters="sRGB">
<feFlood flood-opacity="0" result="BackgroundImageFix"/>
<feBlend mode="normal" in="SourceGraphic" in2="BackgroundImageFix" result="shape"/>
<feColorMatrix in="SourceAlpha" type="matrix" values="0 0 0 0 0 0 0 0 0 0 0 0 0 0 0 0 0 0 127 0" result="hardAlpha"/>
<feOffset dy="10"/>
<feGaussianBlur stdDeviation="4"/>
<feComposite in2="hardAlpha" operator="arithmetic" k2="-1" k3="1"/>
<feColorMatrix type="matrix" values="0 0 0 0 0 0 0 0 0 0 0 0 0 0 0 0 0 0 0.25 0"/>
<feBlend mode="normal" in2="shape" result="effect1_innerShadow_392_55"/>
</filter>
<filter id="filter3_i_392_55" x="1696.41" y="1491.42" width="160.828" height="314.506" filterUnits="userSpaceOnUse" color-interpolation-filters="sRGB">
<feFlood flood-opacity="0" result="BackgroundImageFix"/>
<feBlend mode="normal" in="SourceGraphic" in2="BackgroundImageFix" result="shape"/>
<feColorMatrix in="SourceAlpha" type="matrix" values="0 0 0 0 0 0 0 0 0 0 0 0 0 0 0 0 0 0 127 0" result="hardAlpha"/>
<feOffset dy="8"/>
<feGaussianBlur stdDeviation="4"/>
<feComposite in2="hardAlpha" operator="arithmetic" k2="-1" k3="1"/>
<feColorMatrix type="matrix" values="0 0 0 0 0 0 0 0 0 0 0 0 0 0 0 0 0 0 0.25 0"/>
<feBlend mode="normal" in2="shape" result="effect1_innerShadow_392_55"/>
</filter>
<filter id="filter4_i_392_55" x="1546.91" y="1481.83" width="223.238" height="367.052" filterUnits="userSpaceOnUse" color-interpolation-filters="sRGB">
<feFlood flood-opacity="0" result="BackgroundImageFix"/>
<feBlend mode="normal" in="SourceGraphic" in2="BackgroundImageFix" result="shape"/>
<feColorMatrix in="SourceAlpha" type="matrix" values="0 0 0 0 0 0 0 0 0 0 0 0 0 0 0 0 0 0 127 0" result="hardAlpha"/>
<feOffset dx="8" dy="8"/>
<feGaussianBlur stdDeviation="10"/>
<feComposite in2="hardAlpha" operator="arithmetic" k2="-1" k3="1"/>
<feColorMatrix type="matrix" values="0 0 0 0 0 0 0 0 0 0 0 0 0 0 0 0 0 0 0.25 0"/>
<feBlend mode="normal" in2="shape" result="effect1_innerShadow_392_55"/>
</filter>
<filter id="filter5_d_392_55" x="1643.9" y="1455.49" width="89.6602" height="73.8535" filterUnits="userSpaceOnUse" color-interpolation-filters="sRGB">
<feFlood flood-opacity="0" result="BackgroundImageFix"/>
<feColorMatrix in="SourceAlpha" type="matrix" values="0 0 0 0 0 0 0 0 0 0 0 0 0 0 0 0 0 0 127 0" result="hardAlpha"/>
<feOffset dy="4"/>
<feGaussianBlur stdDeviation="2"/>
<feComposite in2="hardAlpha" operator="out"/>
<feColorMatrix type="matrix" values="0 0 0 0 0 0 0 0 0 0 0 0 0 0 0 0 0 0 0.25 0"/>
<feBlend mode="normal" in2="BackgroundImageFix" result="effect1_dropShadow_392_55"/>
<feBlend mode="normal" in="SourceGraphic" in2="effect1_dropShadow_392_55" result="shape"/>
</filter>
<filter id="filter6_d_392_55" x="899" y="172" width="406.57" height="225.468" filterUnits="userSpaceOnUse" color-interpolation-filters="sRGB">
<feFlood flood-opacity="0" result="BackgroundImageFix"/>
<feColorMatrix in="SourceAlpha" type="matrix" values="0 0 0 0 0 0 0 0 0 0 0 0 0 0 0 0 0 0 127 0" result="hardAlpha"/>
<feOffset dy="8"/>
<feGaussianBlur stdDeviation="25"/>
<feComposite in2="hardAlpha" operator="out"/>
<feColorMatrix type="matrix" values="0 0 0 0 0 0 0 0 0 0 0 0 0 0 0 0 0 0 0.25 0"/>
<feBlend mode="normal" in2="BackgroundImageFix" result="effect1_dropShadow_392_55"/>
<feBlend mode="normal" in="SourceGraphic" in2="effect1_dropShadow_392_55" result="shape"/>
</filter>
<filter id="filter7_d_392_55" x="19" y="675" width="331" height="195" filterUnits="userSpaceOnUse" color-interpolation-filters="sRGB">
<feFlood flood-opacity="0" result="BackgroundImageFix"/>
<feColorMatrix in="SourceAlpha" type="matrix" values="0 0 0 0 0 0 0 0 0 0 0 0 0 0 0 0 0 0 127 0" result="hardAlpha"/>
<feOffset dy="8"/>
<feGaussianBlur stdDeviation="25"/>
<feComposite in2="hardAlpha" operator="out"/>
<feColorMatrix type="matrix" values="0 0 0 0 0 0 0 0 0 0 0 0 0 0 0 0 0 0 0.25 0"/>
<feBlend mode="normal" in2="BackgroundImageFix" result="effect1_dropShadow_392_55"/>
<feBlend mode="normal" in="SourceGraphic" in2="effect1_dropShadow_392_55" result="shape"/>
</filter>
<linearGradient id="paint0_linear_392_55" x1="498" y1="211" x2="498" y2="701" gradientUnits="userSpaceOnUse">
<stop stop-color="#EACA49"/>
<stop offset="1" stop-color="#EAA049"/>
</linearGradient>
<linearGradient id="paint1_linear_392_55" x1="1607.22" y1="204.28" x2="1400.85" y2="712.289" gradientUnits="userSpaceOnUse">
<stop offset="0.310417" stop-color="#DADADA"/>
<stop offset="1" stop-color="#818181"/>
</linearGradient>
<radialGradient id="paint2_radial_392_55" cx="0" cy="0" r="1" gradientUnits="userSpaceOnUse" gradientTransform="translate(907.944 1746.94) rotate(104.594) scale(131.953)">
<stop stop-color="#F08735"/>
<stop offset="0.0812499" stop-color="#F08D35"/>
<stop offset="0.746939" stop-color="#F0BC35"/>
</radialGradient>
<radialGradient id="paint3_radial_392_55" cx="0" cy="0" r="1" gradientUnits="userSpaceOnUse" gradientTransform="translate(641.495 1782.49) rotate(104.594) scale(83.2126)">
<stop stop-color="#F08735"/>
<stop offset="0.0812499" stop-color="#F08D35"/>
<stop offset="0.746939" stop-color="#F0BC35"/>
</radialGradient>
<clipPath id="clip0_392_55">
<rect width="2000" height="2000" fill="white"/>
</clipPath>
</defs>
</svg>
