<svg width="2000" height="2000" viewBox="0 0 2000 2000" fill="none" xmlns="http://www.w3.org/2000/svg">
<path d="M214 471C-57.9995 943 73.9999 1479 474 1583H681.999C864.666 1419 1232.4 1083 1242 1051C1254 1011 1838 439 1482 223C1315.03 121.69 829.999 159 757.999 259C685.999 359 421.42 111.065 214 471Z" fill="url(#paint0_linear_301_335)"/>
<mask id="mask0_301_335" style="mask-type:alpha" maskUnits="userSpaceOnUse" x="930" y="372" width="967" height="1457">
<path d="M1710 507C1607.34 380.178 1339.33 360.333 1198 379C1079.33 759 863.601 1556.6 950.001 1707C1058 1895 1418 1867 1734 1603C1839.63 1514.76 1968.88 1251 1846 1123C1654 923 1846 675 1710 507Z" fill="#E3B97B"/>
</mask>
<g mask="url(#mask0_301_335)">
<rect x="753" y="346" width="1269" height="1159" fill="#E3B97B"/>
<ellipse cx="1246.64" cy="683.847" rx="6.34499" ry="5.79498" fill="#957259"/>
<ellipse cx="1343.08" cy="490.295" rx="6.34499" ry="5.79498" fill="#957259"/>
<ellipse cx="980.152" cy="563.312" rx="6.34499" ry="5.79498" fill="#957259"/>
<ellipse cx="1114.67" cy="783.521" rx="6.34499" ry="5.79498" fill="#957259"/>
<ellipse cx="1084.21" cy="968.96" rx="6.34499" ry="5.79498" fill="#957259"/>
<ellipse cx="928.12" cy="1391.99" rx="6.34499" ry="5.79498" fill="#957259"/>
<ellipse cx="1596.88" cy="695.437" rx="6.34499" ry="5.79498" fill="#957259"/>
<ellipse cx="1779.62" cy="725.571" rx="6.34499" ry="5.79498" fill="#957259"/>
<ellipse cx="1421.76" cy="945.78" rx="6.34499" ry="5.79498" fill="#957259"/>
<ellipse cx="1655.26" cy="1033.86" rx="6.34499" ry="5.79498" fill="#957259"/>
<ellipse cx="1888.75" cy="1121.95" rx="6.34499" ry="5.79498" fill="#957259"/>
<ellipse cx="1748.53" cy="1130.64" rx="3.1725" ry="2.89749" fill="#957259"/>
<ellipse cx="1804.36" cy="1025.17" rx="3.1725" ry="2.89749" fill="#957259"/>
<ellipse cx="1735.84" cy="675.154" rx="3.1725" ry="2.89749" fill="#957259"/>
<ellipse cx="1831.02" cy="647.338" rx="3.1725" ry="2.89749" fill="#957259"/>
<ellipse cx="1898.27" cy="470.013" rx="3.1725" ry="2.89749" fill="#957259"/>
<ellipse cx="1596.88" cy="498.987" rx="3.1725" ry="2.89749" fill="#957259"/>
<ellipse cx="1295.5" cy="527.962" rx="3.1725" ry="2.89749" fill="#957259"/>
<ellipse cx="1034.72" cy="587.071" rx="3.1725" ry="2.89749" fill="#957259"/>
<ellipse cx="946.522" cy="641.544" rx="3.1725" ry="2.89749" fill="#957259"/>
<ellipse cx="1004.9" cy="789.896" rx="3.1725" ry="2.89749" fill="#957259"/>
<ellipse cx="1063.27" cy="938.247" rx="3.1725" ry="2.89749" fill="#957259"/>
<ellipse cx="1121.65" cy="1086.6" rx="3.1725" ry="2.89749" fill="#957259"/>
<ellipse cx="1180.02" cy="1234.95" rx="3.1725" ry="2.89749" fill="#957259"/>
<ellipse cx="1238.39" cy="1383.3" rx="3.1725" ry="2.89749" fill="#957259"/>
<ellipse cx="1497.27" cy="1187.43" rx="3.1725" ry="2.89749" fill="#957259"/>
<ellipse cx="1756.14" cy="991.561" rx="3.1725" ry="2.89749" fill="#957259"/>
<ellipse cx="1837.36" cy="734.263" rx="3.1725" ry="2.89749" fill="#957259"/>
<ellipse cx="1626.71" cy="731.366" rx="3.1725" ry="2.89749" fill="#957259"/>
<ellipse cx="1416.05" cy="728.468" rx="3.1725" ry="2.89749" fill="#957259"/>
<ellipse cx="1671.12" cy="792.792" rx="3.1725" ry="2.89749" fill="#957259"/>
<ellipse cx="1633.05" cy="954.473" rx="3.1725" ry="2.89749" fill="#957259"/>
<ellipse cx="1594.98" cy="1116.15" rx="3.1725" ry="2.89749" fill="#957259"/>
<ellipse cx="1556.91" cy="1277.83" rx="3.1725" ry="2.89749" fill="#957259"/>
<ellipse cx="1494.1" cy="937.087" rx="3.1725" ry="2.89749" fill="#957259"/>
<ellipse cx="1352.6" cy="944.041" rx="3.1725" ry="2.89749" fill="#957259"/>
<ellipse cx="1333.57" cy="734.263" rx="3.1725" ry="2.89749" fill="#957259"/>
<ellipse cx="1416.05" cy="881.456" rx="3.1725" ry="2.89749" fill="#957259"/>
<ellipse cx="1498.54" cy="1028.65" rx="3.1725" ry="2.89749" fill="#957259"/>
<ellipse cx="1581.02" cy="1175.84" rx="3.1725" ry="2.89749" fill="#957259"/>
<ellipse cx="1327.22" cy="1103.4" rx="3.1725" ry="2.89749" fill="#957259"/>
<ellipse cx="1312.63" cy="1178.16" rx="3.1725" ry="2.89749" fill="#957259"/>
<ellipse cx="1073.42" cy="1030.97" rx="3.1725" ry="2.89749" fill="#957259"/>
<ellipse cx="1431.28" cy="994.458" rx="3.1725" ry="2.89749" fill="#957259"/>
<ellipse cx="1437.63" cy="557.517" rx="3.1725" ry="2.89749" fill="#957259"/>
<ellipse cx="1333.57" cy="433.504" rx="3.1725" ry="2.89749" fill="#957259"/>
<ellipse cx="1587.37" cy="427.709" rx="3.1725" ry="2.89749" fill="#957259"/>
<ellipse cx="986.495" cy="504.782" rx="3.1725" ry="2.89749" fill="#957259"/>
<ellipse cx="952.864" cy="455.525" rx="3.1725" ry="2.89749" fill="#957259"/>
<ellipse cx="1205.4" cy="725.571" rx="3.1725" ry="2.89749" fill="#957259"/>
<ellipse cx="1539.15" cy="669.36" rx="3.1725" ry="2.89749" fill="#957259"/>
<ellipse cx="1159.72" cy="861.753" rx="3.1725" ry="2.89749" fill="#957259"/>
<ellipse cx="1056.92" cy="1172.36" rx="3.1725" ry="2.89749" fill="#957259"/>
<ellipse cx="1195.25" cy="1231.47" rx="3.1725" ry="2.89749" fill="#957259"/>
<ellipse cx="1333.57" cy="1290.58" rx="3.1725" ry="2.89749" fill="#957259"/>
<ellipse cx="1692.7" cy="1287.68" rx="3.1725" ry="2.89749" fill="#957259"/>
<ellipse cx="1804.36" cy="1389.1" rx="3.1725" ry="2.89749" fill="#957259"/>
<ellipse cx="1560.08" cy="1455.16" rx="3.1725" ry="2.89749" fill="#957259"/>
<ellipse cx="1526.45" cy="1394.89" rx="3.1725" ry="2.89749" fill="#957259"/>
<ellipse cx="1315.8" cy="1521.22" rx="3.1725" ry="2.89749" fill="#957259"/>
<ellipse cx="1620.36" cy="1348.53" rx="3.1725" ry="2.89749" fill="#957259"/>
<ellipse cx="943.348" cy="1348.53" rx="3.1725" ry="2.89749" fill="#957259"/>
<ellipse cx="973.807" cy="1391.99" rx="3.1725" ry="2.89749" fill="#957259"/>
<ellipse cx="1140.04" cy="1441.25" rx="3.1725" ry="2.89749" fill="#957259"/>
<ellipse cx="1535.97" cy="1230.89" rx="6.34499" ry="5.79498" fill="#957259"/>
<ellipse cx="1604.5" cy="1432.56" rx="6.34499" ry="5.79498" fill="#957259"/>
<ellipse cx="1655.26" cy="1374.61" rx="6.34499" ry="5.79498" fill="#957259"/>
<ellipse cx="1183.19" cy="1339.84" rx="6.34499" ry="5.79498" fill="#957259"/>
<ellipse cx="1246.64" cy="1196.12" rx="6.34499" ry="5.79498" fill="#957259"/>
<ellipse cx="1739.01" cy="1288.84" rx="6.34499" ry="5.79498" fill="#957259"/>
<ellipse cx="1071.52" cy="1446.47" rx="6.34499" ry="5.79498" fill="#957259"/>
<ellipse cx="1667.95" cy="461.32" rx="6.34499" ry="5.79498" fill="#957259"/>
<ellipse cx="1840.53" cy="484.5" rx="6.34499" ry="5.79498" fill="#957259"/>
<rect x="753" y="870" width="1189.01" height="1044.38" fill="#E3B97B"/>
<ellipse cx="1215.52" cy="1174.44" rx="5.94503" ry="5.22191" fill="#957259"/>
<ellipse cx="1305.89" cy="1000.03" rx="5.94503" ry="5.22191" fill="#957259"/>
<ellipse cx="965.832" cy="1065.82" rx="5.94503" ry="5.22191" fill="#957259"/>
<ellipse cx="1091.87" cy="1264.25" rx="5.94503" ry="5.22191" fill="#957259"/>
<ellipse cx="1063.33" cy="1431.35" rx="5.94503" ry="5.22191" fill="#957259"/>
<ellipse cx="1543.69" cy="1184.88" rx="5.94503" ry="5.22191" fill="#957259"/>
<ellipse cx="1714.91" cy="1212.04" rx="5.94503" ry="5.22191" fill="#957259"/>
<ellipse cx="1889.1" cy="1394.8" rx="5.94503" ry="5.22191" fill="#957259"/>
<ellipse cx="1379.61" cy="1410.47" rx="5.94503" ry="5.22191" fill="#957259"/>
<ellipse cx="1598.38" cy="1489.84" rx="5.94503" ry="5.22191" fill="#957259"/>
<ellipse cx="1817.16" cy="1569.21" rx="5.94503" ry="5.22191" fill="#957259"/>
<ellipse cx="1685.78" cy="1577.05" rx="2.97252" ry="2.61095" fill="#957259"/>
<ellipse cx="1738.09" cy="1482.01" rx="2.97252" ry="2.61095" fill="#957259"/>
<ellipse cx="1673.89" cy="1166.6" rx="2.97252" ry="2.61095" fill="#957259"/>
<ellipse cx="1763.06" cy="1141.54" rx="2.97252" ry="2.61095" fill="#957259"/>
<ellipse cx="1826.08" cy="981.749" rx="2.97252" ry="2.61095" fill="#957259"/>
<ellipse cx="1543.69" cy="1007.86" rx="2.97252" ry="2.61095" fill="#957259"/>
<ellipse cx="1261.3" cy="1033.97" rx="2.97252" ry="2.61095" fill="#957259"/>
<ellipse cx="1016.96" cy="1087.23" rx="2.97252" ry="2.61095" fill="#957259"/>
<ellipse cx="934.324" cy="1136.32" rx="2.97252" ry="2.61095" fill="#957259"/>
<ellipse cx="989.017" cy="1270" rx="2.97252" ry="2.61095" fill="#957259"/>
<ellipse cx="1043.71" cy="1403.68" rx="2.97252" ry="2.61095" fill="#957259"/>
<ellipse cx="1098.41" cy="1537.36" rx="2.97252" ry="2.61095" fill="#957259"/>
<ellipse cx="1153.1" cy="1671.04" rx="2.97252" ry="2.61095" fill="#957259"/>
<ellipse cx="1207.8" cy="1804.72" rx="2.97252" ry="2.61095" fill="#957259"/>
<ellipse cx="1450.35" cy="1628.22" rx="2.97252" ry="2.61095" fill="#957259"/>
<ellipse cx="1692.91" cy="1451.72" rx="2.97252" ry="2.61095" fill="#957259"/>
<ellipse cx="1769.01" cy="1219.87" rx="2.97252" ry="2.61095" fill="#957259"/>
<ellipse cx="1571.63" cy="1217.26" rx="2.97252" ry="2.61095" fill="#957259"/>
<ellipse cx="1374.26" cy="1214.65" rx="2.97252" ry="2.61095" fill="#957259"/>
<ellipse cx="1613.25" cy="1272.61" rx="2.97252" ry="2.61095" fill="#957259"/>
<ellipse cx="1577.58" cy="1418.3" rx="2.97252" ry="2.61095" fill="#957259"/>
<ellipse cx="1541.91" cy="1563.99" rx="2.97252" ry="2.61095" fill="#957259"/>
<ellipse cx="1506.23" cy="1709.68" rx="2.97252" ry="2.61095" fill="#957259"/>
<ellipse cx="1447.38" cy="1402.63" rx="2.97252" ry="2.61095" fill="#957259"/>
<ellipse cx="1314.8" cy="1408.9" rx="2.97252" ry="2.61095" fill="#957259"/>
<ellipse cx="1296.97" cy="1219.87" rx="2.97252" ry="2.61095" fill="#957259"/>
<ellipse cx="1374.26" cy="1352.5" rx="2.97252" ry="2.61095" fill="#957259"/>
<ellipse cx="1451.54" cy="1485.14" rx="2.97252" ry="2.61095" fill="#957259"/>
<ellipse cx="1528.83" cy="1617.78" rx="2.97252" ry="2.61095" fill="#957259"/>
<ellipse cx="1291.03" cy="1552.5" rx="2.97252" ry="2.61095" fill="#957259"/>
<ellipse cx="1277.35" cy="1619.86" rx="2.97252" ry="2.61095" fill="#957259"/>
<ellipse cx="1053.22" cy="1487.23" rx="2.97252" ry="2.61095" fill="#957259"/>
<ellipse cx="1388.53" cy="1454.33" rx="2.97252" ry="2.61095" fill="#957259"/>
<ellipse cx="1394.47" cy="1060.6" rx="2.97252" ry="2.61095" fill="#957259"/>
<ellipse cx="1296.97" cy="948.851" rx="2.97252" ry="2.61095" fill="#957259"/>
<ellipse cx="1534.77" cy="943.629" rx="2.97252" ry="2.61095" fill="#957259"/>
<ellipse cx="971.777" cy="1013.08" rx="2.97252" ry="2.61095" fill="#957259"/>
<ellipse cx="940.266" cy="968.693" rx="2.97252" ry="2.61095" fill="#957259"/>
<ellipse cx="1886.12" cy="1304.46" rx="2.97252" ry="2.61095" fill="#957259"/>
<ellipse cx="1176.88" cy="1212.03" rx="2.97252" ry="2.61095" fill="#957259"/>
<ellipse cx="1845.1" cy="988.015" rx="2.97252" ry="2.61095" fill="#957259"/>
<ellipse cx="1489.59" cy="1161.38" rx="2.97252" ry="2.61095" fill="#957259"/>
<ellipse cx="1134.08" cy="1334.75" rx="2.97252" ry="2.61095" fill="#957259"/>
<ellipse cx="1037.77" cy="1614.64" rx="2.97252" ry="2.61095" fill="#957259"/>
<ellipse cx="1167.37" cy="1667.91" rx="2.97252" ry="2.61095" fill="#957259"/>
<ellipse cx="1296.97" cy="1721.17" rx="2.97252" ry="2.61095" fill="#957259"/>
<ellipse cx="1633.46" cy="1718.56" rx="2.97252" ry="2.61095" fill="#957259"/>
<ellipse cx="1738.09" cy="1809.94" rx="2.97252" ry="2.61095" fill="#957259"/>
<ellipse cx="1477.7" cy="1815.16" rx="2.97252" ry="2.61095" fill="#957259"/>
<ellipse cx="1565.69" cy="1773.39" rx="2.97252" ry="2.61095" fill="#957259"/>
<ellipse cx="1832.03" cy="1757.72" rx="2.97252" ry="2.61095" fill="#957259"/>
<ellipse cx="1883.15" cy="1752.5" rx="2.97252" ry="2.61095" fill="#957259"/>
<ellipse cx="931.349" cy="1773.39" rx="2.97252" ry="2.61095" fill="#957259"/>
<ellipse cx="959.889" cy="1812.55" rx="2.97252" ry="2.61095" fill="#957259"/>
<ellipse cx="1486.62" cy="1667.39" rx="5.94503" ry="5.22191" fill="#957259"/>
<ellipse cx="1598.38" cy="1796.89" rx="5.94503" ry="5.22191" fill="#957259"/>
<ellipse cx="1156.07" cy="1765.56" rx="5.94503" ry="5.22191" fill="#957259"/>
<ellipse cx="1215.52" cy="1636.05" rx="5.94503" ry="5.22191" fill="#957259"/>
<ellipse cx="1676.86" cy="1719.6" rx="5.94503" ry="5.22191" fill="#957259"/>
<ellipse cx="1859.97" cy="1796.89" rx="5.94503" ry="5.22191" fill="#957259"/>
<ellipse cx="1610.28" cy="973.916" rx="5.94503" ry="5.22191" fill="#957259"/>
<ellipse cx="1771.98" cy="994.803" rx="5.94503" ry="5.22191" fill="#957259"/>
</g>
<mask id="mask1_301_335" style="mask-type:alpha" maskUnits="userSpaceOnUse" x="209" y="109" width="636" height="484">
<path d="M426.787 212.681C216.51 345.062 226.536 465.459 209.566 547.539C213.089 548.884 226.154 542.454 237.191 550.521C250.209 560.035 255.396 578.164 255.97 592.513C266.749 584.771 293.841 565.498 315.981 550.338C352.043 525.647 409.126 507.952 440.755 501.11C441.997 496.538 464.267 461.863 529.309 419.88C580.313 386.959 635.147 363.419 659.849 361.5C672.374 347.866 693.365 321.317 734.614 288.628C775.863 255.94 809.278 245.743 837.144 236.202C837.272 233.223 828.276 221.275 830.856 195.197C834.03 163.104 837.684 147.595 844.435 139.829C783.255 115.703 672.11 58.2378 426.787 212.681Z" fill="#D9D9D9"/>
</mask>
<g mask="url(#mask1_301_335)">
<path d="M289.648 403.275C279.928 450.126 260.077 568.219 251.367 621.41C236.746 614.438 204.874 595.098 194.345 573.516C183.817 551.934 193.326 527.963 199.397 518.675C233.531 460.688 299.369 356.425 289.648 403.275Z" fill="white"/>
<path d="M288.725 398.759C274.995 476.651 247.436 633.684 247.041 638.681C259.065 628.009 296.687 597.089 350.98 558.786C405.274 520.483 438.502 536.077 448.329 548.661L407.398 345.686C409.685 339.369 407.844 328.069 382.189 333.408C356.533 338.747 309.19 379.2 288.725 398.759Z" fill="#AC3030"/>
<path d="M439.72 514.718L405.656 339.345L516.217 225.268L675.365 375.375C663.225 380.073 629.083 391.91 589.629 401.668C550.175 411.425 473.251 481.1 439.72 514.718Z" fill="white"/>
<path d="M691.914 396.456L541.365 254.554L692.578 178.713L841.204 235.482C844.734 240.111 846.902 249.694 827.329 250.998C807.757 252.303 728.897 348.513 691.914 396.456Z" fill="#AC3030"/>
<path d="M860.516 244.372L696.757 185.607L761.814 130.222L872.445 133.875C874.303 132.314 868.329 141.083 854.077 160.164C839.825 179.245 852.432 224.253 860.516 244.372Z" fill="white"/>
</g>
<g style="mix-blend-mode:multiply">
<path d="M426.787 212.681C216.51 345.062 226.536 465.459 209.566 547.539C213.089 548.884 226.154 542.454 237.191 550.521C250.209 560.035 255.396 578.164 255.97 592.513C266.749 584.771 293.841 565.498 315.981 550.338C352.043 525.647 409.126 507.952 440.755 501.11C441.997 496.538 464.267 461.863 529.309 419.88C580.313 386.959 635.147 363.419 659.849 361.5C672.374 347.866 693.365 321.317 734.614 288.628C775.863 255.94 809.278 245.743 837.144 236.202C837.272 233.223 828.276 221.275 830.856 195.197C834.03 163.104 837.684 147.595 844.435 139.829C783.255 115.703 672.11 58.2378 426.787 212.681Z" fill="#6F6F6F"/>
</g>
<path d="M830.147 854.972L477.149 300.799L484.746 249.202L864.837 839.459L830.147 854.972Z" fill="url(#paint1_linear_301_335)"/>
<mask id="mask2_301_335" style="mask-type:alpha" maskUnits="userSpaceOnUse" x="209" y="109" width="636" height="439">
<path d="M426.787 212.681C216.51 345.062 226.536 465.459 209.566 547.539C219.321 535.873 248.268 480.736 282.748 449.084C318.656 416.12 360.779 383.515 387.898 387.818C396.447 357.943 466.965 312.32 521.657 282.746C602.391 239.092 661.112 207.965 694.646 205.383C697.882 199.554 720.19 182.248 762.855 163.167C809.411 142.347 833.057 137.249 844.435 139.829C783.255 115.703 672.11 58.2377 426.787 212.681Z" fill="#D9D9D9"/>
</mask>
<g mask="url(#mask2_301_335)">
<path d="M324.024 264.588C237.471 332.654 196.641 497.817 196.917 565.794L222.171 565.925C226.973 556.657 246.698 524.503 287.185 470.027C327.673 415.551 380.662 402.663 400.625 393.005C392.759 363.659 395.451 327.79 399.28 294.468C413.613 169.75 410.578 196.522 324.024 264.588Z" fill="#AC3030"/>
<path d="M384.798 298.83C382.341 355.796 382.974 387.829 392.341 398.976L538.776 298.981C595.491 272.705 706.923 217.649 698.94 207.635C690.956 197.622 572.708 160.934 516.276 140.893L391.213 196.823C387.144 208.137 387.128 244.819 384.798 298.83Z" fill="white"/>
<path d="M707.983 210.711L522.377 144.737C539.679 125.862 589.239 83.8335 649.064 66.7185C708.89 49.6035 814.616 102.956 860.001 131.771C842.693 140.425 800.79 159.566 771.646 166.904C742.502 174.241 717.061 199.166 707.983 210.711Z" fill="#AC3030"/>
</g>
<circle cx="1000" cy="1000" r="700" fill="#0198DA"/>
<circle cx="1000" cy="1000" r="624" fill="#00ABE7"/>
<circle cx="1000" cy="1000" r="619" stroke="white" stroke-opacity="0.5" stroke-width="10"/>
<path fill-rule="evenodd" clip-rule="evenodd" d="M816.061 865.024C868.662 834.575 921.732 804.126 974.332 773.678C982.059 769.065 990.89 766.63 999.888 766.63C1008.89 766.63 1017.72 769.065 1025.45 773.678L1103.72 818.372C1104.72 818.998 1105.55 819.869 1106.12 820.903C1106.7 821.937 1107 823.1 1107 824.282C1107 825.464 1106.7 826.627 1106.12 827.661C1105.55 828.695 1104.72 829.566 1103.72 830.192L912.417 940.245C910.005 941.638 908.008 943.648 906.632 946.07C905.256 948.492 904.551 951.237 904.59 954.022V1046.39C904.557 1049.1 905.27 1051.76 906.65 1054.1C908.031 1056.43 910.026 1058.34 912.417 1059.61L992.492 1105.8C994.77 1107.25 997.419 1108.03 1000.12 1108.03C1002.83 1108.03 1005.48 1107.25 1007.76 1105.8L1337.92 915.667C1393.96 883.262 1393.96 789.88 1337.92 757.475L1041.1 586.446C1028.73 578.958 1014.54 575 1000.08 575C985.624 575 971.439 578.958 959.068 586.446L662.252 757.475C649.651 764.592 639.182 774.949 631.929 787.473C624.676 799.997 620.903 814.232 621.002 828.704C621.002 942.907 621.472 1057.19 621.002 1171.15C620.906 1185.64 624.679 1199.88 631.93 1212.42C639.182 1224.95 649.65 1235.33 662.252 1242.46L959.068 1413.96C971.528 1421.19 985.678 1425 1000.08 1425C1014.49 1425 1028.64 1421.19 1041.1 1413.96L1337.92 1242.46C1350.51 1235.36 1360.96 1224.98 1368.14 1212.43C1375.32 1199.88 1378.96 1185.61 1378.7 1171.15V1022.43L1025.45 1226.73C1017.7 1231.3 1008.88 1233.71 999.888 1233.71C990.898 1233.71 982.073 1231.3 974.332 1226.73L816.688 1135.3C808.829 1130.93 802.3 1124.51 797.794 1116.72C793.288 1108.93 790.972 1100.07 791.092 1091.08V908.779C791.058 899.929 793.356 891.226 797.752 883.545C802.149 875.864 808.491 869.476 816.14 865.024H816.061Z" fill="url(#paint2_linear_301_335)"/>
<path fill-rule="evenodd" clip-rule="evenodd" d="M816.061 865.024C868.662 834.575 921.732 804.126 974.332 773.678C982.059 769.065 990.89 766.63 999.888 766.63C1008.89 766.63 1017.72 769.065 1025.45 773.678L1103.72 818.372C1104.72 818.998 1105.55 819.869 1106.12 820.903C1106.7 821.937 1107 823.1 1107 824.282C1107 825.464 1106.7 826.627 1106.12 827.661C1105.55 828.695 1104.72 829.566 1103.72 830.192L912.417 940.245C910.005 941.638 908.008 943.648 906.632 946.07C905.256 948.492 904.551 951.237 904.59 954.022V1046.39C904.557 1049.1 905.27 1051.76 906.65 1054.1C908.031 1056.43 910.026 1058.34 912.417 1059.61L992.492 1105.8C994.77 1107.25 997.419 1108.03 1000.12 1108.03C1002.83 1108.03 1005.48 1107.25 1007.76 1105.8L1337.92 915.667C1393.96 883.262 1393.96 789.88 1337.92 757.475L1041.1 586.446C1028.73 578.958 1014.54 575 1000.08 575C985.624 575 971.439 578.958 959.068 586.446L662.252 757.475C649.651 764.592 639.182 774.949 631.929 787.473C624.676 799.997 620.903 814.232 621.002 828.704C621.002 942.907 621.472 1057.19 621.002 1171.15C620.906 1185.64 624.679 1199.88 631.93 1212.42C639.182 1224.95 649.65 1235.33 662.252 1242.46L959.068 1413.96C971.528 1421.19 985.678 1425 1000.08 1425C1014.49 1425 1028.64 1421.19 1041.1 1413.96L1337.92 1242.46C1350.51 1235.36 1360.96 1224.98 1368.14 1212.43C1375.32 1199.88 1378.96 1185.61 1378.7 1171.15V1022.43L1025.45 1226.73C1017.7 1231.3 1008.88 1233.71 999.888 1233.71C990.898 1233.71 982.073 1231.3 974.332 1226.73L816.688 1135.3C808.829 1130.93 802.3 1124.51 797.794 1116.72C793.288 1108.93 790.972 1100.07 791.092 1091.08V908.779C791.058 899.929 793.356 891.226 797.752 883.545C802.149 875.864 808.491 869.476 816.14 865.024H816.061Z" fill="white"/>
<path d="M1114 1565C1270 1647 1390 1660.33 1534 1659C1461.33 1685.67 1354 1791 1166 1759C1040.42 1737.62 724 1639 548 1527C372 1415 276 1214 376 1149C456.001 1097 776 1563 842 1565C908 1567 675.124 1421.4 742 1351C818 1271 1018.73 1514.92 1114 1565Z" fill="#3372BC"/>
<path d="M1134 1679C1502 1724.48 1478 1723 1658 1639.41C1342 1923 1046 1866.38 782 1831.41C326 1771 122 1471 182 1415C242 1359 414 1547 410 1483C406 1419 42.0005 1263 154 1119C266 975 476 1443 545.999 1483C639.512 1536.44 437.068 1299.27 501.999 1255C590.002 1195 813.687 1639.41 1134 1679Z" fill="#418FE8"/>
<mask id="mask3_301_335" style="mask-type:alpha" maskUnits="userSpaceOnUse" x="1201" y="1338" width="493" height="490">
<path d="M1673.67 1678.59C1621.49 1802.53 1477.89 1860.37 1352.92 1807.76C1227.95 1755.15 1168.95 1612.02 1221.13 1488.08C1273.31 1364.14 1416.91 1306.3 1541.88 1358.91C1666.85 1411.52 1725.84 1554.65 1673.67 1678.59Z" fill="#D9D9D9" stroke="black"/>
</mask>
<g mask="url(#mask3_301_335)">
<path d="M1702.05 1468.11C1691.09 1458.07 1571.47 1458.71 1564.92 1461.38L1554.45 1486.26C1581.71 1519.44 1642.37 1591.85 1666.9 1616.06C1691.42 1640.27 1720.03 1629.03 1731.26 1620.37C1725.18 1572.97 1710.82 1476.14 1702.05 1468.11Z" fill="#E6EEF2"/>
<g filter="url(#filter0_i_301_335)">
<path d="M1477.6 1338.9C1510.55 1365.79 1536.35 1435.61 1545.13 1467.15L1539.31 1480.98L1409.65 1471.96L1187.69 1545.61L1161.59 1489.05L1317.14 1338.62C1356.9 1327.51 1444.66 1312.01 1477.6 1338.9Z" fill="#DF2D2D"/>
</g>
<g filter="url(#filter1_i_301_335)">
<path d="M1530.24 1458.71L1431.76 1316.35C1454.24 1319.66 1511.53 1329.97 1560.89 1344.67C1610.25 1359.38 1683.39 1411.07 1713.79 1435.08C1715.01 1460.55 1712.59 1505.97 1693.23 1483.93C1673.86 1461.89 1607.9 1467.54 1577.34 1473.12L1530.24 1458.71Z" fill="#4784BC"/>
</g>
<g filter="url(#filter2_i_301_335)">
<path d="M1235.71 1477.94C1318.01 1420.58 1471.48 1455.68 1535.48 1477.19C1519.46 1504.08 1475.75 1568.58 1429.06 1611.42C1382.38 1654.26 1292.01 1731.66 1252.65 1765L1177.36 1634.57C1164.15 1608.4 1153.4 1535.3 1235.71 1477.94Z" fill="#E6EEF2"/>
</g>
<g filter="url(#filter3_i_301_335)">
<path d="M1545.49 1685.39C1562.12 1623.81 1569.25 1561.93 1564.54 1524.15C1551.26 1515.3 1534.46 1498.68 1573.46 1502.95C1612.46 1507.22 1677.18 1574.46 1703.47 1606.5C1693.71 1640.01 1662.03 1717.31 1622.96 1766.83C1583.88 1816.34 1499.9 1831.48 1466.48 1834.41C1496.21 1802.44 1520.22 1778.91 1545.49 1685.39Z" fill="#4784BC"/>
</g>
<g filter="url(#filter4_i_301_335)">
<path d="M1309.21 1656.44C1380.07 1547.39 1463.6 1508.78 1518.46 1484.13L1557.31 1482.04C1561.68 1487.14 1569.74 1520.04 1567.07 1610.93C1564.4 1701.81 1501.55 1801.79 1470.46 1840.42C1459.64 1846.35 1423.99 1854.93 1367.91 1841.73C1311.84 1828.54 1268.94 1799.35 1254.5 1786.4C1257.84 1775.87 1262.11 1728.92 1309.21 1656.44Z" fill="#DF2D2D"/>
</g>
<g filter="url(#filter5_d_301_335)">
<ellipse cx="1548.41" cy="1486.43" rx="46.5" ry="37.5" transform="rotate(22.8302 1548.41 1486.43)" fill="#E6EEF2"/>
</g>
</g>
<path d="M1864.45 1234.32C1895.02 1249.78 1892.6 1314.89 1887.58 1345.51C1899.05 1343.93 1920.47 1343.12 1917.73 1353.48C1913.17 1370.71 1899.96 1367.21 1895.94 1366.15C1897.84 1369.42 1905.06 1384.6 1898.7 1394.07C1891.86 1404.24 1883.6 1394.22 1875.5 1391.16C1875.72 1396.13 1878.04 1416.41 1867.53 1421.31C1857.02 1426.21 1852.78 1420.17 1849.72 1411.99C1847.55 1417.87 1839.62 1434.2 1827.2 1430.92C1813.42 1427.27 1817.42 1410.97 1821.28 1397.55C1795.24 1405.41 1719 1386.6 1716.53 1369.85C1714.07 1353.1 1728.2 1348.97 1733.66 1350.42C1724.02 1343.87 1713.15 1336.24 1721.08 1319.9C1729.01 1303.57 1742 1309.92 1750.2 1316.08C1742.64 1305.18 1733.48 1282.08 1745.72 1272.04C1757.96 1262.01 1773.93 1273.97 1781.47 1281.5C1775.84 1271.41 1768.17 1249.87 1785.6 1239.73C1803.03 1229.6 1817.55 1244.96 1821.82 1254.38C1824.26 1239.36 1833.89 1218.86 1864.45 1234.32Z" fill="url(#paint3_linear_301_335)"/>
<path d="M1863.37 1347.82C1863.37 1347.82 1829.92 1240.82 1824.7 1243.13C1824.7 1243.13 1822.65 1250.88 1821.79 1250.65C1819.5 1250.05 1816.04 1244.52 1812.39 1242.64C1811.6 1242.23 1863.37 1347.82 1863.37 1347.82Z" fill="url(#paint4_linear_301_335)"/>
<path d="M1851.19 1353.82C1851.19 1353.82 1780.05 1270.85 1776.08 1268.42L1778.13 1274.59L1780.33 1280.24C1780.33 1280.24 1773.6 1274.31 1769.95 1272.43C1769.16 1272.02 1851.19 1353.82 1851.19 1353.82Z" fill="url(#paint5_linear_301_335)"/>
<path d="M1841.78 1370.22C1841.78 1370.22 1747.67 1306.16 1745.06 1307.32L1749.38 1315.37C1749.38 1315.37 1741.88 1310.62 1742.94 1311.83C1744.45 1313.53 1841.78 1370.22 1841.78 1370.22Z" fill="url(#paint6_linear_301_335)"/>
<path d="M1829.69 1384.01C1829.69 1384.01 1730.81 1345.48 1728.21 1346.64L1732.06 1349.5C1732.06 1349.5 1725.19 1351.06 1725.55 1351.46C1727.05 1353.16 1829.69 1384.01 1829.69 1384.01Z" fill="url(#paint7_linear_301_335)"/>
<g filter="url(#filter6_d_301_335)">
<path d="M938.093 268.468H1236.09C1241.09 256.968 1247.69 240.868 1230.09 218.468C1212.49 196.068 1182.43 188.135 1167.09 191.468C1167.76 174.801 1150.09 138.468 1101.09 143.468C1065.32 147.118 1055.43 173.135 1056.09 200.468C1055.43 193.135 1044.11 174.462 1020.09 183.468C996.094 192.468 994.093 213.135 996.093 228.468C993.426 223.135 986.894 213.668 958.094 218.468C936.095 222.135 930.76 253.801 938.093 268.468Z" fill="#EAF4FF"/>
</g>
<g filter="url(#filter7_d_301_335)">
<path d="M180.093 804.468H478.093C483.094 792.968 489.693 776.868 472.092 754.468C454.492 732.068 424.426 724.135 409.093 727.468C409.759 710.801 392.093 674.468 343.093 679.468C307.323 683.118 297.426 709.135 298.093 736.468C297.426 729.135 286.11 710.462 262.094 719.468C238.094 728.468 236.093 749.135 238.093 764.468C235.426 759.135 228.894 749.668 200.094 754.468C178.095 758.135 172.76 789.801 180.093 804.468Z" fill="#EAF4FF"/>
</g>
<path d="M328 894C247 892.667 83 894 71 894C76.3333 885.333 71 865 110 865C131.541 865 131 856.5 145 851.5C156.72 847.314 177 852.167 185 859.5C181.333 853.167 191.538 836 224.5 836C263.5 836 263.5 848.5 263.5 865C277.5 846 302.009 845.03 317.5 859.5C327.792 869.113 333.333 885.667 328 894Z" fill="white"/>
<path d="M1748.81 577.498C1756.81 570.338 1769.51 573.647 1773 583.796L1788.45 628.739C1789.62 632.148 1791.98 635.021 1795.1 636.832L1836.19 660.707C1845.47 666.099 1846.25 679.207 1837.68 685.661L1799.71 714.242C1796.83 716.41 1794.82 719.543 1794.06 723.067L1784.06 769.525C1781.8 780.016 1769.57 784.809 1760.78 778.648L1721.87 751.37C1718.92 749.3 1715.32 748.363 1711.73 748.73L1664.45 753.568C1653.78 754.66 1645.44 744.514 1648.58 734.252L1662.5 688.813C1663.56 685.366 1663.34 681.654 1661.88 678.356L1642.67 634.888C1638.33 625.072 1645.41 614.009 1656.14 613.827L1703.65 613.023C1707.26 612.962 1710.72 611.604 1713.41 609.2L1748.81 577.498Z" fill="url(#paint8_radial_301_335)"/>
<circle cx="1736.33" cy="676.976" r="9.85433" transform="rotate(14.594 1736.33 676.976)" fill="white"/>
<circle cx="1744.28" cy="646.46" r="7.88346" transform="rotate(14.594 1744.28 646.46)" fill="white"/>
<circle cx="1712.99" cy="668.862" r="7.88346" transform="rotate(14.594 1712.99 668.862)" fill="white"/>
<circle cx="1717.02" cy="696.387" r="7.88346" transform="rotate(14.594 1717.02 696.387)" fill="white"/>
<circle cx="1760.92" cy="680.323" r="7.88346" transform="rotate(14.594 1760.92 680.323)" fill="white"/>
<circle cx="1745.63" cy="703.836" r="7.88346" transform="rotate(14.594 1745.63 703.836)" fill="white"/>
<circle cx="1750.74" cy="621.666" r="5.9126" transform="rotate(14.594 1750.74 621.666)" fill="white"/>
<circle cx="1694.7" cy="656.972" r="5.9126" transform="rotate(14.594 1694.7 656.972)" fill="white"/>
<circle cx="1681.89" cy="647.526" r="3.94173" transform="rotate(14.594 1681.89 647.526)" fill="white"/>
<circle cx="1797.32" cy="673.507" r="3.94173" transform="rotate(14.594 1797.32 673.507)" fill="white"/>
<circle cx="1764.39" cy="741.306" r="3.94173" transform="rotate(14.594 1764.39 741.306)" fill="white"/>
<circle cx="1754.96" cy="605.454" r="3.94173" transform="rotate(14.594 1754.96 605.454)" fill="white"/>
<circle cx="1682.38" cy="719.951" r="3.94173" transform="rotate(14.594 1682.38 719.951)" fill="white"/>
<circle cx="1699.2" cy="710.077" r="5.9126" transform="rotate(14.594 1699.2 710.077)" fill="white"/>
<circle cx="1780.53" cy="679.318" r="5.9126" transform="rotate(14.594 1780.53 679.318)" fill="white"/>
<circle cx="1756.42" cy="724.975" r="5.9126" transform="rotate(14.594 1756.42 724.975)" fill="white"/>
<defs>
<filter id="filter0_i_301_335" x="1161.59" y="1323.98" width="403.545" height="229.629" filterUnits="userSpaceOnUse" color-interpolation-filters="sRGB">
<feFlood flood-opacity="0" result="BackgroundImageFix"/>
<feBlend mode="normal" in="SourceGraphic" in2="BackgroundImageFix" result="shape"/>
<feColorMatrix in="SourceAlpha" type="matrix" values="0 0 0 0 0 0 0 0 0 0 0 0 0 0 0 0 0 0 127 0" result="hardAlpha"/>
<feOffset dx="20" dy="8"/>
<feGaussianBlur stdDeviation="10"/>
<feComposite in2="hardAlpha" operator="arithmetic" k2="-1" k3="1"/>
<feColorMatrix type="matrix" values="0 0 0 0 0 0 0 0 0 0 0 0 0 0 0 0 0 0 0.25 0"/>
<feBlend mode="normal" in2="shape" result="effect1_innerShadow_301_335"/>
</filter>
<filter id="filter1_i_301_335" x="1431.76" y="1316.35" width="290.289" height="181.436" filterUnits="userSpaceOnUse" color-interpolation-filters="sRGB">
<feFlood flood-opacity="0" result="BackgroundImageFix"/>
<feBlend mode="normal" in="SourceGraphic" in2="BackgroundImageFix" result="shape"/>
<feColorMatrix in="SourceAlpha" type="matrix" values="0 0 0 0 0 0 0 0 0 0 0 0 0 0 0 0 0 0 127 0" result="hardAlpha"/>
<feOffset dx="8" dy="8"/>
<feGaussianBlur stdDeviation="4"/>
<feComposite in2="hardAlpha" operator="arithmetic" k2="-1" k3="1"/>
<feColorMatrix type="matrix" values="0 0 0 0 0 0 0 0 0 0 0 0 0 0 0 0 0 0 0.25 0"/>
<feBlend mode="normal" in2="shape" result="effect1_innerShadow_301_335"/>
</filter>
<filter id="filter2_i_301_335" x="1168.28" y="1446.7" width="367.203" height="326.305" filterUnits="userSpaceOnUse" color-interpolation-filters="sRGB">
<feFlood flood-opacity="0" result="BackgroundImageFix"/>
<feBlend mode="normal" in="SourceGraphic" in2="BackgroundImageFix" result="shape"/>
<feColorMatrix in="SourceAlpha" type="matrix" values="0 0 0 0 0 0 0 0 0 0 0 0 0 0 0 0 0 0 127 0" result="hardAlpha"/>
<feOffset dy="10"/>
<feGaussianBlur stdDeviation="4"/>
<feComposite in2="hardAlpha" operator="arithmetic" k2="-1" k3="1"/>
<feColorMatrix type="matrix" values="0 0 0 0 0 0 0 0 0 0 0 0 0 0 0 0 0 0 0.25 0"/>
<feBlend mode="normal" in2="shape" result="effect1_innerShadow_301_335"/>
</filter>
<filter id="filter3_i_301_335" x="1466.48" y="1502.26" width="236.992" height="340.144" filterUnits="userSpaceOnUse" color-interpolation-filters="sRGB">
<feFlood flood-opacity="0" result="BackgroundImageFix"/>
<feBlend mode="normal" in="SourceGraphic" in2="BackgroundImageFix" result="shape"/>
<feColorMatrix in="SourceAlpha" type="matrix" values="0 0 0 0 0 0 0 0 0 0 0 0 0 0 0 0 0 0 127 0" result="hardAlpha"/>
<feOffset dy="8"/>
<feGaussianBlur stdDeviation="4"/>
<feComposite in2="hardAlpha" operator="arithmetic" k2="-1" k3="1"/>
<feColorMatrix type="matrix" values="0 0 0 0 0 0 0 0 0 0 0 0 0 0 0 0 0 0 0.25 0"/>
<feBlend mode="normal" in2="shape" result="effect1_innerShadow_301_335"/>
</filter>
<filter id="filter4_i_301_335" x="1254.5" y="1482.04" width="321.1" height="374.643" filterUnits="userSpaceOnUse" color-interpolation-filters="sRGB">
<feFlood flood-opacity="0" result="BackgroundImageFix"/>
<feBlend mode="normal" in="SourceGraphic" in2="BackgroundImageFix" result="shape"/>
<feColorMatrix in="SourceAlpha" type="matrix" values="0 0 0 0 0 0 0 0 0 0 0 0 0 0 0 0 0 0 127 0" result="hardAlpha"/>
<feOffset dx="8" dy="8"/>
<feGaussianBlur stdDeviation="10"/>
<feComposite in2="hardAlpha" operator="arithmetic" k2="-1" k3="1"/>
<feColorMatrix type="matrix" values="0 0 0 0 0 0 0 0 0 0 0 0 0 0 0 0 0 0 0.25 0"/>
<feBlend mode="normal" in2="shape" result="effect1_innerShadow_301_335"/>
</filter>
<filter id="filter5_d_301_335" x="1499.14" y="1447.44" width="98.543" height="85.9922" filterUnits="userSpaceOnUse" color-interpolation-filters="sRGB">
<feFlood flood-opacity="0" result="BackgroundImageFix"/>
<feColorMatrix in="SourceAlpha" type="matrix" values="0 0 0 0 0 0 0 0 0 0 0 0 0 0 0 0 0 0 127 0" result="hardAlpha"/>
<feOffset dy="4"/>
<feGaussianBlur stdDeviation="2"/>
<feComposite in2="hardAlpha" operator="out"/>
<feColorMatrix type="matrix" values="0 0 0 0 0 0 0 0 0 0 0 0 0 0 0 0 0 0 0.25 0"/>
<feBlend mode="normal" in2="BackgroundImageFix" result="effect1_dropShadow_301_335"/>
<feBlend mode="normal" in="SourceGraphic" in2="effect1_dropShadow_301_335" result="shape"/>
</filter>
<filter id="filter6_d_301_335" x="885" y="101" width="406.57" height="225.468" filterUnits="userSpaceOnUse" color-interpolation-filters="sRGB">
<feFlood flood-opacity="0" result="BackgroundImageFix"/>
<feColorMatrix in="SourceAlpha" type="matrix" values="0 0 0 0 0 0 0 0 0 0 0 0 0 0 0 0 0 0 127 0" result="hardAlpha"/>
<feOffset dy="8"/>
<feGaussianBlur stdDeviation="25"/>
<feComposite in2="hardAlpha" operator="out"/>
<feColorMatrix type="matrix" values="0 0 0 0 0 0 0 0 0 0 0 0 0 0 0 0 0 0 0.25 0"/>
<feBlend mode="normal" in2="BackgroundImageFix" result="effect1_dropShadow_301_335"/>
<feBlend mode="normal" in="SourceGraphic" in2="effect1_dropShadow_301_335" result="shape"/>
</filter>
<filter id="filter7_d_301_335" x="127" y="637" width="406.57" height="225.468" filterUnits="userSpaceOnUse" color-interpolation-filters="sRGB">
<feFlood flood-opacity="0" result="BackgroundImageFix"/>
<feColorMatrix in="SourceAlpha" type="matrix" values="0 0 0 0 0 0 0 0 0 0 0 0 0 0 0 0 0 0 127 0" result="hardAlpha"/>
<feOffset dy="8"/>
<feGaussianBlur stdDeviation="25"/>
<feComposite in2="hardAlpha" operator="out"/>
<feColorMatrix type="matrix" values="0 0 0 0 0 0 0 0 0 0 0 0 0 0 0 0 0 0 0.25 0"/>
<feBlend mode="normal" in2="BackgroundImageFix" result="effect1_dropShadow_301_335"/>
<feBlend mode="normal" in="SourceGraphic" in2="effect1_dropShadow_301_335" result="shape"/>
</filter>
<linearGradient id="paint0_linear_301_335" x1="833.921" y1="163.061" x2="833.921" y2="1583" gradientUnits="userSpaceOnUse">
<stop stop-color="#D4E9FF"/>
<stop offset="1" stop-color="#90C1F3"/>
</linearGradient>
<linearGradient id="paint1_linear_301_335" x1="520.348" y1="233.28" x2="726.725" y2="741.289" gradientUnits="userSpaceOnUse">
<stop offset="0.310417" stop-color="#DADADA"/>
<stop offset="1" stop-color="#818181"/>
</linearGradient>
<linearGradient id="paint2_linear_301_335" x1="817.157" y1="458.937" x2="1151.62" y2="1450.28" gradientUnits="userSpaceOnUse">
<stop stop-color="#273498"/>
<stop offset="0.53" stop-color="#0074C2"/>
<stop offset="1" stop-color="#00ABE7"/>
</linearGradient>
<linearGradient id="paint3_linear_301_335" x1="1725.69" y1="1300.14" x2="1918.36" y2="1351.09" gradientUnits="userSpaceOnUse">
<stop stop-color="#E8E6FF"/>
<stop offset="1" stop-color="#7C72F5"/>
</linearGradient>
<linearGradient id="paint4_linear_301_335" x1="1801.41" y1="1284.15" x2="1875.06" y2="1303.63" gradientUnits="userSpaceOnUse">
<stop stop-color="#8A83DF" stop-opacity="0.0802085"/>
<stop offset="1" stop-color="#8A83DF"/>
</linearGradient>
<linearGradient id="paint5_linear_301_335" x1="1763.24" y1="1297.79" x2="1859.29" y2="1323.19" gradientUnits="userSpaceOnUse">
<stop stop-color="#8A83DF" stop-opacity="0.0802085"/>
<stop offset="1" stop-color="#8A83DF"/>
</linearGradient>
<linearGradient id="paint6_linear_301_335" x1="1739.45" y1="1324.46" x2="1846.4" y2="1352.75" gradientUnits="userSpaceOnUse">
<stop stop-color="#8A83DF" stop-opacity="0.0802085"/>
<stop offset="1" stop-color="#8A83DF"/>
</linearGradient>
<linearGradient id="paint7_linear_301_335" x1="1725.61" y1="1351.12" x2="1831.02" y2="1379" gradientUnits="userSpaceOnUse">
<stop stop-color="#8A83DF" stop-opacity="0.0802085"/>
<stop offset="1" stop-color="#8A83DF"/>
</linearGradient>
<radialGradient id="paint8_radial_301_335" cx="0" cy="0" r="1" gradientUnits="userSpaceOnUse" gradientTransform="translate(1735.24 679.237) rotate(104.594) scale(120.716)">
<stop stop-color="#F08735"/>
<stop offset="0.0812499" stop-color="#F08D35"/>
<stop offset="0.746939" stop-color="#F0BC35"/>
</radialGradient>
</defs>
</svg>
