<svg width="2000" height="2000" viewBox="0 0 2000 2000" fill="none" xmlns="http://www.w3.org/2000/svg">
<g clip-path="url(#clip0_345_39)">
<path d="M972 195C591.2 217.4 493.333 460.333 492 579C828 908.333 1529.6 1556.6 1648 1515C1796 1463 1852 1295 1924 1011C1996 727 1808 439 1608 439C1408 439 1448 167 972 195Z" fill="#CFE6FF"/>
<path d="M1182.04 1528.74C1032.42 1582.95 825.322 1603.47 550.579 1596.72C669.016 1686.2 836.225 1797.47 1244 1811C1685.5 1825.65 2006.69 1403.3 1876 1311C1812 1265.8 1774 1384.99 1664 1447C1540.41 1516.67 1914.46 1134.42 1776 1063C1650.36 998.195 1421.93 1441.82 1182.04 1528.74Z" fill="#3372BC"/>
<mask id="mask0_345_39" style="mask-type:alpha" maskUnits="userSpaceOnUse" x="143" y="384" width="1129" height="1456">
<path d="M184 655C348 339 594.668 383 744.001 391L1272 1599C1152 1633.67 1020 1826.16 744 1839C400 1855 17.8463 1543 184 1183C280 975 93.6575 829.075 184 655Z" fill="#E3B97B"/>
</mask>
<g mask="url(#mask0_345_39)">
<rect x="-113" y="254" width="1269" height="1159" fill="#E3B97B"/>
<ellipse cx="380.64" cy="591.847" rx="6.34499" ry="5.79498" fill="#957259"/>
<ellipse cx="477.083" cy="398.295" rx="6.34499" ry="5.79498" fill="#957259"/>
<ellipse cx="248.667" cy="691.521" rx="6.34499" ry="5.79498" fill="#957259"/>
<ellipse cx="218.206" cy="876.96" rx="6.34499" ry="5.79498" fill="#957259"/>
<ellipse cx="730.884" cy="603.437" rx="6.34499" ry="5.79498" fill="#957259"/>
<ellipse cx="913.62" cy="633.571" rx="6.34499" ry="5.79498" fill="#957259"/>
<ellipse cx="1099.53" cy="836.396" rx="6.34499" ry="5.79498" fill="#957259"/>
<ellipse cx="555.763" cy="853.78" rx="6.34499" ry="5.79498" fill="#957259"/>
<ellipse cx="789.257" cy="941.864" rx="6.34499" ry="5.79498" fill="#957259"/>
<ellipse cx="1022.75" cy="1029.95" rx="6.34499" ry="5.79498" fill="#957259"/>
<ellipse cx="882.53" cy="1038.64" rx="3.1725" ry="2.89749" fill="#957259"/>
<ellipse cx="938.364" cy="933.171" rx="3.1725" ry="2.89749" fill="#957259"/>
<ellipse cx="869.84" cy="583.154" rx="3.1725" ry="2.89749" fill="#957259"/>
<ellipse cx="965.016" cy="555.338" rx="3.1725" ry="2.89749" fill="#957259"/>
<ellipse cx="730.883" cy="406.987" rx="3.1725" ry="2.89749" fill="#957259"/>
<ellipse cx="429.497" cy="435.962" rx="3.1725" ry="2.89749" fill="#957259"/>
<ellipse cx="168.717" cy="495.071" rx="3.1725" ry="2.89749" fill="#957259"/>
<ellipse cx="197.268" cy="846.247" rx="3.1725" ry="2.89749" fill="#957259"/>
<ellipse cx="255.645" cy="994.598" rx="3.1725" ry="2.89749" fill="#957259"/>
<ellipse cx="314.018" cy="1142.95" rx="3.1725" ry="2.89749" fill="#957259"/>
<ellipse cx="372.393" cy="1291.3" rx="3.1725" ry="2.89749" fill="#957259"/>
<ellipse cx="631.268" cy="1095.43" rx="3.1725" ry="2.89749" fill="#957259"/>
<ellipse cx="890.143" cy="899.561" rx="3.1725" ry="2.89749" fill="#957259"/>
<ellipse cx="971.36" cy="642.263" rx="3.1725" ry="2.89749" fill="#957259"/>
<ellipse cx="760.706" cy="639.366" rx="3.1725" ry="2.89749" fill="#957259"/>
<ellipse cx="550.053" cy="636.468" rx="3.1725" ry="2.89749" fill="#957259"/>
<ellipse cx="805.12" cy="700.792" rx="3.1725" ry="2.89749" fill="#957259"/>
<ellipse cx="767.049" cy="862.473" rx="3.1725" ry="2.89749" fill="#957259"/>
<ellipse cx="728.981" cy="1024.15" rx="3.1725" ry="2.89749" fill="#957259"/>
<ellipse cx="690.911" cy="1185.83" rx="3.1725" ry="2.89749" fill="#957259"/>
<ellipse cx="628.096" cy="845.087" rx="3.1725" ry="2.89749" fill="#957259"/>
<ellipse cx="486.6" cy="852.041" rx="3.1725" ry="2.89749" fill="#957259"/>
<ellipse cx="467.567" cy="642.263" rx="3.1725" ry="2.89749" fill="#957259"/>
<ellipse cx="550.053" cy="789.456" rx="3.1725" ry="2.89749" fill="#957259"/>
<ellipse cx="632.536" cy="936.648" rx="3.1725" ry="2.89749" fill="#957259"/>
<ellipse cx="715.022" cy="1083.84" rx="3.1725" ry="2.89749" fill="#957259"/>
<ellipse cx="461.223" cy="1011.4" rx="3.1725" ry="2.89749" fill="#957259"/>
<ellipse cx="446.63" cy="1086.16" rx="3.1725" ry="2.89749" fill="#957259"/>
<ellipse cx="207.423" cy="938.966" rx="3.1725" ry="2.89749" fill="#957259"/>
<ellipse cx="565.282" cy="902.458" rx="3.1725" ry="2.89749" fill="#957259"/>
<ellipse cx="571.628" cy="465.517" rx="3.1725" ry="2.89749" fill="#957259"/>
<ellipse cx="1110.31" cy="648.058" rx="3.1725" ry="2.89749" fill="#957259"/>
<ellipse cx="1096.36" cy="736.142" rx="3.1725" ry="2.89749" fill="#957259"/>
<ellipse cx="339.399" cy="633.571" rx="3.1725" ry="2.89749" fill="#957259"/>
<ellipse cx="1052.57" cy="384.966" rx="3.1725" ry="2.89749" fill="#957259"/>
<ellipse cx="673.147" cy="577.36" rx="3.1725" ry="2.89749" fill="#957259"/>
<ellipse cx="293.715" cy="769.753" rx="3.1725" ry="2.89749" fill="#957259"/>
<ellipse cx="190.924" cy="1080.36" rx="3.1725" ry="2.89749" fill="#957259"/>
<ellipse cx="329.247" cy="1139.47" rx="3.1725" ry="2.89749" fill="#957259"/>
<ellipse cx="467.567" cy="1198.58" rx="3.1725" ry="2.89749" fill="#957259"/>
<ellipse cx="826.696" cy="1195.68" rx="3.1725" ry="2.89749" fill="#957259"/>
<ellipse cx="938.364" cy="1297.1" rx="3.1725" ry="2.89749" fill="#957259"/>
<ellipse cx="694.083" cy="1363.16" rx="3.1725" ry="2.89749" fill="#957259"/>
<ellipse cx="660.454" cy="1302.89" rx="3.1725" ry="2.89749" fill="#957259"/>
<ellipse cx="449.799" cy="1429.22" rx="3.1725" ry="2.89749" fill="#957259"/>
<ellipse cx="754.362" cy="1256.53" rx="3.1725" ry="2.89749" fill="#957259"/>
<ellipse cx="1038.62" cy="1239.15" rx="3.1725" ry="2.89749" fill="#957259"/>
<ellipse cx="1093.18" cy="1233.35" rx="3.1725" ry="2.89749" fill="#957259"/>
<ellipse cx="274.044" cy="1349.25" rx="3.1725" ry="2.89749" fill="#957259"/>
<ellipse cx="1113.49" cy="1014.3" rx="3.1725" ry="2.89749" fill="#957259"/>
<ellipse cx="669.974" cy="1138.89" rx="6.34499" ry="5.79498" fill="#957259"/>
<ellipse cx="738.497" cy="1340.56" rx="6.34499" ry="5.79498" fill="#957259"/>
<ellipse cx="789.257" cy="1282.61" rx="6.34499" ry="5.79498" fill="#957259"/>
<ellipse cx="317.191" cy="1247.84" rx="6.34499" ry="5.79498" fill="#957259"/>
<ellipse cx="380.64" cy="1104.12" rx="6.34499" ry="5.79498" fill="#957259"/>
<ellipse cx="873.013" cy="1196.84" rx="6.34499" ry="5.79498" fill="#957259"/>
<ellipse cx="1068.44" cy="1282.61" rx="6.34499" ry="5.79498" fill="#957259"/>
<ellipse cx="205.519" cy="1354.47" rx="6.34499" ry="5.79498" fill="#957259"/>
<ellipse cx="974.532" cy="392.5" rx="6.34499" ry="5.79498" fill="#957259"/>
<rect x="18" y="894" width="1189.01" height="1044.38" fill="#E3B97B"/>
<ellipse cx="480.523" cy="1198.44" rx="5.94503" ry="5.22191" fill="#957259"/>
<ellipse cx="570.888" cy="1024.03" rx="5.94503" ry="5.22191" fill="#957259"/>
<ellipse cx="230.832" cy="1089.82" rx="5.94503" ry="5.22191" fill="#957259"/>
<ellipse cx="356.869" cy="1288.25" rx="5.94503" ry="5.22191" fill="#957259"/>
<ellipse cx="328.33" cy="1455.35" rx="5.94503" ry="5.22191" fill="#957259"/>
<ellipse cx="164.25" cy="1628.72" rx="5.94503" ry="5.22191" fill="#957259"/>
<ellipse cx="182.084" cy="1836.55" rx="5.94503" ry="5.22191" fill="#957259"/>
<ellipse cx="808.687" cy="1208.88" rx="5.94503" ry="5.22191" fill="#957259"/>
<ellipse cx="979.908" cy="1236.04" rx="5.94503" ry="5.22191" fill="#957259"/>
<ellipse cx="1154.1" cy="1418.8" rx="5.94503" ry="5.22191" fill="#957259"/>
<ellipse cx="644.605" cy="1434.47" rx="5.94503" ry="5.22191" fill="#957259"/>
<ellipse cx="863.383" cy="1513.84" rx="5.94503" ry="5.22191" fill="#957259"/>
<ellipse cx="1082.16" cy="1593.21" rx="5.94503" ry="5.22191" fill="#957259"/>
<ellipse cx="950.775" cy="1601.05" rx="2.97252" ry="2.61095" fill="#957259"/>
<ellipse cx="1003.09" cy="1506.01" rx="2.97252" ry="2.61095" fill="#957259"/>
<ellipse cx="938.887" cy="1190.6" rx="2.97252" ry="2.61095" fill="#957259"/>
<ellipse cx="1028.06" cy="1165.54" rx="2.97252" ry="2.61095" fill="#957259"/>
<ellipse cx="1091.08" cy="1005.75" rx="2.97252" ry="2.61095" fill="#957259"/>
<ellipse cx="808.689" cy="1031.86" rx="2.97252" ry="2.61095" fill="#957259"/>
<ellipse cx="526.301" cy="1057.97" rx="2.97252" ry="2.61095" fill="#957259"/>
<ellipse cx="281.961" cy="1111.23" rx="2.97252" ry="2.61095" fill="#957259"/>
<ellipse cx="144.629" cy="1026.64" rx="2.97252" ry="2.61095" fill="#957259"/>
<ellipse cx="199.324" cy="1160.32" rx="2.97252" ry="2.61095" fill="#957259"/>
<ellipse cx="254.017" cy="1294" rx="2.97252" ry="2.61095" fill="#957259"/>
<ellipse cx="308.713" cy="1427.68" rx="2.97252" ry="2.61095" fill="#957259"/>
<ellipse cx="363.406" cy="1561.36" rx="2.97252" ry="2.61095" fill="#957259"/>
<ellipse cx="418.099" cy="1695.04" rx="2.97252" ry="2.61095" fill="#957259"/>
<ellipse cx="472.797" cy="1828.72" rx="2.97252" ry="2.61095" fill="#957259"/>
<ellipse cx="715.353" cy="1652.22" rx="2.97252" ry="2.61095" fill="#957259"/>
<ellipse cx="957.91" cy="1475.72" rx="2.97252" ry="2.61095" fill="#957259"/>
<ellipse cx="1034.01" cy="1243.87" rx="2.97252" ry="2.61095" fill="#957259"/>
<ellipse cx="836.631" cy="1241.26" rx="2.97252" ry="2.61095" fill="#957259"/>
<ellipse cx="639.256" cy="1238.65" rx="2.97252" ry="2.61095" fill="#957259"/>
<ellipse cx="878.246" cy="1296.61" rx="2.97252" ry="2.61095" fill="#957259"/>
<ellipse cx="842.576" cy="1442.3" rx="2.97252" ry="2.61095" fill="#957259"/>
<ellipse cx="806.906" cy="1587.99" rx="2.97252" ry="2.61095" fill="#957259"/>
<ellipse cx="771.234" cy="1733.68" rx="2.97252" ry="2.61095" fill="#957259"/>
<ellipse cx="712.381" cy="1426.63" rx="2.97252" ry="2.61095" fill="#957259"/>
<ellipse cx="579.805" cy="1432.9" rx="2.97252" ry="2.61095" fill="#957259"/>
<ellipse cx="561.971" cy="1243.87" rx="2.97252" ry="2.61095" fill="#957259"/>
<ellipse cx="639.256" cy="1376.5" rx="2.97252" ry="2.61095" fill="#957259"/>
<ellipse cx="716.543" cy="1509.14" rx="2.97252" ry="2.61095" fill="#957259"/>
<ellipse cx="793.828" cy="1641.78" rx="2.97252" ry="2.61095" fill="#957259"/>
<ellipse cx="556.025" cy="1576.5" rx="2.97252" ry="2.61095" fill="#957259"/>
<ellipse cx="542.353" cy="1643.86" rx="2.97252" ry="2.61095" fill="#957259"/>
<ellipse cx="318.224" cy="1511.23" rx="2.97252" ry="2.61095" fill="#957259"/>
<ellipse cx="653.525" cy="1478.33" rx="2.97252" ry="2.61095" fill="#957259"/>
<ellipse cx="659.473" cy="1084.6" rx="2.97252" ry="2.61095" fill="#957259"/>
<ellipse cx="561.971" cy="972.851" rx="2.97252" ry="2.61095" fill="#957259"/>
<ellipse cx="799.771" cy="967.629" rx="2.97252" ry="2.61095" fill="#957259"/>
<ellipse cx="236.777" cy="1037.08" rx="2.97252" ry="2.61095" fill="#957259"/>
<ellipse cx="205.265" cy="992.693" rx="2.97252" ry="2.61095" fill="#957259"/>
<ellipse cx="1164.2" cy="1249.09" rx="2.97252" ry="2.61095" fill="#957259"/>
<ellipse cx="1151.12" cy="1328.46" rx="2.97252" ry="2.61095" fill="#957259"/>
<ellipse cx="441.881" cy="1236.03" rx="2.97252" ry="2.61095" fill="#957259"/>
<ellipse cx="1110.1" cy="1012.01" rx="2.97252" ry="2.61095" fill="#957259"/>
<ellipse cx="754.59" cy="1185.38" rx="2.97252" ry="2.61095" fill="#957259"/>
<ellipse cx="399.076" cy="1358.75" rx="2.97252" ry="2.61095" fill="#957259"/>
<ellipse cx="173.164" cy="1585.38" rx="2.97252" ry="2.61095" fill="#957259"/>
<ellipse cx="302.765" cy="1638.64" rx="2.97252" ry="2.61095" fill="#957259"/>
<ellipse cx="432.369" cy="1691.91" rx="2.97252" ry="2.61095" fill="#957259"/>
<ellipse cx="561.971" cy="1745.17" rx="2.97252" ry="2.61095" fill="#957259"/>
<ellipse cx="898.461" cy="1742.56" rx="2.97252" ry="2.61095" fill="#957259"/>
<ellipse cx="1003.09" cy="1833.94" rx="2.97252" ry="2.61095" fill="#957259"/>
<ellipse cx="742.699" cy="1839.16" rx="2.97252" ry="2.61095" fill="#957259"/>
<ellipse cx="830.687" cy="1797.39" rx="2.97252" ry="2.61095" fill="#957259"/>
<ellipse cx="1097.03" cy="1781.72" rx="2.97252" ry="2.61095" fill="#957259"/>
<ellipse cx="1148.15" cy="1776.5" rx="2.97252" ry="2.61095" fill="#957259"/>
<ellipse cx="173.164" cy="1751.44" rx="2.97252" ry="2.61095" fill="#957259"/>
<ellipse cx="196.349" cy="1797.39" rx="2.97252" ry="2.61095" fill="#957259"/>
<ellipse cx="224.889" cy="1836.55" rx="2.97252" ry="2.61095" fill="#957259"/>
<ellipse cx="1167.17" cy="1579.11" rx="2.97252" ry="2.61095" fill="#957259"/>
<ellipse cx="751.619" cy="1691.39" rx="5.94503" ry="5.22191" fill="#957259"/>
<ellipse cx="863.383" cy="1820.89" rx="5.94503" ry="5.22191" fill="#957259"/>
<ellipse cx="421.072" cy="1789.56" rx="5.94503" ry="5.22191" fill="#957259"/>
<ellipse cx="480.523" cy="1660.05" rx="5.94503" ry="5.22191" fill="#957259"/>
<ellipse cx="941.859" cy="1743.6" rx="5.94503" ry="5.22191" fill="#957259"/>
<ellipse cx="1124.97" cy="1820.89" rx="5.94503" ry="5.22191" fill="#957259"/>
<ellipse cx="875.275" cy="997.916" rx="5.94503" ry="5.22191" fill="#957259"/>
<ellipse cx="1036.98" cy="1018.8" rx="5.94503" ry="5.22191" fill="#957259"/>
</g>
<circle cx="1598" cy="600" r="245" fill="url(#paint0_linear_345_39)"/>
<circle cx="1000" cy="1000" r="700" fill="#5568A3"/>
<circle cx="1000" cy="1000" r="624" fill="#7991C7"/>
<circle cx="1000" cy="1000" r="619" stroke="white" stroke-opacity="0.5" stroke-width="10"/>
<g style="mix-blend-mode:multiply" opacity="0.3">
<path d="M1565 1415C1410 1625 1182 1700 1005 1700C504.5 1707.5 108.001 1160 397 646C415.999 672 500.002 1204 821.001 1386C1192 1582 1565 1415 1565 1415Z" fill="#3C4F9A"/>
</g>
<path d="M1307.82 1400H1244L1001.96 1031.95L756.302 1400H693L968.447 983.012L717.514 600H782.575L1002.99 936.905L1228.17 600H1289.2L1035.58 981.901L1307.82 1400Z" fill="white"/>
<path d="M753.506 958.648H1249.37V1004.15H753.506V958.648ZM753.506 1095.15H1249.47V1140.65H753.506V1095.15Z" fill="white"/>
<path d="M1072 1631C884 1631 817.885 1613.01 622.759 1586.9C756.567 1743.11 1060.07 1903.7 1448.51 1878.86C1673.21 1864.49 1956.62 1615.48 1840 1531C1733.25 1453.67 1568.19 1713.65 1449 1666.82C1344.75 1625.86 1590.57 1572.61 1500 1507C1394.88 1430.85 1296.32 1631 1072 1631Z" fill="#418FE8"/>
<mask id="mask1_345_39" style="mask-type:alpha" maskUnits="userSpaceOnUse" x="315" y="1434" width="493" height="490">
<path d="M787.667 1774.59C735.489 1898.53 591.889 1956.37 466.921 1903.76C341.954 1851.15 282.955 1708.02 335.132 1584.08C387.31 1460.14 530.91 1402.3 655.878 1454.91C780.845 1507.52 839.844 1650.65 787.667 1774.59Z" fill="#D9D9D9" stroke="black"/>
</mask>
<g mask="url(#mask1_345_39)">
<path d="M816.054 1564.11C805.091 1554.07 685.473 1554.71 678.924 1557.38L668.448 1582.26C695.711 1615.44 756.369 1687.85 780.896 1712.06C805.422 1736.27 834.028 1725.03 845.265 1716.37C839.182 1668.97 824.825 1572.14 816.054 1564.11Z" fill="#E6EEF2"/>
<g filter="url(#filter0_i_345_39)">
<path d="M591.604 1434.9C624.552 1461.79 650.352 1531.61 659.134 1563.15L653.314 1576.98L523.654 1567.96L301.69 1641.61L275.59 1585.05L431.143 1434.62C470.902 1423.51 558.657 1408.01 591.604 1434.9Z" fill="#DF2D2D"/>
</g>
<g filter="url(#filter1_i_345_39)">
<path d="M644.243 1554.71L545.765 1412.35C568.24 1415.66 625.53 1425.97 674.892 1440.67C724.254 1455.38 797.393 1507.07 827.792 1531.08C829.006 1556.55 826.593 1601.97 807.228 1579.93C787.863 1557.89 721.903 1563.54 691.344 1569.12L644.243 1554.71Z" fill="#4784BC"/>
</g>
<g filter="url(#filter2_i_345_39)">
<path d="M349.707 1573.94C432.011 1516.58 585.483 1551.68 649.481 1573.19C633.459 1600.08 589.745 1664.58 543.065 1707.42C496.384 1750.26 406.007 1827.66 366.653 1861L291.363 1730.57C278.151 1704.4 267.404 1631.3 349.707 1573.94Z" fill="#E6EEF2"/>
</g>
<g filter="url(#filter3_i_345_39)">
<path d="M659.486 1781.39C676.123 1719.81 683.247 1657.93 678.54 1620.15C665.264 1611.3 648.464 1594.68 687.464 1598.95C726.464 1603.22 791.177 1670.46 817.469 1702.5C807.705 1736.01 776.031 1813.31 736.957 1862.83C697.883 1912.34 613.898 1927.48 580.477 1930.41C610.21 1898.44 634.219 1874.91 659.486 1781.39Z" fill="#4784BC"/>
</g>
<g filter="url(#filter4_i_345_39)">
<path d="M423.206 1752.44C494.069 1643.39 577.596 1604.78 632.456 1580.13L671.31 1578.04C675.676 1583.14 683.74 1616.04 681.067 1706.93C678.395 1797.81 615.546 1897.79 584.455 1936.42C573.638 1942.35 537.986 1950.93 481.911 1937.73C425.836 1924.54 382.938 1895.35 368.498 1882.4C371.845 1871.87 376.11 1824.92 423.206 1752.44Z" fill="#DF2D2D"/>
</g>
<g filter="url(#filter5_d_345_39)">
<ellipse cx="662.411" cy="1582.43" rx="46.5" ry="37.5" transform="rotate(22.8302 662.411 1582.43)" fill="#E6EEF2"/>
</g>
</g>
<g filter="url(#filter6_d_345_39)">
<path d="M815.093 255.468H1113.09C1118.09 243.968 1124.69 227.868 1107.09 205.468C1089.49 183.068 1059.43 175.135 1044.09 178.468C1044.76 161.801 1027.09 125.468 978.093 130.468C942.323 134.118 932.426 160.135 933.093 187.468C932.426 180.135 921.11 161.462 897.094 170.468C873.094 179.468 871.093 200.135 873.093 215.468C870.426 210.135 863.894 200.668 835.094 205.468C813.095 209.135 807.76 240.801 815.093 255.468Z" fill="#EAF4FF"/>
</g>
<path d="M1496 313C1415 311.667 1251 313 1239 313C1244.33 304.333 1239 284 1278 284C1299.54 284 1299 275.5 1313 270.5C1324.72 266.314 1345 271.167 1353 278.5C1349.33 272.167 1359.54 255 1392.5 255C1431.5 255 1431.5 267.5 1431.5 284C1445.5 265 1470.01 264.03 1485.5 278.5C1495.79 288.113 1501.33 304.667 1496 313Z" fill="white"/>
<path d="M1998 1001C1917 999.667 1753 1001 1741 1001C1746.33 992.333 1741 972 1780 972C1801.54 972 1801 963.5 1815 958.5C1826.72 954.314 1847 959.167 1855 966.5C1851.33 960.167 1861.54 943 1894.5 943C1933.5 943 1933.5 955.5 1933.5 972C1947.5 953 1972.01 952.03 1987.5 966.5C1997.79 976.113 2003.33 992.667 1998 1001Z" fill="white"/>
<path d="M271.451 1308.32C302.017 1323.78 299.605 1388.89 294.578 1419.51C306.054 1417.93 327.467 1417.12 324.727 1427.48C320.17 1444.71 306.962 1441.21 302.943 1440.15C304.843 1443.42 312.059 1458.6 305.697 1468.07C298.859 1478.24 290.603 1468.22 282.504 1465.16C282.724 1470.13 285.042 1490.41 274.53 1495.31C264.017 1500.21 259.777 1494.17 256.718 1485.99C254.549 1491.87 246.624 1508.2 234.201 1504.92C220.419 1501.27 224.422 1484.97 228.279 1471.55C202.237 1479.41 126.003 1460.6 123.535 1443.85C121.067 1427.1 135.201 1422.97 140.656 1424.42C131.02 1417.87 120.154 1410.24 128.081 1393.9C136.008 1377.57 149 1383.92 157.201 1390.08C149.641 1379.18 140.482 1356.08 152.721 1346.04C164.96 1336.01 180.934 1347.97 188.468 1355.5C182.842 1345.41 175.174 1323.87 192.602 1313.73C210.029 1303.6 224.553 1318.96 228.819 1328.38C231.256 1313.36 240.886 1292.86 271.451 1308.32Z" fill="url(#paint1_linear_345_39)"/>
<path d="M270.372 1421.82C270.372 1421.82 236.923 1314.82 231.705 1317.13C231.705 1317.13 229.654 1324.88 228.793 1324.65C226.503 1324.05 223.041 1318.52 219.392 1316.64C218.601 1316.23 270.372 1421.82 270.372 1421.82Z" fill="url(#paint2_linear_345_39)"/>
<path d="M258.187 1427.82C258.187 1427.82 187.046 1344.85 183.081 1342.42L185.135 1348.59L187.334 1354.24C187.334 1354.24 180.6 1348.31 176.951 1346.43C176.16 1346.02 258.187 1427.82 258.187 1427.82Z" fill="url(#paint3_linear_345_39)"/>
<path d="M248.78 1444.22C248.78 1444.22 154.666 1380.16 152.056 1381.32L156.377 1389.37C156.377 1389.37 148.878 1384.62 149.942 1385.83C151.447 1387.53 248.78 1444.22 248.78 1444.22Z" fill="url(#paint4_linear_345_39)"/>
<path d="M236.69 1458.01C236.69 1458.01 137.814 1419.48 135.205 1420.64L139.056 1423.5C139.056 1423.5 132.192 1425.06 132.546 1425.46C134.052 1427.16 236.69 1458.01 236.69 1458.01Z" fill="url(#paint5_linear_345_39)"/>
<path d="M271.451 1308.32C302.017 1323.78 299.605 1388.89 294.578 1419.51C306.054 1417.93 327.467 1417.12 324.727 1427.48C320.17 1444.71 306.962 1441.21 302.943 1440.15C304.843 1443.42 312.059 1458.6 305.697 1468.07C298.859 1478.24 290.603 1468.22 282.504 1465.16C282.724 1470.13 285.042 1490.41 274.53 1495.31C264.017 1500.21 259.777 1494.17 256.718 1485.99C254.549 1491.87 246.624 1508.2 234.201 1504.92C220.419 1501.27 224.422 1484.97 228.279 1471.55C202.237 1479.41 126.003 1460.6 123.535 1443.85C121.067 1427.1 135.201 1422.97 140.656 1424.42C131.02 1417.87 120.154 1410.24 128.081 1393.9C136.008 1377.57 149 1383.92 157.201 1390.08C149.641 1379.18 140.482 1356.08 152.721 1346.04C164.96 1336.01 180.934 1347.97 188.468 1355.5C182.842 1345.41 175.174 1323.87 192.602 1313.73C210.029 1303.6 224.553 1318.96 228.819 1328.38C231.256 1313.36 240.886 1292.86 271.451 1308.32Z" fill="url(#paint6_linear_345_39)"/>
<path d="M270.372 1421.82C270.372 1421.82 236.923 1314.82 231.705 1317.13C231.705 1317.13 229.654 1324.88 228.793 1324.65C226.503 1324.05 223.041 1318.52 219.392 1316.64C218.601 1316.23 270.372 1421.82 270.372 1421.82Z" fill="url(#paint7_linear_345_39)"/>
<path d="M258.187 1427.82C258.187 1427.82 187.046 1344.85 183.081 1342.42L185.135 1348.59L187.334 1354.24C187.334 1354.24 180.6 1348.31 176.951 1346.43C176.16 1346.02 258.187 1427.82 258.187 1427.82Z" fill="url(#paint8_linear_345_39)"/>
<path d="M248.78 1444.22C248.78 1444.22 154.666 1380.16 152.056 1381.32L156.377 1389.37C156.377 1389.37 148.878 1384.62 149.942 1385.83C151.447 1387.53 248.78 1444.22 248.78 1444.22Z" fill="url(#paint9_linear_345_39)"/>
<path d="M236.69 1458.01C236.69 1458.01 137.814 1419.48 135.205 1420.64L139.056 1423.5C139.056 1423.5 132.192 1425.06 132.546 1425.46C134.052 1427.16 236.69 1458.01 236.69 1458.01Z" fill="url(#paint10_linear_345_39)"/>
<path d="M180.273 953.954C188.268 946.795 200.976 950.103 204.464 960.252L216.236 994.498C217.408 997.907 219.768 1000.78 222.885 1002.59L254.196 1020.78C263.475 1026.18 264.255 1039.28 255.681 1045.74L226.749 1067.52C223.869 1069.68 221.866 1072.82 221.107 1076.34L213.48 1111.74C211.22 1122.23 198.995 1127.02 190.207 1120.86L160.555 1100.08C157.603 1098.01 154.004 1097.07 150.418 1097.44L114.394 1101.12C103.718 1102.22 95.3817 1092.07 98.5248 1081.81L109.13 1047.19C110.186 1043.74 109.965 1040.03 108.508 1036.73L93.8705 1003.61C89.5324 993.791 96.606 982.728 107.337 982.546L143.543 981.933C147.148 981.872 150.61 980.515 153.295 978.11L180.273 953.954Z" fill="url(#paint11_radial_345_39)"/>
<circle cx="172.176" cy="1036.32" r="8.38221" transform="rotate(14.594 172.176 1036.32)" fill="white"/>
<circle cx="178.933" cy="1010.36" r="6.70577" transform="rotate(14.594 178.933 1010.36)" fill="white"/>
<circle cx="152.317" cy="1029.42" r="6.70577" transform="rotate(14.594 152.317 1029.42)" fill="white"/>
<circle cx="155.749" cy="1052.83" r="6.70577" transform="rotate(14.594 155.749 1052.83)" fill="white"/>
<circle cx="193.089" cy="1039.17" r="6.70577" transform="rotate(14.594 193.089 1039.17)" fill="white"/>
<circle cx="180.085" cy="1059.17" r="6.70577" transform="rotate(14.594 180.085 1059.17)" fill="white"/>
<circle cx="184.426" cy="989.271" r="5.02933" transform="rotate(14.594 184.426 989.271)" fill="white"/>
<circle cx="136.76" cy="1019.3" r="5.02933" transform="rotate(14.594 136.76 1019.3)" fill="white"/>
<circle cx="125.861" cy="1011.27" r="3.35288" transform="rotate(14.594 125.861 1011.27)" fill="white"/>
<circle cx="224.046" cy="1033.37" r="3.35288" transform="rotate(14.594 224.046 1033.37)" fill="white"/>
<circle cx="196.037" cy="1091.04" r="3.35288" transform="rotate(14.594 196.037 1091.04)" fill="white"/>
<circle cx="188.015" cy="975.481" r="3.35288" transform="rotate(14.594 188.015 975.481)" fill="white"/>
<circle cx="126.277" cy="1072.87" r="3.35288" transform="rotate(14.594 126.277 1072.87)" fill="white"/>
<circle cx="140.592" cy="1064.48" r="5.02933" transform="rotate(14.594 140.592 1064.48)" fill="white"/>
<circle cx="209.768" cy="1038.31" r="5.02933" transform="rotate(14.594 209.768 1038.31)" fill="white"/>
<circle cx="189.262" cy="1077.15" r="5.02933" transform="rotate(14.594 189.262 1077.15)" fill="white"/>
</g>
<defs>
<filter id="filter0_i_345_39" x="275.59" y="1419.98" width="403.545" height="229.629" filterUnits="userSpaceOnUse" color-interpolation-filters="sRGB">
<feFlood flood-opacity="0" result="BackgroundImageFix"/>
<feBlend mode="normal" in="SourceGraphic" in2="BackgroundImageFix" result="shape"/>
<feColorMatrix in="SourceAlpha" type="matrix" values="0 0 0 0 0 0 0 0 0 0 0 0 0 0 0 0 0 0 127 0" result="hardAlpha"/>
<feOffset dx="20" dy="8"/>
<feGaussianBlur stdDeviation="10"/>
<feComposite in2="hardAlpha" operator="arithmetic" k2="-1" k3="1"/>
<feColorMatrix type="matrix" values="0 0 0 0 0 0 0 0 0 0 0 0 0 0 0 0 0 0 0.25 0"/>
<feBlend mode="normal" in2="shape" result="effect1_innerShadow_345_39"/>
</filter>
<filter id="filter1_i_345_39" x="545.764" y="1412.35" width="290.289" height="181.436" filterUnits="userSpaceOnUse" color-interpolation-filters="sRGB">
<feFlood flood-opacity="0" result="BackgroundImageFix"/>
<feBlend mode="normal" in="SourceGraphic" in2="BackgroundImageFix" result="shape"/>
<feColorMatrix in="SourceAlpha" type="matrix" values="0 0 0 0 0 0 0 0 0 0 0 0 0 0 0 0 0 0 127 0" result="hardAlpha"/>
<feOffset dx="8" dy="8"/>
<feGaussianBlur stdDeviation="4"/>
<feComposite in2="hardAlpha" operator="arithmetic" k2="-1" k3="1"/>
<feColorMatrix type="matrix" values="0 0 0 0 0 0 0 0 0 0 0 0 0 0 0 0 0 0 0.25 0"/>
<feBlend mode="normal" in2="shape" result="effect1_innerShadow_345_39"/>
</filter>
<filter id="filter2_i_345_39" x="282.277" y="1542.7" width="367.203" height="326.305" filterUnits="userSpaceOnUse" color-interpolation-filters="sRGB">
<feFlood flood-opacity="0" result="BackgroundImageFix"/>
<feBlend mode="normal" in="SourceGraphic" in2="BackgroundImageFix" result="shape"/>
<feColorMatrix in="SourceAlpha" type="matrix" values="0 0 0 0 0 0 0 0 0 0 0 0 0 0 0 0 0 0 127 0" result="hardAlpha"/>
<feOffset dy="10"/>
<feGaussianBlur stdDeviation="4"/>
<feComposite in2="hardAlpha" operator="arithmetic" k2="-1" k3="1"/>
<feColorMatrix type="matrix" values="0 0 0 0 0 0 0 0 0 0 0 0 0 0 0 0 0 0 0.25 0"/>
<feBlend mode="normal" in2="shape" result="effect1_innerShadow_345_39"/>
</filter>
<filter id="filter3_i_345_39" x="580.477" y="1598.26" width="236.992" height="340.144" filterUnits="userSpaceOnUse" color-interpolation-filters="sRGB">
<feFlood flood-opacity="0" result="BackgroundImageFix"/>
<feBlend mode="normal" in="SourceGraphic" in2="BackgroundImageFix" result="shape"/>
<feColorMatrix in="SourceAlpha" type="matrix" values="0 0 0 0 0 0 0 0 0 0 0 0 0 0 0 0 0 0 127 0" result="hardAlpha"/>
<feOffset dy="8"/>
<feGaussianBlur stdDeviation="4"/>
<feComposite in2="hardAlpha" operator="arithmetic" k2="-1" k3="1"/>
<feColorMatrix type="matrix" values="0 0 0 0 0 0 0 0 0 0 0 0 0 0 0 0 0 0 0.25 0"/>
<feBlend mode="normal" in2="shape" result="effect1_innerShadow_345_39"/>
</filter>
<filter id="filter4_i_345_39" x="368.498" y="1578.04" width="321.1" height="374.643" filterUnits="userSpaceOnUse" color-interpolation-filters="sRGB">
<feFlood flood-opacity="0" result="BackgroundImageFix"/>
<feBlend mode="normal" in="SourceGraphic" in2="BackgroundImageFix" result="shape"/>
<feColorMatrix in="SourceAlpha" type="matrix" values="0 0 0 0 0 0 0 0 0 0 0 0 0 0 0 0 0 0 127 0" result="hardAlpha"/>
<feOffset dx="8" dy="8"/>
<feGaussianBlur stdDeviation="10"/>
<feComposite in2="hardAlpha" operator="arithmetic" k2="-1" k3="1"/>
<feColorMatrix type="matrix" values="0 0 0 0 0 0 0 0 0 0 0 0 0 0 0 0 0 0 0.25 0"/>
<feBlend mode="normal" in2="shape" result="effect1_innerShadow_345_39"/>
</filter>
<filter id="filter5_d_345_39" x="613.139" y="1543.44" width="98.543" height="85.9922" filterUnits="userSpaceOnUse" color-interpolation-filters="sRGB">
<feFlood flood-opacity="0" result="BackgroundImageFix"/>
<feColorMatrix in="SourceAlpha" type="matrix" values="0 0 0 0 0 0 0 0 0 0 0 0 0 0 0 0 0 0 127 0" result="hardAlpha"/>
<feOffset dy="4"/>
<feGaussianBlur stdDeviation="2"/>
<feComposite in2="hardAlpha" operator="out"/>
<feColorMatrix type="matrix" values="0 0 0 0 0 0 0 0 0 0 0 0 0 0 0 0 0 0 0.25 0"/>
<feBlend mode="normal" in2="BackgroundImageFix" result="effect1_dropShadow_345_39"/>
<feBlend mode="normal" in="SourceGraphic" in2="effect1_dropShadow_345_39" result="shape"/>
</filter>
<filter id="filter6_d_345_39" x="762" y="88" width="406.57" height="225.468" filterUnits="userSpaceOnUse" color-interpolation-filters="sRGB">
<feFlood flood-opacity="0" result="BackgroundImageFix"/>
<feColorMatrix in="SourceAlpha" type="matrix" values="0 0 0 0 0 0 0 0 0 0 0 0 0 0 0 0 0 0 127 0" result="hardAlpha"/>
<feOffset dy="8"/>
<feGaussianBlur stdDeviation="25"/>
<feComposite in2="hardAlpha" operator="out"/>
<feColorMatrix type="matrix" values="0 0 0 0 0 0 0 0 0 0 0 0 0 0 0 0 0 0 0.25 0"/>
<feBlend mode="normal" in2="BackgroundImageFix" result="effect1_dropShadow_345_39"/>
<feBlend mode="normal" in="SourceGraphic" in2="effect1_dropShadow_345_39" result="shape"/>
</filter>
<linearGradient id="paint0_linear_345_39" x1="1598" y1="355" x2="1598" y2="845" gradientUnits="userSpaceOnUse">
<stop stop-color="#EACA49"/>
<stop offset="1" stop-color="#EAA049"/>
</linearGradient>
<linearGradient id="paint1_linear_345_39" x1="132.691" y1="1374.14" x2="325.358" y2="1425.09" gradientUnits="userSpaceOnUse">
<stop stop-color="#E8E6FF"/>
<stop offset="1" stop-color="#7C72F5"/>
</linearGradient>
<linearGradient id="paint2_linear_345_39" x1="208.405" y1="1358.15" x2="282.061" y2="1377.63" gradientUnits="userSpaceOnUse">
<stop stop-color="#8A83DF" stop-opacity="0.0802085"/>
<stop offset="1" stop-color="#8A83DF"/>
</linearGradient>
<linearGradient id="paint3_linear_345_39" x1="170.238" y1="1371.79" x2="266.288" y2="1397.19" gradientUnits="userSpaceOnUse">
<stop stop-color="#8A83DF" stop-opacity="0.0802085"/>
<stop offset="1" stop-color="#8A83DF"/>
</linearGradient>
<linearGradient id="paint4_linear_345_39" x1="146.451" y1="1398.46" x2="253.401" y2="1426.75" gradientUnits="userSpaceOnUse">
<stop stop-color="#8A83DF" stop-opacity="0.0802085"/>
<stop offset="1" stop-color="#8A83DF"/>
</linearGradient>
<linearGradient id="paint5_linear_345_39" x1="132.612" y1="1425.12" x2="238.015" y2="1453" gradientUnits="userSpaceOnUse">
<stop stop-color="#8A83DF" stop-opacity="0.0802085"/>
<stop offset="1" stop-color="#8A83DF"/>
</linearGradient>
<linearGradient id="paint6_linear_345_39" x1="132.691" y1="1374.14" x2="325.358" y2="1425.09" gradientUnits="userSpaceOnUse">
<stop stop-color="#E8E6FF"/>
<stop offset="1" stop-color="#7C72F5"/>
</linearGradient>
<linearGradient id="paint7_linear_345_39" x1="208.405" y1="1358.15" x2="282.061" y2="1377.63" gradientUnits="userSpaceOnUse">
<stop stop-color="#8A83DF" stop-opacity="0.0802085"/>
<stop offset="1" stop-color="#8A83DF"/>
</linearGradient>
<linearGradient id="paint8_linear_345_39" x1="170.238" y1="1371.79" x2="266.288" y2="1397.19" gradientUnits="userSpaceOnUse">
<stop stop-color="#8A83DF" stop-opacity="0.0802085"/>
<stop offset="1" stop-color="#8A83DF"/>
</linearGradient>
<linearGradient id="paint9_linear_345_39" x1="146.451" y1="1398.46" x2="253.401" y2="1426.75" gradientUnits="userSpaceOnUse">
<stop stop-color="#8A83DF" stop-opacity="0.0802085"/>
<stop offset="1" stop-color="#8A83DF"/>
</linearGradient>
<linearGradient id="paint10_linear_345_39" x1="132.612" y1="1425.12" x2="238.015" y2="1453" gradientUnits="userSpaceOnUse">
<stop stop-color="#8A83DF" stop-opacity="0.0802085"/>
<stop offset="1" stop-color="#8A83DF"/>
</linearGradient>
<radialGradient id="paint11_radial_345_39" cx="0" cy="0" r="1" gradientUnits="userSpaceOnUse" gradientTransform="translate(171.243 1038.24) rotate(104.594) scale(102.682)">
<stop stop-color="#F08735"/>
<stop offset="0.0812499" stop-color="#F08D35"/>
<stop offset="0.746939" stop-color="#F0BC35"/>
</radialGradient>
<clipPath id="clip0_345_39">
<rect width="2000" height="2000" fill="white"/>
</clipPath>
</defs>
</svg>
